<svg width="63" height="60" viewBox="0 0 63 60" fill="none" xmlns="http://www.w3.org/2000/svg">
<path d="M44.4442 46.6667V42.2223C44.4442 39.8648 43.5077 37.6039 41.8407 35.9369C40.1737 34.2699 37.9128 33.3334 35.5553 33.3334H17.7776C15.4201 33.3334 13.1592 34.2699 11.4922 35.9369C9.82518 37.6039 8.88867 39.8648 8.88867 42.2223V46.6667" stroke="#636E95" stroke-width="4" stroke-linecap="round" stroke-linejoin="round"/>
<path d="M26.6667 24.4444C31.5759 24.4444 35.5556 20.4647 35.5556 15.5555C35.5556 10.6463 31.5759 6.66663 26.6667 6.66663C21.7575 6.66663 17.7778 10.6463 17.7778 15.5555C17.7778 20.4647 21.7575 24.4444 26.6667 24.4444Z" stroke="#636E95" stroke-width="4" stroke-linecap="round" stroke-linejoin="round"/>
<path d="M48.8889 57.7778C55.0254 57.7778 60.0001 52.8032 60.0001 46.6667C60.0001 40.5302 55.0254 35.5555 48.8889 35.5555C42.7524 35.5555 37.7778 40.5302 37.7778 46.6667C37.7778 52.8032 42.7524 57.7778 48.8889 57.7778Z" fill="white" stroke="#0062FF" stroke-width="2" stroke-linecap="round" stroke-linejoin="round"/>
<path d="M48.8892 42.2223V51.1112" stroke="#0062FF" stroke-width="2" stroke-linecap="round" stroke-linejoin="round"/>
<path d="M44.4443 46.6667H53.3332" stroke="#0062FF" stroke-width="2" stroke-linecap="round" stroke-linejoin="round"/>
</svg>
