<svg width="63" height="60" viewBox="0 0 63 60" fill="none" xmlns="http://www.w3.org/2000/svg">
<path d="M48.8888 24.6223V26.6667C48.8861 31.4588 47.3343 36.1215 44.4651 39.9597C41.5958 43.7978 37.5628 46.6055 32.9674 47.9643C28.372 49.323 23.4605 49.1598 18.9654 47.4991C14.4703 45.8384 10.6325 42.7692 8.02425 38.7491C5.41604 34.729 4.17721 29.9735 4.49251 25.1918C4.80781 20.4102 6.66035 15.8585 9.77385 12.2158C12.8873 8.57297 17.095 6.03422 21.7692 4.97814C26.4434 3.92206 31.3338 4.40523 35.711 6.35559" stroke="#636E95" stroke-width="4" stroke-linecap="round" stroke-linejoin="round"/>
<path d="M48.8889 8.88892L26.6667 31.1334L20 24.4667" stroke="#636E95" stroke-width="4" stroke-linecap="round" stroke-linejoin="round"/>
<path d="M48.8889 57.7778C55.0254 57.7778 60.0001 52.8032 60.0001 46.6667C60.0001 40.5302 55.0254 35.5555 48.8889 35.5555C42.7524 35.5555 37.7778 40.5302 37.7778 46.6667C37.7778 52.8032 42.7524 57.7778 48.8889 57.7778Z" fill="white" stroke="#0062FF" stroke-width="2" stroke-linecap="round" stroke-linejoin="round"/>
<path d="M48.8892 42.2223V51.1112" stroke="#0062FF" stroke-width="2" stroke-linecap="round" stroke-linejoin="round"/>
<path d="M44.4443 46.6667H53.3332" stroke="#0062FF" stroke-width="2" stroke-linecap="round" stroke-linejoin="round"/>
</svg>
