<svg width="63" height="60" viewBox="0 0 63 60" fill="none" xmlns="http://www.w3.org/2000/svg">
<g clip-path="url(#clip0)">
<path d="M20.0001 48.8889C21.2274 48.8889 22.2223 47.894 22.2223 46.6667C22.2223 45.4394 21.2274 44.4445 20.0001 44.4445C18.7728 44.4445 17.7778 45.4394 17.7778 46.6667C17.7778 47.894 18.7728 48.8889 20.0001 48.8889Z" stroke="#636E95" stroke-width="4" stroke-linecap="round" stroke-linejoin="round"/>
<path d="M44.4444 48.8889C45.6717 48.8889 46.6666 47.894 46.6666 46.6667C46.6666 45.4394 45.6717 44.4445 44.4444 44.4445C43.2171 44.4445 42.2222 45.4394 42.2222 46.6667C42.2222 47.894 43.2171 48.8889 44.4444 48.8889Z" stroke="#636E95" stroke-width="4" stroke-linecap="round" stroke-linejoin="round"/>
<path d="M2.22217 2.22217H11.1111L17.0666 31.9777C17.2698 33.0008 17.8264 33.9199 18.6389 34.5739C19.4515 35.228 20.4682 35.5755 21.5111 35.5555H43.1111C44.154 35.5755 45.1707 35.228 45.9832 34.5739C46.7957 33.9199 47.3523 33.0008 47.5555 31.9777L51.1111 13.3333H13.3333" stroke="#636E95" stroke-width="4" stroke-linecap="round" stroke-linejoin="round"/>
</g>
<path d="M47.7778 37.7778H40.0001C39.4107 37.7778 38.8455 38.012 38.4287 38.4287C38.012 38.8455 37.7778 39.4107 37.7778 40.0001V55.5556C37.7778 56.145 38.012 56.7102 38.4287 57.127C38.8455 57.5437 39.4107 57.7778 40.0001 57.7778H55.5556C56.145 57.7778 56.7102 57.5437 57.127 57.127C57.5437 56.7102 57.7778 56.145 57.7778 55.5556V47.7778" fill="white"/>
<path d="M47.7778 37.7778H40.0001C39.4107 37.7778 38.8455 38.012 38.4287 38.4287C38.012 38.8455 37.7778 39.4107 37.7778 40.0001V55.5556C37.7778 56.145 38.012 56.7102 38.4287 57.127C38.8455 57.5437 39.4107 57.7778 40.0001 57.7778H55.5556C56.145 57.7778 56.7102 57.5437 57.127 57.127C57.5437 56.7102 57.7778 56.145 57.7778 55.5556V47.7778" stroke="#0062FF" stroke-width="2" stroke-linecap="round" stroke-linejoin="round"/>
<path d="M56.111 36.1111C56.553 35.6691 57.1525 35.4208 57.7777 35.4208C58.4028 35.4208 59.0023 35.6691 59.4443 36.1111C59.8864 36.5532 60.1347 37.1527 60.1347 37.7778C60.1347 38.4029 59.8864 39.0024 59.4443 39.4445L48.8888 50L44.4443 51.1111L45.5554 46.6667L56.111 36.1111Z" stroke="#0062FF" stroke-width="2" stroke-linecap="round" stroke-linejoin="round"/>
<defs>
<clipPath id="clip0">
<rect width="53.3333" height="53.3333" fill="white"/>
</clipPath>
</defs>
</svg>
