<svg width="51" height="57" viewBox="0 0 51 57" fill="none" xmlns="http://www.w3.org/2000/svg">
<path d="M23.5 43.0834C34.3155 43.0834 43.0833 34.3157 43.0833 23.5001C43.0833 12.6845 34.3155 3.91675 23.5 3.91675C12.6844 3.91675 3.91663 12.6845 3.91663 23.5001C3.91663 34.3157 12.6844 43.0834 23.5 43.0834Z" stroke="#636E95" stroke-width="3.91667" stroke-linecap="round" stroke-linejoin="round"/>
<path d="M23.5 35.25C29.9893 35.25 35.25 29.9893 35.25 23.5C35.25 17.0107 29.9893 11.75 23.5 11.75C17.0107 11.75 11.75 17.0107 11.75 23.5C11.75 29.9893 17.0107 35.25 23.5 35.25Z" stroke="#636E95" stroke-width="3.91667" stroke-linecap="round" stroke-linejoin="round"/>
<path d="M23.5 27.4166C25.6632 27.4166 27.4167 25.663 27.4167 23.4999C27.4167 21.3368 25.6632 19.5833 23.5 19.5833C21.3369 19.5833 19.5834 21.3368 19.5834 23.4999C19.5834 25.663 21.3369 27.4166 23.5 27.4166Z" stroke="#636E95" stroke-width="3.91667" stroke-linecap="round" stroke-linejoin="round"/>
<path d="M37.3333 54.4444C43.4698 54.4444 48.4444 49.4698 48.4444 43.3333C48.4444 37.1968 43.4698 32.2222 37.3333 32.2222C31.1968 32.2222 26.2222 37.1968 26.2222 43.3333C26.2222 49.4698 31.1968 54.4444 37.3333 54.4444Z" fill="white" stroke="#0062FF" stroke-width="2" stroke-linecap="round" stroke-linejoin="round"/>
<path d="M37.3334 38.8889V47.7778" stroke="#0062FF" stroke-width="2" stroke-linecap="round" stroke-linejoin="round"/>
<path d="M32.8889 43.3333H41.7778" stroke="#0062FF" stroke-width="2" stroke-linecap="round" stroke-linejoin="round"/>
</svg>
