<svg width="200" height="118" viewBox="0 0 200 118" fill="none" xmlns="http://www.w3.org/2000/svg">
<path fill-rule="evenodd" clip-rule="evenodd" d="M172.304 17.6495C172.67 17.6495 172.966 17.3513 172.966 16.9835C172.966 16.6156 172.67 16.3174 172.304 16.3174C171.939 16.3174 171.643 16.6156 171.643 16.9835C171.643 17.3513 171.939 17.6495 172.304 17.6495ZM172.966 19.6478C172.966 20.0156 172.67 20.3139 172.304 20.3139C171.939 20.3139 171.643 20.0156 171.643 19.6478C171.643 19.2799 171.939 18.9817 172.304 18.9817C172.67 18.9817 172.966 19.2799 172.966 19.6478ZM172.304 22.9782C172.67 22.9782 172.966 22.68 172.966 22.3121C172.966 21.9442 172.67 21.646 172.304 21.646C171.939 21.646 171.643 21.9442 171.643 22.3121C171.643 22.68 171.939 22.9782 172.304 22.9782ZM172.966 24.9764C172.966 25.3443 172.67 25.6425 172.304 25.6425C171.939 25.6425 171.643 25.3443 171.643 24.9764C171.643 24.6086 171.939 24.3103 172.304 24.3103C172.67 24.3103 172.966 24.6086 172.966 24.9764ZM172.304 28.3068C172.67 28.3068 172.966 28.0086 172.966 27.6407C172.966 27.2729 172.67 26.9747 172.304 26.9747C171.939 26.9747 171.643 27.2729 171.643 27.6407C171.643 28.0086 171.939 28.3068 172.304 28.3068ZM172.304 30.9711C172.67 30.9711 172.966 30.6729 172.966 30.3051C172.966 29.9372 172.67 29.639 172.304 29.639C171.939 29.639 171.643 29.9372 171.643 30.3051C171.643 30.6729 171.939 30.9711 172.304 30.9711ZM175.612 30.3051C175.612 30.6729 175.316 30.9711 174.95 30.9711C174.585 30.9711 174.289 30.6729 174.289 30.3051C174.289 29.9372 174.585 29.639 174.95 29.639C175.316 29.639 175.612 29.9372 175.612 30.3051ZM174.95 28.3068C175.316 28.3068 175.612 28.0086 175.612 27.6407C175.612 27.2729 175.316 26.9747 174.95 26.9747C174.585 26.9747 174.289 27.2729 174.289 27.6407C174.289 28.0086 174.585 28.3068 174.95 28.3068ZM175.612 24.9764C175.612 25.3443 175.316 25.6425 174.95 25.6425C174.585 25.6425 174.289 25.3443 174.289 24.9764C174.289 24.6086 174.585 24.3103 174.95 24.3103C175.316 24.3103 175.612 24.6086 175.612 24.9764ZM174.95 22.9782C175.316 22.9782 175.612 22.68 175.612 22.3121C175.612 21.9442 175.316 21.646 174.95 21.646C174.585 21.646 174.289 21.9442 174.289 22.3121C174.289 22.68 174.585 22.9782 174.95 22.9782ZM175.612 19.6478C175.612 20.0156 175.316 20.3139 174.95 20.3139C174.585 20.3139 174.289 20.0156 174.289 19.6478C174.289 19.2799 174.585 18.9817 174.95 18.9817C175.316 18.9817 175.612 19.2799 175.612 19.6478ZM174.95 17.6495C175.316 17.6495 175.612 17.3513 175.612 16.9835C175.612 16.6156 175.316 16.3174 174.95 16.3174C174.585 16.3174 174.289 16.6156 174.289 16.9835C174.289 17.3513 174.585 17.6495 174.95 17.6495ZM178.258 30.3051C178.258 30.6729 177.962 30.9711 177.596 30.9711C177.231 30.9711 176.935 30.6729 176.935 30.3051C176.935 29.9372 177.231 29.639 177.596 29.639C177.962 29.639 178.258 29.9372 178.258 30.3051ZM177.596 28.3068C177.962 28.3068 178.258 28.0086 178.258 27.6407C178.258 27.2729 177.962 26.9747 177.596 26.9747C177.231 26.9747 176.935 27.2729 176.935 27.6407C176.935 28.0086 177.231 28.3068 177.596 28.3068ZM178.258 24.9764C178.258 25.3443 177.962 25.6425 177.596 25.6425C177.231 25.6425 176.935 25.3443 176.935 24.9764C176.935 24.6086 177.231 24.3103 177.596 24.3103C177.962 24.3103 178.258 24.6086 178.258 24.9764ZM177.596 22.9782C177.962 22.9782 178.258 22.68 178.258 22.3121C178.258 21.9442 177.962 21.646 177.596 21.646C177.231 21.646 176.935 21.9442 176.935 22.3121C176.935 22.68 177.231 22.9782 177.596 22.9782ZM178.258 19.6478C178.258 20.0156 177.962 20.3139 177.596 20.3139C177.231 20.3139 176.935 20.0156 176.935 19.6478C176.935 19.2799 177.231 18.9817 177.596 18.9817C177.962 18.9817 178.258 19.2799 178.258 19.6478ZM177.596 17.6495C177.962 17.6495 178.258 17.3513 178.258 16.9835C178.258 16.6156 177.962 16.3174 177.596 16.3174C177.231 16.3174 176.935 16.6156 176.935 16.9835C176.935 17.3513 177.231 17.6495 177.596 17.6495ZM180.904 30.3051C180.904 30.6729 180.608 30.9711 180.242 30.9711C179.877 30.9711 179.581 30.6729 179.581 30.3051C179.581 29.9372 179.877 29.639 180.242 29.639C180.608 29.639 180.904 29.9372 180.904 30.3051ZM180.242 28.3068C180.608 28.3068 180.904 28.0086 180.904 27.6407C180.904 27.2729 180.608 26.9747 180.242 26.9747C179.877 26.9747 179.581 27.2729 179.581 27.6407C179.581 28.0086 179.877 28.3068 180.242 28.3068ZM180.904 24.9764C180.904 25.3443 180.608 25.6425 180.242 25.6425C179.877 25.6425 179.581 25.3443 179.581 24.9764C179.581 24.6086 179.877 24.3103 180.242 24.3103C180.608 24.3103 180.904 24.6086 180.904 24.9764ZM180.242 22.9782C180.608 22.9782 180.904 22.68 180.904 22.3121C180.904 21.9442 180.608 21.646 180.242 21.646C179.877 21.646 179.581 21.9442 179.581 22.3121C179.581 22.68 179.877 22.9782 180.242 22.9782ZM180.904 19.6478C180.904 20.0156 180.608 20.3139 180.242 20.3139C179.877 20.3139 179.581 20.0156 179.581 19.6478C179.581 19.2799 179.877 18.9817 180.242 18.9817C180.608 18.9817 180.904 19.2799 180.904 19.6478ZM180.242 17.6495C180.608 17.6495 180.904 17.3513 180.904 16.9835C180.904 16.6156 180.608 16.3174 180.242 16.3174C179.877 16.3174 179.581 16.6156 179.581 16.9835C179.581 17.3513 179.877 17.6495 180.242 17.6495ZM183.55 30.3051C183.55 30.6729 183.254 30.9711 182.888 30.9711C182.523 30.9711 182.227 30.6729 182.227 30.3051C182.227 29.9372 182.523 29.639 182.888 29.639C183.254 29.639 183.55 29.9372 183.55 30.3051ZM182.888 28.3068C183.254 28.3068 183.55 28.0086 183.55 27.6407C183.55 27.2729 183.254 26.9747 182.888 26.9747C182.523 26.9747 182.227 27.2729 182.227 27.6407C182.227 28.0086 182.523 28.3068 182.888 28.3068ZM183.55 24.9764C183.55 25.3443 183.254 25.6425 182.888 25.6425C182.523 25.6425 182.227 25.3443 182.227 24.9764C182.227 24.6086 182.523 24.3103 182.888 24.3103C183.254 24.3103 183.55 24.6086 183.55 24.9764ZM182.888 22.9782C183.254 22.9782 183.55 22.68 183.55 22.3121C183.55 21.9442 183.254 21.646 182.888 21.646C182.523 21.646 182.227 21.9442 182.227 22.3121C182.227 22.68 182.523 22.9782 182.888 22.9782ZM183.55 19.6478C183.55 20.0156 183.254 20.3139 182.888 20.3139C182.523 20.3139 182.227 20.0156 182.227 19.6478C182.227 19.2799 182.523 18.9817 182.888 18.9817C183.254 18.9817 183.55 19.2799 183.55 19.6478ZM182.888 17.6495C183.254 17.6495 183.55 17.3513 183.55 16.9835C183.55 16.6156 183.254 16.3174 182.888 16.3174C182.523 16.3174 182.227 16.6156 182.227 16.9835C182.227 17.3513 182.523 17.6495 182.888 17.6495ZM186.196 30.3051C186.196 30.6729 185.899 30.9711 185.534 30.9711C185.169 30.9711 184.873 30.6729 184.873 30.3051C184.873 29.9372 185.169 29.639 185.534 29.639C185.899 29.639 186.196 29.9372 186.196 30.3051ZM185.534 28.3068C185.899 28.3068 186.196 28.0086 186.196 27.6407C186.196 27.2729 185.899 26.9747 185.534 26.9747C185.169 26.9747 184.873 27.2729 184.873 27.6407C184.873 28.0086 185.169 28.3068 185.534 28.3068ZM186.196 24.9764C186.196 25.3443 185.899 25.6425 185.534 25.6425C185.169 25.6425 184.873 25.3443 184.873 24.9764C184.873 24.6086 185.169 24.3103 185.534 24.3103C185.899 24.3103 186.196 24.6086 186.196 24.9764ZM185.534 22.9782C185.899 22.9782 186.196 22.68 186.196 22.3121C186.196 21.9442 185.899 21.646 185.534 21.646C185.169 21.646 184.873 21.9442 184.873 22.3121C184.873 22.68 185.169 22.9782 185.534 22.9782ZM186.196 19.6478C186.196 20.0156 185.899 20.3139 185.534 20.3139C185.169 20.3139 184.873 20.0156 184.873 19.6478C184.873 19.2799 185.169 18.9817 185.534 18.9817C185.899 18.9817 186.196 19.2799 186.196 19.6478ZM185.534 17.6495C185.899 17.6495 186.196 17.3513 186.196 16.9835C186.196 16.6156 185.899 16.3174 185.534 16.3174C185.169 16.3174 184.873 16.6156 184.873 16.9835C184.873 17.3513 185.169 17.6495 185.534 17.6495Z" fill="#FC5A5A"/>
<path d="M171.193 52.7295C179.313 52.7295 185.896 46.1004 185.896 37.9229C185.896 29.7454 179.313 23.1162 171.193 23.1162C163.072 23.1162 156.489 29.7454 156.489 37.9229C156.489 46.1004 163.072 52.7295 171.193 52.7295Z" fill="#FAFAFB"/>
<path d="M102.776 2.71924C111.062 2.71924 117.779 9.48369 117.779 17.8281V24.9292H82.6707C74.3843 24.9292 67.6669 18.1648 67.6669 9.82039V2.71924H102.776Z" fill="#F1F1F5"/>
<path d="M116.729 117.849C116.729 99.9916 131.056 85.5156 148.729 85.5156C166.402 85.5156 180.728 99.9916 180.728 117.849H116.729Z" fill="#FC5A5A"/>
<path d="M29.8575 98.2337C21.4132 102.074 14.6622 102.026 9.6044 98.0878C4.54662 94.1501 1.34515 88.5428 0 81.2661C15.8098 76.4852 25.7622 82.1411 29.8575 98.2337Z" fill="url(#paint0_linear)"/>
<path d="M17.3891 91.3285C15.5666 90.2873 13.54 89.1336 11.3095 87.8672L6.13533 89.1149C6.04354 89.137 5.95137 89.0798 5.92947 88.987C5.90757 88.8942 5.96423 88.8011 6.05602 88.779L10.8705 87.618C8.08657 86.0381 4.99238 84.2869 1.58792 82.3645C1.50554 82.318 1.47607 82.2128 1.5221 82.1295C1.56813 82.0462 1.67223 82.0165 1.75461 82.063C7.97076 85.5731 13.1525 88.5124 17.3002 90.881L16.7651 85.5804C16.7419 85.3514 17.0819 85.3163 17.105 85.5454L17.6648 91.0893C23.1947 94.2489 26.8312 96.3636 28.575 97.4339C28.6556 97.4834 28.6813 97.5896 28.6323 97.6711C28.5833 97.7526 28.4782 97.7786 28.3976 97.7291C27.3542 97.0887 25.6304 96.0728 23.2263 94.6814C23.22 94.6847 23.2134 94.6876 23.2065 94.6902L18.478 96.4353C18.3894 96.468 18.2913 96.4219 18.2589 96.3323C18.2265 96.2428 18.2721 96.1436 18.3608 96.1109L22.8397 94.4579C21.3031 93.5698 19.5044 92.537 17.4438 91.3597C17.4239 91.353 17.4053 91.3427 17.3891 91.3285Z" fill="white"/>
<path d="M27.9666 103.042C19.2864 99.7306 14.5338 94.8847 13.7087 88.5045C12.8836 82.1242 14.5453 75.8903 18.6939 69.8027C33.2558 77.7011 36.3467 88.7809 27.9666 103.042Z" fill="#97A0C3"/>
<path d="M24.3906 89.3393C26.0862 95.5241 27.1753 99.6174 27.6583 101.62C27.6807 101.713 27.6246 101.806 27.5332 101.829C27.4417 101.851 27.3495 101.795 27.3271 101.702C27.0381 100.504 26.5312 98.5538 25.8065 95.8525C25.7997 95.8503 25.793 95.8477 25.7864 95.8445L21.2327 93.6999C21.1473 93.6597 21.1103 93.557 21.15 93.4706C21.1897 93.3841 21.2911 93.3466 21.3764 93.3868L25.6899 95.4183C25.2258 93.6925 24.6778 91.6773 24.046 89.3727C24.0366 89.3537 24.0307 89.3331 24.0292 89.3115C23.4703 87.2733 22.846 85.0097 22.1565 82.5207L17.6356 79.706C17.5554 79.656 17.5303 79.5497 17.5797 79.4685C17.629 79.3872 17.7339 79.3619 17.8141 79.4118L22.0207 82.0309C21.1597 78.9249 20.1994 75.4761 19.1397 71.6846C19.114 71.5928 19.1667 71.4974 19.2572 71.4714C19.3478 71.4454 19.442 71.4988 19.4677 71.5905C21.4026 78.5134 23.0063 84.2937 24.2788 88.9317L27.6012 84.8019C27.7448 84.6235 28.0091 84.8416 27.8655 85.02L24.3906 89.3393Z" fill="white"/>
<path d="M36.6092 109.02C29.4409 114.942 22.9124 116.663 17.0234 114.182C11.1345 111.701 6.61032 107.12 3.45087 100.441C17.4878 91.681 28.5406 94.5407 36.6092 109.02Z" fill="#242F57"/>
<path d="M22.9812 105.175C29.1275 106.776 33.1788 107.864 35.1359 108.44C35.2264 108.467 35.2784 108.563 35.2519 108.654C35.2255 108.745 35.1307 108.797 35.0402 108.771C33.8692 108.426 31.9453 107.897 29.2687 107.184C29.2634 107.189 29.2578 107.194 29.2518 107.198L25.1343 110.112C25.0571 110.167 24.9506 110.148 24.8964 110.07C24.8423 109.992 24.8609 109.885 24.9381 109.83L28.8384 107.07C27.1278 106.615 25.1274 106.09 22.8371 105.493C22.8162 105.492 22.7955 105.487 22.7763 105.477C20.7507 104.95 18.4993 104.367 16.0221 103.729L11.3471 106.28C11.2642 106.326 11.1606 106.295 11.1157 106.211C11.0708 106.127 11.1017 106.023 11.1846 105.977L15.5346 103.604C12.4431 102.808 9.00832 101.928 5.23021 100.965C5.13878 100.941 5.08342 100.848 5.10654 100.756C5.12966 100.663 5.22252 100.608 5.31394 100.631C12.2124 102.39 17.9663 103.87 22.576 105.069L20.7029 100.104C20.6219 99.8892 20.9411 99.7667 21.0221 99.9813L22.9812 105.175Z" fill="white"/>
<path d="M28.6572 31.2749H114.179C115.836 31.2749 117.179 32.6278 117.179 34.2967V114.888C117.179 116.557 115.836 117.91 114.179 117.91H28.6572C26.9999 117.91 25.6564 116.557 25.6564 114.888V34.2967C25.6564 32.6278 26.9999 31.2749 28.6572 31.2749Z" fill="#FAFAFB"/>
<path fill-rule="evenodd" clip-rule="evenodd" d="M31.6579 51.0674H46.6616V66.1762H31.6579V51.0674ZM31.6579 73.7306H46.6616V88.8395H31.6579V73.7306ZM46.6616 96.3939H31.6579V111.503H46.6616V96.3939ZM74.4186 51.0674H89.4223V66.1762H74.4186V51.0674ZM89.4223 73.7306H74.4186V88.8395H89.4223V73.7306ZM74.4186 96.3939H89.4223V111.503H74.4186V96.3939ZM68.117 51.0674H53.1133V66.1762H68.117V51.0674ZM53.1133 96.3939H68.117V111.503H53.1133V96.3939ZM110.878 51.0674H95.874V66.1762H110.878V51.0674ZM95.874 73.7306H110.878V88.8395H95.874V73.7306ZM110.878 96.3939H95.874V111.503H110.878V96.3939Z" fill="#0062FF"/>
<path d="M53.1133 73.731H68.117V88.8398H53.1133V73.731Z" fill="#FC5A5A"/>
<path d="M28.6572 31.2749H114.179C115.836 31.2749 117.179 32.6278 117.179 34.2967V45.175H25.6564V34.2967C25.6564 32.6278 26.9999 31.2749 28.6572 31.2749Z" fill="#242F57"/>
<path d="M64.7777 77.583L65.8487 78.6411L59.1243 85.5433L55.438 81.8935L56.4899 80.8162L59.1052 83.4055L64.7777 77.583Z" fill="white"/>
<path d="M36.159 55.6002C50.5773 55.6002 62.2656 43.8301 62.2656 29.3109C62.2656 14.7916 50.5773 3.02148 36.159 3.02148C21.7408 3.02148 10.0525 14.7916 10.0525 29.3109C10.0525 43.8301 21.7408 55.6002 36.159 55.6002Z" fill="#FC5A5A"/>
<path d="M36.2341 50.7653C47.9592 50.7653 57.4644 41.1936 57.4644 29.3863C57.4644 17.579 47.9592 8.00732 36.2341 8.00732C24.5089 8.00732 15.0038 17.579 15.0038 29.3863C15.0038 41.1936 24.5089 50.7653 36.2341 50.7653Z" fill="#FAFAFB"/>
<path d="M17.573 29.8628C17.573 18.2435 26.9268 8.82422 38.4653 8.82422C40.6439 8.82422 42.7446 9.16001 44.7191 9.78301C52.221 13.0804 57.4644 20.6167 57.4644 29.3862C57.4644 41.1935 47.9592 50.7652 36.2341 50.7652C36.1792 50.7652 36.1244 50.765 36.0697 50.7646C25.6594 49.5678 17.573 40.6663 17.573 29.8628Z" fill="#FAFAFB"/>
<path d="M45.7207 20.4161C46.2901 19.8099 47.2397 19.7831 47.8417 20.3565C48.4438 20.9298 48.4703 21.8861 47.901 22.4924L35.1962 36.0211C34.7332 36.5141 34.0006 36.6358 33.4048 36.3186L24.9551 31.8198C24.2226 31.4298 23.9427 30.5156 24.33 29.778C24.7173 29.0403 25.6251 28.7585 26.3577 29.1485L33.7994 33.1106L45.7207 20.4161Z" fill="#FC5A5A"/>
<path d="M101.67 59.3322L181.668 37.7465C183.589 37.2282 185.564 38.3762 186.078 40.3106L199.747 91.6815C200.262 93.6159 199.122 95.6043 197.201 96.1226L117.203 117.708C115.282 118.227 113.307 117.079 112.792 115.144L99.1233 63.7733C98.6086 61.8389 99.7486 59.8506 101.67 59.3322Z" fill="url(#paint1_linear)"/>
<path d="M148.814 75.3926L197.201 96.1228L117.203 117.708L148.814 75.3926Z" fill="url(#paint2_linear)"/>
<path d="M101.67 59.3323L181.668 37.7466L151.073 83.8825L101.67 59.3323Z" fill="url(#paint3_linear)"/>
<path d="M133.926 50.6286L131.417 41.1997L131.936 37.5781L142.461 41.4031L147.414 46.9892L133.926 50.6286Z" fill="#242F57"/>
<path d="M124.93 25.7056L128.886 27.9232L128.469 31.417L132.389 34.6505L131.38 37.2982L126.259 34.0874C124.674 33.0937 123.863 31.2178 124.22 29.3724L124.93 25.7056Z" fill="#FC5A5A"/>
<path d="M129.92 13.8345L132.015 21.7075L128.242 28.9757L124.124 25.8783L126.614 16.5374L129.92 13.8345Z" fill="#FC5A5A"/>
<path d="M155.317 60.8716L155.37 58.4019L158.723 58.7248L158.216 61.4677L155.317 60.8716Z" fill="#FC5A5A"/>
<path d="M141.564 11.3658L165.602 4.87949L166.373 3.08154L166.768 4.56513L169.708 3.7716C169.843 5.42112 169.542 6.54933 168.805 7.15625C168.068 7.76316 166.857 8.08987 165.172 8.13637L143.149 17.3252L141.564 11.3658Z" fill="#FC5A5A"/>
<path d="M134.529 13.6449L130.058 14.0388L129.908 12.316C128.745 10.8258 128.258 8.65701 128.447 5.80951C128.636 2.96202 130.776 2.01742 134.867 2.97572C135.116 4.5874 135.627 5.57407 136.4 5.93573C137.559 6.47821 137.3 7.10276 136.93 7.32304C136.56 7.54331 136.336 7.88199 136.534 8.81188C136.731 9.74178 136.178 9.97807 135.323 10.4276C134.753 10.7274 134.488 11.7998 134.529 13.6449Z" fill="#FC5A5A"/>
<path d="M132.89 38.6236L145.749 37.27L159.581 38.3643C159.861 38.3864 160.137 38.4356 160.407 38.5114C162.722 39.1605 164.077 41.5765 163.432 43.9076L159.138 59.4361L154.826 59.0904L155.902 44.8081L143.548 48.1417C138.288 49.5608 132.883 46.4179 131.474 41.1219L132.89 38.6236Z" fill="#0062FF"/>
<path d="M154.959 60.5947L158.355 60.8939L160.443 61.8063C161.493 62.2884 162.392 62.5266 162.287 63.7375C162.26 64.0485 162.033 64.2826 161.781 64.2604L155.413 63.6994C155.016 63.6644 154.723 63.3127 154.758 62.9137L154.959 60.5947Z" fill="#242F57"/>
<path d="M129.845 12.2849C129.428 12.2284 129.152 12.0381 129.017 11.7138C128.814 11.2275 129.053 10.9245 127.825 10.1128C126.597 9.30108 125.488 8.10902 125.57 5.56732C125.652 3.02562 127.034 2.49907 128.43 2.0464C129.826 1.59373 130.442 1.62675 132.252 0.528294C134.061 -0.570165 135.339 0.483499 135.359 2.54001C135.378 4.59652 132.42 5.20485 131.887 5.25184C131.353 5.29882 131.787 6.02144 132.022 6.81308C132.257 7.60472 131.787 7.89638 131.574 7.82578C131.362 7.75518 130.935 7.71397 130.675 8.23993C130.415 8.7659 130.927 9.38983 131.22 9.36402C131.513 9.33821 131.872 9.16834 131.959 9.49092C132.046 9.81351 132.102 10.855 131.89 11.4607C131.748 11.8644 131.067 12.1392 129.845 12.2849Z" fill="#242F57"/>
<path d="M143.623 9.78174L145.521 16.9183L140.479 18.2789L145.565 37.3922L131.419 41.2091L126.065 21.0888C125.164 17.7036 127.159 14.224 130.521 13.3169C131.157 13.1453 131.793 12.9736 132.429 12.802C133.74 12.4482 137.471 11.4414 143.623 9.78174Z" fill="#FC5A5A"/>
<path fill-rule="evenodd" clip-rule="evenodd" d="M138.455 40.4744L138.558 40.3643L139.324 41.088L139.221 41.1982L138.455 40.4744ZM140.315 42.2321L140.418 42.1219L140.709 42.3968C140.865 42.5448 141.03 42.6828 141.203 42.8102L141.114 42.9321C140.937 42.801 140.767 42.6591 140.606 42.507L140.315 42.2321ZM142.504 43.5155L142.452 43.6572C142.785 43.7816 143.13 43.873 143.482 43.9301L143.506 43.7809C143.164 43.7254 142.828 43.6365 142.504 43.5155ZM145.002 43.9617L144.984 43.8116L145.018 43.8075L146.026 43.6798L146.045 43.8297L145.036 43.9574L145.002 43.9617ZM147.515 43.4913L147.533 43.6412L148.575 43.5093L148.557 43.3594L147.515 43.4913ZM150.064 43.3208L150.045 43.1709L151.087 43.0389L151.106 43.1888L150.064 43.3208ZM152.576 42.8504L152.595 43.0003L153.637 42.8684L153.618 42.7185L152.576 42.8504ZM155.125 42.6799L155.107 42.53L156.149 42.398L156.167 42.5479L155.125 42.6799ZM157.667 42.3551L157.631 42.5017C157.966 42.5858 158.271 42.7537 158.521 42.9885L158.623 42.8781C158.355 42.6259 158.028 42.4454 157.667 42.3551ZM159.154 44.2651L159.303 44.2492C159.322 44.428 159.319 44.6095 159.293 44.7909L159.215 45.3274L159.066 45.3055L159.144 44.7692C159.168 44.6005 159.171 44.4315 159.154 44.2651ZM158.997 46.8223L158.849 46.8004L158.697 47.8468L158.845 47.8687L158.997 46.8223ZM158.479 49.3417L158.627 49.3636L158.475 50.4101L158.327 50.3882L158.479 49.3417ZM158.258 51.905L158.109 51.8831L157.957 52.9295L158.105 52.9514L158.258 51.905ZM157.739 54.4244L157.888 54.4463L157.735 55.4928L157.587 55.4709L157.739 54.4244ZM157.518 56.9877L157.369 56.9658L157.217 58.0122L157.366 58.0341L157.518 56.9877Z" fill="white"/>
<defs>
<linearGradient id="paint0_linear" x1="3.15762e-07" y1="79.9441" x2="15.6076" y2="108.789" gradientUnits="userSpaceOnUse">
<stop stop-color="#2975FE"/>
<stop offset="1" stop-color="#8393FF"/>
</linearGradient>
<linearGradient id="paint1_linear" x1="98.9998" y1="38.8205" x2="160.446" y2="141.44" gradientUnits="userSpaceOnUse">
<stop stop-color="#2975FE"/>
<stop offset="1" stop-color="#8393FF"/>
</linearGradient>
<linearGradient id="paint2_linear" x1="117.203" y1="76.0248" x2="142.487" y2="139.502" gradientUnits="userSpaceOnUse">
<stop stop-color="#2975FE"/>
<stop offset="1" stop-color="#8393FF"/>
</linearGradient>
<linearGradient id="paint3_linear" x1="101.67" y1="38.4359" x2="130.968" y2="105.9" gradientUnits="userSpaceOnUse">
<stop stop-color="#2975FE"/>
<stop offset="1" stop-color="#8393FF"/>
</linearGradient>
</defs>
</svg>
