<svg width="200" height="119" viewBox="0 0 200 119" fill="none" xmlns="http://www.w3.org/2000/svg">
<path fill-rule="evenodd" clip-rule="evenodd" d="M0 25.6461C0 39.8097 11.5021 51.2923 25.6915 51.2923C39.881 51.2923 51.383 39.8097 51.383 25.6461C51.383 11.4826 39.881 0 25.6915 0C11.5021 0 0 11.4826 0 25.6461ZM39.2157 25.6461C39.2157 33.1042 33.1603 39.1494 25.6915 39.1494C18.2227 39.1494 12.1673 33.1042 12.1673 25.6461C12.1673 18.1881 18.2227 12.1429 25.6915 12.1429C33.1603 12.1429 39.2157 18.1881 39.2157 25.6461Z" fill="url(#paint0_linear)"/>
<path d="M106.16 9.5625H141.749V16.6964C141.749 25.0793 134.94 31.875 126.54 31.875H90.9506V24.7411C90.9506 16.3582 97.7599 9.5625 106.16 9.5625Z" fill="#FAFAFB"/>
<path d="M150.19 29.8794C153.834 15.7474 162.689 10.7806 176.757 14.979C175.56 21.3692 172.711 26.2933 168.211 29.7512C163.71 33.2092 157.703 33.2519 150.19 29.8794Z" fill="#242F57"/>
<path d="M161.05 23.575L161.549 18.7019C161.569 18.5006 161.872 18.5314 161.851 18.7327L161.375 23.392C165.067 21.3099 169.679 18.7263 175.212 15.6409C175.286 15.6 175.378 15.6262 175.419 15.6994C175.46 15.7725 175.434 15.865 175.361 15.9059C172.33 17.5957 169.576 19.135 167.098 20.5238L171.384 21.5442C171.465 21.5637 171.516 21.6456 171.496 21.7271C171.477 21.8086 171.395 21.859 171.313 21.8395L166.707 20.7428C164.722 21.8559 162.918 22.8701 161.296 23.7853C161.281 23.7977 161.265 23.8069 161.247 23.8128C159.413 24.8476 157.812 25.7554 156.444 26.536L160.431 27.989C160.51 28.0178 160.55 28.1049 160.522 28.1837C160.493 28.2624 160.405 28.3029 160.327 28.2742L156.118 26.7402C156.112 26.738 156.106 26.7354 156.1 26.7325C153.96 27.9555 152.426 28.8485 151.497 29.4114C151.425 29.4549 151.332 29.4321 151.288 29.3605C151.244 29.2888 151.267 29.1955 151.339 29.1519C152.891 28.2111 156.128 26.3523 161.05 23.575Z" fill="white"/>
<path d="M151.832 34.141C144.395 21.5768 147.138 11.8154 160.06 4.85693C163.741 10.2201 165.216 15.7122 164.484 21.3332C163.751 26.9542 159.534 31.2235 151.832 34.141Z" fill="url(#paint1_linear)"/>
<path d="M155.044 22.0193L151.944 18.2219C151.816 18.065 152.052 17.8733 152.18 18.0302L155.144 21.6609C156.28 17.5833 157.711 12.5015 159.437 6.41517C159.46 6.33451 159.544 6.28763 159.625 6.31047C159.705 6.3333 159.752 6.4172 159.73 6.49786C158.784 9.83121 157.927 12.8633 157.159 15.594L160.912 13.2914C160.984 13.2475 161.077 13.2698 161.121 13.3412C161.165 13.4126 161.143 13.5061 161.072 13.55L157.038 16.0246C156.423 18.2128 155.866 20.2029 155.367 21.9949C155.366 22.0138 155.36 22.0319 155.352 22.0486C154.788 24.0747 154.299 25.8464 153.885 27.3637L157.734 25.5777C157.81 25.5423 157.9 25.5753 157.936 25.6513C157.971 25.7273 157.938 25.8176 157.862 25.8529L153.799 27.7384C153.793 27.7412 153.787 27.7435 153.781 27.7454C153.135 30.1203 152.682 31.8345 152.424 32.888C152.405 32.9694 152.322 33.0193 152.241 32.9994C152.159 32.9795 152.109 32.8974 152.129 32.816C152.56 31.0554 153.532 27.4567 155.044 22.0193Z" fill="white"/>
<path d="M144.182 39.3617C151.367 26.6525 161.209 24.1424 173.708 31.8313C170.895 37.6946 166.867 41.7151 161.623 43.8928C156.379 46.0705 150.565 44.5602 144.182 39.3617Z" fill="#636E95"/>
<path d="M156.308 36.0776L158.053 31.4993C158.125 31.3101 158.409 31.4181 158.337 31.6072L156.669 35.9846C160.775 34.9272 165.9 33.6229 172.045 32.0719C172.126 32.0513 172.209 32.1005 172.23 32.1818C172.25 32.2631 172.201 32.3456 172.12 32.3662C168.754 33.2156 165.695 33.9911 162.941 34.6925L166.816 36.7851C166.89 36.825 166.917 36.9171 166.877 36.9908C166.837 37.0645 166.745 37.092 166.671 37.0521L162.507 34.8031C160.3 35.3655 158.295 35.8791 156.49 36.3441C156.473 36.3524 156.455 36.3569 156.436 36.3581C154.396 36.8839 152.614 37.3472 151.091 37.7479L154.565 40.1812C154.634 40.2294 154.65 40.324 154.602 40.3926C154.554 40.4613 154.459 40.4778 154.39 40.4297L150.722 37.8608C150.717 37.8571 150.712 37.8531 150.707 37.8488C148.323 38.4774 146.61 38.9436 145.566 39.2475C145.486 39.271 145.401 39.2248 145.378 39.1443C145.354 39.0639 145.401 38.9796 145.481 38.9561C147.224 38.4483 150.833 37.4889 156.308 36.0776Z" fill="white"/>
<path d="M133.536 118.855C149.086 118.855 168.745 118.855 178.899 118.855C178.899 106.277 168.744 96.0806 156.218 96.0806C143.691 96.0806 133.536 106.277 133.536 118.855Z" fill="url(#paint2_linear)"/>
<path fill-rule="evenodd" clip-rule="evenodd" d="M155.347 74.6508C155.718 74.6508 156.018 74.3512 156.018 73.9817C156.018 73.6121 155.718 73.3125 155.347 73.3125C154.977 73.3125 154.677 73.6121 154.677 73.9817C154.677 74.3512 154.977 74.6508 155.347 74.6508ZM156.018 76.6583C156.018 77.0278 155.718 77.3274 155.347 77.3274C154.977 77.3274 154.677 77.0278 154.677 76.6583C154.677 76.2887 154.977 75.9891 155.347 75.9891C155.718 75.9891 156.018 76.2887 156.018 76.6583ZM155.347 80.004C155.718 80.004 156.018 79.7044 156.018 79.3349C156.018 78.9653 155.718 78.6657 155.347 78.6657C154.977 78.6657 154.677 78.9653 154.677 79.3349C154.677 79.7044 154.977 80.004 155.347 80.004ZM156.018 82.0115C156.018 82.3811 155.718 82.6807 155.347 82.6807C154.977 82.6807 154.677 82.3811 154.677 82.0115C154.677 81.6419 154.977 81.3423 155.347 81.3423C155.718 81.3423 156.018 81.6419 156.018 82.0115ZM155.347 85.3573C155.718 85.3573 156.018 85.0577 156.018 84.6881C156.018 84.3186 155.718 84.019 155.347 84.019C154.977 84.019 154.677 84.3186 154.677 84.6881C154.677 85.0577 154.977 85.3573 155.347 85.3573ZM155.347 88.0339C155.718 88.0339 156.018 87.7343 156.018 87.3647C156.018 86.9952 155.718 86.6956 155.347 86.6956C154.977 86.6956 154.677 86.9952 154.677 87.3647C154.677 87.7343 154.977 88.0339 155.347 88.0339ZM158.7 87.3647C158.7 87.7343 158.4 88.0339 158.03 88.0339C157.659 88.0339 157.359 87.7343 157.359 87.3647C157.359 86.9952 157.659 86.6956 158.03 86.6956C158.4 86.6956 158.7 86.9952 158.7 87.3647ZM158.03 85.3573C158.4 85.3573 158.7 85.0577 158.7 84.6881C158.7 84.3186 158.4 84.019 158.03 84.019C157.659 84.019 157.359 84.3186 157.359 84.6881C157.359 85.0577 157.659 85.3573 158.03 85.3573ZM158.7 82.0115C158.7 82.3811 158.4 82.6807 158.03 82.6807C157.659 82.6807 157.359 82.3811 157.359 82.0115C157.359 81.6419 157.659 81.3423 158.03 81.3423C158.4 81.3423 158.7 81.6419 158.7 82.0115ZM158.03 80.004C158.4 80.004 158.7 79.7044 158.7 79.3349C158.7 78.9653 158.4 78.6657 158.03 78.6657C157.659 78.6657 157.359 78.9653 157.359 79.3349C157.359 79.7044 157.659 80.004 158.03 80.004ZM158.7 76.6583C158.7 77.0278 158.4 77.3274 158.03 77.3274C157.659 77.3274 157.359 77.0278 157.359 76.6583C157.359 76.2887 157.659 75.9891 158.03 75.9891C158.4 75.9891 158.7 76.2887 158.7 76.6583ZM158.03 74.6508C158.4 74.6508 158.7 74.3512 158.7 73.9817C158.7 73.6121 158.4 73.3125 158.03 73.3125C157.659 73.3125 157.359 73.6121 157.359 73.9817C157.359 74.3512 157.659 74.6508 158.03 74.6508ZM161.382 87.3647C161.382 87.7343 161.082 88.0339 160.712 88.0339C160.341 88.0339 160.041 87.7343 160.041 87.3647C160.041 86.9952 160.341 86.6956 160.712 86.6956C161.082 86.6956 161.382 86.9952 161.382 87.3647ZM160.712 85.3573C161.082 85.3573 161.382 85.0577 161.382 84.6881C161.382 84.3186 161.082 84.019 160.712 84.019C160.341 84.019 160.041 84.3186 160.041 84.6881C160.041 85.0577 160.341 85.3573 160.712 85.3573ZM161.382 82.0115C161.382 82.3811 161.082 82.6807 160.712 82.6807C160.341 82.6807 160.041 82.3811 160.041 82.0115C160.041 81.6419 160.341 81.3423 160.712 81.3423C161.082 81.3423 161.382 81.6419 161.382 82.0115ZM160.712 80.004C161.082 80.004 161.382 79.7044 161.382 79.3349C161.382 78.9653 161.082 78.6657 160.712 78.6657C160.341 78.6657 160.041 78.9653 160.041 79.3349C160.041 79.7044 160.341 80.004 160.712 80.004ZM161.382 76.6583C161.382 77.0278 161.082 77.3274 160.712 77.3274C160.341 77.3274 160.041 77.0278 160.041 76.6583C160.041 76.2887 160.341 75.9891 160.712 75.9891C161.082 75.9891 161.382 76.2887 161.382 76.6583ZM160.712 74.6508C161.082 74.6508 161.382 74.3512 161.382 73.9817C161.382 73.6121 161.082 73.3125 160.712 73.3125C160.341 73.3125 160.041 73.6121 160.041 73.9817C160.041 74.3512 160.341 74.6508 160.712 74.6508ZM164.064 87.3647C164.064 87.7343 163.764 88.0339 163.394 88.0339C163.024 88.0339 162.723 87.7343 162.723 87.3647C162.723 86.9952 163.024 86.6956 163.394 86.6956C163.764 86.6956 164.064 86.9952 164.064 87.3647ZM163.394 85.3573C163.764 85.3573 164.064 85.0577 164.064 84.6881C164.064 84.3186 163.764 84.019 163.394 84.019C163.024 84.019 162.723 84.3186 162.723 84.6881C162.723 85.0577 163.024 85.3573 163.394 85.3573ZM164.064 82.0115C164.064 82.3811 163.764 82.6807 163.394 82.6807C163.024 82.6807 162.723 82.3811 162.723 82.0115C162.723 81.6419 163.024 81.3423 163.394 81.3423C163.764 81.3423 164.064 81.6419 164.064 82.0115ZM163.394 80.004C163.764 80.004 164.064 79.7044 164.064 79.3349C164.064 78.9653 163.764 78.6657 163.394 78.6657C163.024 78.6657 162.723 78.9653 162.723 79.3349C162.723 79.7044 163.024 80.004 163.394 80.004ZM164.064 76.6583C164.064 77.0278 163.764 77.3274 163.394 77.3274C163.024 77.3274 162.723 77.0278 162.723 76.6583C162.723 76.2887 163.024 75.9891 163.394 75.9891C163.764 75.9891 164.064 76.2887 164.064 76.6583ZM163.394 74.6508C163.764 74.6508 164.064 74.3512 164.064 73.9817C164.064 73.6121 163.764 73.3125 163.394 73.3125C163.024 73.3125 162.723 73.6121 162.723 73.9817C162.723 74.3512 163.024 74.6508 163.394 74.6508ZM166.747 87.3647C166.747 87.7343 166.446 88.0339 166.076 88.0339C165.706 88.0339 165.405 87.7343 165.405 87.3647C165.405 86.9952 165.706 86.6956 166.076 86.6956C166.446 86.6956 166.747 86.9952 166.747 87.3647ZM166.076 85.3573C166.446 85.3573 166.747 85.0577 166.747 84.6881C166.747 84.3186 166.446 84.019 166.076 84.019C165.706 84.019 165.405 84.3186 165.405 84.6881C165.405 85.0577 165.706 85.3573 166.076 85.3573ZM166.747 82.0115C166.747 82.3811 166.446 82.6807 166.076 82.6807C165.706 82.6807 165.405 82.3811 165.405 82.0115C165.405 81.6419 165.706 81.3423 166.076 81.3423C166.446 81.3423 166.747 81.6419 166.747 82.0115ZM166.076 80.004C166.446 80.004 166.747 79.7044 166.747 79.3349C166.747 78.9653 166.446 78.6657 166.076 78.6657C165.706 78.6657 165.405 78.9653 165.405 79.3349C165.405 79.7044 165.706 80.004 166.076 80.004ZM166.747 76.6583C166.747 77.0278 166.446 77.3274 166.076 77.3274C165.706 77.3274 165.405 77.0278 165.405 76.6583C165.405 76.2887 165.706 75.9891 166.076 75.9891C166.446 75.9891 166.747 76.2887 166.747 76.6583ZM166.076 74.6508C166.446 74.6508 166.747 74.3512 166.747 73.9817C166.747 73.6121 166.446 73.3125 166.076 73.3125C165.706 73.3125 165.405 73.6121 165.405 73.9817C165.405 74.3512 165.706 74.6508 166.076 74.6508ZM169.429 87.3647C169.429 87.7343 169.129 88.0339 168.758 88.0339C168.388 88.0339 168.088 87.7343 168.088 87.3647C168.088 86.9952 168.388 86.6956 168.758 86.6956C169.129 86.6956 169.429 86.9952 169.429 87.3647ZM168.758 85.3573C169.129 85.3573 169.429 85.0577 169.429 84.6881C169.429 84.3186 169.129 84.019 168.758 84.019C168.388 84.019 168.088 84.3186 168.088 84.6881C168.088 85.0577 168.388 85.3573 168.758 85.3573ZM169.429 82.0115C169.429 82.3811 169.129 82.6807 168.758 82.6807C168.388 82.6807 168.088 82.3811 168.088 82.0115C168.088 81.6419 168.388 81.3423 168.758 81.3423C169.129 81.3423 169.429 81.6419 169.429 82.0115ZM168.758 80.004C169.129 80.004 169.429 79.7044 169.429 79.3349C169.429 78.9653 169.129 78.6657 168.758 78.6657C168.388 78.6657 168.088 78.9653 168.088 79.3349C168.088 79.7044 168.388 80.004 168.758 80.004ZM169.429 76.6583C169.429 77.0278 169.129 77.3274 168.758 77.3274C168.388 77.3274 168.088 77.0278 168.088 76.6583C168.088 76.2887 168.388 75.9891 168.758 75.9891C169.129 75.9891 169.429 76.2887 169.429 76.6583ZM168.758 74.6508C169.129 74.6508 169.429 74.3512 169.429 73.9817C169.429 73.6121 169.129 73.3125 168.758 73.3125C168.388 73.3125 168.088 73.6121 168.088 73.9817C168.088 74.3512 168.388 74.6508 168.758 74.6508Z" fill="#97A0C3"/>
<path d="M8.97339 113.688H161.065C161.065 116.538 158.749 118.848 155.894 118.848H14.1445C11.2886 118.848 8.97339 116.538 8.97339 113.688Z" fill="#0601B8"/>
<path d="M19.6198 20.1875H150.418C152.098 20.1875 153.46 21.5466 153.46 23.2232V111.259H16.5779V23.2232C16.5779 21.5466 17.9398 20.1875 19.6198 20.1875Z" fill="#0601B8"/>
<path d="M22.9658 26.2466H146.768C147.104 26.2466 147.376 26.5184 147.376 26.8537V34.9921C147.376 35.3274 147.104 35.5993 146.768 35.5993H22.9658C22.6298 35.5993 22.3574 35.3274 22.3574 34.9921V26.8537C22.3574 26.5184 22.6298 26.2466 22.9658 26.2466Z" fill="#97A0C3"/>
<path fill-rule="evenodd" clip-rule="evenodd" d="M27.6806 33.2411C26.4206 33.2411 25.3992 32.2217 25.3992 30.9643C25.3992 29.7069 26.4206 28.6875 27.6806 28.6875C28.9406 28.6875 29.962 29.7069 29.962 30.9643C29.962 32.2217 28.9406 33.2411 27.6806 33.2411ZM36.8061 33.2411C35.5461 33.2411 34.5247 32.2217 34.5247 30.9643C34.5247 29.7069 35.5461 28.6875 36.8061 28.6875C38.066 28.6875 39.0874 29.7069 39.0874 30.9643C39.0874 32.2217 38.066 33.2411 36.8061 33.2411ZM43.6502 30.9643C43.6502 32.2217 44.6716 33.2411 45.9315 33.2411C47.1915 33.2411 48.2129 32.2217 48.2129 30.9643C48.2129 29.7069 47.1915 28.6875 45.9315 28.6875C44.6716 28.6875 43.6502 29.7069 43.6502 30.9643Z" fill="#0062FF"/>
<path d="M22.9658 38.3896H146.768C147.104 38.3896 147.376 38.6615 147.376 38.9968V108.982C147.376 109.318 147.104 109.589 146.768 109.589H22.9658C22.6298 109.589 22.3574 109.318 22.3574 108.982V38.9968C22.3574 38.6615 22.6298 38.3896 22.9658 38.3896Z" fill="white"/>
<path fill-rule="evenodd" clip-rule="evenodd" d="M84.7148 44.4731H28.4411V67.3928H84.7148V44.4731ZM90.7985 44.4731H141.141V67.3928H90.7985V44.4731ZM90.7985 76.7546H141.141V100.634H90.7985V76.7546Z" fill="#FAFAFB"/>
<path fill-rule="evenodd" clip-rule="evenodd" d="M95.2091 56.0088C95.2091 59.5296 98.0691 62.3838 101.597 62.3838C105.125 62.3838 107.985 59.5296 107.985 56.0088C107.985 52.488 105.125 49.6338 101.597 49.6338C98.0691 49.6338 95.2091 52.488 95.2091 56.0088ZM128.365 49.6338H114.068V52.3659H128.365V49.6338ZM114.068 59.6516H128.365V62.3838H114.068V59.6516ZM128.365 54.6427H114.068V57.3749H128.365V54.6427Z" fill="white"/>
<path fill-rule="evenodd" clip-rule="evenodd" d="M128.365 81.7637H114.068V84.4958H128.365V81.7637ZM128.365 91.7815H114.068V94.5137H128.365V91.7815ZM114.068 86.7726H128.365V89.5047H114.068V86.7726ZM95.2091 88.1875C95.2091 91.7084 98.0691 94.5625 101.597 94.5625C105.125 94.5625 107.985 91.7084 107.985 88.1875C107.985 84.6667 105.125 81.8125 101.597 81.8125C98.0691 81.8125 95.2091 84.6667 95.2091 88.1875Z" fill="white"/>
<path d="M102.738 54.5335C102.967 54.2877 103.352 54.2734 103.598 54.5014C103.844 54.7295 103.859 55.1137 103.63 55.3595L101.795 57.3327C101.585 57.5586 101.239 57.5916 100.99 57.4095L99.7166 56.4788C99.4455 56.2806 99.3867 55.9007 99.5852 55.6302C99.7838 55.3597 100.164 55.301 100.436 55.4991L101.272 56.1105L102.738 54.5335Z" fill="#0062FF"/>
<path d="M100.029 113.687C99.5219 115.188 98.1003 116.268 96.4259 116.268H73.7643C72.0898 116.268 70.6682 115.188 70.1608 113.687H8.97339V111.259H161.065V113.687H100.029Z" fill="#242F57"/>
<path d="M83.0418 55.0981V86.2142H45.9315V55.0981H83.0418Z" fill="url(#paint3_linear)"/>
<path d="M67.9848 55.0981V86.2142H39.8479V55.0981H67.9848Z" fill="#0062FF"/>
<path d="M56.2738 55.0981V65.116H51.1027V55.0981H56.2738Z" fill="white"/>
<path d="M72.5475 77.7144V111.259H29.3536V77.7144H72.5475Z" fill="#FC5A5A"/>
<path d="M56.2738 77.7144V111.259H22.8137V77.7144H56.2738Z" fill="#FC5A5A"/>
<path d="M40.6084 77.7144V88.4911H35.1331V77.7144H40.6084Z" fill="white"/>
<path d="M180.076 47.2056V72.2502H150.11V47.2056H180.076Z" fill="url(#paint4_linear)"/>
<path d="M167.918 47.2056V72.2502H145.247V47.2056H167.918Z" fill="#0062FF"/>
<path d="M158.497 47.2056V55.2296H154.363V47.2056H158.497Z" fill="white"/>
<path d="M180.076 57.2865L183.66 47.5412L184.683 45.8623L183.66 60.5378L180.076 63.3968V57.2865Z" fill="#242F57"/>
<path d="M189.297 112.474V115.754H186.008V112.474H189.297Z" fill="#97A0C3"/>
<path d="M189.424 115.509V116.191C189.424 116.743 189.424 117.296 189.424 117.848C189.424 118.25 189.098 118.576 188.694 118.576H182.214C181.957 118.576 181.749 118.322 181.749 118.008C181.749 116.787 182.678 116.628 183.781 116.238L185.969 115.509H189.424Z" fill="#242F57"/>
<path d="M199.362 112.474V115.754H196.072V112.474H199.362Z" fill="#97A0C3"/>
<path d="M185.426 114.474L183.878 70.8466L194.654 70.5806L189.704 114.474H185.426Z" fill="#242F57"/>
<path d="M199.489 115.509V116.191C199.489 116.743 199.489 117.296 199.489 117.848C199.489 118.25 199.162 118.576 198.759 118.576H192.279C192.022 118.576 191.814 118.322 191.814 118.008C191.814 116.787 192.742 116.628 193.845 116.238L196.034 115.509H199.489Z" fill="#242F57"/>
<path d="M195.49 114.474L187.529 70.8466L198.304 70.5806L199.768 114.474H195.49Z" fill="#0062FF"/>
<path d="M187.937 43.8751L189.909 43.7029C193.424 43.396 196.522 45.9906 196.83 49.498C196.83 49.5054 196.831 49.5128 196.832 49.5202L198.639 71.0051L183.85 72.2964L182.773 56.3636C182.773 56.3636 181.595 53.9266 181.918 51.564C182.161 49.7871 184.163 44.2046 187.937 43.8751Z" fill="#0062FF"/>
<path d="M185.799 45.1317C185.233 43.3657 184.627 42.4342 183.983 42.3373C183.016 42.1918 182.408 42.1496 182.293 41.2013C182.177 40.2529 181.852 40.0048 181.425 39.9176C180.998 39.8303 180.546 39.3222 181.479 38.4252C182.1 37.8272 182.267 36.7217 181.978 35.1087C185.585 32.8509 187.945 33.0433 189.06 35.6859C190.174 38.3285 190.029 40.5387 189.402 42.3373L189.824 44.023C189.543 45.0067 188.886 45.7243 187.853 46.1759C186.82 46.6274 186.135 46.2794 185.799 45.1317Z" fill="#97A0C3"/>
<path d="M182.947 60.0429L183.257 57.8829L187.146 51.9941L193.975 52.9405L183.855 72.2992L182.947 60.0429Z" fill="#242F57"/>
<path d="M186.593 52.8887L191.62 55.936L188.849 60.219C188.121 61.345 186.832 61.9808 185.493 61.8743C180.645 61.4888 175.763 61.2256 170.848 61.0848C170.476 61.3236 169.858 61.4796 168.994 61.5528C166.836 61.5014 165.638 61.0015 165.4 60.0529C165.161 59.1043 166.087 58.5757 168.177 58.4671L168.103 58.0455C168.1 58.024 168.097 58.0022 168.096 57.9804C168.071 57.6251 168.339 57.3168 168.695 57.292L169.152 58.2993C169.728 58.5692 170.398 58.6774 171.164 58.6239C174.297 58.4517 178.87 57.9776 184.883 57.2015L186.593 52.8887Z" fill="#97A0C3"/>
<path d="M187.31 50.5122L194.121 52.8115L188.864 60.3337C188.122 61.3953 186.872 61.9844 185.579 61.8812C180.703 61.4919 175.792 61.2264 170.848 61.0848L171.164 58.6239C174.297 58.4517 178.87 57.9775 184.883 57.2015L187.31 50.5122Z" fill="#0062FF"/>
<path fill-rule="evenodd" clip-rule="evenodd" d="M193.589 72.4341L193.657 73.0958L193.505 73.1112L193.438 72.4494L193.589 72.4341ZM193.699 75.0166L193.851 75.0012L193.918 75.663L193.767 75.6783L193.699 75.0166ZM193.659 74.6213L193.81 74.6059L193.743 73.9441L193.592 73.9595L193.659 74.6213ZM194.112 77.5683L193.961 77.5837L194.029 78.2454L194.18 78.2301L194.112 77.5683ZM194.072 77.173L193.921 77.1884L193.853 76.5266L194.005 76.5113L194.072 77.173ZM194.223 80.1508L194.374 80.1354L194.442 80.7972L194.29 80.8125L194.223 80.1508ZM194.182 79.7555L194.334 79.7401L194.266 79.0784L194.115 79.0937L194.182 79.7555ZM194.636 82.7025L194.484 82.7179L194.552 83.3796L194.703 83.3643L194.636 82.7025ZM194.595 82.3072L194.444 82.3226L194.377 81.6608L194.528 81.6455L194.595 82.3072ZM194.746 85.285L194.897 85.2696L194.965 85.9314L194.814 85.9468L194.746 85.285ZM194.706 84.8897L194.857 84.8743L194.79 84.2126L194.638 84.2279L194.706 84.8897ZM195.159 87.8367L195.008 87.8521L195.075 88.5139L195.227 88.4985L195.159 87.8367ZM195.119 87.4415L194.967 87.4568L194.9 86.7951L195.051 86.7797L195.119 87.4415ZM195.269 90.4192L195.421 90.4038L195.488 91.0656L195.337 91.081L195.269 90.4192ZM195.229 90.0239L195.38 90.0086L195.313 89.3468L195.162 89.3622L195.229 90.0239ZM195.682 92.9709L195.531 92.9863L195.599 93.6481L195.75 93.6327L195.682 92.9709ZM195.642 92.5757L195.491 92.591L195.423 91.9293L195.575 91.9139L195.642 92.5757ZM195.793 95.5534L195.944 95.5381L196.012 96.1998L195.86 96.2152L195.793 95.5534ZM195.752 95.1581L195.904 95.1428L195.836 94.481L195.685 94.4964L195.752 95.1581ZM196.206 98.1052L196.054 98.1205L196.122 98.7823L196.273 98.7669L196.206 98.1052ZM196.165 97.7099L196.014 97.7253L195.947 97.0635L196.098 97.0481L196.165 97.7099ZM196.316 100.688L196.467 100.672L196.535 101.334L196.384 101.349L196.316 100.688ZM196.276 100.292L196.427 100.277L196.36 99.6152L196.208 99.6306L196.276 100.292ZM196.729 103.239L196.578 103.255L196.645 103.917L196.797 103.901L196.729 103.239ZM196.689 102.844L196.537 102.859L196.47 102.198L196.621 102.182L196.689 102.844ZM196.839 105.822L196.991 105.806L197.058 106.468L196.907 106.484L196.839 105.822ZM196.799 105.427L196.95 105.411L196.883 104.749L196.732 104.765L196.799 105.427ZM197.252 108.374L197.101 108.389L197.169 109.051L197.32 109.035L197.252 108.374ZM197.212 107.978L197.061 107.994L196.993 107.332L197.145 107.317L197.212 107.978ZM197.363 110.956L197.514 110.941L197.582 111.602L197.43 111.618L197.363 110.956ZM197.323 110.561L197.474 110.545L197.406 109.884L197.255 109.899L197.323 110.561ZM197.735 113.113L197.584 113.128L197.517 112.466L197.668 112.451L197.735 113.113Z" fill="#97A0C3"/>
<path d="M181.853 32.7667C180.926 34.7762 181.602 35.932 183.881 36.2342C187.3 36.6874 185.246 40.9576 187.68 42.0271C190.115 43.0966 187.155 45.9701 191.635 45.9701C194.621 45.9701 196.396 47.5589 196.958 50.7365C196.864 46.4614 195.801 43.5583 193.768 42.0271C190.72 39.7303 192.242 34.253 190.162 32.7667C188.082 31.2805 185.856 31.2988 184.335 31.2988C183.32 31.2988 182.493 31.7881 181.853 32.7667Z" fill="#242F57"/>
<path d="M132.984 112.625H136.274V115.906H132.984V112.625Z" fill="#97A0C3"/>
<path d="M132.857 115.661H136.312L138.501 116.39C139.604 116.78 140.532 116.939 140.532 118.16C140.532 118.473 140.324 118.728 140.067 118.728H133.587C133.184 118.728 132.857 118.402 132.857 117.999V115.661Z" fill="#242F57"/>
<path d="M122.92 112.625H126.209V115.906H122.92V112.625Z" fill="#97A0C3"/>
<path d="M136.856 114.625H132.578L127.627 70.7319L138.403 70.9979L136.856 114.625Z" fill="#242F57"/>
<path d="M145.247 54.7507V58.6677C143.87 58.7937 142.519 58.9382 141.194 59.1012C139.91 59.2591 138.639 58.7271 137.851 57.7027L134.196 52.9469L139.769 47.8125L141.638 54.3029C142.904 54.4664 144.107 54.6156 145.247 54.7507Z" fill="#242F57"/>
<path d="M122.793 115.661H126.248L128.436 116.39C129.539 116.78 130.468 116.939 130.468 118.16C130.468 118.473 130.26 118.728 130.003 118.728H123.523C123.119 118.728 122.793 118.402 122.793 117.999V115.661Z" fill="#242F57"/>
<path d="M126.791 114.625H122.513L123.977 70.7319L134.753 70.9979L126.791 114.625Z" fill="#0062FF"/>
<path d="M134.345 44.0265C138.632 44.4008 140.559 47.0527 140.127 51.9821L138.431 72.4478L123.642 71.1565L125.45 49.6716C125.45 49.6642 125.451 49.6568 125.452 49.6494C125.759 46.1419 128.858 43.5474 132.372 43.8542C133.03 43.9117 133.687 43.9691 134.345 44.0265Z" fill="#FC5A5A"/>
<path d="M151.55 64.7057C150.771 64.7602 149.767 64.2916 149.244 64.2507C147.494 64.1142 143.922 63.8731 138.527 63.5275C137.631 63.4578 136.386 63.0555 135.702 62.5189L131.017 58.8461L134.776 54.3315L138.876 59.0086C143.361 60.4703 147.242 60.7907 149.681 61.2788C150.29 60.9614 150.775 60.7324 151.137 60.5918C151.68 60.3808 152.324 60.6616 152.629 60.8099C153.164 61.0702 152.815 61.228 151.581 61.2833C152.361 61.3121 152.898 61.3326 153.192 61.3449C153.633 61.3633 154.113 62.0402 153.822 63.2273C153.628 64.0187 152.871 64.5115 151.55 64.7057Z" fill="#97A0C3"/>
<path d="M136.483 45.283C136.146 46.4307 135.461 46.7788 134.428 46.3272C133.395 45.8757 132.739 45.1581 132.458 44.1744L132.879 42.4886C132.253 40.6901 132.107 38.4799 133.222 35.8373C134.336 33.1947 136.697 33.0023 140.304 35.26C140.015 36.8731 140.181 37.9786 140.803 38.5766C141.736 39.4735 141.283 39.9816 140.856 40.0689C140.429 40.1562 140.104 40.4043 139.989 41.3526C139.873 42.301 139.265 42.3432 138.299 42.4886C137.654 42.5856 137.049 43.5171 136.483 45.283Z" fill="#97A0C3"/>
<path d="M132.439 42.4486C132.058 42.2576 131.856 41.9859 131.833 41.6335C131.798 41.1048 132.126 40.8957 131.215 39.7203C130.305 38.5449 129.633 37.0473 130.544 34.6599C131.455 32.2724 132.953 32.2277 134.439 32.2574C135.925 32.2872 136.505 32.5215 138.599 32.074C140.693 31.6265 141.573 33.0482 140.918 35.0082C140.263 36.9682 137.228 36.5717 136.701 36.4407C136.175 36.3097 136.354 37.139 136.32 37.9684C136.286 38.7977 135.739 38.9197 135.558 38.7826C135.378 38.6456 134.982 38.4659 134.561 38.8799C134.139 39.2938 134.426 40.0552 134.715 40.1272C135.004 40.1992 135.404 40.1561 135.382 40.4912C135.359 40.8263 135.072 41.834 134.67 42.3394C134.402 42.6763 133.658 42.7127 132.439 42.4486Z" fill="#242F57"/>
<path d="M136.376 55.6571L131.138 60.3181C127.297 56.3088 126.118 53.4682 127.6 51.7964C129.822 49.2887 131.731 50.4926 133.118 51.9443C134.043 52.9122 135.129 54.1498 136.376 55.6571Z" fill="#FC5A5A"/>
<path fill-rule="evenodd" clip-rule="evenodd" d="M129.162 74.5392L129.103 75.0694L128.952 75.0527L129.011 74.5225L129.162 74.5392ZM128.667 77.6173L128.818 77.6341L128.819 77.6296L128.667 77.6129L128.667 77.6173ZM128.935 76.578L128.936 76.5736L128.785 76.5569L128.784 76.5613L128.935 76.578ZM128.533 80.1987L128.382 80.182L128.383 80.1776L128.534 80.1943L128.533 80.1987ZM128.651 79.1383L128.651 79.1427L128.499 79.1259L128.5 79.1215L128.651 79.1383ZM128.097 82.7466L128.248 82.7633L128.249 82.7589L128.098 82.7422L128.097 82.7466ZM128.366 81.7073L128.366 81.7029L128.215 81.6862L128.215 81.6906L128.366 81.7073ZM127.963 85.328L127.812 85.3113L127.813 85.3068L127.964 85.3236L127.963 85.328ZM128.081 84.2675L128.081 84.272L127.93 84.2552L127.93 84.2508L128.081 84.2675ZM127.527 87.8759L127.679 87.8926L127.679 87.8882L127.528 87.8715L127.527 87.8759ZM127.796 86.8366L127.796 86.8322L127.645 86.8155L127.645 86.8199L127.796 86.8366ZM127.394 90.4573L127.243 90.4406L127.243 90.4361L127.394 90.4529L127.394 90.4573ZM127.511 89.3968L127.511 89.4012L127.36 89.3845L127.36 89.3801L127.511 89.3968ZM126.958 93.0052L127.109 93.0219L127.109 93.0175L126.958 93.0008L126.958 93.0052ZM127.226 91.9659L127.227 91.9615L127.075 91.9447L127.075 91.9492L127.226 91.9659ZM126.824 95.5866L126.673 95.5698L126.673 95.5654L126.824 95.5822L126.824 95.5866ZM126.942 94.5261L126.941 94.5305L126.79 94.5138L126.791 94.5094L126.942 94.5261ZM126.388 98.1345L126.539 98.1512L126.539 98.1468L126.388 98.1301L126.388 98.1345ZM126.656 97.0952L126.657 97.0908L126.506 97.074L126.505 97.0785L126.656 97.0952ZM126.254 100.716L126.103 100.699L126.103 100.695L126.255 100.711L126.254 100.716ZM126.372 99.6554L126.371 99.6598L126.22 99.6431L126.221 99.6387L126.372 99.6554ZM125.818 103.264L125.969 103.281L125.97 103.276L125.819 103.259L125.818 103.264ZM126.087 102.224L126.087 102.22L125.936 102.203L125.935 102.208L126.087 102.224ZM125.684 105.845L125.533 105.828L125.534 105.824L125.685 105.841L125.684 105.845ZM125.802 104.785L125.802 104.789L125.65 104.772L125.651 104.768L125.802 104.785ZM125.248 108.393L125.399 108.41L125.4 108.405L125.249 108.389L125.248 108.393ZM125.517 107.354L125.517 107.349L125.366 107.333L125.366 107.337L125.517 107.354ZM125.115 110.974L124.963 110.958L124.964 110.953L125.115 110.97L125.115 110.974ZM125.232 109.914L125.232 109.918L125.081 109.902L125.081 109.897L125.232 109.914ZM124.83 113.539L124.678 113.522L124.679 113.518L124.83 113.535L124.83 113.539ZM124.947 112.483L124.947 112.479L124.796 112.462L124.796 112.466L124.947 112.483Z" fill="#97A0C3"/>
<path d="M107.376 86.2144V111.259H77.4107V86.2144H107.376Z" fill="#0062FF"/>
<path d="M95.2185 86.2144V111.259H72.5475V86.2144H95.2185Z" fill="#0601B8"/>
<path d="M85.7973 86.2144V94.2384H81.6636V86.2144H85.7973Z" fill="white"/>
<defs>
<linearGradient id="paint0_linear" x1="5.43409e-07" y1="0.766373" x2="42.8188" y2="57.7299" gradientUnits="userSpaceOnUse">
<stop stop-color="#2975FE"/>
<stop offset="1" stop-color="#8393FF"/>
</linearGradient>
<linearGradient id="paint1_linear" x1="147.757" y1="5.29448" x2="172.334" y2="24.1399" gradientUnits="userSpaceOnUse">
<stop stop-color="#2975FE"/>
<stop offset="1" stop-color="#8393FF"/>
</linearGradient>
<linearGradient id="paint2_linear" x1="178.222" y1="96.0806" x2="153.959" y2="132.472" gradientUnits="userSpaceOnUse">
<stop stop-color="#2975FE"/>
<stop offset="1" stop-color="#8393FF"/>
</linearGradient>
<linearGradient id="paint3_linear" x1="45.9315" y1="55.5631" x2="70.3457" y2="94.2304" gradientUnits="userSpaceOnUse">
<stop stop-color="#2975FE"/>
<stop offset="1" stop-color="#8393FF"/>
</linearGradient>
<linearGradient id="paint4_linear" x1="150.11" y1="47.5798" x2="169.733" y2="78.7594" gradientUnits="userSpaceOnUse">
<stop stop-color="#2975FE"/>
<stop offset="1" stop-color="#8393FF"/>
</linearGradient>
</defs>
</svg>
