<svg width="200" height="134" viewBox="0 0 200 134" fill="none" xmlns="http://www.w3.org/2000/svg">
<path d="M57.4351 85.6592C81.0734 85.6592 100.236 66.4838 100.236 42.8296C100.236 19.1755 81.0734 0 57.4351 0C33.7968 0 14.6342 19.1755 14.6342 42.8296C14.6342 66.4838 33.7968 85.6592 57.4351 85.6592Z" fill="#FAFAFB"/>
<path d="M139.418 117.624H163.817C172.246 117.624 179.08 124.462 179.08 132.898H154.681C146.252 132.898 139.418 126.06 139.418 117.624Z" fill="#F1F1F5"/>
<path d="M179.236 132.825C179.236 119.41 179.236 102.451 179.236 93.6899C168.369 93.6899 159.559 102.451 159.559 113.257C159.559 124.064 168.369 132.825 179.236 132.825Z" fill="url(#paint0_linear)"/>
<path fill-rule="evenodd" clip-rule="evenodd" d="M104.549 111.454C104.932 111.454 105.243 111.143 105.243 110.76C105.243 110.377 104.932 110.066 104.549 110.066C104.166 110.066 103.855 110.377 103.855 110.76C103.855 111.143 104.166 111.454 104.549 111.454ZM105.243 113.537C105.243 113.92 104.932 114.231 104.549 114.231C104.166 114.231 103.855 113.92 103.855 113.537C103.855 113.153 104.166 112.843 104.549 112.843C104.932 112.843 105.243 113.153 105.243 113.537ZM104.549 117.008C104.932 117.008 105.243 116.697 105.243 116.314C105.243 115.93 104.932 115.619 104.549 115.619C104.166 115.619 103.855 115.93 103.855 116.314C103.855 116.697 104.166 117.008 104.549 117.008ZM105.243 119.09C105.243 119.474 104.932 119.784 104.549 119.784C104.166 119.784 103.855 119.474 103.855 119.09C103.855 118.707 104.166 118.396 104.549 118.396C104.932 118.396 105.243 118.707 105.243 119.09ZM104.549 122.561C104.932 122.561 105.243 122.25 105.243 121.867C105.243 121.484 104.932 121.173 104.549 121.173C104.166 121.173 103.855 121.484 103.855 121.867C103.855 122.25 104.166 122.561 104.549 122.561ZM104.549 125.338C104.932 125.338 105.243 125.027 105.243 124.644C105.243 124.26 104.932 123.949 104.549 123.949C104.166 123.949 103.855 124.26 103.855 124.644C103.855 125.027 104.166 125.338 104.549 125.338ZM108.018 124.644C108.018 125.027 107.707 125.338 107.324 125.338C106.941 125.338 106.63 125.027 106.63 124.644C106.63 124.26 106.941 123.949 107.324 123.949C107.707 123.949 108.018 124.26 108.018 124.644ZM107.324 122.561C107.707 122.561 108.018 122.25 108.018 121.867C108.018 121.484 107.707 121.173 107.324 121.173C106.941 121.173 106.63 121.484 106.63 121.867C106.63 122.25 106.941 122.561 107.324 122.561ZM108.018 119.09C108.018 119.474 107.707 119.784 107.324 119.784C106.941 119.784 106.63 119.474 106.63 119.09C106.63 118.707 106.941 118.396 107.324 118.396C107.707 118.396 108.018 118.707 108.018 119.09ZM107.324 117.008C107.707 117.008 108.018 116.697 108.018 116.314C108.018 115.93 107.707 115.619 107.324 115.619C106.941 115.619 106.63 115.93 106.63 116.314C106.63 116.697 106.941 117.008 107.324 117.008ZM108.018 113.537C108.018 113.92 107.707 114.231 107.324 114.231C106.941 114.231 106.63 113.92 106.63 113.537C106.63 113.153 106.941 112.843 107.324 112.843C107.707 112.843 108.018 113.153 108.018 113.537ZM107.324 111.454C107.707 111.454 108.018 111.143 108.018 110.76C108.018 110.377 107.707 110.066 107.324 110.066C106.941 110.066 106.63 110.377 106.63 110.76C106.63 111.143 106.941 111.454 107.324 111.454ZM110.793 124.644C110.793 125.027 110.482 125.338 110.099 125.338C109.716 125.338 109.405 125.027 109.405 124.644C109.405 124.26 109.716 123.949 110.099 123.949C110.482 123.949 110.793 124.26 110.793 124.644ZM110.099 122.561C110.482 122.561 110.793 122.25 110.793 121.867C110.793 121.484 110.482 121.173 110.099 121.173C109.716 121.173 109.405 121.484 109.405 121.867C109.405 122.25 109.716 122.561 110.099 122.561ZM110.793 119.09C110.793 119.474 110.482 119.784 110.099 119.784C109.716 119.784 109.405 119.474 109.405 119.09C109.405 118.707 109.716 118.396 110.099 118.396C110.482 118.396 110.793 118.707 110.793 119.09ZM110.099 117.008C110.482 117.008 110.793 116.697 110.793 116.314C110.793 115.93 110.482 115.619 110.099 115.619C109.716 115.619 109.405 115.93 109.405 116.314C109.405 116.697 109.716 117.008 110.099 117.008ZM110.793 113.537C110.793 113.92 110.482 114.231 110.099 114.231C109.716 114.231 109.405 113.92 109.405 113.537C109.405 113.153 109.716 112.843 110.099 112.843C110.482 112.843 110.793 113.153 110.793 113.537ZM110.099 111.454C110.482 111.454 110.793 111.143 110.793 110.76C110.793 110.377 110.482 110.066 110.099 110.066C109.716 110.066 109.405 110.377 109.405 110.76C109.405 111.143 109.716 111.454 110.099 111.454ZM113.568 124.644C113.568 125.027 113.257 125.338 112.874 125.338C112.491 125.338 112.18 125.027 112.18 124.644C112.18 124.26 112.491 123.949 112.874 123.949C113.257 123.949 113.568 124.26 113.568 124.644ZM112.874 122.561C113.257 122.561 113.568 122.25 113.568 121.867C113.568 121.484 113.257 121.173 112.874 121.173C112.491 121.173 112.18 121.484 112.18 121.867C112.18 122.25 112.491 122.561 112.874 122.561ZM113.568 119.09C113.568 119.474 113.257 119.784 112.874 119.784C112.491 119.784 112.18 119.474 112.18 119.09C112.18 118.707 112.491 118.396 112.874 118.396C113.257 118.396 113.568 118.707 113.568 119.09ZM112.874 117.008C113.257 117.008 113.568 116.697 113.568 116.314C113.568 115.93 113.257 115.619 112.874 115.619C112.491 115.619 112.18 115.93 112.18 116.314C112.18 116.697 112.491 117.008 112.874 117.008ZM113.568 113.537C113.568 113.92 113.257 114.231 112.874 114.231C112.491 114.231 112.18 113.92 112.18 113.537C112.18 113.153 112.491 112.843 112.874 112.843C113.257 112.843 113.568 113.153 113.568 113.537ZM112.874 111.454C113.257 111.454 113.568 111.143 113.568 110.76C113.568 110.377 113.257 110.066 112.874 110.066C112.491 110.066 112.18 110.377 112.18 110.76C112.18 111.143 112.491 111.454 112.874 111.454ZM116.343 124.644C116.343 125.027 116.032 125.338 115.649 125.338C115.266 125.338 114.955 125.027 114.955 124.644C114.955 124.26 115.266 123.949 115.649 123.949C116.032 123.949 116.343 124.26 116.343 124.644ZM115.649 122.561C116.032 122.561 116.343 122.25 116.343 121.867C116.343 121.484 116.032 121.173 115.649 121.173C115.266 121.173 114.955 121.484 114.955 121.867C114.955 122.25 115.266 122.561 115.649 122.561ZM116.343 119.09C116.343 119.474 116.032 119.784 115.649 119.784C115.266 119.784 114.955 119.474 114.955 119.09C114.955 118.707 115.266 118.396 115.649 118.396C116.032 118.396 116.343 118.707 116.343 119.09ZM115.649 117.008C116.032 117.008 116.343 116.697 116.343 116.314C116.343 115.93 116.032 115.619 115.649 115.619C115.266 115.619 114.955 115.93 114.955 116.314C114.955 116.697 115.266 117.008 115.649 117.008ZM116.343 113.537C116.343 113.92 116.032 114.231 115.649 114.231C115.266 114.231 114.955 113.92 114.955 113.537C114.955 113.153 115.266 112.843 115.649 112.843C116.032 112.843 116.343 113.153 116.343 113.537ZM115.649 111.454C116.032 111.454 116.343 111.143 116.343 110.76C116.343 110.377 116.032 110.066 115.649 110.066C115.266 110.066 114.955 110.377 114.955 110.76C114.955 111.143 115.266 111.454 115.649 111.454ZM119.118 124.644C119.118 125.027 118.807 125.338 118.424 125.338C118.041 125.338 117.73 125.027 117.73 124.644C117.73 124.26 118.041 123.949 118.424 123.949C118.807 123.949 119.118 124.26 119.118 124.644ZM118.424 122.561C118.807 122.561 119.118 122.25 119.118 121.867C119.118 121.484 118.807 121.173 118.424 121.173C118.041 121.173 117.73 121.484 117.73 121.867C117.73 122.25 118.041 122.561 118.424 122.561ZM119.118 119.09C119.118 119.474 118.807 119.784 118.424 119.784C118.041 119.784 117.73 119.474 117.73 119.09C117.73 118.707 118.041 118.396 118.424 118.396C118.807 118.396 119.118 118.707 119.118 119.09ZM118.424 117.008C118.807 117.008 119.118 116.697 119.118 116.314C119.118 115.93 118.807 115.619 118.424 115.619C118.041 115.619 117.73 115.93 117.73 116.314C117.73 116.697 118.041 117.008 118.424 117.008ZM119.118 113.537C119.118 113.92 118.807 114.231 118.424 114.231C118.041 114.231 117.73 113.92 117.73 113.537C117.73 113.153 118.041 112.843 118.424 112.843C118.807 112.843 119.118 113.153 119.118 113.537ZM118.424 111.454C118.807 111.454 119.118 111.143 119.118 110.76C119.118 110.377 118.807 110.066 118.424 110.066C118.041 110.066 117.73 110.377 117.73 110.76C117.73 111.143 118.041 111.454 118.424 111.454Z" fill="#FC5A5A"/>
<path d="M31.3139 66.4763C22.4578 70.4788 15.3774 70.4281 10.0729 66.3242C4.76841 62.2204 1.41077 56.3766 0 48.7929C16.581 43.8103 27.0189 49.7048 31.3139 66.4763Z" fill="url(#paint1_linear)"/>
<path d="M18.2374 59.2799C16.3259 58.1948 14.2005 56.9923 11.8612 55.6726L6.43463 56.9729C6.33837 56.9959 6.24171 56.9363 6.21874 56.8396C6.19577 56.7429 6.25519 56.6458 6.35146 56.6228L11.4007 55.4129C8.48106 53.7663 5.23593 51.9412 1.6654 49.9377C1.579 49.8892 1.5481 49.7796 1.59637 49.6928C1.64465 49.606 1.75382 49.575 1.84022 49.6235C8.3596 53.2817 13.7941 56.3449 18.1442 58.8135L17.5829 53.2893C17.5586 53.0506 17.9152 53.0141 17.9394 53.2528L18.5265 59.0305C24.3262 62.3234 28.1401 64.5274 29.9689 65.6428C30.0535 65.6944 30.0804 65.8051 30.029 65.89C29.9777 65.975 29.8674 66.002 29.7828 65.9504C28.6885 65.283 26.8806 64.2242 24.3593 62.7742C24.3527 62.7776 24.3457 62.7807 24.3386 62.7833L19.3794 64.6021C19.2864 64.6362 19.1836 64.5881 19.1496 64.4948C19.1157 64.4014 19.1635 64.2981 19.2565 64.264L23.9539 62.5412C22.3423 61.6156 20.4559 60.5394 18.2947 59.3124C18.2739 59.3054 18.2543 59.2946 18.2374 59.2799Z" fill="white"/>
<path d="M29.3308 71.4878C20.2272 68.0365 15.2427 62.9862 14.3774 56.3368C13.5121 49.6874 15.2549 43.1906 19.6058 36.8462C34.8781 45.0777 38.1197 56.6249 29.3308 71.4878Z" fill="#97A0C3"/>
<path d="M25.5804 57.2066C27.3587 63.6523 28.5009 67.9182 29.0075 70.0053C29.031 70.1018 28.9722 70.1992 28.8763 70.2228C28.7804 70.2463 28.6836 70.1872 28.6602 70.0907C28.3571 68.8419 27.8255 66.8098 27.0654 63.9945C27.0583 63.9923 27.0513 63.9895 27.0443 63.9863L22.2684 61.7511C22.1789 61.7092 22.1401 61.6022 22.1817 61.5121C22.2233 61.422 22.3297 61.3829 22.4192 61.4248L26.9431 63.542C26.4563 61.7434 25.8816 59.6432 25.2189 57.2414C25.2091 57.2216 25.2029 57.2001 25.2014 57.1777C24.6152 55.0534 23.9605 52.6943 23.2373 50.1004L18.4959 47.1669C18.4118 47.1148 18.3855 47.004 18.4372 46.9194C18.4889 46.8347 18.599 46.8083 18.6831 46.8603L23.0949 49.5899C22.1919 46.3528 21.1847 42.7586 20.0733 38.8071C20.0464 38.7115 20.1016 38.612 20.1966 38.585C20.2916 38.5579 20.3905 38.6135 20.4173 38.7091C22.4467 45.924 24.1286 51.9481 25.4632 56.7818L28.9477 52.4778C29.0982 52.2918 29.3754 52.5191 29.2248 52.7051L25.5804 57.2066Z" fill="white"/>
<path d="M38.395 77.7174C30.8771 83.8896 24.03 85.6828 17.8538 83.0972C11.6777 80.5116 6.93277 75.738 3.6192 68.7765C18.3409 59.6474 29.9328 62.6277 38.395 77.7174Z" fill="#242F57"/>
<path d="M24.1022 73.7108C30.5483 75.3792 34.7973 76.5135 36.8498 77.1138C36.9448 77.1416 36.9993 77.2412 36.9715 77.3364C36.9438 77.4315 36.8444 77.4861 36.7495 77.4583C35.5213 77.0991 33.5036 76.5479 30.6964 75.8048C30.6909 75.8098 30.685 75.8146 30.6787 75.819L26.3604 78.856C26.2794 78.9129 26.1677 78.8933 26.1109 78.8122C26.0541 78.7311 26.0737 78.6191 26.1546 78.5622L30.2451 75.6855C28.4511 75.2117 26.3531 74.664 23.9511 74.0423C23.9291 74.041 23.9075 74.0357 23.8873 74.0258C21.7629 73.4761 19.4017 72.8689 16.8037 72.204L11.9007 74.8628C11.8137 74.91 11.705 74.8776 11.6579 74.7904C11.6109 74.7032 11.6432 74.5943 11.7302 74.5472L16.2924 72.0732C13.0501 71.244 9.44775 70.3272 5.48534 69.3229C5.38945 69.2986 5.33139 69.201 5.35564 69.105C5.37989 69.0089 5.47728 68.9507 5.57316 68.975C12.8081 70.8087 18.8427 72.3506 23.6773 73.6008L21.7128 68.4257C21.6279 68.202 21.9626 68.0744 22.0475 68.2981L24.1022 73.7108Z" fill="white"/>
<path d="M9.74082 77.0298H100.393C101.436 77.0298 102.282 77.8758 102.282 78.9193V131.853C102.282 132.897 101.436 133.743 100.393 133.743H9.74082C8.69795 133.743 7.85254 132.897 7.85254 131.853V78.9193C7.85254 77.8758 8.69795 77.0298 9.74082 77.0298Z" fill="url(#paint2_linear)"/>
<path d="M7.85254 86.4819H102.282V97.8245H7.85254V86.4819Z" fill="#242F57"/>
<path fill-rule="evenodd" clip-rule="evenodd" d="M30.5155 113.893H15.4069V117.674H30.5155V113.893ZM26.7384 122.4H15.4069V126.181H26.7384V122.4ZM34.2927 113.893H53.1785V117.674H34.2927V113.893ZM43.7356 122.4H30.5155V126.181H43.7356V122.4Z" fill="white"/>
<path d="M79.8075 126.748C83.3539 126.748 86.2287 123.87 86.2287 120.321C86.2287 116.771 83.3539 113.893 79.8075 113.893C76.2612 113.893 73.3864 116.771 73.3864 120.321C73.3864 123.87 76.2612 126.748 79.8075 126.748Z" fill="url(#paint3_linear)"/>
<path d="M86.2287 126.748C89.7751 126.748 92.6499 123.87 92.6499 120.321C92.6499 116.771 89.7751 113.893 86.2287 113.893C82.6824 113.893 79.8076 116.771 79.8076 120.321C79.8076 123.87 82.6824 126.748 86.2287 126.748Z" fill="white"/>
<path d="M60.5822 13.8564H180.173C181.911 13.8564 183.32 15.2664 183.32 17.0057V105.184C183.32 106.924 181.911 108.334 180.173 108.334H60.5822C58.8441 108.334 57.4351 106.924 57.4351 105.184V17.0057C57.4351 15.2664 58.8441 13.8564 60.5822 13.8564Z" fill="white"/>
<path fill-rule="evenodd" clip-rule="evenodd" d="M116.601 76.8413H63.7293V102.035H116.601V76.8413ZM182.533 76.8413H122.895V102.035H182.533V76.8413Z" fill="#97A0C3"/>
<path fill-rule="evenodd" clip-rule="evenodd" d="M66.8765 88.9659C66.8765 93.3141 70.399 96.839 74.7443 96.839C79.0896 96.839 82.6121 93.3141 82.6121 88.9659C82.6121 84.6177 79.0896 81.0928 74.7443 81.0928C70.399 81.0928 66.8765 84.6177 66.8765 88.9659ZM97.7183 81.0928H86.2313V84.242H97.7183V81.0928ZM86.2313 93.6897H113.454V96.839H86.2313V93.6897ZM113.454 87.3912H86.2313V90.5405H113.454V87.3912Z" fill="white"/>
<path d="M139.103 97.3111C143.448 97.3111 146.971 93.7862 146.971 89.438C146.971 85.0898 143.448 81.5649 139.103 81.5649C134.758 81.5649 131.235 85.0898 131.235 89.438C131.235 93.7862 134.758 97.3111 139.103 97.3111Z" fill="white"/>
<path d="M139.103 81.5649C134.758 81.5649 131.235 85.0898 131.235 89.438H139.103C139.103 86.1448 139.103 83.5204 139.103 81.5649Z" fill="#0062FF"/>
<path d="M161.133 97.3111C165.478 97.3111 169.001 93.7862 169.001 89.438C169.001 85.0898 165.478 81.5649 161.133 81.5649C156.788 81.5649 153.265 85.0898 153.265 89.438C153.265 93.7862 156.788 97.3111 161.133 97.3111Z" fill="white"/>
<path d="M161.133 89.23C161.133 89.3688 161.133 92.0625 161.133 97.3112C165.478 97.3112 169.001 93.7863 169.001 89.4382C169.001 89.4382 166.378 89.3688 161.133 89.23Z" fill="#0062FF"/>
<path fill-rule="evenodd" clip-rule="evenodd" d="M164.28 33.0669H151.692V71.0152H164.28V33.0669ZM132.809 39.3654H145.397V71.0152H132.809V39.3654ZM126.515 49.2855H113.926V71.0152H126.515V49.2855ZM107.632 59.2056H95.0433V71.0152H107.632V59.2056Z" fill="#FC5A5A"/>
<path fill-rule="evenodd" clip-rule="evenodd" d="M82.6121 33.2241H63.7293V35.586H82.6121V33.2241ZM63.7293 40.3099H82.6121V42.6718H63.7293V40.3099ZM82.6121 47.3957H63.7293V49.7576H82.6121V47.3957ZM63.7293 54.4815H82.6121V56.8434H63.7293V54.4815ZM82.6121 61.5672H63.7293V63.9292H82.6121V61.5672ZM82.6121 68.653H63.7293V71.015H82.6121V68.653Z" fill="#97A0C3"/>
<path d="M60.5822 13.8564H180.173C181.911 13.8564 183.32 15.2664 183.32 17.0057V26.4534H57.4351V17.0057C57.4351 15.2664 58.8441 13.8564 60.5822 13.8564Z" fill="url(#paint4_linear)"/>
<path d="M179.724 131.509C180.417 131.099 181.065 130.784 181.667 130.565C182.57 130.236 182.628 130.574 182.628 130.962C182.628 131.35 182.628 132.221 182.628 132.925C182.628 133.628 182.41 133.706 181.172 133.621C179.934 133.537 179.782 133.422 178.484 133.621C177.185 133.821 174.563 133.782 173.992 132.869C173.42 131.955 175.264 131.58 176.876 131.361C177.951 131.215 178.9 131.265 179.724 131.509Z" fill="#242F57"/>
<path d="M182.622 127.378V131.145L181.806 131.465C180.323 132.045 178.667 131.993 177.223 131.32L179.219 130.89V127.378H182.622Z" fill="#FC5A5A"/>
<path d="M196.65 129.384C197.161 128.76 197.662 128.243 198.153 127.831C198.889 127.213 199.059 127.51 199.191 127.875C199.324 128.24 199.622 129.058 199.862 129.719C200.103 130.381 199.925 130.528 198.732 130.872C197.54 131.217 197.358 131.161 196.206 131.793C195.054 132.424 192.577 133.286 191.728 132.623C190.878 131.96 192.483 130.976 193.923 130.219C194.883 129.714 195.792 129.436 196.65 129.384Z" fill="#242F57"/>
<path d="M173.227 56.041L177.833 66.7178L170.305 72.2693L165.06 61.1664L173.227 56.041Z" fill="white"/>
<path d="M197.961 124.51L199.249 128.049L198.591 128.629C197.396 129.682 195.822 130.2 194.235 130.062L195.963 128.974L194.763 125.675L197.961 124.51Z" fill="#FC5A5A"/>
<path d="M187.81 74.6333L189.814 81.1985L194.017 110.474L199.276 126.594L195.072 127.861L186.566 111.736L181.573 87.2341L187.81 74.6333Z" fill="#242F57"/>
<path d="M169.857 69.9254C169.461 69.3957 169.323 68.7391 169.442 67.9556C169.561 67.1721 169.453 66.5586 169.118 66.1152L168.111 67.5903L166.707 64.5596C166.253 66.4578 166.253 67.7901 166.707 68.5565C167.162 69.323 167.966 70.3505 169.118 71.639L169.857 69.9254Z" fill="#FC5A5A"/>
<path d="M178.662 129.728C176.384 95.5207 175.245 77.3293 175.245 75.1537C175.245 71.8902 189.421 65.9913 189.421 75.1537C189.421 77.2782 189.504 79.3744 189.671 81.4421C189.904 84.3157 189.476 87.2043 188.421 89.8869L185.576 97.1196L183.558 129.728H178.662Z" fill="#242F57"/>
<path d="M190.121 82.6257C183.468 83.4091 181.182 83.6543 175.654 83.4155C175.429 79.5643 175.245 75.8375 175.245 75.1534C175.245 73.3571 174.924 68.8258 174.281 61.5598C174.27 61.4259 174.264 61.2916 174.264 61.1572C174.264 58.6353 176.307 56.5908 178.827 56.5908L186.983 56.5908C187.021 56.5908 187.059 56.5915 187.097 56.593C188.765 56.656 190.065 58.0596 190.002 59.7281L189.421 75.1534C189.693 78.0898 189.926 80.5805 190.121 82.6257Z" fill="#0062FF"/>
<path d="M179.998 62.2246V70.2118C179.998 71.9487 179.413 73.6347 178.336 74.9972C177.353 76.2418 176.369 77.4865 175.386 78.7312C175.319 77.4137 175.245 75.5271 175.245 75.1536C175.245 74.4956 175.202 73.4705 175.116 72.0785C176.405 72.0785 178.032 68.7938 179.998 62.2246Z" fill="#242F57"/>
<path d="M171.53 40.0845C171.18 39.0888 170.787 38.4936 170.352 38.2986C169.698 38.0062 168.94 37.1189 169.871 36.1743L170.514 35.604L169.001 33.6003C169.115 33.456 169.566 33.5687 170.352 33.9383C171.53 34.4928 172.328 35.2588 172.748 36.5256C173.168 37.7925 172.959 38.2694 174.372 40.3308L172.007 40.9888L171.53 40.0845Z" fill="#FC5A5A"/>
<path d="M176.984 54.3485L171.209 39.7962L174.073 38.7358L180.657 48.0874L176.984 54.3485Z" fill="#0062FF"/>
<path d="M177.053 57.9297C177.563 57.9419 178.224 58.1399 179.036 58.5236C179.848 58.9072 180.239 59.6781 180.208 60.8361L179.444 69.5702C179.347 70.6753 178.949 71.7325 178.292 72.626L175.564 76.3361C175.427 76.5232 175.261 76.688 175.074 76.8248C174.062 77.5624 172.645 77.34 171.908 76.328L167.809 70.7004L169.798 69.1832L172.795 71.6418L174.106 70.2038C174.228 67.9918 174.288 65.3019 174.288 62.1339C174.288 58.9659 175.21 57.5645 177.053 57.9297Z" fill="#0062FF"/>
<path d="M188.068 69.2045C184.344 68.4363 182.328 66.6397 182.022 63.8147C181.563 59.5772 181.146 58.8796 179.725 58.5773C178.304 58.2751 176.488 56.4656 176.488 52.1135V46.4157C176.488 43.7025 178.686 41.5029 181.397 41.5029H182.383C185.095 41.5029 187.293 43.7025 187.293 46.4157V52.1135C187.426 54.3355 187.992 55.9683 188.989 57.0119C190.484 58.5773 192.436 60.4286 191.259 64.5076C190.475 67.227 189.411 68.7926 188.068 69.2045Z" fill="#242F57"/>
<path fill-rule="evenodd" clip-rule="evenodd" d="M180.939 88.0163H181.341V86.9141H180.939V88.0163ZM181.341 90.6931H180.939V89.5909H181.341V90.6931ZM180.939 93.37H181.341V92.2678H180.939V93.37ZM181.341 96.0468H180.939V94.9446H181.341V96.0468ZM180.939 98.7237H181.341V97.6215H180.939V98.7237ZM181.341 101.401H180.939V100.298H181.341V101.401ZM180.939 104.077H181.341V102.975H180.939V104.077ZM181.341 106.754H180.939V105.652H181.341V106.754ZM180.939 109.431H181.341V108.329H180.939V109.431ZM181.341 112.108H180.939V111.006H181.341V112.108ZM180.939 114.785H181.341V113.683H180.939V114.785ZM181.341 117.462H180.939V116.359H181.341V117.462ZM180.939 120.139H181.341V119.036H180.939V120.139ZM181.341 122.815H180.939V121.713H181.341V122.815ZM180.939 125.492H181.341V124.39H180.939V125.492ZM180.939 128.169H181.341V127.067H180.939V128.169Z" fill="#97A0C3"/>
<path d="M57.4188 32.5371L39.2937 45.6435L34.2927 40.3104L57.434 28.8003L57.4188 32.5371Z" fill="#242F57"/>
<path d="M32.6799 64.624L42.5386 70.9928L48.1404 77.0366H31.3011V68.1791L32.6799 64.624Z" fill="#242F57"/>
<path d="M67.2446 92.749L65.8527 90.5838L68.9562 88.895L70.1128 91.5625L67.2446 92.749Z" fill="#FC5A5A"/>
<path d="M66.7731 92.7199L69.8995 90.9857L72.2464 90.5487C73.4403 90.3489 74.3608 90.027 74.9745 91.135C75.1322 91.4196 75.0716 91.7549 74.8391 91.8838L68.9753 95.1364C68.6104 95.3387 68.1507 95.2068 67.9485 94.8417L66.7731 92.7199Z" fill="#242F57"/>
<path d="M40.936 40.9322L36.275 40.2767L36.5256 38.492C35.6863 36.7042 35.6967 34.3868 36.5569 31.5398C37.417 28.6929 39.8252 28.2389 43.7814 30.1778C43.6587 31.8733 43.9496 32.9959 44.6544 33.5455C45.7115 34.37 45.301 34.9432 44.871 35.0794C44.441 35.2157 44.1334 35.5069 44.1173 36.4978C44.1013 37.4887 43.4805 37.598 42.5015 37.8527C41.8488 38.0225 41.327 39.049 40.936 40.9322Z" fill="#FC5A5A"/>
<path d="M36.468 38.4455C36.0552 38.2898 35.8177 38.0313 35.7557 37.6702C35.6627 37.1285 35.9776 36.8772 34.9133 35.7631C33.8489 34.649 32.9949 33.1767 33.6737 30.6149C34.3525 28.0531 35.8891 27.8449 37.4215 27.7148C38.9539 27.5846 39.5758 27.7636 41.6821 27.0753C43.7884 26.387 44.8474 27.7586 44.3859 29.8517C43.9243 31.9447 40.7587 31.864 40.2028 31.7858C39.6468 31.7076 39.9209 32.5439 39.9756 33.4032C40.0303 34.2626 39.4808 34.4476 39.2802 34.3258C39.0796 34.2039 38.6533 34.0613 38.2642 34.534C37.8752 35.0067 38.2527 35.7613 38.5581 35.8043C38.8635 35.8472 39.2703 35.7595 39.2837 36.1076C39.2972 36.4558 39.1101 37.5266 38.7513 38.0915C38.5121 38.4681 37.751 38.5861 36.468 38.4455Z" fill="#242F57"/>
<path d="M33.4096 65.9111L46.4333 67.7089L60.1265 72.3309C61.8208 72.9029 63.202 74.1528 63.9403 75.7825L70.1985 89.5961L65.5169 91.0597L56.3256 78.4163L42.0706 78.0926C36.3638 78.292 31.5759 73.8243 31.3766 68.1137L33.4096 65.9111Z" fill="#0062FF"/>
<path d="M50.6688 41.5436H60.1999L73.5639 34.8253L74.8289 33.2246V34.6853H78.022C77.7137 36.345 77.1045 37.3803 76.1942 37.7911C75.284 38.2018 73.9693 38.2018 72.2502 37.7911L60.3877 46.5883L50.6688 47.9734V41.5436Z" fill="#FC5A5A"/>
<path d="M52.2581 40.8674L51.5856 48.3411L45.9415 48.4985L46.6503 67.6528L31.3001 68.1892L30.543 46.4936C30.4156 42.8433 33.2695 39.7809 36.9173 39.6534L38.9882 39.581C40.411 39.5313 47.7741 40.4467 52.2581 40.8674Z" fill="#FC5A5A"/>
<path fill-rule="evenodd" clip-rule="evenodd" d="M38.488 69.1504L38.3736 69.2585C38.6351 69.5357 38.8895 69.8012 39.1367 70.055L39.2494 69.9451C39.0028 69.6919 38.749 69.427 38.488 69.1504ZM40.3622 71.0551L40.2529 71.1684C40.5324 71.4382 40.8008 71.69 41.0582 71.9237L41.1639 71.8071C40.9078 71.5745 40.6405 71.3238 40.3622 71.0551ZM42.2611 72.9478L42.3582 72.8239C42.6784 73.0754 42.9747 73.2881 43.2471 73.4619L43.1624 73.5947C42.8855 73.4179 42.5851 73.2022 42.2611 72.9478ZM44.6561 74.0456L44.6382 74.202L45.7325 74.3276L45.7504 74.1712L44.6561 74.0456ZM47.2958 74.507L47.3138 74.3506L48.4081 74.4761L48.3902 74.6326L47.2958 74.507ZM49.9714 74.6555L49.9535 74.812L51.0478 74.9375L51.0657 74.7811L49.9714 74.6555ZM52.6111 75.1169L52.629 74.9605L53.7234 75.0861L53.7054 75.2425L52.6111 75.1169ZM55.2867 75.2655L55.2688 75.4219L56.3631 75.5475L56.381 75.391L55.2867 75.2655ZM57.8919 75.8362L57.9411 75.6866C58.296 75.8036 58.638 75.9559 58.962 76.1409L58.884 76.2776C58.5691 76.0978 58.2368 75.9499 57.8919 75.8362ZM60.2181 77.1193L60.1047 77.2285C60.3559 77.4895 60.5807 77.7755 60.7757 78.0827L60.9085 77.9982C60.7078 77.6822 60.4765 77.3879 60.2181 77.1193ZM61.5454 79.4568L61.6831 79.3807L62.2154 80.3457L62.0776 80.4218L61.5454 79.4568ZM62.9757 81.7243L62.838 81.8004L63.3702 82.7654L63.508 82.6893L62.9757 81.7243ZM64.1306 84.144L64.2684 84.0679L64.8006 85.0329L64.6629 85.109L64.1306 84.144ZM65.561 86.4115L65.4232 86.4876L65.9555 87.4526L66.0933 87.3765L65.561 86.4115Z" fill="white"/>
<path d="M75.3737 17.0059H100.079C100.426 17.0059 100.708 17.2879 100.708 17.6357V42.3572C100.708 42.7051 100.426 42.9871 100.079 42.9871H75.3737C75.0261 42.9871 74.7443 42.7051 74.7443 42.3572V17.6357C74.7443 17.2879 75.0261 17.0059 75.3737 17.0059Z" fill="url(#paint5_linear)"/>
<path fill-rule="evenodd" clip-rule="evenodd" d="M81.668 26.6368H88.0986V28.658L93.9418 24.4852L88.0986 20.3125V22.3576H81.668V26.6368ZM87.5111 39.6803V37.6592H93.9418V33.3799H87.5111V31.3348L81.668 35.5076L87.5111 39.6803Z" fill="#0062FF"/>
<defs>
<linearGradient id="paint0_linear" x1="159.559" y1="94.2747" x2="190.971" y2="115.248" gradientUnits="userSpaceOnUse">
<stop stop-color="#2975FE"/>
<stop offset="1" stop-color="#8393FF"/>
</linearGradient>
<linearGradient id="paint1_linear" x1="3.31165e-07" y1="47.4151" x2="16.2097" y2="77.562" gradientUnits="userSpaceOnUse">
<stop stop-color="#2975FE"/>
<stop offset="1" stop-color="#8393FF"/>
</linearGradient>
<linearGradient id="paint2_linear" x1="7.85254" y1="77.8771" x2="44.8619" y2="159.711" gradientUnits="userSpaceOnUse">
<stop stop-color="#2975FE"/>
<stop offset="1" stop-color="#8393FF"/>
</linearGradient>
<linearGradient id="paint3_linear" x1="73.3864" y1="114.085" x2="84.1258" y2="128.333" gradientUnits="userSpaceOnUse">
<stop stop-color="#2975FE"/>
<stop offset="1" stop-color="#8393FF"/>
</linearGradient>
<linearGradient id="paint4_linear" x1="57.4351" y1="14.0447" x2="59.0756" y2="35.8155" gradientUnits="userSpaceOnUse">
<stop stop-color="#2975FE"/>
<stop offset="1" stop-color="#8393FF"/>
</linearGradient>
<linearGradient id="paint5_linear" x1="74.7443" y1="17.3941" x2="96.4481" y2="46.1971" gradientUnits="userSpaceOnUse">
<stop stop-color="#2975FE"/>
<stop offset="1" stop-color="#8393FF"/>
</linearGradient>
</defs>
</svg>
