<svg width="176" height="120" viewBox="0 0 176 120" fill="none" xmlns="http://www.w3.org/2000/svg">
<path fill-rule="evenodd" clip-rule="evenodd" d="M157.281 73.1481C157.621 73.1481 157.897 72.8722 157.897 72.5318C157.897 72.1915 157.621 71.9155 157.281 71.9155C156.941 71.9155 156.666 72.1915 156.666 72.5318C156.666 72.8722 156.941 73.1481 157.281 73.1481ZM157.897 74.997C157.897 75.3374 157.621 75.6133 157.281 75.6133C156.941 75.6133 156.666 75.3374 156.666 74.997C156.666 74.6566 156.941 74.3807 157.281 74.3807C157.621 74.3807 157.897 74.6566 157.897 74.997ZM157.281 78.0785C157.621 78.0785 157.897 77.8026 157.897 77.4622C157.897 77.1218 157.621 76.8459 157.281 76.8459C156.941 76.8459 156.666 77.1218 156.666 77.4622C156.666 77.8026 156.941 78.0785 157.281 78.0785ZM157.897 79.9274C157.897 80.2678 157.621 80.5437 157.281 80.5437C156.941 80.5437 156.666 80.2678 156.666 79.9274C156.666 79.587 156.941 79.3111 157.281 79.3111C157.621 79.3111 157.897 79.587 157.897 79.9274ZM157.281 83.0089C157.621 83.0089 157.897 82.7329 157.897 82.3926C157.897 82.0522 157.621 81.7763 157.281 81.7763C156.941 81.7763 156.666 82.0522 156.666 82.3926C156.666 82.7329 156.941 83.0089 157.281 83.0089ZM157.281 85.4741C157.621 85.4741 157.897 85.1981 157.897 84.8578C157.897 84.5174 157.621 84.2415 157.281 84.2415C156.941 84.2415 156.666 84.5174 156.666 84.8578C156.666 85.1981 156.941 85.4741 157.281 85.4741ZM160.358 84.8578C160.358 85.1981 160.082 85.4741 159.742 85.4741C159.403 85.4741 159.127 85.1981 159.127 84.8578C159.127 84.5174 159.403 84.2415 159.742 84.2415C160.082 84.2415 160.358 84.5174 160.358 84.8578ZM159.742 83.0089C160.082 83.0089 160.358 82.7329 160.358 82.3926C160.358 82.0522 160.082 81.7763 159.742 81.7763C159.403 81.7763 159.127 82.0522 159.127 82.3926C159.127 82.7329 159.403 83.0089 159.742 83.0089ZM160.358 79.9274C160.358 80.2678 160.082 80.5437 159.742 80.5437C159.403 80.5437 159.127 80.2678 159.127 79.9274C159.127 79.587 159.403 79.3111 159.742 79.3111C160.082 79.3111 160.358 79.587 160.358 79.9274ZM159.742 78.0785C160.082 78.0785 160.358 77.8026 160.358 77.4622C160.358 77.1218 160.082 76.8459 159.742 76.8459C159.403 76.8459 159.127 77.1218 159.127 77.4622C159.127 77.8026 159.403 78.0785 159.742 78.0785ZM160.358 74.997C160.358 75.3374 160.082 75.6133 159.742 75.6133C159.403 75.6133 159.127 75.3374 159.127 74.997C159.127 74.6566 159.403 74.3807 159.742 74.3807C160.082 74.3807 160.358 74.6566 160.358 74.997ZM159.742 73.1481C160.082 73.1481 160.358 72.8722 160.358 72.5318C160.358 72.1915 160.082 71.9155 159.742 71.9155C159.403 71.9155 159.127 72.1915 159.127 72.5318C159.127 72.8722 159.403 73.1481 159.742 73.1481ZM162.819 84.8578C162.819 85.1981 162.544 85.4741 162.204 85.4741C161.864 85.4741 161.588 85.1981 161.588 84.8578C161.588 84.5174 161.864 84.2415 162.204 84.2415C162.544 84.2415 162.819 84.5174 162.819 84.8578ZM162.204 83.0089C162.544 83.0089 162.819 82.7329 162.819 82.3926C162.819 82.0522 162.544 81.7763 162.204 81.7763C161.864 81.7763 161.588 82.0522 161.588 82.3926C161.588 82.7329 161.864 83.0089 162.204 83.0089ZM162.819 79.9274C162.819 80.2678 162.544 80.5437 162.204 80.5437C161.864 80.5437 161.588 80.2678 161.588 79.9274C161.588 79.587 161.864 79.3111 162.204 79.3111C162.544 79.3111 162.819 79.587 162.819 79.9274ZM162.204 78.0785C162.544 78.0785 162.819 77.8026 162.819 77.4622C162.819 77.1218 162.544 76.8459 162.204 76.8459C161.864 76.8459 161.588 77.1218 161.588 77.4622C161.588 77.8026 161.864 78.0785 162.204 78.0785ZM162.819 74.997C162.819 75.3374 162.544 75.6133 162.204 75.6133C161.864 75.6133 161.588 75.3374 161.588 74.997C161.588 74.6566 161.864 74.3807 162.204 74.3807C162.544 74.3807 162.819 74.6566 162.819 74.997ZM162.204 73.1481C162.544 73.1481 162.819 72.8722 162.819 72.5318C162.819 72.1915 162.544 71.9155 162.204 71.9155C161.864 71.9155 161.588 72.1915 161.588 72.5318C161.588 72.8722 161.864 73.1481 162.204 73.1481ZM165.28 84.8578C165.28 85.1981 165.005 85.4741 164.665 85.4741C164.325 85.4741 164.05 85.1981 164.05 84.8578C164.05 84.5174 164.325 84.2415 164.665 84.2415C165.005 84.2415 165.28 84.5174 165.28 84.8578ZM164.665 83.0089C165.005 83.0089 165.28 82.7329 165.28 82.3926C165.28 82.0522 165.005 81.7763 164.665 81.7763C164.325 81.7763 164.05 82.0522 164.05 82.3926C164.05 82.7329 164.325 83.0089 164.665 83.0089ZM165.28 79.9274C165.28 80.2678 165.005 80.5437 164.665 80.5437C164.325 80.5437 164.05 80.2678 164.05 79.9274C164.05 79.587 164.325 79.3111 164.665 79.3111C165.005 79.3111 165.28 79.587 165.28 79.9274ZM164.665 78.0785C165.005 78.0785 165.28 77.8026 165.28 77.4622C165.28 77.1218 165.005 76.8459 164.665 76.8459C164.325 76.8459 164.05 77.1218 164.05 77.4622C164.05 77.8026 164.325 78.0785 164.665 78.0785ZM165.28 74.997C165.28 75.3374 165.005 75.6133 164.665 75.6133C164.325 75.6133 164.05 75.3374 164.05 74.997C164.05 74.6566 164.325 74.3807 164.665 74.3807C165.005 74.3807 165.28 74.6566 165.28 74.997ZM164.665 73.1481C165.005 73.1481 165.28 72.8722 165.28 72.5318C165.28 72.1915 165.005 71.9155 164.665 71.9155C164.325 71.9155 164.05 72.1915 164.05 72.5318C164.05 72.8722 164.325 73.1481 164.665 73.1481ZM167.742 84.8578C167.742 85.1981 167.466 85.4741 167.126 85.4741C166.786 85.4741 166.511 85.1981 166.511 84.8578C166.511 84.5174 166.786 84.2415 167.126 84.2415C167.466 84.2415 167.742 84.5174 167.742 84.8578ZM167.126 83.0089C167.466 83.0089 167.742 82.7329 167.742 82.3926C167.742 82.0522 167.466 81.7763 167.126 81.7763C166.786 81.7763 166.511 82.0522 166.511 82.3926C166.511 82.7329 166.786 83.0089 167.126 83.0089ZM167.742 79.9274C167.742 80.2678 167.466 80.5437 167.126 80.5437C166.786 80.5437 166.511 80.2678 166.511 79.9274C166.511 79.587 166.786 79.3111 167.126 79.3111C167.466 79.3111 167.742 79.587 167.742 79.9274ZM167.126 78.0785C167.466 78.0785 167.742 77.8026 167.742 77.4622C167.742 77.1218 167.466 76.8459 167.126 76.8459C166.786 76.8459 166.511 77.1218 166.511 77.4622C166.511 77.8026 166.786 78.0785 167.126 78.0785ZM167.742 74.997C167.742 75.3374 167.466 75.6133 167.126 75.6133C166.786 75.6133 166.511 75.3374 166.511 74.997C166.511 74.6566 166.786 74.3807 167.126 74.3807C167.466 74.3807 167.742 74.6566 167.742 74.997ZM167.126 73.1481C167.466 73.1481 167.742 72.8722 167.742 72.5318C167.742 72.1915 167.466 71.9155 167.126 71.9155C166.786 71.9155 166.511 72.1915 166.511 72.5318C166.511 72.8722 166.786 73.1481 167.126 73.1481ZM170.203 84.8578C170.203 85.1981 169.927 85.4741 169.587 85.4741C169.248 85.4741 168.972 85.1981 168.972 84.8578C168.972 84.5174 169.248 84.2415 169.587 84.2415C169.927 84.2415 170.203 84.5174 170.203 84.8578ZM169.587 83.0089C169.927 83.0089 170.203 82.7329 170.203 82.3926C170.203 82.0522 169.927 81.7763 169.587 81.7763C169.248 81.7763 168.972 82.0522 168.972 82.3926C168.972 82.7329 169.248 83.0089 169.587 83.0089ZM170.203 79.9274C170.203 80.2678 169.927 80.5437 169.587 80.5437C169.248 80.5437 168.972 80.2678 168.972 79.9274C168.972 79.587 169.248 79.3111 169.587 79.3111C169.927 79.3111 170.203 79.587 170.203 79.9274ZM169.587 78.0785C169.927 78.0785 170.203 77.8026 170.203 77.4622C170.203 77.1218 169.927 76.8459 169.587 76.8459C169.248 76.8459 168.972 77.1218 168.972 77.4622C168.972 77.8026 169.248 78.0785 169.587 78.0785ZM170.203 74.997C170.203 75.3374 169.927 75.6133 169.587 75.6133C169.248 75.6133 168.972 75.3374 168.972 74.997C168.972 74.6566 169.248 74.3807 169.587 74.3807C169.927 74.3807 170.203 74.6566 170.203 74.997ZM169.587 73.1481C169.927 73.1481 170.203 72.8722 170.203 72.5318C170.203 72.1915 169.927 71.9155 169.587 71.9155C169.248 71.9155 168.972 72.1915 168.972 72.5318C168.972 72.8722 169.248 73.1481 169.587 73.1481Z" fill="#97A0C3"/>
<path fill-rule="evenodd" clip-rule="evenodd" d="M15.7054 24.4495C15.7054 37.5329 26.2914 48.1398 39.3508 48.1398C52.4101 48.1398 62.9961 37.5329 62.9961 24.4495C62.9961 11.3662 52.4101 0.759277 39.3508 0.759277C26.2914 0.759277 15.7054 11.3662 15.7054 24.4495ZM51.8309 24.4495C51.8309 31.3571 46.2429 36.9561 39.3508 36.9561C32.4586 36.9561 26.8706 31.3571 26.8706 24.4495C26.8706 17.5419 32.4586 11.943 39.3508 11.943C46.2429 11.943 51.8309 17.5419 51.8309 24.4495Z" fill="url(#paint0_linear)"/>
<path d="M27.9871 101.996C20.1323 105.55 13.8525 105.505 9.14775 101.861C4.44301 98.2177 1.46501 93.0295 0.213745 86.2966C14.92 81.8731 24.1778 87.1062 27.9871 101.996Z" fill="#242F57"/>
<path d="M16.3891 95.6065C14.6938 94.6432 12.8087 93.5757 10.7338 92.404L5.92084 93.5584C5.83546 93.5788 5.74973 93.5259 5.72936 93.44C5.70898 93.3542 5.76169 93.268 5.84707 93.2475L10.3255 92.1734C7.73589 90.7115 4.85767 89.0912 1.69085 87.3125C1.61422 87.2694 1.58681 87.1721 1.62962 87.0951C1.67244 87.018 1.76927 86.9905 1.8459 87.0335C7.62816 90.2813 12.4482 93.0009 16.3064 95.1925L15.8086 90.2881C15.7871 90.0761 16.1033 90.0437 16.1248 90.2556L16.6455 95.3852C21.7895 98.3086 25.1721 100.265 26.7942 101.256C26.8692 101.301 26.8931 101.4 26.8475 101.475C26.802 101.551 26.7042 101.575 26.6292 101.529C25.6586 100.936 24.0551 99.9962 21.8188 98.7089C21.813 98.7119 21.8068 98.7146 21.8004 98.717L17.402 100.332C17.3195 100.362 17.2283 100.319 17.1982 100.236C17.1681 100.153 17.2105 100.062 17.293 100.031L21.4593 98.502C20.0299 97.6803 18.3568 96.7247 16.44 95.6354C16.4215 95.6292 16.4041 95.6196 16.3891 95.6065Z" fill="white"/>
<path d="M26.2282 106.445C18.1539 103.381 13.733 98.8973 12.9655 92.9939C12.1981 87.0905 13.7438 81.3225 17.6028 75.6899C31.1483 82.998 34.0234 93.2497 26.2282 106.445Z" fill="url(#paint1_linear)"/>
<path d="M22.9019 93.7661C24.4791 99.4886 25.4922 103.276 25.9415 105.129C25.9623 105.215 25.9102 105.301 25.8251 105.322C25.74 105.343 25.6542 105.29 25.6334 105.205C25.3646 104.096 24.8931 102.292 24.2189 99.7925C24.2127 99.7904 24.2064 99.788 24.2003 99.7851L19.9644 97.8008C19.885 97.7636 19.8505 97.6686 19.8874 97.5886C19.9244 97.5086 20.0187 97.4739 20.0981 97.5111L24.1104 99.3907C23.6788 97.7939 23.169 95.9293 22.5813 93.797C22.5726 93.7794 22.5671 93.7603 22.5657 93.7404C22.0458 91.8545 21.4651 89.76 20.8237 87.4571L16.6184 84.8527C16.5438 84.8065 16.5205 84.7081 16.5663 84.633C16.6122 84.5578 16.7098 84.5343 16.7844 84.5805L20.6974 87.0039C19.8965 84.13 19.0032 80.939 18.0174 77.4308C17.9936 77.3459 18.0426 77.2577 18.1268 77.2336C18.2111 77.2096 18.2987 77.2589 18.3226 77.3438C20.1224 83.7493 21.6142 89.0975 22.7979 93.3889L25.8884 89.5678C26.0219 89.4027 26.2678 89.6045 26.1342 89.7696L22.9019 93.7661Z" fill="white"/>
<path d="M34.2676 111.976C27.5997 117.455 21.5268 119.047 16.0489 116.752C10.5711 114.456 6.36266 110.218 3.42374 104.038C16.4809 95.9328 26.7622 98.5787 34.2676 111.976Z" fill="#636E95"/>
<path d="M21.5908 108.419C27.3081 109.9 31.0766 110.907 32.8971 111.44C32.9813 111.464 33.0297 111.553 33.0051 111.637C32.9805 111.722 32.8923 111.77 32.8081 111.746C31.7188 111.427 29.9292 110.937 27.4395 110.278C27.4346 110.282 27.4293 110.286 27.4238 110.29L23.5936 112.986C23.5218 113.037 23.4228 113.02 23.3724 112.948C23.322 112.876 23.3394 112.776 23.4112 112.726L27.0392 110.172C25.448 109.751 23.5872 109.265 21.4568 108.713C21.4373 108.712 21.4181 108.707 21.4002 108.698C19.516 108.21 17.4217 107.671 15.1175 107.081L10.7688 109.441C10.6917 109.483 10.5953 109.454 10.5536 109.377C10.5118 109.3 10.5405 109.203 10.6177 109.161L14.664 106.965C11.7883 106.229 8.59328 105.415 5.07887 104.523C4.99383 104.501 4.94233 104.415 4.96384 104.329C4.98535 104.244 5.07173 104.192 5.15677 104.214C11.5737 105.842 16.926 107.211 21.2139 108.321L19.4715 103.726C19.3963 103.528 19.6932 103.415 19.7684 103.613L21.5908 108.419Z" fill="white"/>
<path d="M14.3098 24.4497H28.2663C28.2663 30.5853 33.2295 35.5583 39.3507 35.5583V49.5379C25.5205 49.5379 14.3098 38.305 14.3098 24.4497Z" fill="#242F57"/>
<path d="M10.1228 108.961H165.179C171.037 108.961 175.786 113.718 175.786 119.586H20.7298C14.8717 119.586 10.1228 114.829 10.1228 108.961Z" fill="#FAFAFB"/>
<path d="M4.95896 119.592C15.9747 119.592 29.9016 119.592 37.0956 119.592C37.0956 110.71 29.9016 103.509 21.0273 103.509C12.153 103.509 4.95896 110.71 4.95896 119.592Z" fill="#FC5A5A"/>
<path fill-rule="evenodd" clip-rule="evenodd" d="M89.9185 86.2993L74.6069 108.72L74.5593 108.72L74.5591 108.79L67.1959 119.572L67.2159 119.586H70.5684L76.0775 111.519L105.36 111.576L110.83 119.586H114.212L107.018 109.051L107.018 108.784L106.835 108.783L91.5245 86.3641L90.7688 86.8819L89.9185 86.2993ZM103.448 108.777L77.9843 108.727L90.6994 90.108L103.448 108.777Z" fill="#242F57"/>
<path d="M37.2487 16.5562H144.194C145.378 16.5562 146.338 17.5175 146.338 18.7034V99.8243C146.338 101.01 145.378 101.972 144.194 101.972H37.2487C36.0647 101.972 35.1049 101.01 35.1049 99.8243V18.7034C35.1049 17.5175 36.0647 16.5562 37.2487 16.5562Z" fill="#FAFAFB"/>
<path d="M43.3393 33.4717H137.825V61.0115H43.3393V33.4717Z" fill="#FAFAFB"/>
<path d="M37.2487 16.5562H144.194C145.378 16.5562 146.338 17.5175 146.338 18.7034V27.9449H35.1049V18.7034C35.1049 17.5175 36.0647 16.5562 37.2487 16.5562Z" fill="#0601B8"/>
<path d="M43.6378 94.8418C47.0682 88.1315 51.5163 84.4735 56.9823 83.8677C65.1812 82.9591 67.484 86.1294 70.5717 82.9591C73.6595 79.7888 78.3003 76.8043 83.9526 80.4428C89.605 84.0812 92.5124 77.9264 97.5095 76.6879C102.507 75.4494 105.782 80.4939 110.749 82.9591C115.716 85.4243 117.029 76.092 124.566 76.6879C132.102 77.2839 129.73 70.3774 137.795 70.3774V94.9855L43.6378 94.8418Z" fill="url(#paint2_linear)"/>
<path d="M57.3655 57.3765C62.3372 57.3765 66.3675 53.3395 66.3675 48.3596C66.3675 43.3798 62.3372 39.3428 57.3655 39.3428C52.3939 39.3428 48.3636 43.3798 48.3636 48.3596C48.3636 53.3395 52.3939 57.3765 57.3655 57.3765Z" fill="#0062FF"/>
<path d="M57.2958 57.3768C57.2958 55.536 57.2958 52.5314 57.2958 48.3628C52.9019 44.3068 50.705 42.2788 50.705 42.2788C49.2508 43.8822 48.3636 46.0179 48.3636 48.3628C48.3636 53.3411 52.3627 57.3768 57.2958 57.3768Z" fill="url(#paint3_linear)"/>
<path d="M57.2957 48.29C57.2957 48.29 57.2957 51.319 57.2957 57.3768C62.3059 57.3768 66.3675 53.317 66.3675 48.309C66.3675 48.309 63.3436 48.3027 57.2957 48.29Z" fill="#0601B8"/>
<path d="M71.7826 39.4829H132.242V42.6703H71.7826V39.4829Z" fill="white"/>
<path d="M71.7826 39.4829H95.9552V42.6703H71.7826V39.4829Z" fill="url(#paint4_linear)"/>
<path d="M71.8105 53.043H132.27V56.3701H71.8105V53.043Z" fill="white"/>
<path d="M71.8105 53.043H102.062V56.3701H71.8105V53.043Z" fill="#0601B8"/>
<path d="M71.8105 46.4727H132.27V49.7998H71.8105V46.4727Z" fill="white"/>
<path d="M71.8105 46.4727H109.011V49.7998H71.8105V46.4727Z" fill="#0062FF"/>
<path d="M43.6378 94.8421C45.7563 89.6753 50.2044 87.3579 56.9823 87.8898C67.149 88.6876 68.398 86.3425 70.5717 82.9594C72.7454 79.5763 78.3003 76.8046 83.9526 80.4431C89.605 84.0815 94.1822 87.3238 97.5095 85.5037C100.837 83.6836 105.782 80.4942 110.749 82.9594C115.716 85.4246 120.798 83.4314 124.566 80.9666C128.334 78.5018 133.579 77.9606 137.656 82.0451V94.9858L43.6378 94.8421Z" fill="#97A0C3"/>
<path fill-rule="evenodd" clip-rule="evenodd" d="M43.6184 66.8828H43.3393V94.9818H43.6184V66.8828ZM57.0166 66.8828H56.7375V94.9818H57.0166V66.8828ZM70.4148 66.8828H70.694V94.9818H70.4148V66.8828ZM84.0922 66.8828H83.8131V94.9818H84.0922V66.8828ZM97.3508 66.8828H97.63V94.9818H97.3508V66.8828ZM111.028 66.8828H110.749V94.9818H111.028V66.8828ZM124.287 66.8828H124.566V94.9818H124.287V66.8828ZM137.964 66.8828H137.685V94.9818H137.964V66.8828Z" fill="white"/>
<path d="M127.078 4.95312H160.434C161.205 4.95312 161.83 5.57901 161.83 6.35109V30.9552C161.83 31.7273 161.205 32.3532 160.434 32.3532H127.078C126.307 32.3532 125.682 31.7273 125.682 30.9552V6.35109C125.682 5.57901 126.307 4.95312 127.078 4.95312Z" fill="#FC5A5A"/>
<path d="M136.708 11.6636L150.804 18.7233L136.708 25.783V11.6636Z" fill="white"/>
<path d="M161.042 116.561C161.358 116 161.68 115.523 162.009 115.131C162.503 114.542 162.677 114.753 162.832 115.021C162.987 115.289 163.334 115.892 163.614 116.378C163.895 116.865 163.775 117.005 162.885 117.442C161.995 117.879 161.845 117.86 161.026 118.517C160.208 119.174 158.38 120.196 157.62 119.793C156.861 119.39 157.987 118.393 159.014 117.597C159.699 117.067 160.375 116.721 161.042 116.561Z" fill="#242F57"/>
<path d="M161.69 112.149L162.936 115.201L162.499 115.748C161.704 116.743 160.539 117.369 159.272 117.481L160.48 116.385L159.081 113.957L161.69 112.149Z" fill="#97A0C3"/>
<path d="M159.141 115.421L151.908 99.6694L155.018 78.2314L158.285 99.3297L162.824 113.598L159.141 115.421Z" fill="#242F57"/>
<path d="M134.921 47.3831L133.706 46.0252C133.911 45.0217 133.683 44.2816 133.022 43.8051L132.667 44.5199C132.019 44.0434 131.471 43.5098 131.02 42.9191C130.344 42.033 128.989 44.0048 129.381 45.4451C129.774 46.8854 131.254 47.2391 132.092 48.0529C132.226 48.183 132.704 48.606 133.525 49.3219L134.921 47.3831Z" fill="#97A0C3"/>
<path d="M147.508 117.79C148.062 117.462 148.579 117.211 149.06 117.036C149.781 116.773 149.827 117.043 149.827 117.353C149.827 117.663 149.827 118.358 149.827 118.92C149.827 119.482 149.653 119.544 148.665 119.476C147.676 119.409 147.555 119.317 146.518 119.476C145.481 119.635 143.388 119.605 142.932 118.876C142.475 118.146 143.948 117.846 145.235 117.672C146.093 117.555 146.851 117.595 147.508 117.79Z" fill="#242F57"/>
<path d="M149.827 114.553V117.561L149.176 117.816C147.991 118.279 146.669 118.238 145.516 117.7L147.11 117.356V114.553H149.827Z" fill="#97A0C3"/>
<path d="M152.156 57.1743L140.569 56.3701C139.933 56.3259 139.337 56.0409 138.903 55.573L132.119 48.263L134.53 46.4727L140.377 51.4254C149.145 51.0706 153.62 50.8932 153.802 50.8932C153.984 50.8932 153.984 51.2757 153.802 52.0406L152.156 57.1743Z" fill="#242F57"/>
<path d="M136.568 69.4341L137.431 71.6628C136.384 71.9627 135.77 72.1335 135.588 72.1752C134.45 72.4364 133.348 73.487 131.928 73.0322C130.509 72.5774 129.596 70.3653 130.706 70.2799C131.446 70.223 132.192 70.0524 132.943 69.7683L132.538 69.0802C133.297 68.7848 134.041 68.9965 134.769 69.7152L136.568 69.4341Z" fill="#97A0C3"/>
<path d="M150.202 52.2522L149.688 49.1286C148.142 49.3621 147.292 48.8996 147.138 47.7411C146.984 46.5826 146.899 45.8874 146.883 45.6555L146.019 45.4939L147.138 43.9455L147.731 41.1807C149.147 40.6581 150.696 41.1946 152.38 42.7901C154.906 45.1834 153.644 50.6008 153.309 51.8988C153.085 52.7641 152.05 52.8819 150.202 52.2522Z" fill="#97A0C3"/>
<path d="M150.525 116.32H146.079L142.85 75.4418L155.113 75.3818C155.401 77.625 155.354 79.8988 154.973 82.128L152.149 98.6276L150.525 116.32Z" fill="#242F57"/>
<path d="M142.85 75.4419L145.041 60.0568C144.137 57.8944 144.169 55.9101 145.137 54.104C145.589 53.2611 146.886 52.5962 148.012 52.0214C150.473 50.7647 153.311 50.2715 154.057 50.2715C155.448 50.7802 156.021 52.6762 155.777 55.9594C155.533 59.2427 155.318 65.7496 155.133 75.4804L142.85 75.4419Z" fill="#0062FF"/>
<path d="M150.971 58.3887L152.621 59.6887L146.917 70.3067C146.632 70.8376 146.133 71.2199 145.546 71.3559L143.293 71.8787L143.686 69.2026L150.971 58.3887Z" fill="#242F57"/>
<path d="M146.469 41.0454C145.655 42.3381 146.597 43.3293 149.295 44.0189C153.342 45.0533 149.688 46.2787 151.35 48.6136C153.013 50.9485 149.165 54.5696 152.149 57.8959C154.138 60.1134 155.238 61.4412 155.447 61.8794C157.126 60.8347 157.966 59.3126 157.966 57.3131C157.966 54.3139 154.919 50.7983 155.38 47.8035C155.841 44.8086 155.942 41.8048 152.359 39.9868C149.971 38.7747 148.007 39.1276 146.469 41.0454Z" fill="#242F57"/>
<path d="M153.098 59.1714L146.595 68.8408C146.247 69.3583 145.72 69.7278 145.115 69.8777L135.764 72.1952L135.422 69.2086L142.238 66.5148C146.315 58.7312 148.399 54.7605 148.49 54.6028C148.581 54.4451 148.912 54.6363 149.482 55.1764L153.098 59.1714Z" fill="#0062FF"/>
<path fill-rule="evenodd" clip-rule="evenodd" d="M149.088 79.1315L149.227 79.1355L149.255 78.1573L149.116 78.1533L149.088 79.1315ZM149.159 81.5111L149.019 81.507L149.048 80.5289L149.187 80.5329L149.159 81.5111ZM148.951 83.8826L149.091 83.8866L149.119 82.9084L148.979 82.9044L148.951 83.8826ZM149.022 86.2622L148.883 86.2581L148.911 85.28L149.051 85.284L149.022 86.2622ZM148.815 88.6337L148.954 88.6377L148.982 87.6595L148.843 87.6555L148.815 88.6337ZM148.886 91.0133L148.746 91.0092L148.774 90.0311L148.914 90.0351L148.886 91.0133ZM148.678 93.3848L148.818 93.3888L148.846 92.4106L148.706 92.4066L148.678 93.3848ZM148.749 95.7644L148.61 95.7603L148.638 94.7822L148.777 94.7862L148.749 95.7644ZM148.542 98.1359L148.681 98.1399L148.709 97.1617L148.57 97.1577L148.542 98.1359ZM148.613 100.515L148.473 100.511L148.501 99.5333L148.641 99.5373L148.613 100.515ZM148.405 102.887L148.545 102.891L148.573 101.913L148.433 101.909L148.405 102.887ZM148.476 105.267L148.337 105.263L148.365 104.284L148.504 104.288L148.476 105.267ZM148.269 107.638L148.408 107.642L148.436 106.664L148.297 106.66L148.269 107.638ZM148.34 110.018L148.2 110.014L148.228 109.035L148.368 109.039L148.34 110.018ZM148.132 112.389L148.272 112.393L148.3 111.415L148.16 111.411L148.132 112.389ZM148.064 114.765L148.203 114.769L148.231 113.791L148.092 113.787L148.064 114.765Z" fill="#97A0C3"/>
<path d="M23.7093 60.333L26.7336 63.269L25.5243 66.2911L28.2732 70.1262L26.7336 72.2493L22.8998 68.1446C21.7132 66.8743 21.4328 65.0022 22.195 63.439L23.7093 60.333Z" fill="#97A0C3"/>
<path d="M31.0317 50.9268L27.4146 52.5451L22.9443 60.2929L25.9033 64.0541L31.0317 58.4683V50.9268Z" fill="#242F57"/>
<path d="M28.1895 114.046H31.2079V117.068H28.1895V114.046Z" fill="#97A0C3"/>
<path d="M37.0772 114.046H40.0957V117.068H37.0772V114.046Z" fill="#97A0C3"/>
<path d="M31.7522 115.882H27.8265L26.0751 75.4565L35.9635 75.7015L31.7522 115.882Z" fill="#242F57"/>
<path d="M40.7133 115.836H36.5612L35.3712 94.3565L26.0652 75.5073L39.4468 75.7282L42.254 89.5892C42.5703 91.1511 42.6628 92.7501 42.5287 94.3381L40.7133 115.836Z" fill="#0062FF"/>
<path d="M36.9095 116.732H40.08L42.0883 117.404C43.1003 117.763 43.9527 117.909 43.9527 119.034C43.9527 119.323 43.7616 119.557 43.5258 119.557H37.5795C37.2095 119.557 36.9095 119.257 36.9095 118.886V116.732Z" fill="#242F57"/>
<path d="M42.0832 51.5283H50.5366L62.3897 45.5637L63.5116 44.1426V45.5637H66.3437C66.0703 47.0704 65.5299 48.0061 64.7226 48.3708C63.9153 48.7354 62.7493 48.7354 61.2245 48.3708L50.7032 56.007L42.0832 57.2367V51.5283Z" fill="#97A0C3"/>
<path d="M28.0218 116.732H31.1922L33.2005 117.404C34.2126 117.763 35.0649 117.909 35.0649 119.034C35.0649 119.323 34.8738 119.557 34.6381 119.557H28.6917C28.3217 119.557 28.0218 119.257 28.0218 118.886V116.732Z" fill="#242F57"/>
<path d="M35.4266 51.1469C35.5377 49.4429 35.8694 48.4759 36.4217 48.2459C37.2501 47.901 37.7819 47.7281 37.6738 46.855C37.5656 45.9818 37.7999 45.6878 38.1608 45.5148C38.5217 45.3418 38.8115 44.7872 37.7813 44.193C37.0945 43.7969 36.7005 42.846 36.5992 41.3402C32.8852 40.1247 30.8261 40.8215 30.4218 43.4309C30.0175 46.0402 30.2943 48.0788 31.252 49.5468V51.1469H35.4266Z" fill="#97A0C3"/>
<path d="M44.312 50.6089V57.445H39.456V75.7536H25.8331V56.4803C25.8331 53.2376 28.4575 50.6089 31.6948 50.6089C32.3075 50.6089 32.9201 50.6089 33.5327 50.6089C34.7954 50.6089 38.3885 50.6089 44.312 50.6089Z" fill="#FC5A5A"/>
<path d="M31.1956 49.5132C32.3398 49.4782 32.9938 49.2803 33.1574 48.9196C33.4029 48.3786 33.435 47.4141 33.3803 47.1097C33.3256 46.8053 32.9791 46.9327 32.7056 46.9327C32.432 46.9327 32.0073 46.316 32.2907 45.8523C32.5741 45.3886 32.9662 45.4612 33.1574 45.5436C33.3486 45.6259 33.8084 45.3953 33.6544 44.6465C33.5003 43.8978 33.1564 43.1964 33.6544 43.1964C34.1523 43.1964 36.9426 42.876 37.0898 40.9788C37.237 39.0816 36.1377 38.0066 34.3726 38.8722C32.6076 39.7378 32.0392 39.6573 30.7094 39.9612C29.3795 40.2651 28.0557 40.6381 27.7755 42.9743C27.4953 45.3104 28.427 46.4993 29.4992 47.3472C30.5715 48.1951 30.3258 48.4549 30.4744 48.9196C30.5734 49.2295 30.8138 49.4273 31.1956 49.5132Z" fill="#242F57"/>
<path fill-rule="evenodd" clip-rule="evenodd" d="M33.5273 76.6337L33.6581 76.585L33.9987 77.5021L33.8679 77.5509L33.5273 76.6337ZM34.3545 78.8611L34.4853 78.8124L34.8259 79.7296L34.6951 79.7783L34.3545 78.8611ZM35.3124 81.0398L35.1816 81.0885L35.5222 82.0057L35.6531 81.957L35.3124 81.0398ZM36.0088 83.316L36.1396 83.2672L36.4802 84.1844L36.3494 84.2331L36.0088 83.316ZM36.9668 85.4947L36.836 85.5434L37.1766 86.4606L37.3074 86.4118L36.9668 85.4947ZM37.6632 87.7708L37.794 87.7221L38.1346 88.6393L38.0038 88.688L37.6632 87.7708ZM38.6207 89.9505L38.4894 89.9979C38.5992 90.3035 38.6982 90.6128 38.7863 90.9251L38.9206 90.8871C38.8316 90.5716 38.7316 90.2592 38.6207 89.9505ZM39.0971 92.2833L39.2345 92.2589C39.2916 92.5818 39.3373 92.9066 39.3717 93.2327L39.2329 93.2473C39.1989 92.9245 39.1536 92.6029 39.0971 92.2833ZM39.449 94.6376L39.3094 94.6383C39.3102 94.7883 39.3085 94.9382 39.3044 95.0882L39.2899 95.6164L39.4294 95.6202L39.4439 95.092C39.4481 94.9406 39.4498 94.7891 39.449 94.6376ZM39.2515 97.0138L39.391 97.0177L39.3642 97.9959L39.2246 97.992L39.2515 97.0138ZM39.3258 99.3933L39.1863 99.3894L39.1594 100.368L39.2989 100.371L39.3258 99.3933ZM39.121 101.765L39.2605 101.769L39.2336 102.747L39.0941 102.743L39.121 101.765ZM39.1952 104.145L39.0557 104.141L39.0289 105.119L39.1684 105.123L39.1952 104.145ZM38.9905 106.516L39.13 106.52L39.1031 107.498L38.9636 107.495L38.9905 106.516ZM39.0647 108.896L38.9252 108.892L38.8983 109.87L39.0378 109.874L39.0647 108.896ZM38.8599 111.268L38.9995 111.271L38.9726 112.25L38.8331 112.246L38.8599 111.268ZM38.9342 113.647L38.7947 113.643L38.7678 114.621L38.9073 114.625L38.9342 113.647Z" fill="#97A0C3"/>
<defs>
<linearGradient id="paint0_linear" x1="15.7054" y1="1.4672" x2="55.2988" y2="53.947" gradientUnits="userSpaceOnUse">
<stop stop-color="#2975FE"/>
<stop offset="1" stop-color="#8393FF"/>
</linearGradient>
<linearGradient id="paint1_linear" x1="12.7746" y1="76.1495" x2="38.5739" y2="95.8948" gradientUnits="userSpaceOnUse">
<stop stop-color="#2975FE"/>
<stop offset="1" stop-color="#8393FF"/>
</linearGradient>
<linearGradient id="paint2_linear" x1="43.6378" y1="70.7451" x2="51.7413" y2="111.921" gradientUnits="userSpaceOnUse">
<stop stop-color="#2975FE"/>
<stop offset="1" stop-color="#8393FF"/>
</linearGradient>
<linearGradient id="paint3_linear" x1="48.3636" y1="42.5044" x2="61.1116" y2="52.5199" gradientUnits="userSpaceOnUse">
<stop stop-color="#2975FE"/>
<stop offset="1" stop-color="#8393FF"/>
</linearGradient>
<linearGradient id="paint4_linear" x1="71.7826" y1="39.5305" x2="72.3273" y2="45.0163" gradientUnits="userSpaceOnUse">
<stop stop-color="#2975FE"/>
<stop offset="1" stop-color="#8393FF"/>
</linearGradient>
</defs>
</svg>
