<svg width="318" height="154" viewBox="0 0 318 154" fill="none" xmlns="http://www.w3.org/2000/svg">
<g clip-path="url(#clip0)">
<path fill-rule="evenodd" clip-rule="evenodd" d="M118.104 17.9573H24.5947V9.57845C24.5947 7.76089 26.0684 6.28726 27.8859 6.28726H114.813C116.631 6.28726 118.104 7.76089 118.104 9.57845V17.9573Z" fill="#253368"/>
<path fill-rule="evenodd" clip-rule="evenodd" d="M114.813 98.6322H27.8859C26.0684 98.6322 24.5947 97.1587 24.5947 95.341V16.9758H118.104V95.341C118.104 97.1587 116.631 98.6322 114.813 98.6322Z" fill="#E4EBF7"/>
<path fill-rule="evenodd" clip-rule="evenodd" d="M32.1937 11.7182C32.1937 12.8588 31.2689 13.7837 30.1281 13.7837C28.9874 13.7837 28.0627 12.8588 28.0627 11.7182C28.0627 10.5775 28.9874 9.65268 30.1281 9.65268C31.2689 9.65268 32.1937 10.5775 32.1937 11.7182Z" fill="#FF5469"/>
<path fill-rule="evenodd" clip-rule="evenodd" d="M39.9075 11.7182C39.9075 12.8588 38.9828 13.7837 37.842 13.7837C36.7013 13.7837 35.7766 12.8588 35.7766 11.7182C35.7766 10.5775 36.7013 9.65268 37.842 9.65268C38.9828 9.65268 39.9075 10.5775 39.9075 11.7182Z" fill="#FAAD14"/>
<path fill-rule="evenodd" clip-rule="evenodd" d="M47.6213 11.7182C47.6213 12.8588 46.6966 13.7837 45.5558 13.7837C44.4152 13.7837 43.4905 12.8588 43.4905 11.7182C43.4905 10.5775 44.4152 9.65268 45.5558 9.65268C46.6966 9.65268 47.6213 10.5775 47.6213 11.7182Z" fill="#3DD598"/>
<path fill-rule="evenodd" clip-rule="evenodd" d="M34.7015 87.5254C34.1343 87.5254 33.6746 87.0659 33.6746 86.4992V27.0102C33.6746 26.4435 34.1343 25.984 34.7015 25.984H109.02C109.587 25.984 110.047 26.4435 110.047 27.0102V86.4992C110.047 87.0659 109.587 87.5254 109.02 87.5254H34.7015Z" fill="white"/>
<path fill-rule="evenodd" clip-rule="evenodd" d="M60.1671 33.772H41.3541C40.5838 33.772 39.9539 33.1419 39.9539 32.3717C39.9539 31.6015 40.5838 30.9715 41.3541 30.9715H60.1671C60.9372 30.9715 61.5674 31.6015 61.5674 32.3717C61.5674 33.1419 60.9372 33.772 60.1671 33.772Z" fill="#E4EBF7"/>
<path fill-rule="evenodd" clip-rule="evenodd" d="M68.9052 64.1251L52.6127 73.5316C51.9456 73.9167 50.6141 72.8705 49.6536 71.2069C48.6929 69.5429 48.4528 67.867 49.1199 67.4819L65.4124 58.0754C66.0794 57.6903 67.4108 58.7362 68.3715 60.4001C69.332 62.0638 69.5722 63.74 68.9052 64.1251Z" fill="#FAAD14"/>
<path fill-rule="evenodd" clip-rule="evenodd" d="M49.2899 40.376H42.2883C41.515 40.376 40.8879 39.749 40.8879 38.9757C40.8879 38.2023 41.515 37.5754 42.2883 37.5754H49.2899C50.0634 37.5754 50.6902 38.2023 50.6902 38.9757C50.6902 39.749 50.0634 40.376 49.2899 40.376Z" fill="#E4EBF7"/>
<path d="M81.3425 34.223C71.6674 34.223 63.8242 42.0662 63.8242 51.7413C63.8242 61.4164 71.6674 69.2596 81.3425 69.2596C91.0176 69.2596 98.8608 61.4164 98.8608 51.7413C98.8608 42.0662 91.0176 34.223 81.3425 34.223ZM81.3425 39.7083C87.9881 39.7083 93.3755 45.0957 93.3755 51.7413C93.3755 58.387 87.9881 63.7743 81.3425 63.7743C74.6969 63.7743 69.3095 58.387 69.3095 51.7413C69.3095 45.0957 74.6969 39.7083 81.3425 39.7083Z" fill="#FAAD14"/>
<path d="M93.6438 43.1049C95.0211 42.4744 96.6487 43.0799 97.2791 44.4572C98.317 46.7246 98.8616 49.1973 98.8616 51.7415C98.8616 53.825 98.4965 55.8624 97.7915 57.7817C97.2692 59.2035 95.6932 59.9328 94.2713 59.4105C92.8637 58.8934 92.1349 57.3436 92.6272 55.933L92.6425 55.8903C93.1259 54.5746 93.3763 53.1772 93.3763 51.7415C93.3763 50.025 93.0182 48.364 92.3346 46.8355L92.2915 46.7402C91.6611 45.3629 92.2665 43.7353 93.6438 43.1049Z" fill="#FF5469"/>
<path fill-rule="evenodd" clip-rule="evenodd" d="M173.667 160.598C175.221 163.039 178.419 163.823 180.925 162.38L229.306 134.525C233.667 131.818 234.978 126.068 232.218 121.738C229.435 117.369 223.601 116.154 219.306 119.047L174.918 153.408C172.706 155.121 172.164 158.238 173.667 160.598Z" fill="#FFC999"/>
<path fill-rule="evenodd" clip-rule="evenodd" d="M179.014 169.504C179.014 169.504 184.162 160.903 180.528 156.242C177.238 152.021 172.633 154.798 172.633 154.798C172.633 154.798 167.619 156.833 163.338 161.061C160.516 163.846 155.689 169.685 156.952 171.366C158.597 173.557 163.676 166.629 165.299 167.786C166.964 168.974 166.021 170.483 165.004 174.621C164.368 177.207 162.725 179.506 162.604 181.802C162.368 186.288 172.368 183.051 179.014 169.504Z" fill="#FFC999"/>
<path fill-rule="evenodd" clip-rule="evenodd" d="M149.538 92.1924C149.538 92.1924 130.02 79.7142 148.454 64.5244C144.116 53.674 154.417 48.9726 154.417 48.9726C151.526 46.802 147.188 37.7603 158.213 29.9844C158.213 17.6872 168.698 17.2656 168.698 17.2656C168.698 17.2656 183.717 8.81245 190.663 19.3327C204.18 21.9622 201.587 36.3135 201.587 36.3135C201.587 36.3135 209.358 41.7387 205.742 48.9726C210.08 53.3121 210.803 58.0134 207.55 61.2689C220.019 73.2042 210.803 84.0546 210.803 84.0546C210.803 84.0546 217.775 102.335 194.19 102.335C190.395 116.44 166.54 113.727 165.998 101.792C151.901 108.845 149.538 92.1924 149.538 92.1924Z" fill="#253368"/>
<path fill-rule="evenodd" clip-rule="evenodd" d="M164.109 35.5287C171.904 36.898 174.274 30.9952 174.274 30.9952C174.274 30.9952 177.49 22.682 178.314 27.7854C178.752 30.498 182.944 26.8993 184.87 29.79C186.166 31.7368 182.925 34.2442 187.138 39.4325C189.578 42.438 179.95 44.8362 185.89 50.3762C185.89 50.3762 182.223 57.6166 189.478 59.8218L189.987 67.8719C190.278 72.4753 186.621 76.3679 182.012 76.3605C177.518 76.3539 173.917 72.6358 174.049 68.1406L174.345 58.1259C163.081 58.1259 162.531 42.6339 164.109 35.5287Z" fill="#FFC999"/>
<path d="M178.481 43.7754C178.285 43.5799 177.969 43.5798 177.773 43.7752L177.671 43.8688C177.624 43.9094 177.565 43.9588 177.494 44.0153C177.249 44.2085 176.962 44.4027 176.635 44.5843C175.529 45.1999 174.267 45.5185 172.877 45.3838C172.602 45.3571 172.358 45.5585 172.331 45.8336C172.305 46.1087 172.506 46.3534 172.781 46.38C174.388 46.5359 175.849 46.1674 177.122 45.4591C177.767 45.0998 178.227 44.7369 178.48 44.4831C178.676 44.2877 178.676 43.9708 178.481 43.7754Z" fill="#F5222D"/>
<path d="M172.332 35.9858C172.15 35.9988 172.008 36.1427 171.992 36.3191L171.991 36.3845C172.001 36.652 171.949 37.0985 171.773 37.7042C171.492 38.6784 170.966 39.7715 170.134 40.9639C170.014 41.1364 170.062 41.3745 170.24 41.4863C171.127 42.0429 171.89 42.4946 172.531 42.8513L172.72 42.9555C172.911 43.0601 173.08 43.1497 173.227 43.2252L173.542 43.3818C173.726 43.4669 173.945 43.3863 174.03 43.2018C174.115 43.0172 174.034 42.7986 173.85 42.7135L173.664 42.622L173.334 42.4509C173.253 42.4075 173.166 42.3605 173.073 42.3098L172.695 42.0997C172.303 41.8781 171.866 41.6222 171.386 41.3295L170.955 41.064L171.072 40.887C171.707 39.9005 172.145 38.9746 172.416 38.1207L172.48 37.9087C172.661 37.2834 172.728 36.7907 172.728 36.4478L172.725 36.3267C172.711 36.124 172.535 35.9714 172.332 35.9858Z" fill="#DD936F"/>
<path d="M181.849 56.2591C181.752 56.0806 181.529 56.0146 181.351 56.1117C179.166 57.3011 176.902 57.8986 174.629 57.9298C174.425 57.9326 174.263 58.0996 174.266 58.3028C174.269 58.506 174.436 58.6685 174.639 58.6657C177.032 58.6329 179.413 58.0044 181.702 56.7582C181.881 56.6611 181.947 56.4376 181.849 56.2591Z" fill="#DD936F"/>
<path d="M177.565 35.9036C177.3 35.9036 177.084 36.1191 177.084 36.3849C177.084 38.2346 178.476 39.7495 180.215 39.7495C181.953 39.7495 183.344 38.2344 183.344 36.3849C183.344 36.1191 183.129 35.9036 182.863 35.9036C182.598 35.9036 182.382 36.1191 182.382 36.3849C182.382 37.72 181.402 38.7869 180.215 38.7869C179.026 38.7869 178.046 37.7202 178.046 36.3849C178.046 36.1191 177.831 35.9036 177.565 35.9036Z" fill="#253368"/>
<path d="M165.427 36.2343C165.175 36.2343 164.971 36.4387 164.971 36.6909C164.971 38.5183 166.221 40.0309 167.811 40.0309C169.401 40.0309 170.651 38.5186 170.651 36.6909C170.651 36.4387 170.447 36.2343 170.195 36.2343C169.943 36.2343 169.738 36.4387 169.738 36.6909C169.738 38.0485 168.855 39.1176 167.811 39.1176C166.768 39.1176 165.884 38.0481 165.884 36.6909C165.884 36.4387 165.679 36.2343 165.427 36.2343Z" fill="#253368"/>
<path d="M182.79 31.0183C180.953 30.2429 179.009 30.3209 177.171 30.9118C176.642 31.0817 176.247 31.2534 176.021 31.3728C175.786 31.4969 175.696 31.7881 175.82 32.0232C175.944 32.2583 176.235 32.3483 176.47 32.2242L176.591 32.1654C176.629 32.1481 176.673 32.1282 176.724 32.1061C176.94 32.0118 177.189 31.917 177.465 31.8283C179.103 31.3016 180.823 31.2327 182.416 31.9052C182.707 32.0281 182.99 32.1751 183.266 32.3475C183.491 32.4884 183.788 32.4199 183.929 32.1945C184.07 31.969 184.001 31.6721 183.776 31.5312C183.457 31.3316 183.128 31.1609 182.79 31.0183Z" fill="#253368"/>
<path fill-rule="evenodd" clip-rule="evenodd" d="M101.308 85.772L91.3499 65.7763C91.3499 65.7763 77.9763 50.4615 74.3639 52.1648C71.0863 54.2057 79.8659 57.7383 82.258 62.3035C78.8712 62.6561 81.1729 67.0384 81.1729 67.0384C81.1729 67.0384 78.4909 67.405 79.8454 71.0644C77.5988 72.8563 80.3134 76.8562 80.3134 76.8562C80.3134 76.8562 88.1562 86.1152 94.9511 92.796C94.9511 92.796 104.262 99.127 101.308 85.772Z" fill="#FFC999"/>
<path fill-rule="evenodd" clip-rule="evenodd" d="M98.7713 78.8715C98.7713 78.8715 96.6524 71.7906 95.3603 68.2189C94.0682 64.6471 94.4924 57.7285 92.1069 59.9486C90.5034 61.442 91.4897 65.3467 92.0509 68.2552C92.6121 71.1628 89.0781 78.8837 93.4026 83.0757C96.3252 85.9077 100.138 85.696 98.7713 78.8715Z" fill="#FFC999"/>
<path d="M83.4596 61.8103C83.2907 61.6839 83.0515 61.7185 82.9252 61.8875C82.799 62.0565 82.8335 62.2958 83.0024 62.4221L83.2253 62.5936L83.5098 62.819C83.6094 62.899 83.7136 62.9837 83.8216 63.0729C84.4389 63.5821 85.0561 64.1293 85.6311 64.6922C86.2796 65.327 86.8323 65.9414 87.2588 66.5177C88.3327 67.969 88.4831 68.9611 87.6294 69.5011C87.4512 69.6138 87.398 69.8498 87.5107 70.0281C87.6233 70.2064 87.8591 70.2596 88.0373 70.1469C89.3967 69.287 89.1748 67.8232 87.8723 66.0631C87.419 65.4504 86.8402 64.807 86.165 64.1461C85.5731 63.5667 84.9402 63.0055 84.3073 62.4834L83.9875 62.223L83.5292 61.863C83.5004 61.841 83.477 61.8233 83.4596 61.8103Z" fill="#DD936F"/>
<path d="M82.261 66.7351C82.1626 66.9217 82.234 67.1527 82.4204 67.2512L82.6411 67.3716L82.9232 67.5309C83.022 67.5875 83.1253 67.6476 83.2324 67.711C83.8444 68.073 84.4563 68.466 85.0259 68.8752C85.854 69.4702 86.5191 70.0475 86.9581 70.5791C87.6022 71.3591 87.6858 71.9088 87.2144 72.3216C86.868 72.6247 86.3942 72.6779 85.7895 72.5033C85.3354 72.372 84.838 72.1194 84.3271 71.7805C84.0469 71.5946 83.7806 71.3948 83.5378 71.1952L83.3526 71.0389C83.3019 70.9949 83.2626 70.9595 83.2357 70.9344C83.0817 70.7904 82.8401 70.7987 82.6962 70.9529C82.5523 71.1071 82.5606 71.3488 82.7147 71.4928L82.7961 71.5667C82.8613 71.6245 82.9478 71.6987 83.0531 71.7854C83.3149 72.0007 83.6016 72.2158 83.9052 72.4172C84.4754 72.7955 85.0383 73.0814 85.5777 73.2372C86.4097 73.4776 87.1479 73.3947 87.717 72.8966C88.5723 72.1479 88.4206 71.1507 87.5467 70.0925C87.0584 69.5013 86.348 68.8846 85.4711 68.2547C84.8814 67.831 84.2511 67.4261 83.621 67.0534L83.3026 66.8679C83.2517 66.8387 83.202 66.8104 83.1534 66.783L82.7768 66.5755C82.5903 66.4771 82.3594 66.5485 82.261 66.7351Z" fill="#DD936F"/>
<path d="M81.9654 70.5764C81.7545 70.5791 81.5858 70.7523 81.5885 70.9632C81.5912 71.1742 81.7643 71.343 81.9751 71.3403C82.4865 71.3337 83.2008 71.6764 84.118 72.4461C86.0428 74.0614 86.5809 75.2187 86.1533 75.5776C85.71 75.9495 84.4489 75.6149 83.5136 74.6659C83.1805 74.3279 82.6527 74.7801 82.9351 75.1615C83.0094 75.262 83.0842 75.3605 83.1593 75.457C84.9824 77.8007 86.3528 78.6258 89.4013 79.6528L89.8969 79.8169C92.6519 80.7148 93.7433 81.54 94.7237 84.0959C94.7992 84.2929 95.02 84.3912 95.2169 84.3156C95.4137 84.24 95.512 84.0191 95.4365 83.8221C94.3851 81.0811 93.1455 80.0987 90.3366 79.1576L89.6107 78.9172C87.5043 78.206 86.2669 77.608 85.0913 76.4884L85.0024 76.402L85.0091 76.4042C85.6106 76.5492 86.1703 76.5012 86.5624 76.2256L86.6438 76.163C87.6045 75.3569 86.8556 73.7464 84.6086 71.8607C83.5646 70.9846 82.6942 70.567 81.9654 70.5764Z" fill="#DD936F"/>
<path d="M91.3173 64.2392C91.1283 64.2554 90.9833 64.407 90.9694 64.5903L90.9697 64.6525L91.4471 70.201L91.3635 70.431L91.3315 70.5234C91.2221 70.8437 91.1129 71.2025 91.011 71.5921C90.6521 72.9639 90.4722 74.3548 90.5698 75.6632C90.6727 77.0434 91.0826 78.2391 91.8585 79.1853C91.9923 79.3484 92.2328 79.3721 92.3958 79.2383C92.5588 79.1045 92.5825 78.8638 92.4488 78.7007C91.7822 77.8879 91.4232 76.8406 91.3311 75.6064C91.2407 74.3937 91.4103 73.0824 91.7496 71.7855C91.8465 71.4149 91.9504 71.0738 92.054 70.7705L92.156 70.4843C92.1692 70.4494 92.1802 70.4211 92.1888 70.3997C92.2038 70.3626 92.2128 70.3234 92.2156 70.2837L92.2152 70.2239L91.7304 64.587C91.7141 64.3978 91.5627 64.2528 91.3795 64.2388L91.3173 64.2392Z" fill="#DD936F"/>
<path fill-rule="evenodd" clip-rule="evenodd" d="M90.5071 80.511C92.4685 78.6649 95.4889 78.6407 97.3646 80.4568L133.581 115.521C136.799 118.856 135.654 124.261 132.173 127.538H133.105C129.595 130.843 123.202 130.693 120.087 127.206L89.8965 87.1852C88.3463 85.1908 88.6101 82.2963 90.5071 80.511Z" fill="#FFC999"/>
<path fill-rule="evenodd" clip-rule="evenodd" d="M121.54 128.211C117.56 125.064 116.883 119.288 120.028 115.305L150.664 76.5062C153.808 72.5249 159.583 71.8477 163.561 74.9931C167.54 78.1386 168.217 83.9173 165.073 87.8985L134.436 126.698C131.293 130.679 125.519 131.357 121.54 128.211Z" fill="#FFC999"/>
<path fill-rule="evenodd" clip-rule="evenodd" d="M152.086 104.346L165.074 87.8981C168.204 83.9336 167.525 78.126 163.562 74.9936C159.6 71.8603 153.796 72.5413 150.665 76.5066L137.801 92.7981L152.086 104.346Z" fill="#0062FF"/>
<path d="M163.95 74.9299C163.824 74.8306 163.642 74.852 163.542 74.9777C163.443 75.1034 163.465 75.2859 163.59 75.3852C167.371 78.3734 168.066 83.8782 165.186 87.7125L165.054 87.8831L152.249 104.099L138.191 92.7364C138.082 92.6483 137.929 92.6521 137.825 92.738L137.783 92.7797C137.695 92.8888 137.699 93.0423 137.785 93.1464L137.827 93.1877L152.112 104.736C152.224 104.826 152.381 104.82 152.485 104.728L152.522 104.69L165.509 88.2428C168.739 84.1514 168.038 78.1613 163.95 74.9299Z" fill="#4E5C93"/>
<path fill-rule="evenodd" clip-rule="evenodd" d="M154.63 138.99C146.189 139.651 126.155 193.028 118.586 212.114C119.594 215.958 125.75 222.738 125.75 222.738C125.75 222.738 125.091 225.799 124.686 227.638C131.888 233.566 145.82 236.786 145.82 236.786L145.85 239.415C168.123 249.677 197.951 239.842 197.951 239.842C197.951 239.842 198.506 239.272 198.107 237.21C208.22 237.092 229.875 224.254 229.875 224.254L226.796 217.902L235.704 208.781C235.704 208.781 211.653 164.507 204.249 152.124C197.75 141.253 191.655 138.122 191.655 138.122C191.655 138.122 169.608 137.816 154.63 138.99Z" fill="#4E5C93"/>
<path d="M193.074 148.576C192.983 148.39 192.758 148.313 192.572 148.404C192.404 148.486 192.325 148.677 192.377 148.85L192.4 148.906L229.023 223.769L228.679 224.021L228.393 224.226C227.669 224.74 226.816 225.313 225.84 225.931C223.047 227.697 219.824 229.463 216.214 231.112C210.602 233.676 204.58 235.713 198.221 237.028C198.019 237.07 197.888 237.268 197.93 237.471C197.972 237.674 198.17 237.805 198.373 237.763C204.79 236.437 210.864 234.382 216.526 231.796C220.168 230.132 223.42 228.349 226.241 226.566C227.119 226.01 227.899 225.49 228.577 225.015L228.827 224.839C229.033 224.692 229.217 224.559 229.379 224.44L229.698 224.2C229.709 224.191 229.718 224.184 229.726 224.178C229.848 224.082 229.898 223.923 229.856 223.778L229.832 223.717L193.074 148.576Z" fill="#253368"/>
<path d="M164.256 140.417C164.053 140.376 163.855 140.508 163.814 140.711L162.9 145.319L161.096 154.501C160.898 155.514 160.696 156.548 160.491 157.602L159.423 163.098C157.467 173.194 155.526 183.378 153.68 193.277L152.65 198.825C152.388 200.243 152.129 201.647 151.875 203.036L150.857 208.614C148.683 220.607 146.865 231.102 145.484 239.731C145.455 239.912 145.561 240.087 145.734 240.146C146.826 240.518 147.932 240.861 149.051 241.178C162.54 245 176.929 244.784 190.518 242.127C192.508 241.737 194.319 241.322 195.926 240.905L196.323 240.801C196.835 240.665 197.293 240.538 197.695 240.421L198.441 240.195C198.602 240.143 198.706 239.991 198.701 239.827L198.694 239.765L181.9 155.54C181.859 155.337 181.662 155.205 181.459 155.246C181.276 155.282 181.151 155.446 181.157 155.627L181.164 155.687L197.892 239.579L197.282 239.758C196.936 239.857 196.552 239.963 196.131 240.075C194.443 240.523 192.513 240.971 190.374 241.39C176.891 244.027 162.614 244.241 149.255 240.456C148.425 240.221 147.603 239.971 146.788 239.705L146.276 239.534L146.797 236.322C148.288 227.23 150.204 216.327 152.464 203.981L153.388 198.961C153.563 198.016 153.739 197.065 153.917 196.107C155.91 185.37 158.026 174.253 160.16 163.241L161.98 153.889C162.422 151.633 162.844 149.482 163.244 147.453L164.55 140.859C164.591 140.655 164.459 140.458 164.256 140.417Z" fill="#253368"/>
<path d="M173.197 141.856C173.011 141.867 172.864 142.012 172.845 142.192L172.843 142.253L176.79 212.3C176.802 212.507 176.979 212.666 177.186 212.655C177.372 212.643 177.519 212.499 177.538 212.319L177.54 212.258L173.593 142.211C173.581 142.004 173.404 141.845 173.197 141.856Z" fill="#253368"/>
<path d="M183.698 140.312C183.636 140.114 183.426 140.003 183.228 140.065C183.05 140.12 182.942 140.296 182.968 140.475L182.981 140.535L197.8 188.276C197.861 188.474 198.071 188.584 198.269 188.523C198.447 188.468 198.555 188.292 198.53 188.113L198.516 188.053L183.698 140.312Z" fill="#253368"/>
<path fill-rule="evenodd" clip-rule="evenodd" d="M193.267 138.989L192.63 134.161C192.63 134.161 173.58 134.275 154.896 133.339C154.423 135.481 153.882 139.338 153.882 139.338C155.452 138.047 172.424 141.818 193.267 138.989Z" fill="#4E5C93"/>
<path d="M155.886 138.963C155.679 138.953 155.504 139.113 155.494 139.321C155.484 139.528 155.644 139.703 155.851 139.713C164.596 140.123 173.075 140.299 180.561 140.283L182.611 140.274C184.746 140.259 186.66 140.228 188.212 140.185L189.208 140.154C189.831 140.133 190.338 140.11 190.699 140.088L191.055 140.062C191.102 140.058 191.143 140.054 191.178 140.049C191.245 140.041 191.293 140.033 191.336 140.02L191.365 140.017C191.4 140.008 191.431 139.976 191.584 139.812L191.528 139.504C191.485 139.303 191.459 139.301 191.358 139.291C191.28 139.264 191.199 139.264 191.125 139.287L191.081 139.304L190.913 139.32L190.653 139.339L190.097 139.368C189.831 139.38 189.524 139.392 189.181 139.404L188.191 139.434C186.354 139.485 184.007 139.52 181.385 139.53L179.725 139.533C172.457 139.534 164.295 139.357 155.886 138.963Z" fill="#253368"/>
<path fill-rule="evenodd" clip-rule="evenodd" d="M156.284 85.5455C154.35 89.7637 150.766 97.0246 150.321 101.821C149.597 109.597 154.658 115.384 154.658 115.384C154.658 115.384 154.709 113.097 155.2 133.245C178.378 137.314 193.155 132.987 193.155 132.987L192.703 127.647L196.467 115.022C196.467 115.022 198.755 110.321 203.454 99.8315C206.72 92.5406 206.493 83.4999 206.051 78.667C205.862 76.5961 204.419 74.8555 202.418 74.293C195.429 72.3257 192.782 72.2642 192.782 72.2642L192.124 67.6505C192.012 66.8604 191.336 66.2737 190.538 66.2737H173.5C172.769 66.2737 172.129 66.7699 171.948 67.4789L170.699 72.3509L160.155 73.4871C158.5 73.8117 157.251 76.1139 157.079 77.7929L156.284 85.5455Z" fill="#0062FF"/>
<path d="M172.671 72.2091C172.507 72.2091 172.374 72.3419 172.374 72.5057C172.374 72.6514 172.479 72.7725 172.617 72.7976L172.671 72.8024H188.011C188.175 72.8024 188.308 72.6696 188.308 72.5057C188.308 72.3601 188.203 72.239 188.064 72.2139L188.011 72.2091H172.671Z" fill="#4E5C93"/>
<path d="M193.201 70.9743C193.055 70.8583 192.849 70.8688 192.716 70.9905L192.674 71.0352L176.48 91.4667L170.195 72.4082C170.137 72.231 169.959 72.1267 169.78 72.1549L169.721 72.1694C169.544 72.2279 169.44 72.4057 169.468 72.5842L169.482 72.6436L175.986 92.3631C176.073 92.628 176.402 92.7031 176.596 92.5216L176.636 92.4788L193.262 71.5018C193.391 71.3393 193.364 71.1032 193.201 70.9743Z" fill="#CCD7EE"/>
<path fill-rule="evenodd" clip-rule="evenodd" d="M171.7 93.8321C169.999 96.7033 170.765 100.303 173.412 101.874C176.059 103.445 179.584 102.391 181.285 99.5194C182.986 96.6482 182.219 93.0476 179.573 91.4777C176.925 89.9068 173.4 90.9609 171.7 93.8321Z" fill="#CCD7EE"/>
<path fill-rule="evenodd" clip-rule="evenodd" d="M171.088 93.818C169.387 96.6892 170.154 100.289 172.8 101.86C175.448 103.431 178.973 102.377 180.673 99.5054C182.374 96.6342 181.608 93.0335 178.961 91.4636C176.314 89.8928 172.789 90.9468 171.088 93.818Z" fill="#E4EBF7"/>
<path fill-rule="evenodd" clip-rule="evenodd" d="M172.168 94.3185C170.848 96.5479 171.443 99.3426 173.498 100.562C175.553 101.781 178.289 100.963 179.61 98.7335C180.931 96.505 180.337 93.7094 178.282 92.4902C176.226 91.2701 173.489 92.0891 172.168 94.3185Z" fill="#FAAD14"/>
<path d="M206.043 78.37C205.879 78.375 205.75 78.5115 205.755 78.6753L205.78 79.8126L205.784 80.0297C205.822 82.2971 205.826 84.693 205.773 86.9351L205.755 87.6067C205.684 90.0265 205.544 91.9719 205.326 93.2819C205.078 94.7717 204.124 97.3045 202.645 100.568L202.247 101.437C202.111 101.731 201.972 102.028 201.83 102.329C201.203 103.656 200.541 105.005 199.871 106.33L199.368 107.319C199.123 107.797 198.893 108.242 198.682 108.646L198.23 109.511L192.152 127.646L192.138 127.769L192.654 133.023L192.575 133.039C192.351 133.083 192.094 133.132 191.805 133.184L191.583 133.224C190.496 133.417 189.235 133.609 187.817 133.789C178.141 135.015 167.19 135.022 155.909 133.01L155.444 132.924L155.389 130.929L155.154 124.043L154.862 116.007L154.825 115.875L154.645 115.54L154.465 115.192C154.371 115.009 154.272 114.812 154.168 114.602C153.674 113.602 153.179 112.518 152.718 111.388C152.062 109.782 151.529 108.218 151.161 106.75C150.807 105.33 150.617 104.038 150.617 102.906C150.617 100.071 150.993 97.8958 151.836 95.6516C152.259 94.5278 152.801 93.3676 153.582 91.8862L154.236 90.6761L156.544 86.5027L156.581 86.3711L156.762 81.5783C156.769 81.4146 156.641 81.2768 156.477 81.2706C156.332 81.2651 156.207 81.3654 156.177 81.5027L156.17 81.5558L155.991 86.2776L153.84 90.1659L153.218 91.3062C152.339 92.9543 151.742 94.2161 151.281 95.4428C150.413 97.7555 150.025 100.002 150.025 102.906C150.025 104.092 150.22 105.43 150.586 106.894C150.961 108.392 151.503 109.982 152.169 111.612C152.636 112.756 153.136 113.853 153.637 114.865L153.841 115.273C153.939 115.468 154.033 115.649 154.121 115.816L154.272 116.099L154.764 129.948C154.818 131.589 154.849 132.676 154.853 133.091L154.853 133.173C154.853 133.316 154.955 133.438 155.096 133.464C166.692 135.617 177.958 135.636 187.892 134.377C189.177 134.214 190.334 134.041 191.352 133.867L191.686 133.808C191.994 133.754 192.27 133.703 192.514 133.655L193.04 133.548C193.168 133.52 193.26 133.412 193.271 133.285L193.271 133.23L192.735 127.774L198.773 109.745L199.082 109.16C199.287 108.77 199.511 108.339 199.75 107.874L199.896 107.59C200.738 105.946 201.58 104.247 202.366 102.583C202.652 101.978 202.925 101.387 203.185 100.813L203.46 100.201C204.803 97.1859 205.668 94.8398 205.911 93.3795L205.97 92.9981C206.179 91.5438 206.306 89.4778 206.366 86.9492C206.412 85.0194 206.415 82.9779 206.391 81.0015L206.372 79.8017L206.347 78.6586C206.343 78.4948 206.206 78.3658 206.043 78.37Z" fill="#4E5C93"/>
<path fill-rule="evenodd" clip-rule="evenodd" d="M228.943 134.959L229.035 134.91C233.576 132.47 235.28 126.807 232.842 122.263L209.255 78.3183C206.816 73.7746 201.156 72.0694 196.615 74.5097L196.524 74.5591C191.983 76.9993 190.278 82.6624 192.718 87.2061L216.304 131.151C218.744 135.694 224.402 137.4 228.943 134.959Z" fill="#FFC999"/>
<path fill-rule="evenodd" clip-rule="evenodd" d="M202.511 105.452L192.378 86.5745C189.936 82.0243 191.658 76.3015 196.206 73.8567C200.753 71.4127 206.473 73.1365 208.916 77.6868L218.952 96.3849L202.511 105.452Z" fill="#0062FF"/>
<path d="M192.401 86.5623C192.323 86.4179 192.144 86.3638 191.999 86.4413C191.871 86.5102 191.814 86.66 191.857 86.7938L191.878 86.843L202.011 105.72C202.08 105.85 202.231 105.906 202.366 105.861L202.415 105.84L218.856 96.7728C218.999 96.6937 219.051 96.5133 218.972 96.3698C218.902 96.2423 218.752 96.1869 218.618 96.2316L218.569 96.2532L202.392 105.175L192.401 86.5623Z" fill="#4E5C93"/>
</g>
<defs>
<clipPath id="clip0">
<rect width="318" height="153.82" fill="white"/>
</clipPath>
</defs>
</svg>
