<svg width="162" height="118" viewBox="0 0 162 118" fill="none" xmlns="http://www.w3.org/2000/svg">
<path d="M43.605 86.5001L31.7686 86.8975L33.5909 92.2319C34.8222 95.7015 37.3058 97.8402 40.581 98.4431C41.7624 98.6199 42.6993 98.5623 43.5636 98.4135C42.7416 98.6807 41.3353 99.2727 40.7983 100.312C40.0203 101.821 39.9713 102.954 40.0499 105.342L40.5336 109.411C40.5336 109.411 48.9833 105.872 48.9647 105.641C50.2019 104.871 51.7443 103.756 52.7261 102.371C53.4644 101.331 53.8863 100.136 53.625 98.8186C55.3003 96.9277 55.0643 95.9163 52.9164 95.7836C52.7134 95.7717 52.502 95.77 52.2839 95.7793C52.2492 95.1942 52.2035 94.499 52.1494 93.694C51.8399 91.5105 50.7659 89.5241 49.1634 88.1753C47.8163 87.0413 46.1876 86.4341 44.5403 86.4341C44.2283 86.4341 43.9162 86.4561 43.605 86.5001Z" fill="#FC5A5A"/>
<path d="M49.6228 97.0562C45.6847 98.1691 45.0877 99.5889 44.6615 101.273C44.2336 102.957 44.867 107.187 45.1739 108.439C45.1739 108.439 50.2808 107.178 54.1327 104.509C56.4624 102.434 56.0083 101.503 55.9085 98.4168C55.6827 95.4884 55.38 93.3903 55.0011 92.1244C55.3614 93.8926 53.5678 95.5366 49.6228 97.0562Z" fill="#FFC542"/>
<path d="M38.4581 90.5918C39.5084 95.1203 41.5692 97.0618 45.3526 97.4686C46.2727 97.8119 53.0099 97.4593 55.7228 101.428C55.9587 101.331 55.8115 98.6305 55.2839 93.3283C54.6564 90.6206 54.3663 88.8726 52.8518 87.2981C51.3372 85.7226 48.1619 84.8127 46.2135 84.5083L37.3359 83.3717L38.4581 90.5918Z" fill="#FFC542"/>
<path d="M49.3805 97.1304C49.0498 97.2209 48.7919 97.3139 48.7116 97.3402C48.2811 97.4839 47.8532 97.6581 47.6748 97.7478C52.0096 98.5181 54.7748 99.7697 55.9706 101.503C56.0602 101.313 55.9646 99.7528 55.9427 98.9951C55.7186 95.7292 55.3913 93.4291 54.9896 92.0879C55.1486 93.8764 53.6628 95.5973 49.3805 97.1304Z" fill="#FF974A"/>
<path fill-rule="evenodd" clip-rule="evenodd" d="M40.6691 31.945C43.3182 31.945 45.4657 34.0925 45.4657 36.7417V36.7539C45.4657 39.403 43.3182 41.5505 40.6691 41.5505H33.5955C33.3312 41.5505 33.072 41.5292 32.8194 41.4881L31.4489 42.8118C31.4117 42.8478 31.3619 42.8679 31.3101 42.8679C31.1997 42.8679 31.1102 42.7784 31.1102 42.668L31.1101 40.8572C29.7245 40.0162 28.7988 38.4932 28.7988 36.7539V36.7417C28.7988 34.0925 30.9464 31.945 33.5955 31.945H40.6691Z" fill="#242F57"/>
<path d="M39.5056 20.4532H49.6057C53.3901 20.4532 56.458 23.5211 56.458 27.3056C56.458 31.09 53.3901 34.1579 49.6057 34.1579H39.5056C35.7212 34.1579 32.6533 31.09 32.6533 27.3056C32.6533 23.5211 35.7212 20.4532 39.5056 20.4532Z" fill="#0062FF"/>
<path fill-rule="evenodd" clip-rule="evenodd" d="M53.1572 32.1642V35.7514C53.1572 35.9091 53.0294 36.037 52.8717 36.037C52.7978 36.037 52.7267 36.0083 52.6735 35.9569L50.0374 33.4134L53.1572 32.1642Z" fill="#0062FF"/>
<path d="M49.1427 28.1622C48.5316 28.1622 48.0363 27.6668 48.0363 27.0558C48.0363 26.4448 48.5316 25.9494 49.1427 25.9494C49.7537 25.9494 50.249 26.4448 50.249 27.0558C50.249 27.6668 49.7537 28.1622 49.1427 28.1622Z" fill="white"/>
<path d="M44.6104 28.1622C43.9994 28.1622 43.5041 27.6668 43.5041 27.0558C43.5041 26.4448 43.9994 25.9494 44.6104 25.9494C45.2215 25.9494 45.7168 26.4448 45.7168 27.0558C45.7168 27.6668 45.2215 28.1622 44.6104 28.1622Z" fill="white"/>
<path d="M39.9708 28.1622C39.3598 28.1622 38.8644 27.6668 38.8644 27.0558C38.8644 26.4448 39.3598 25.9494 39.9708 25.9494C40.5818 25.9494 41.0771 26.4448 41.0771 27.0558C41.0771 27.6668 40.5818 28.1622 39.9708 28.1622Z" fill="white"/>
<path fill-rule="evenodd" clip-rule="evenodd" d="M88.7041 52.3015C87.7733 52.3015 87.0186 51.6275 87.0186 50.7961V14.9511H142.67V50.7961C142.67 51.6275 141.915 52.3015 140.984 52.3015H88.7041Z" fill="#F1F1F5"/>
<path d="M138.405 18.1994H106.18C105.81 18.1994 105.509 18.5001 105.509 18.8711V48.9335C105.509 49.3045 105.81 49.6052 106.18 49.6052H138.405C138.776 49.6052 139.077 49.3045 139.077 48.9335V18.8711C139.077 18.5001 138.776 18.1994 138.405 18.1994Z" fill="white"/>
<path d="M102.153 17.9497H91.1883C90.8173 17.9497 90.5166 18.2504 90.5166 18.6214V48.6838C90.5166 49.0547 90.8173 49.3555 91.1883 49.3555H102.153C102.524 49.3555 102.825 49.0547 102.825 48.6838V18.6214C102.825 18.2504 102.524 17.9497 102.153 17.9497Z" fill="white"/>
<path d="M99.8003 30.4435H93.6472C93.4364 30.4435 93.2656 30.6143 93.2656 30.8251V31.7687C93.2656 31.9794 93.4364 32.1502 93.6472 32.1502H99.8003C100.011 32.1502 100.182 31.9794 100.182 31.7687V30.8251C100.182 30.6143 100.011 30.4435 99.8003 30.4435Z" fill="#0062FF"/>
<path d="M99.8061 33.6924H93.6414C93.4338 33.6924 93.2656 33.8606 93.2656 34.0681V34.9716C93.2656 35.1792 93.4338 35.3474 93.6414 35.3474H99.8061C100.014 35.3474 100.182 35.1792 100.182 34.9716V34.0681C100.182 33.8606 100.014 33.6924 99.8061 33.6924Z" fill="#92929D"/>
<path d="M99.8061 36.9407H93.6414C93.4338 36.9407 93.2656 37.1089 93.2656 37.3164V38.22C93.2656 38.4275 93.4338 38.5957 93.6414 38.5957H99.8061C100.014 38.5957 100.182 38.4275 100.182 38.22V37.3164C100.182 37.1089 100.014 36.9407 99.8061 36.9407Z" fill="#FC5A5A"/>
<path d="M99.8061 40.189H93.6414C93.4338 40.189 93.2656 40.3572 93.2656 40.5647V41.4683C93.2656 41.6758 93.4338 41.844 93.6414 41.844H99.8061C100.014 41.844 100.182 41.6758 100.182 41.4683V40.5647C100.182 40.3572 100.014 40.189 99.8061 40.189Z" fill="#92929D"/>
<path d="M128.452 41.1884H109.207C108.959 41.1884 108.759 41.3888 108.759 41.6362V41.6379C108.759 41.8852 108.959 42.0857 109.207 42.0857H128.452C128.699 42.0857 128.9 41.8852 128.9 41.6379V41.6362C128.9 41.3888 128.699 41.1884 128.452 41.1884Z" fill="#0062FF"/>
<path d="M128.452 45.9365H109.207C108.959 45.9365 108.759 46.137 108.759 46.3843V46.3861C108.759 46.6334 108.959 46.8338 109.207 46.8338H128.452C128.699 46.8338 128.9 46.6334 128.9 46.3861V46.3843C128.9 46.137 128.699 45.9365 128.452 45.9365Z" fill="#0062FF"/>
<path d="M135.165 43.4373H109.207C108.959 43.4373 108.759 43.6378 108.759 43.8851V43.8869C108.759 44.1342 108.959 44.3346 109.207 44.3346H135.165C135.413 44.3346 135.613 44.1342 135.613 43.8869V43.8851C135.613 43.6378 135.413 43.4373 135.165 43.4373Z" fill="#0062FF"/>
<path d="M134.85 21.198H109.654C109.16 21.198 108.759 21.599 108.759 22.0936V38.2937C108.759 38.7883 109.16 39.1893 109.654 39.1893H134.85C135.345 39.1893 135.746 38.7883 135.746 38.2937V22.0936C135.746 21.599 135.345 21.198 134.85 21.198Z" fill="#0062FF"/>
<path fill-rule="evenodd" clip-rule="evenodd" d="M142.723 15.5553H87.0742V11.7175C87.0742 10.885 87.7519 10.21 88.5878 10.21H141.209C142.045 10.21 142.723 10.885 142.723 11.7175V15.5553Z" fill="#242F57"/>
<path fill-rule="evenodd" clip-rule="evenodd" d="M90.9768 12.7203C90.9768 13.2427 90.5542 13.6663 90.0328 13.6663C89.5115 13.6663 89.0889 13.2427 89.0889 12.7203C89.0889 12.1978 89.5115 11.7742 90.0328 11.7742C90.5542 11.7742 90.9768 12.1978 90.9768 12.7203Z" fill="#FC5A5A"/>
<path fill-rule="evenodd" clip-rule="evenodd" d="M94.5002 12.7203C94.5002 13.2427 94.0776 13.6663 93.5562 13.6663C93.0349 13.6663 92.6123 13.2427 92.6123 12.7203C92.6123 12.1978 93.0349 11.7742 93.5562 11.7742C94.0776 11.7742 94.5002 12.1978 94.5002 12.7203Z" fill="#FF974A"/>
<path fill-rule="evenodd" clip-rule="evenodd" d="M98.0256 12.7203C98.0256 13.2427 97.603 13.6663 97.0816 13.6663C96.5603 13.6663 96.1377 13.2427 96.1377 12.7203C96.1377 12.1978 96.5603 11.7742 97.0816 11.7742C97.603 11.7742 98.0256 12.1978 98.0256 12.7203Z" fill="#3DD598"/>
<path d="M96.8873 26.9591C98.5936 26.9591 99.9768 25.5602 99.9768 23.8346C99.9768 22.1089 98.5936 20.71 96.8873 20.71C95.181 20.71 93.7979 22.1089 93.7979 23.8346C93.7979 25.5602 95.181 26.9591 96.8873 26.9591Z" fill="#FF974A"/>
<path d="M96.8875 26.9592C97.7779 26.9597 98.623 26.5619 99.1959 25.8724C98.7445 25.0058 97.8556 24.4632 96.887 24.4632C95.9184 24.4632 95.0295 25.0058 94.5781 25.8724C95.1513 26.562 95.9967 26.9599 96.8875 26.9592Z" fill="#242F57"/>
<path d="M96.9041 24.5869C97.5458 24.5869 98.066 24.0607 98.066 23.4117C98.066 22.7627 97.5458 22.2366 96.9041 22.2366C96.2624 22.2366 95.7422 22.7627 95.7422 23.4117C95.7422 24.0607 96.2624 24.5869 96.9041 24.5869Z" fill="#242F57"/>
<path d="M135.831 27.4449C135.9 27.4449 135.955 27.5009 135.955 27.5699C135.955 27.6357 135.905 27.6897 135.84 27.6945L135.831 27.6948H109.008C108.939 27.6948 108.883 27.6389 108.883 27.5699C108.883 27.504 108.934 27.45 108.998 27.4453L109.008 27.4449H135.831Z" fill="white"/>
<path d="M115.005 20.9696C115.071 20.9696 115.125 21.0205 115.129 21.0852L115.13 21.0945V39.1897C115.13 39.2587 115.074 39.3147 115.005 39.3147C114.939 39.3147 114.885 39.2637 114.88 39.1991L114.88 39.1897V21.0945C114.88 21.0255 114.936 20.9696 115.005 20.9696Z" fill="white"/>
<path d="M122.252 20.9696C122.318 20.9696 122.372 21.0205 122.376 21.0852L122.377 21.0945V39.1897C122.377 39.2587 122.321 39.3147 122.252 39.3147C122.186 39.3147 122.132 39.2637 122.127 39.1991L122.127 39.1897V21.0945C122.127 21.0255 122.183 20.9696 122.252 20.9696Z" fill="white"/>
<path d="M129.248 20.9696C129.314 20.9696 129.368 21.0205 129.373 21.0852L129.373 21.0945V39.1897C129.373 39.2587 129.317 39.3147 129.248 39.3147C129.182 39.3147 129.128 39.2637 129.123 39.1991L129.123 39.1897V21.0945C129.123 21.0255 129.179 20.9696 129.248 20.9696Z" fill="white"/>
<path d="M135.831 33.4421C135.9 33.4421 135.955 33.4981 135.955 33.5671C135.955 33.6329 135.905 33.6869 135.84 33.6917L135.831 33.692H109.008C108.939 33.692 108.883 33.6361 108.883 33.5671C108.883 33.5012 108.934 33.4472 108.998 33.4425L109.008 33.4421H135.831Z" fill="white"/>
<g clip-path="url(#clip0)">
<path fill-rule="evenodd" clip-rule="evenodd" d="M89.8372 40.6043C89.8372 40.6043 94.5923 40.3282 95.4052 45.3991C99.8129 47.4463 98.1437 52.3038 98.1437 52.3038C98.1437 52.3038 100.093 56.4004 95.3803 58.0065C94.6728 61.9706 90.1947 60.8527 90.1947 60.8527C90.1947 60.8527 88.8392 63.8463 85.4978 62.2773C81.5251 64.8517 74.5587 63.6656 72.3728 59.9102C67.1146 63.172 58.907 57.9295 60.276 54.6564C54.5365 53.8093 52.267 47.449 56.0963 42.5425C53.854 38.207 57.0234 36.036 57.0234 36.036C57.0234 36.036 57.0204 26.5215 63.6682 25.814C67.4664 21.0187 74.3789 25.7318 74.3789 25.7318C74.3789 25.7318 79.2775 25.1477 80.6426 29.474C85.9489 30.7651 85.4418 33.6992 85.6413 36.2171C90.4305 36.9045 89.8372 40.6043 89.8372 40.6043Z" fill="#242F57"/>
<path fill-rule="evenodd" clip-rule="evenodd" d="M75.3133 34.7064C71.4853 35.0433 70.5853 32.0908 70.5853 32.0908C70.5853 32.0908 69.3764 27.9382 68.7648 30.3709C68.4401 31.6634 66.5631 29.7492 65.5109 31.0666C64.8025 31.953 66.2656 33.3006 64.0114 35.6326C62.7059 36.9837 67.2632 38.5448 64.1585 40.9749C64.1585 40.9749 65.9195 44.4204 62.3186 45.1839L61.616 48.9847C61.2073 51.1969 62.7964 53.2791 65.0379 53.4689C67.1748 53.6496 69.0395 52.0299 69.159 49.8882L69.4197 45.2023C74.8683 45.6722 75.7801 38.2066 75.3133 34.7064Z" fill="#FFC999"/>
<path fill-rule="evenodd" clip-rule="evenodd" d="M71.2936 39.6118C69.7171 39.6284 68.3372 38.7083 68.3372 38.7083C68.3372 38.7083 67.9263 40.7616 69.2407 41.0079C70.5169 41.2472 71.2936 39.6118 71.2936 39.6118Z" fill="white"/>
<path d="M68.1117 38.6628L68.0964 38.7506C68.0907 38.7872 68.0846 38.8307 68.0785 38.8805C68.0375 39.2163 68.0312 39.5692 68.0826 39.9047C68.1914 40.615 68.5426 41.1109 69.1984 41.2338C69.8841 41.3624 70.4855 41.0515 70.9896 40.4726C71.1341 40.3066 71.2601 40.1297 71.3675 39.9527C71.4325 39.8458 71.4774 39.7613 71.5016 39.7102C71.5746 39.5565 71.4614 39.3795 71.2913 39.3813C70.6318 39.3883 69.9543 39.2251 69.2996 38.9479C69.0742 38.8525 68.8681 38.7503 68.6859 38.6483L68.6014 38.6001C68.5379 38.5631 68.4918 38.5344 68.465 38.5165C68.3287 38.4256 68.1438 38.5022 68.1117 38.6628ZM68.5142 39.1618L68.5204 39.0822L68.4611 39.05C68.6574 39.1599 68.8785 39.2695 69.1202 39.3718L69.2533 39.4265C69.7387 39.6204 70.2364 39.7557 70.7352 39.8122L70.9014 39.8278L70.8527 39.9003C70.7882 39.9927 70.718 40.0836 70.6424 40.1704C70.2346 40.6387 69.7788 40.8743 69.2833 40.7814C68.8526 40.7007 68.6198 40.3721 68.5376 39.835C68.5045 39.6191 68.4994 39.3889 68.5142 39.1618Z" fill="#FC5A5A"/>
<path d="M70.1519 38.5077C70.2281 38.5061 70.3538 38.4897 70.5304 38.4461C70.801 38.3793 71.1182 38.2643 71.4827 38.091L71.5472 38.0596L71.4932 37.9584C71.2451 37.4815 71.0762 37.0163 70.9747 36.5711L70.9486 36.4502C70.879 36.1063 70.8568 35.8174 70.8634 35.5956L70.869 35.4927C70.8695 35.4878 70.8699 35.4836 70.8703 35.4802C70.8809 35.3855 70.9663 35.3173 71.0611 35.328C71.1463 35.3376 71.2101 35.4078 71.2142 35.4907L71.2109 35.5512C71.1992 35.7516 71.2165 36.0337 71.287 36.3816C71.3935 36.9077 71.6016 37.468 71.9356 38.0472C71.9848 38.1327 71.9526 38.2419 71.8649 38.287C71.3815 38.5354 70.9646 38.6945 70.6132 38.7812C70.4098 38.8314 70.2562 38.8513 70.1518 38.8529L70.1052 38.8522C70.0101 38.8463 69.9378 38.7643 69.9437 38.6692C69.949 38.5836 70.0159 38.5164 70.0986 38.5082L70.1262 38.5074L70.1519 38.5077Z" fill="#DD936F"/>
<path d="M67.5275 34.0925C68.2317 34.1536 68.6805 35.0322 68.5948 36.0263C68.5842 36.1483 68.4767 36.2387 68.3547 36.2282C68.2326 36.2177 68.1422 36.1102 68.1527 35.9881C68.2201 35.2073 67.8944 34.5697 67.4895 34.5345C67.085 34.5 66.6551 35.0723 66.5874 35.8531C66.5768 35.9752 66.4692 36.0655 66.3472 36.0549C66.2251 36.0443 66.1348 35.9368 66.1454 35.8148C66.2295 34.8458 66.7945 34.072 67.4749 34.0896L67.5275 34.0925Z" fill="#242F57"/>
<path d="M73.4863 35.1519C74.1902 35.2124 74.6391 36.0912 74.5533 37.0852C74.5428 37.2073 74.4353 37.2977 74.3132 37.2871C74.1912 37.2766 74.1008 37.1691 74.1113 37.0471C74.1787 36.2663 73.853 35.6287 73.4483 35.5939C73.0435 35.5591 72.6137 36.1312 72.5464 36.9119C72.5358 37.034 72.4283 37.1244 72.3063 37.1139C72.1842 37.1033 72.0938 36.9959 72.1044 36.8738C72.188 35.9047 72.7532 35.1309 73.4337 35.1489L73.4863 35.1519Z" fill="#242F57"/>
<path d="M65.8499 32.0126C66.9009 31.4757 67.9028 31.4561 68.767 31.7473C68.9729 31.8167 69.1222 31.8875 69.207 31.9381C69.3178 32.0041 69.354 32.1474 69.288 32.2581C69.222 32.3689 69.0788 32.4051 68.968 32.3391L68.9461 32.327C68.9313 32.3192 68.9107 32.3088 68.8846 32.2964C68.8086 32.2603 68.7194 32.2239 68.6179 32.1897C67.8655 31.9362 66.9923 31.9533 66.0623 32.4283C65.9475 32.4869 65.8069 32.4414 65.7483 32.3266C65.6896 32.2118 65.7351 32.0712 65.8499 32.0126Z" fill="#242F57"/>
<path d="M66.0101 43.9738C66.0627 43.8943 66.1698 43.8725 66.2493 43.9251C67.2567 44.5916 68.3279 44.9752 69.4269 45.0852C69.5218 45.0946 69.591 45.1792 69.5815 45.2741C69.572 45.3689 69.4874 45.4381 69.3925 45.4286C68.2375 45.3131 67.1128 44.9103 66.0588 44.213C65.9793 44.1604 65.9575 44.0533 66.0101 43.9738Z" fill="#DD936F"/>
<path fill-rule="evenodd" clip-rule="evenodd" d="M88.4308 81.5868L88.7161 81.4301C90.8477 80.2584 91.6261 77.5812 90.4548 75.45L79.6045 55.7073C78.4328 53.5757 75.7556 52.7978 73.6244 53.969L73.3391 54.1257C71.2079 55.2974 70.4295 57.9742 71.6008 60.1058L82.4511 79.8485C83.6228 81.9797 86.2996 82.758 88.4308 81.5868Z" fill="#FFC999"/>
<path fill-rule="evenodd" clip-rule="evenodd" d="M76.1887 68.4543L71.5242 59.9671C70.4002 57.9213 71.2805 55.2576 73.4817 54.0478C75.6829 52.8385 78.4034 53.5228 79.5279 55.5687L84.1478 63.9754L76.1887 68.4543Z" fill="#FC5A5A"/>
<path d="M73.3004 53.9938C73.3653 53.9581 73.4469 53.9818 73.4825 54.0467C73.5182 54.1116 73.4945 54.1931 73.4296 54.2288C71.3215 55.3877 70.4614 57.9157 71.4808 59.8833L71.525 59.9661L76.1241 68.3343L83.9653 63.922C84.0227 63.8897 84.0937 63.9042 84.1343 63.9531L84.148 63.9731C84.1803 64.0305 84.1658 64.1014 84.1168 64.142L84.0969 64.1557L76.1378 68.6347C76.08 68.6672 76.0085 68.6523 75.9681 68.6026L75.9545 68.5824L71.29 60.0952C70.1288 57.9826 71.0365 55.2383 73.3004 53.9938Z" fill="#FC5A5A"/>
<path fill-rule="evenodd" clip-rule="evenodd" d="M80.4491 146.983C82.2403 147.672 84.2613 146.809 85.0274 145.028L101.42 106.933C102.601 104.189 101.286 101.021 98.5265 99.9604C95.767 98.8998 92.6693 100.371 91.7076 103.199L78.3599 142.464C77.736 144.3 78.6578 146.295 80.4491 146.983Z" fill="#FFC999"/>
<path fill-rule="evenodd" clip-rule="evenodd" d="M56.3933 98.7694C57.5462 95.2884 60.7384 93.2403 63.4625 94.234L92.7503 104.919C95.0062 105.742 96.0449 108.7 95.0902 111.582C94.1364 114.465 91.537 116.218 89.236 115.532L59.3589 106.627C56.5802 105.799 55.2409 102.25 56.3933 98.7694Z" fill="#FFC999"/>
<path fill-rule="evenodd" clip-rule="evenodd" d="M123.235 147.491C125.02 146.788 125.926 144.786 125.288 142.955L111.624 103.799C110.64 100.978 107.531 99.5319 104.779 100.615C102.028 101.698 100.74 104.876 101.942 107.611L118.641 145.572C119.422 147.347 121.45 148.194 123.235 147.491Z" fill="#FFC999"/>
<path fill-rule="evenodd" clip-rule="evenodd" d="M72.1798 101.947C72.5767 98.3017 75.2684 95.6293 78.1403 96.0296L109.018 100.332C111.396 100.663 113.032 103.337 112.704 106.356C112.376 109.375 110.202 111.634 107.809 111.446L76.7284 109.008C73.8372 108.781 71.7834 105.593 72.1798 101.947Z" fill="#FFC999"/>
<path fill-rule="evenodd" clip-rule="evenodd" d="M77.1659 59.1939C77.9875 61.2437 79.522 64.7772 79.6222 67.0672C79.7845 70.7792 77.2437 73.411 77.2437 73.411C77.2437 73.411 77.2884 74.1872 77.6992 81.9074C66.5833 83.3 58.563 82.236 58.563 82.236L58.8671 78.3511L57.3716 72.2642C57.3716 72.2642 57.2679 69.9186 55.2785 64.8249C53.8945 61.2835 54.4625 57.1327 54.7858 54.8462C54.9236 53.8665 54.0779 52.6034 55.0426 52.3824C58.4116 51.6111 60.1197 52.0311 60.1197 52.0311L60.5406 49.8544C60.6128 49.4816 60.948 49.2182 61.3273 49.237L69.4286 49.6343C69.7764 49.6514 70.0687 49.9021 70.1387 50.2434L70.6125 52.1501L76.0681 53.2124C76.8478 53.4058 77.41 54.0853 77.4524 54.8873L77.1659 59.1939Z" fill="#FC5A5A"/>
<path d="M62.3911 52.118L69.686 52.4759C69.7628 52.4797 69.8219 52.545 69.8182 52.6217C69.8148 52.6899 69.7629 52.7443 69.6975 52.7529L69.6724 52.7539L62.3774 52.396C62.3007 52.3922 62.2415 52.3269 62.2453 52.2502C62.2486 52.182 62.3006 52.1276 62.366 52.119L62.3911 52.118Z" fill="#FC5A5A"/>
<path d="M59.9525 51.4089C60.0247 51.3572 60.1222 51.367 60.1828 51.4279L60.2016 51.4501L67.4256 61.5367L70.8583 52.6265C70.8902 52.5437 70.9771 52.4983 71.0612 52.5159L71.089 52.5241C71.1718 52.556 71.2173 52.6429 71.1997 52.727L71.1915 52.7549L67.64 61.9741C67.5924 62.0978 67.4342 62.1258 67.3461 62.0351L67.3283 62.0138L59.9113 51.6579C59.8539 51.5778 59.8724 51.4663 59.9525 51.4089Z" fill="#CCD7EE"/>
<path fill-rule="evenodd" clip-rule="evenodd" d="M69.6434 62.7719C70.3854 64.1759 69.9369 65.8692 68.6418 66.5535C67.3463 67.2382 65.6951 66.655 64.9526 65.2509C64.211 63.8469 64.659 62.1537 65.9541 61.4694C67.2496 60.7847 68.9013 61.3679 69.6434 62.7719Z" fill="#CCD7EE"/>
<path fill-rule="evenodd" clip-rule="evenodd" d="M69.9346 62.7796C70.6762 64.1836 70.2281 65.8768 68.9331 66.5611C67.6375 67.2458 65.9863 66.6626 65.2438 65.2586C64.5018 63.8546 64.9502 62.1613 66.2453 61.477C67.5408 60.7923 69.1925 61.3755 69.9346 62.7796Z" fill="#F1F1F5"/>
<path fill-rule="evenodd" clip-rule="evenodd" d="M69.409 62.9923C69.9852 64.0826 69.6369 65.3969 68.6315 65.9285C67.626 66.4601 66.3432 66.0073 65.7674 64.917C65.1912 63.8271 65.539 62.5123 66.5449 61.9807C67.5508 61.4495 68.8332 61.9024 69.409 62.9923Z" fill="#FF974A"/>
<path d="M53.6731 54.6258C53.7498 54.6318 53.8071 54.6987 53.8011 54.7753L53.7672 55.2489L53.7419 55.6334C53.725 55.8971 53.7084 56.1745 53.6926 56.4618C53.6559 57.1281 53.6267 57.7831 53.6079 58.4061L53.5993 58.7149C53.5669 60.0081 53.5846 61.0446 53.6641 61.7266C53.7441 62.412 54.1331 63.5483 54.7561 65.0048L54.8171 65.1467C54.9488 65.4517 55.0891 65.7669 55.2367 66.0904C55.586 66.8559 55.9603 67.6334 56.3347 68.3823L56.5238 68.7581L56.8334 69.3611L56.8451 69.3914L59.1294 78.3678L59.133 78.4159L58.7653 82.0875L59.1849 82.1252L59.4987 82.1511C59.877 82.1811 60.2979 82.2108 60.7584 82.239C65.8359 82.5493 71.5265 82.4732 77.1649 81.7443L77.4802 81.7025L77.4764 81.4175C77.4632 80.82 77.4164 79.6522 77.3443 78.0679L77.2787 76.659L77.1347 73.7219C77.1333 73.6937 77.1405 73.6656 77.1554 73.6416L77.2539 73.4773L77.353 73.3073C77.4045 73.2176 77.459 73.1212 77.516 73.0186C77.7874 72.5297 78.0588 72.0005 78.312 71.4502C78.6562 70.7023 78.9391 69.9751 79.1395 69.2915C79.3237 68.6632 79.4333 68.0874 79.4584 67.576C79.5229 66.2619 79.4025 65.2375 79.0741 64.1825C78.9009 63.6262 78.6691 63.052 78.3285 62.3187L78.185 62.015C78.0156 61.6625 77.6979 61.0145 77.4373 60.4845L77.0222 59.6414L77.0081 59.5789L77.0339 57.2976C77.0348 57.2208 77.0978 57.1592 77.1746 57.16C77.2429 57.1608 77.2992 57.2107 77.3102 57.2757L77.3122 57.3007L77.2865 59.5486L78.353 61.7229C78.4108 61.8422 78.4596 61.9436 78.495 62.0183L78.5107 62.0514C78.8947 62.8674 79.1506 63.4923 79.3397 64.0998C79.6782 65.1869 79.8024 66.2438 79.7364 67.5897C79.7101 68.1252 79.5964 68.7219 79.4065 69.3698C79.2019 70.0677 78.9143 70.8072 78.5648 71.5666C78.3451 72.044 78.112 72.5056 77.8769 72.9392L77.7593 73.1537C77.7016 73.2576 77.6464 73.3553 77.5941 73.4462L77.45 73.6923L77.4146 73.7505L77.4667 74.7893C77.497 75.4045 77.5274 76.0302 77.5566 76.6458L77.7005 79.851C77.7451 80.9458 77.7656 81.6388 77.7561 81.8317C77.7528 81.8987 77.7022 81.9538 77.6358 81.9628C71.8357 82.7475 65.9658 82.8361 60.7414 82.5167L60.355 82.4921C59.9784 82.4672 59.6315 82.4414 59.3162 82.4155L58.8166 82.3718L58.5984 82.3504C58.5307 82.3433 58.4795 82.2887 58.4743 82.2232L58.4746 82.1982L58.8537 78.4128L56.5794 69.4759L56.449 69.2238C56.3394 69.0105 56.2173 68.7698 56.0858 68.5067C55.71 67.7551 55.3343 66.9747 54.9835 66.2059C54.8722 65.962 54.7651 65.7228 54.6626 65.489L54.5616 65.257C53.8924 63.7078 53.4745 62.5021 53.3877 61.7588C53.3063 61.0604 53.2884 60.0133 53.3212 58.7079C53.3366 58.0934 53.3627 57.4439 53.397 56.7797L53.4147 56.4464C53.4306 56.1583 53.4473 55.8801 53.4642 55.6157L53.5237 54.7538C53.5296 54.6772 53.5965 54.6199 53.6731 54.6258Z" fill="#FC5A5A"/>
<path fill-rule="evenodd" clip-rule="evenodd" d="M78.0802 84.1715L77.3709 81.7432C77.3709 81.7432 68.311 82.403 59.7958 82.3999C59.3837 83.3927 59.3027 85.2745 59.3027 85.2745C59.9875 84.6528 68.6685 85.9286 78.0802 84.1715Z" fill="#696974"/>
<path fill-rule="evenodd" clip-rule="evenodd" d="M106.355 95.4672L80.9029 88.2309L78.4392 84.2888L59.3926 85.0352C59.3926 85.0352 47.1558 107.752 61.6402 112.724C73.1424 115.89 76.3373 116.215 76.3373 116.215L80.8596 122.435L101.42 112.538L116.441 103.088L106.355 95.4672Z" fill="#696974"/>
<path d="M68.5142 85.7931C68.5831 85.749 68.6721 85.762 68.7258 85.8198L68.7442 85.8435L71.7472 90.5335L93.2332 104.034C93.2538 104.047 93.2713 104.064 93.2844 104.084L93.2961 104.106L97.1358 112.531C97.174 112.615 97.137 112.714 97.0534 112.752C96.9781 112.786 96.8906 112.76 96.846 112.693L96.8328 112.669L93.0137 104.289L71.5383 90.7956C71.5245 90.7869 71.512 90.7763 71.5013 90.764L71.4867 90.7444L68.4638 86.0231C68.4142 85.9456 68.4368 85.8427 68.5142 85.7931Z" fill="#242F57"/>
<path d="M64.8268 86.6412C64.9094 86.6354 64.982 86.6909 65.0004 86.7689L65.0044 86.7957L65.4642 93.4026L73.3968 106.576L81.0093 122.363C81.0493 122.446 81.0145 122.546 80.9317 122.586C80.8571 122.622 80.7691 122.597 80.7231 122.531L80.7094 122.508L73.1042 106.735L65.1582 93.5396C65.1492 93.5246 65.1426 93.5082 65.1386 93.4912L65.1348 93.4653L64.6723 86.8188C64.6659 86.7271 64.7351 86.6476 64.8268 86.6412Z" fill="#242F57"/>
<path d="M61.5232 87.0563L61.5501 87.0594C61.6313 87.0754 61.687 87.1478 61.6845 87.2279L61.6814 87.2549L59.8899 96.3838L67.9478 113.306C67.9833 113.381 67.9583 113.468 67.8925 113.514L67.869 113.528C67.7943 113.563 67.7064 113.538 67.6607 113.472L67.6471 113.449L59.566 96.4777C59.5545 96.4535 59.549 96.427 59.5499 96.4005L59.5529 96.374L61.3547 87.1907C61.3706 87.1095 61.4431 87.0538 61.5232 87.0563Z" fill="#242F57"/>
<path d="M78.2674 84.0403C78.3157 84.0383 78.362 84.0573 78.3948 84.0915L78.4128 84.1138L81.2527 88.3331L106.399 95.3066L106.455 95.3342L116.541 102.955C116.626 103.019 116.628 103.144 116.552 103.212L116.529 103.229L101.508 112.679C101.43 112.728 101.327 112.705 101.278 112.627C101.235 112.558 101.248 112.469 101.307 112.415L101.33 112.397L116.148 103.075L106.28 95.6189L81.1048 88.6379C81.0761 88.63 81.0502 88.6145 81.0297 88.5934L81.0111 88.5704L78.1883 84.377L59.3995 85.2013C59.3168 85.205 59.2456 85.1476 59.2293 85.0692L59.2257 85.0423C59.2223 84.9596 59.2796 84.8884 59.358 84.872L59.3849 84.8687L78.2674 84.0403Z" fill="#242F57"/>
<path d="M68.6029 91.8677C68.6725 91.8249 68.7613 91.8396 68.8139 91.8984L68.8318 91.9225L72.5171 97.9281L80.6535 105.356C80.7139 105.411 80.7244 105.5 80.6824 105.567L80.6643 105.591C80.6092 105.651 80.5198 105.662 80.453 105.62L80.4291 105.601L72.2757 98.1586L72.246 98.1228L68.548 92.0967C68.5 92.0183 68.5245 91.9158 68.6029 91.8677Z" fill="#242F57"/>
<path d="M82.0364 94.3959C82.0633 94.3176 82.1427 94.2723 82.2217 94.2858L82.2479 94.2925L95.1486 98.7232L105.742 104.489C105.823 104.533 105.853 104.634 105.809 104.715C105.769 104.787 105.683 104.819 105.608 104.792L105.583 104.781L95.015 99.0269L82.1398 94.6074C82.0529 94.5775 82.0066 94.4828 82.0364 94.3959Z" fill="#242F57"/>
<path fill-rule="evenodd" clip-rule="evenodd" d="M99.0371 54.6217C100.281 55.278 100.839 56.7026 100.303 57.8546L90.4405 79.6077C89.4158 81.6164 86.4984 83.3853 84.0854 81.6295C81.8579 80.4539 80.9426 77.8514 82.0596 75.8699L95.711 55.3095C96.3913 54.2848 97.8334 53.9868 99.0371 54.6217Z" fill="#FFC999"/>
<path fill-rule="evenodd" clip-rule="evenodd" d="M58.5104 106.909C59.8873 106.559 60.7715 105.289 60.5173 104.027L55.6083 79.6576C55.0758 77.435 52.6431 76.1268 50.1991 76.7476C47.7336 77.3746 46.2202 79.7189 46.8498 81.9367L55.4595 106.882C55.8861 108.052 57.1785 107.247 58.5104 106.909Z" fill="#FFC999"/>
<path fill-rule="evenodd" clip-rule="evenodd" d="M50.002 83.8845L50.4925 83.9834C52.9103 84.4716 55.2664 82.9075 55.7542 80.4892L60.1632 58.6548C60.651 56.237 59.0869 53.8813 56.6686 53.393L56.1786 53.2937C53.7608 52.8059 51.4047 54.3701 50.9169 56.7878L46.5083 78.6223C46.0196 81.0405 47.5842 83.3962 50.002 83.8845Z" fill="#FFC999"/>
<path fill-rule="evenodd" clip-rule="evenodd" d="M49.0752 65.905L51.1101 55.8252C51.6011 53.3956 54.1068 51.8319 56.6786 52.3512C59.2504 52.8706 60.9528 55.2835 60.4623 57.7136L58.4466 67.6975L49.0752 65.905Z" fill="#FC5A5A"/>
<path d="M49.0308 65.4675L58.5226 67.6486C58.5958 67.6655 58.6416 67.7385 58.6247 67.8117C58.6098 67.8768 58.5504 67.9202 58.486 67.9172L58.4617 67.9139L48.9699 65.7328C48.8966 65.7159 48.8509 65.6429 48.8677 65.5697C48.8827 65.5046 48.9421 65.4612 49.0065 65.4642L49.0308 65.4675Z" fill="#FC5A5A"/>
<path fill-rule="evenodd" clip-rule="evenodd" d="M67.1731 112.787C67.9751 112.481 66.5522 108.938 66.109 108.213C65.5184 107.246 60.079 104.239 60.079 104.239L59.1234 99.966L54.1133 102.008C54.1133 102.008 54.8838 106.722 56.2957 109.152C57.3492 110.966 59.1414 110.577 61.6895 112.979C62.8691 114.09 64.3453 115.266 64.9465 114.379C65.0651 114.204 66.2915 114.526 66.134 113.442C66.134 113.442 66.5509 113.767 66.9438 113.438C67.2847 113.153 67.1731 112.787 67.1731 112.787Z" fill="#FFC999"/>
<path d="M60.6064 110.196C60.647 110.11 60.7499 110.073 60.8361 110.114L60.9338 110.162L60.9694 110.18C61.0731 110.234 61.1883 110.298 61.3124 110.37C61.6666 110.577 62.0208 110.816 62.3521 111.085C62.6527 111.328 62.9199 111.585 63.1451 111.854L65.1162 114.21C65.1773 114.283 65.1676 114.392 65.0945 114.453C65.0214 114.514 64.9125 114.505 64.8514 114.431L62.8803 112.075C62.6705 111.825 62.419 111.583 62.1348 111.353C61.8182 111.096 61.4782 110.867 61.1382 110.668C61.049 110.616 60.9646 110.569 60.8864 110.527L60.7238 110.443C60.7091 110.435 60.6974 110.43 60.6889 110.426C60.6027 110.385 60.5657 110.282 60.6064 110.196Z" fill="#DD936F"/>
<path d="M61.9556 108.642C62.0144 108.567 62.1229 108.554 62.1979 108.613L62.3116 108.704L62.4529 108.821C62.5023 108.863 62.5539 108.907 62.6074 108.953C62.913 109.218 63.2187 109.503 63.5045 109.798C63.8315 110.136 64.1115 110.465 64.3303 110.779L64.503 111.025C64.5632 111.11 64.6259 111.198 64.6911 111.289L64.8963 111.573C65.0613 111.8 65.2334 112.033 65.4084 112.269L65.9097 112.937L66.1537 113.258C66.2116 113.334 66.1973 113.442 66.1216 113.5C66.0459 113.558 65.9376 113.544 65.8796 113.468L65.5612 113.049L65.485 112.947C65.2483 112.633 65.0117 112.315 64.785 112.006L64.5109 111.629L64.314 111.355C64.2192 111.222 64.13 111.096 64.047 110.977C63.84 110.679 63.5716 110.363 63.2566 110.038C62.9785 109.751 62.6799 109.473 62.3814 109.214L62.2306 109.086L62.0165 108.909C62.0033 108.899 61.9928 108.89 61.9852 108.884C61.9101 108.826 61.8969 108.717 61.9556 108.642Z" fill="#DD936F"/>
<path d="M63.1606 107.575C63.2141 107.496 63.3214 107.475 63.4003 107.529L63.5138 107.609C63.6024 107.673 63.701 107.747 63.807 107.83C64.1098 108.068 64.4127 108.331 64.6958 108.614C65.2446 109.161 65.6531 109.713 65.863 110.255C65.965 110.518 66.0781 110.776 66.2006 111.029C66.3973 111.434 66.608 111.805 66.8185 112.133C66.892 112.247 66.9601 112.348 67.0211 112.434L67.0957 112.537C67.1536 112.613 67.1392 112.721 67.0635 112.779C66.9878 112.837 66.8794 112.823 66.8215 112.747L66.7611 112.665L66.7392 112.634C66.6753 112.543 66.6043 112.438 66.5279 112.319C66.3104 111.98 66.093 111.598 65.89 111.179C65.7635 110.919 65.6466 110.652 65.5411 110.379C65.3516 109.89 64.9698 109.374 64.452 108.858C64.1794 108.586 63.8867 108.332 63.594 108.102L63.4462 107.988C63.4227 107.971 63.3996 107.953 63.3771 107.937L63.2198 107.824C63.2147 107.82 63.2103 107.817 63.2066 107.815C63.1277 107.761 63.1071 107.654 63.1606 107.575Z" fill="#DD936F"/>
<path fill-rule="evenodd" clip-rule="evenodd" d="M95.2031 55.1339L96.5323 48.0402C96.5323 48.0402 100.217 39.8724 101.861 40.1962C103.406 40.7046 100.264 43.2414 99.8072 45.4934C101.21 45.258 100.769 47.4198 100.769 47.4198C100.769 47.4198 101.889 47.2715 101.751 49.012C102.853 49.5305 102.204 51.5746 102.204 51.5746C102.204 51.5746 101.632 55.5671 99.6384 59.2401C99.6384 59.2401 95.4954 61.258 95.2031 55.1339Z" fill="#FFC999"/>
<path fill-rule="evenodd" clip-rule="evenodd" d="M95.0342 54.5609C95.0342 54.5609 95.1247 51.2488 95.2669 49.5521C95.4087 47.8554 94.4173 44.9108 95.7097 45.5929C96.5782 46.0514 96.6075 47.8567 96.7038 49.1811C96.8009 50.5046 99.2336 53.433 97.8501 55.7528C96.9155 57.32 95.2394 57.6744 95.0342 54.5609Z" fill="#FFC999"/>
<path d="M99.672 45.3871C99.7309 45.3121 99.8394 45.299 99.9144 45.3578C99.9894 45.4167 100.002 45.5252 99.9436 45.6002L99.8775 45.6867L99.7475 45.8625C99.732 45.8838 99.7163 45.9056 99.7002 45.928C99.5166 46.1842 99.3329 46.4579 99.1618 46.7378C98.993 47.0138 98.8455 47.281 98.7256 47.5334C98.2797 48.4718 98.2731 49.0499 98.7663 49.2026C98.8574 49.2308 98.9084 49.3275 98.8802 49.4185C98.852 49.5096 98.7553 49.5606 98.6643 49.5324C97.8787 49.2892 97.8877 48.4922 98.4138 47.3852C98.5394 47.121 98.6925 46.8434 98.8673 46.5577C99.0432 46.27 99.2314 45.9894 99.4196 45.7269L99.5148 45.5958L99.6629 45.3988C99.6664 45.3943 99.6694 45.3904 99.672 45.3871Z" fill="#DD936F"/>
<path d="M100.767 47.378C100.832 47.4478 100.828 47.557 100.758 47.622L100.686 47.6914L100.592 47.7828C100.56 47.8152 100.526 47.8495 100.49 47.8855C100.288 48.0914 100.086 48.3114 99.8971 48.5361C99.7127 48.7559 99.5516 48.9686 99.4206 49.169C99.0026 49.8086 98.9478 50.2149 99.2745 50.3748C99.3438 50.4087 99.4149 50.425 99.4895 50.4254C99.7548 50.4266 100.069 50.225 100.388 49.8818C100.505 49.7565 100.614 49.6217 100.712 49.4868L100.786 49.3809C100.807 49.3511 100.822 49.327 100.833 49.31C100.883 49.229 100.989 49.2041 101.07 49.2544C101.151 49.3047 101.176 49.4111 101.126 49.4921L101.094 49.5418C101.068 49.5808 101.034 49.6309 100.991 49.6893C100.886 49.835 100.768 49.9806 100.641 50.1172C100.261 50.5247 99.8757 50.7724 99.4879 50.7706C99.3617 50.77 99.2392 50.7418 99.1228 50.6849C98.5299 50.3946 98.6138 49.7726 99.1317 48.9801C99.2708 48.7672 99.44 48.5439 99.6326 48.3142C99.8274 48.082 100.036 47.8555 100.244 47.6436L100.399 47.4891L100.523 47.3692C100.593 47.3043 100.702 47.3082 100.767 47.378Z" fill="#DD936F"/>
<path d="M101.343 49.0055C101.435 48.9818 101.529 49.0374 101.553 49.1298C101.576 49.2221 101.521 49.3162 101.428 49.3399C101.206 49.3969 100.937 49.6282 100.63 50.0682C99.9856 50.9917 99.8879 51.5545 100.114 51.6592C100.349 51.768 100.855 51.476 101.149 50.9564C101.255 50.7697 101.538 50.9047 101.46 51.1044C101.046 52.1604 100.504 52.8458 99.7398 53.4216C99.6367 53.4992 99.5305 53.5746 99.4098 53.6565L98.9113 53.9844C97.9012 54.6494 97.5211 55.1581 97.398 56.3488C97.3882 56.4437 97.3034 56.5126 97.2086 56.5028C97.1138 56.493 97.0448 56.4082 97.0546 56.3133C97.1863 55.0398 97.6093 54.4447 98.6369 53.7524L99.1251 53.4318L99.3003 53.313C99.3827 53.2559 99.4584 53.2014 99.532 53.1459C99.9787 52.8092 100.342 52.4351 100.647 51.9591L100.687 51.8954L100.654 51.9129C100.427 52.0247 100.199 52.0584 100.011 51.99L99.9688 51.9725C99.4574 51.7355 99.5937 50.9501 100.347 49.8706C100.697 49.3693 101.025 49.087 101.343 49.0055Z" fill="#DD936F"/>
<path d="M96.5542 47.3563C96.6387 47.3411 96.7198 47.3901 96.7475 47.4685L96.7546 47.4956L97.196 49.9527L97.2203 49.9869C97.2582 50.0407 97.3004 50.1028 97.3456 50.1726C97.4745 50.3715 97.6032 50.5929 97.7235 50.8315C98.0695 51.518 98.2779 52.207 98.2781 52.8585C98.2782 53.2265 98.2105 53.5721 98.0674 53.8896C98.0282 53.9765 97.926 54.0152 97.8391 53.9761C97.7522 53.9369 97.7135 53.8347 97.7526 53.7478C97.8747 53.477 97.9329 53.1796 97.9329 52.8586C97.9327 52.2696 97.7391 51.6294 97.4152 50.9868C97.3238 50.8054 97.227 50.6342 97.1293 50.4763L97.0559 50.3603C96.9829 50.2477 96.9266 50.1679 96.8955 50.1268C96.8846 50.1123 96.8761 50.0963 96.8702 50.0793L96.8633 50.0532L96.4149 47.5567C96.398 47.4628 96.4604 47.3731 96.5542 47.3563Z" fill="#DD936F"/>
<path d="M77.3644 81.5765C77.4563 81.5731 77.5336 81.6448 77.5371 81.7367C77.5401 81.8194 77.4823 81.8902 77.4037 81.9061L77.3768 81.9092L59.8017 82.566C59.7098 82.5694 59.6326 82.4977 59.629 82.4058C59.626 82.3231 59.6838 82.2523 59.7624 82.2364L59.7893 82.2332L77.3644 81.5765Z" fill="#242F57"/>
</g>
<path fill-rule="evenodd" clip-rule="evenodd" d="M114.039 57.7763C107.098 54.493 102.961 63.1039 106.452 67.8984C110.712 73.7491 112.894 80.4811 114.109 82.5094C115.134 84.2205 117.943 88.3919 121.324 86.4692C124.436 84.6997 122.74 77.755 122.74 77.755C122.74 77.755 122.603 61.8268 114.039 57.7763Z" fill="#5B8C00"/>
<path fill-rule="evenodd" clip-rule="evenodd" d="M134.918 85.1321C137.278 81.9483 138.139 77.3794 135.505 76.2077C132.98 75.0845 128.797 77.8502 126.859 83.1731C124.922 88.4959 123.804 92.3229 125.699 92.9883C128.809 94.08 131.801 89.3372 134.918 85.1321Z" fill="#5B8C00"/>
<path fill-rule="evenodd" clip-rule="evenodd" d="M110.109 85.3738C112.778 88.5016 116.629 94.7938 119.042 92.5901C120.505 91.2546 118.55 84.9298 113.198 81.4885C108.646 78.5613 107.439 82.2459 110.109 85.3738Z" fill="#3DD598"/>
<path fill-rule="evenodd" clip-rule="evenodd" d="M135.649 63.6678C134.635 62.9849 133.358 62.8289 132.193 63.2021C130.567 63.7229 128.099 65.2736 125.657 69.7245C122.469 75.5356 120.809 81.9061 121.137 85.9415C121.351 88.5805 124.603 89.7182 126.421 87.794C127.257 86.9103 128.14 85.5481 129.005 83.4815C132.485 75.1655 135.739 69.9542 136.127 69.4309C137.162 68.0346 137.902 65.1835 135.649 63.6678Z" fill="#3DD598"/>
<path fill-rule="evenodd" clip-rule="evenodd" d="M133.315 66.9849C133.281 67.3955 133.586 67.7562 133.996 67.7907C134.407 67.8251 134.768 67.5202 134.802 67.1096C134.836 66.699 134.532 66.3383 134.121 66.3038C133.71 66.2694 133.35 66.5743 133.315 66.9849Z" fill="white"/>
<path fill-rule="evenodd" clip-rule="evenodd" d="M126.978 70.1702C126.944 70.5808 127.249 70.9416 127.659 70.976C128.07 71.0105 128.431 70.7055 128.465 70.2949C128.499 69.8844 128.195 69.5236 127.784 69.4891C127.373 69.4547 127.013 69.7597 126.978 70.1702Z" fill="white"/>
<path fill-rule="evenodd" clip-rule="evenodd" d="M128.04 78.6514C128.001 79.1216 128.35 79.5348 128.82 79.5742C129.29 79.6137 129.704 79.2644 129.743 78.7942C129.782 78.324 129.433 77.9109 128.963 77.8714C128.493 77.8319 128.08 78.1812 128.04 78.6514Z" fill="white"/>
<path fill-rule="evenodd" clip-rule="evenodd" d="M108.576 65.9766C108.576 66.644 109.117 67.185 109.784 67.185C110.452 67.185 110.993 66.644 110.993 65.9766C110.993 65.3093 110.452 64.7684 109.784 64.7684C109.117 64.7684 108.576 65.3093 108.576 65.9766Z" fill="white"/>
<path fill-rule="evenodd" clip-rule="evenodd" d="M118.303 69.6664C118.303 70.3337 118.844 70.8747 119.511 70.8747C120.179 70.8747 120.72 70.3337 120.72 69.6664C120.72 68.9991 120.179 68.4581 119.511 68.4581C118.844 68.4581 118.303 68.9991 118.303 69.6664Z" fill="white"/>
<path fill-rule="evenodd" clip-rule="evenodd" d="M115.153 77.8684C115.153 78.1473 115.379 78.3734 115.658 78.3734C115.937 78.3734 116.163 78.1473 116.163 77.8684C116.163 77.5894 115.937 77.3633 115.658 77.3633C115.379 77.3633 115.153 77.5894 115.153 77.8684Z" fill="white"/>
<path fill-rule="evenodd" clip-rule="evenodd" d="M111.514 84.3271C111.514 84.7391 111.849 85.0731 112.261 85.0731C112.673 85.0731 113.007 84.7391 113.007 84.3271C113.007 83.915 112.673 83.581 112.261 83.581C111.849 83.581 111.514 83.915 111.514 84.3271Z" fill="white"/>
<path d="M128.94 85.9818C128.87 85.9155 128.76 85.9181 128.694 85.9876L128.662 86.022L128.638 86.0487C128.594 86.0976 128.544 86.156 128.487 86.2239C128.325 86.4168 128.145 86.6471 127.952 86.9149C127.401 87.6778 126.85 88.5881 126.337 89.6443C124.871 92.6582 123.993 96.2381 123.993 100.371C123.993 100.467 124.071 100.545 124.167 100.545C124.263 100.545 124.341 100.467 124.341 100.371C124.341 96.2927 125.207 92.7644 126.65 89.7964C127.154 88.7588 127.694 87.8657 128.234 87.1186C128.411 86.8731 128.576 86.6604 128.725 86.4808L128.753 86.4475C128.796 86.397 128.834 86.3522 128.869 86.313L128.912 86.2642C128.928 86.2463 128.94 86.2342 128.946 86.2278C129.012 86.1582 129.01 86.0481 128.94 85.9818Z" fill="#242F57"/>
<path d="M115.797 87.1995C115.739 87.1225 115.63 87.1067 115.553 87.1641C115.476 87.2216 115.461 87.3306 115.518 87.4076C116.152 88.2562 116.736 89.1687 117.274 90.1359C118.411 92.1805 119.29 94.3726 119.942 96.5648C120.17 97.3321 120.354 98.0444 120.497 98.6834L120.526 98.8143C120.56 98.9706 120.59 99.1131 120.615 99.2409L120.631 99.3245L120.66 99.4822C120.676 99.577 120.765 99.6409 120.86 99.6249C120.955 99.609 121.019 99.5192 121.003 99.4245L120.993 99.3685C120.985 99.3232 120.975 99.27 120.963 99.209L120.934 99.0642C120.906 98.9261 120.874 98.7735 120.836 98.6074L120.805 98.4677C120.665 97.8577 120.49 97.1855 120.276 96.4656C119.616 94.2506 118.728 92.0355 117.578 89.9668C117.033 88.9864 116.44 88.061 115.797 87.1995Z" fill="#242F57"/>
<path d="M112.757 65.4949C112.69 65.5588 112.685 65.6628 112.744 65.7324L112.752 65.7409C112.755 65.7445 112.762 65.7523 112.773 65.7643L112.816 65.811L112.841 65.8386C112.916 65.9221 113.003 66.0225 113.101 66.1401C113.383 66.4771 113.697 66.8826 114.036 67.3569C115.006 68.7142 115.976 70.349 116.881 72.2628C118.39 75.4494 119.564 79.0837 120.276 83.1694C121.14 88.1306 121.284 93.5504 120.576 99.4326C120.564 99.528 120.633 99.6146 120.728 99.6261C120.823 99.6376 120.91 99.5695 120.921 99.4741C121.633 93.5583 121.489 88.1044 120.619 83.1097C119.901 78.9925 118.717 75.3283 117.196 72.114C116.281 70.1809 115.3 68.5284 114.319 67.1547L114.243 67.0488C113.941 66.6299 113.658 66.2654 113.4 65.9554L113.368 65.917C113.276 65.8063 113.193 65.7101 113.12 65.6282L113.1 65.6063C113.077 65.5809 113.057 65.5585 113.039 65.539L113.003 65.5002C112.936 65.4308 112.826 65.4285 112.757 65.4949Z" fill="#242F57"/>
<path d="M127.815 75.8114C127.733 75.7616 127.626 75.7879 127.576 75.87L127.559 75.8994C127.545 75.9229 127.528 75.951 127.51 75.9835L127.482 76.0313C127.436 76.1133 127.383 76.2075 127.325 76.3139L127.278 76.4024C127.101 76.7318 126.907 77.113 126.7 77.5447L126.671 77.6039C125.996 79.0187 125.321 80.6732 124.691 82.5532C122.928 87.8174 121.855 93.7921 121.815 100.37C121.814 100.466 121.892 100.544 121.988 100.545C122.084 100.545 122.162 100.468 122.163 100.372C122.203 93.8328 123.269 87.8942 125.021 82.6638C125.635 80.8314 126.292 79.2159 126.949 77.8305L126.985 77.7537C127.21 77.2831 127.419 76.8724 127.608 76.5233L127.665 76.4188C127.719 76.3194 127.768 76.2321 127.811 76.157L127.832 76.1215L127.874 76.0503C127.923 75.9682 127.897 75.8612 127.815 75.8114Z" fill="#242F57"/>
<path fill-rule="evenodd" clip-rule="evenodd" d="M114.426 109H129.463C130.276 109 130.941 108.335 130.941 107.522V96.5517C130.941 95.7388 130.276 95.0738 129.463 95.0738H114.426C113.613 95.0738 112.948 95.7388 112.948 96.5517V107.522C112.948 108.335 113.613 109 114.426 109Z" fill="#242F57"/>
<g clip-path="url(#clip1)">
<path d="M125.886 50.2013L130.844 45.5655L132.267 48.4658C133.174 50.3709 133.035 52.2441 131.952 53.8158C131.545 54.3662 131.142 54.7226 130.731 55.0125C131.172 54.7877 131.982 54.4577 132.621 54.6612C133.548 54.9573 134.027 55.3967 134.963 56.3963L136.416 58.2415C136.416 58.2415 131.557 60.2315 131.471 60.1304C130.658 60.3196 129.581 60.493 128.622 60.3296C127.901 60.2072 127.246 59.894 126.818 59.2541C125.372 59.1668 125.058 58.6613 125.875 57.737C125.952 57.6499 126.037 57.5636 126.129 57.4789C125.906 57.2277 125.643 56.9275 125.339 56.5793C124.579 55.569 124.21 54.3288 124.312 53.1328C124.399 52.1273 124.813 51.2212 125.48 50.5536C125.607 50.4271 125.742 50.3096 125.886 50.2013Z" fill="#FC5A5A"/>
<path d="M127.725 56.9184C129.772 55.7734 130.589 56.1069 131.444 56.6168C132.3 57.1257 133.758 59.0966 134.141 59.7286C134.141 59.7286 131.56 61.2868 128.917 61.7663C127.132 61.8694 126.939 61.3084 125.729 60.0171C124.633 58.7388 123.906 57.7659 123.546 57.0993C124.117 57.9619 125.51 57.9013 127.725 56.9184Z" fill="#FFC542"/>
<path d="M129.629 49.7736C131.039 52.0345 130.991 53.6565 129.622 55.3546C129.389 55.8666 126.515 58.454 127.024 61.1617C126.889 61.2179 125.855 60.064 123.92 57.7014C123.077 56.3498 122.486 55.5239 122.461 54.272C122.437 53.0197 123.355 51.3641 124.021 50.4512L127.158 46.3929L129.629 49.7736Z" fill="#FFC542"/>
<path d="M127.852 56.8499C128.023 56.7526 128.165 56.6857 128.208 56.6638C128.441 56.5476 128.685 56.4448 128.794 56.4088C127.349 58.4777 126.736 60.1056 126.954 61.2927C126.84 61.2519 126.247 60.5809 125.949 60.2649C124.716 58.8506 123.916 57.7858 123.536 57.0795C124.196 57.8688 125.496 57.964 127.852 56.8499Z" fill="#FF974A"/>
</g>
<defs>
<clipPath id="clip0">
<rect width="124.75" height="102.833" fill="white" transform="translate(26 11.7231)"/>
</clipPath>
<clipPath id="clip1">
<rect width="19.3532" height="19.3532" fill="white" transform="matrix(-0.707107 0.707107 0.707107 0.707107 129.774 40.6484)"/>
</clipPath>
</defs>
</svg>
