<svg width="175" height="118" viewBox="0 0 175 118" fill="none" xmlns="http://www.w3.org/2000/svg">
<g clip-path="url(#clip0)">
<path fill-rule="evenodd" clip-rule="evenodd" d="M122.319 147.203C121.479 133.534 120.47 119.412 119.411 108.197C119.411 108.197 117.267 100.172 109.934 102.104C102.747 103.999 103.433 113.201 103.433 113.201L109.256 149.983C109.256 149.983 110.304 155 116.803 153.91C122.73 152.916 122.319 147.203 122.319 147.203Z" fill="#0062FF"/>
<path fill-rule="evenodd" clip-rule="evenodd" d="M84.1694 148.461C85.6388 134.845 86.2495 120.784 87.8235 109.629C87.8235 109.629 91.3813 101.711 98.6167 103.98C105.709 106.203 104.6 115.364 104.6 115.364L97.2693 151.205C97.2693 151.205 95.8125 156.802 89.3714 155.414C83.496 154.148 84.1694 148.461 84.1694 148.461Z" fill="#0062FF"/>
<path fill-rule="evenodd" clip-rule="evenodd" d="M119.417 110.147C119.81 101.897 118.001 96.0356 117.01 94.3747C95.7044 94.9838 90.3967 94.7039 90.3967 94.7039C90.3967 94.7039 88.0498 99.8634 87.7871 110.241C87.7871 110.241 95.7578 119.41 104.222 119.41C111.854 119.41 119.417 110.147 119.417 110.147Z" fill="#0062FF"/>
<path fill-rule="evenodd" clip-rule="evenodd" d="M117.117 94.8722L116.608 90.3657L91.0417 90.1553L90.3965 94.6943C90.3965 94.6943 104.65 94.8952 117.117 94.8722Z" fill="#0062FF"/>
<path d="M105.867 94.5992C105.975 94.5963 106.066 94.6817 106.069 94.7901L106.093 96.0479C106.152 99.8787 106.118 104.143 105.922 108.169L105.893 108.735C105.675 112.849 105.3 116.165 104.737 118.416C104.71 118.521 104.604 118.585 104.499 118.559C104.394 118.533 104.33 118.426 104.356 118.321C104.924 116.048 105.302 112.651 105.516 108.427L105.53 108.15C105.715 104.356 105.755 100.349 105.71 96.695L105.689 95.368L105.676 94.8006C105.673 94.6922 105.759 94.6021 105.867 94.5992Z" fill="#242F57"/>
<path d="M109.686 94.747C109.794 94.738 109.889 94.8184 109.898 94.9264L109.933 95.4067L109.967 95.9324C109.978 96.1172 109.989 96.3113 110 96.514L110.01 96.7197C110.152 99.5285 110.174 102.481 110.002 105.245C109.882 107.177 109.67 108.903 109.355 110.374L109.305 110.604L109.29 110.645C108.619 112.055 107.718 112.939 106.737 113.34C105.97 113.653 105.149 113.63 105.088 113.243C105.072 113.136 105.145 113.035 105.252 113.019C105.359 113.002 105.459 113.075 105.476 113.182C105.47 113.14 105.461 113.127 105.465 113.126L105.469 113.127C105.52 113.146 105.6 113.16 105.699 113.163C105.95 113.17 106.263 113.11 106.589 112.977C107.446 112.626 108.248 111.856 108.87 110.611L108.927 110.494L108.972 110.291C109.266 108.918 109.469 107.313 109.591 105.521L109.61 105.22C109.782 102.473 109.759 99.5348 109.618 96.7395L109.586 96.143C109.575 95.9531 109.564 95.7723 109.553 95.6012L109.507 94.9587C109.498 94.8506 109.578 94.7559 109.686 94.747Z" fill="#242F57"/>
<path d="M94.7226 94.612C94.831 94.612 94.9189 94.6998 94.9189 94.8082L94.9176 94.9168C94.9164 94.9774 94.9143 95.0542 94.911 95.1456C94.9011 95.4114 94.8834 95.7073 94.8559 96.0258C94.7773 96.9365 94.6358 97.8475 94.4151 98.6997C93.6731 101.565 92.2248 103.126 89.8899 102.587C89.7843 102.563 89.7185 102.457 89.7429 102.352C89.7672 102.246 89.8726 102.18 89.9782 102.205C92.0459 102.682 93.3395 101.288 94.0351 98.6013C94.2498 97.7726 94.3881 96.8825 94.4649 95.9921C94.4865 95.7426 94.5018 95.5074 94.5121 95.2904L94.5188 95.1311C94.5245 94.976 94.5264 94.8659 94.5264 94.8082C94.5264 94.6998 94.6143 94.612 94.7226 94.612Z" fill="#242F57"/>
<path d="M117.165 94.455C117.273 94.4545 117.361 94.5419 117.362 94.6503C117.362 94.7478 117.291 94.8291 117.198 94.8447L117.166 94.8474L90.7611 94.9699C90.6527 94.9704 90.5645 94.883 90.564 94.7746C90.5635 94.677 90.6343 94.5958 90.7275 94.5802L90.7593 94.5774L117.165 94.455Z" fill="#242F57"/>
<path d="M90.7619 90.3915L117.022 90.6213C117.13 90.6222 117.217 90.7108 117.216 90.8192C117.215 90.9167 117.144 90.997 117.05 91.0114L117.018 91.0137L90.7585 90.784C90.6501 90.783 90.563 90.6944 90.564 90.586C90.5648 90.4885 90.6367 90.4082 90.7301 90.3938L90.7619 90.3915Z" fill="#242F57"/>
<path fill-rule="evenodd" clip-rule="evenodd" d="M148.661 44.3932L153.361 32.5649C153.361 32.5649 160.023 23.2604 162 24.0773C163.808 25.1014 159.237 27.4907 158.101 30.1966C159.917 30.2531 158.822 32.8496 158.822 32.8496C158.822 32.8496 160.262 32.9448 159.652 35.0898C160.903 36.0155 159.577 38.4126 159.577 38.4126C159.577 38.4126 156.222 44.7422 152.803 48.8422C152.803 48.8422 147.492 52.1357 148.661 44.3932Z" fill="#C99382"/>
<path fill-rule="evenodd" clip-rule="evenodd" d="M149.851 40.3558C149.851 40.3558 150.795 36.2302 151.398 34.1418C152.001 32.0528 151.497 28.1162 152.945 29.2941C153.918 30.0864 153.501 32.3543 153.291 34.0366C153.08 35.7195 155.392 39.9963 153.078 42.5541C151.515 44.2825 149.327 44.306 149.851 40.3558Z" fill="#C99382"/>
<path d="M158.249 30.0688C158.32 30.1512 158.31 30.275 158.228 30.3455L158.11 30.4489L157.96 30.5845C157.908 30.6326 157.853 30.6835 157.796 30.737C157.471 31.0429 157.146 31.3706 156.843 31.7067C156.524 32.0599 156.249 32.4017 156.03 32.7236C155.388 33.6679 155.306 34.3031 155.855 34.6012C155.95 34.6529 155.985 34.772 155.934 34.8673C155.882 34.9625 155.763 34.9978 155.668 34.946C154.837 34.4946 154.95 33.6142 155.705 32.503C155.935 32.1647 156.221 31.8094 156.551 31.4438C156.862 31.0991 157.195 30.7639 157.527 30.4511L157.695 30.2951L157.973 30.0474C158.055 29.9769 158.179 29.9865 158.249 30.0688Z" fill="#9B6160"/>
<path d="M158.811 32.8103C158.868 32.9026 158.839 33.0235 158.746 33.0803L158.628 33.1557L158.476 33.255C158.422 33.2903 158.367 33.3277 158.309 33.3671C157.98 33.5921 157.65 33.8349 157.343 34.0858C156.96 34.3994 156.64 34.7032 156.406 34.9863C155.94 35.5494 155.866 35.9429 156.196 36.1952C156.392 36.3449 156.639 36.3695 156.941 36.2805C157.214 36.2 157.515 36.0309 157.823 35.7993C157.944 35.7088 158.059 35.6133 158.168 35.5166L158.274 35.4196C158.357 35.3422 158.416 35.2826 158.447 35.2498C158.521 35.1708 158.645 35.1668 158.725 35.2409C158.804 35.3151 158.808 35.4393 158.733 35.5183L158.658 35.5954C158.637 35.6166 158.612 35.6402 158.585 35.6659L158.543 35.7062C158.394 35.8448 158.232 35.9834 158.059 36.1131C157.716 36.3704 157.377 36.5611 157.052 36.657C156.639 36.7786 156.264 36.7412 155.958 36.507C155.396 36.0779 155.515 35.4476 156.104 34.7361C156.356 34.4307 156.693 34.1104 157.095 33.782C157.411 33.5232 157.75 33.274 158.088 33.043L158.259 32.928L158.541 32.746C158.633 32.6892 158.754 32.718 158.811 32.8103Z" fill="#9B6160"/>
<path d="M159.145 35.0037C159.253 34.9978 159.345 35.0807 159.351 35.189C159.357 35.2972 159.274 35.3897 159.166 35.3955C158.867 35.4118 158.467 35.6369 157.969 36.1142C156.921 37.1183 156.651 37.8134 156.926 38.0143C157.204 38.2183 157.925 37.9755 158.431 37.3904C158.59 37.206 158.876 37.4199 158.744 37.6249C158.296 38.3226 157.812 38.8676 157.279 39.2992C156.64 39.8165 156.239 40.0194 155.055 40.497L154.925 40.5492C153.405 41.1589 152.804 41.6836 152.34 43.1797C152.308 43.2832 152.198 43.3411 152.095 43.309C151.991 43.2769 151.933 43.167 151.965 43.0635C152.458 41.4746 153.128 40.8632 154.667 40.2303L155.14 40.0389C156.11 39.6419 156.475 39.4448 157.032 38.9942C157.224 38.8385 157.41 38.6666 157.59 38.4764L157.675 38.3841L157.621 38.4026C157.287 38.5074 156.971 38.5021 156.742 38.3629L156.694 38.331C156.131 37.919 156.493 36.9845 157.697 35.8307C158.257 35.2946 158.734 35.026 159.145 35.0037Z" fill="#9B6160"/>
<path d="M153.557 31.7376C153.655 31.7396 153.734 31.8124 153.748 31.9059L153.75 31.9378L153.687 35.1306L153.722 35.2103L153.782 35.3512C153.867 35.5579 153.952 35.7888 154.031 36.0384C154.282 36.829 154.421 37.6255 154.39 38.3747C154.361 39.0968 154.172 39.7346 153.795 40.2605C153.732 40.3486 153.61 40.3689 153.521 40.3059C153.433 40.2428 153.413 40.1202 153.476 40.0321C153.804 39.5737 153.971 39.0091 153.998 38.3585C154.027 37.6614 153.895 36.9078 153.657 36.1572C153.596 35.9661 153.532 35.7866 153.468 35.6215L153.419 35.5005C153.371 35.383 153.333 35.3003 153.313 35.2578C153.304 35.2393 153.298 35.2195 153.295 35.1993L153.293 35.1686L153.357 31.93C153.359 31.8217 153.449 31.7356 153.557 31.7376Z" fill="#9B6160"/>
<path fill-rule="evenodd" clip-rule="evenodd" d="M83.2063 83.2553C83.2063 83.2553 79.6773 89.6749 73.8516 86.3426C67.9113 82.9449 71.7354 76.5891 71.7354 76.5891C71.7354 76.5891 74.1284 72.0737 77.2006 66.7022C79.6009 62.5055 81.4266 59.2753 83.2183 56.7358C85.1518 53.9948 88.7327 52.9305 91.4611 54.4909C95.6081 56.8624 95.8818 60.3569 94.3585 63.3255C92.8771 66.2124 90.7588 70.046 89.0555 73.192C85.7798 79.2401 83.2063 83.2553 83.2063 83.2553Z" fill="#92929D"/>
<path fill-rule="evenodd" clip-rule="evenodd" d="M137.818 63.6608C137.818 63.6608 144.232 67.1998 140.891 73.0202C137.484 78.9558 131.134 75.1212 131.134 75.1212C131.134 75.1212 126.622 72.7209 121.256 69.6403C117.062 67.2338 113.835 65.4028 111.299 63.6069C108.561 61.6692 107.502 58.0868 109.067 55.3605C111.445 51.2177 114.939 50.9492 117.906 52.4772C120.79 53.9628 124.621 56.0873 127.764 57.7959C133.807 61.0805 137.818 63.6608 137.818 63.6608Z" fill="#92929D"/>
<path fill-rule="evenodd" clip-rule="evenodd" d="M132.109 65.7615C132.109 65.7615 128.456 72.3319 133.847 75.5647C139.406 78.8986 143.203 72.7578 143.203 72.7578C143.203 72.7578 145.769 68.3706 148.954 62.9777C150.898 59.6852 152.973 56.006 154.096 53.1196C155.312 49.994 153.901 48.7653 151.205 47.1489C148.005 45.229 146.486 44.7617 144.383 47.3525C142.379 49.8229 140.132 53.4733 138.262 56.2226C134.698 61.4659 132.109 65.7615 132.109 65.7615Z" fill="#92929D"/>
<path fill-rule="evenodd" clip-rule="evenodd" d="M155.513 46.8681L149.28 43.1297L146.305 47.0732L153.436 51.349L155.513 46.8681Z" fill="#92929D"/>
<path fill-rule="evenodd" clip-rule="evenodd" d="M94.8234 38.0084C94.8234 38.0084 91.0448 36.0623 92.1997 32.0205C90.4733 28.6123 92.3823 26.4381 92.3823 26.4381C92.3823 26.4381 92.3462 21.9117 95.3373 21.5852C97.1133 16.8997 102.433 18.5925 102.433 18.5925C102.433 18.5925 105.742 15.7558 110.661 19.4156C114.195 19.458 114.167 17.7045 115.33 18.8971C116.495 20.0886 117.07 22.931 115.584 24.0912C118.221 25.1539 115.942 29.3601 115.942 29.3601C115.942 29.3601 116.853 31.7416 113.886 33.6207C110.917 35.4998 109.908 41.2376 104.945 43.1538C100.171 44.9974 95.0285 43.5782 94.8234 38.0084Z" fill="#7D4556"/>
<path fill-rule="evenodd" clip-rule="evenodd" d="M97.456 46.4488L97.8291 38.6325L108.197 39.6858L108.45 46.5037C108.563 49.5482 106.145 52.0861 103.099 52.1196C103.04 52.1201 102.982 52.1206 102.924 52.1211C99.8092 52.1567 97.3074 49.5607 97.456 46.4488Z" fill="#C99382"/>
<path fill-rule="evenodd" clip-rule="evenodd" d="M99.7124 26.6615C99.7124 26.6615 100.472 29.3862 98.3802 30.1758C98.949 33.7127 97.3901 33.4903 97.3901 33.4903C97.3901 33.4903 94.7428 30.4767 93.2054 33.327C91.7449 36.035 94.7522 39.731 97.3017 38.9884C101.997 45.6299 110.62 45.4845 113.211 40.8089C114.785 37.9675 113.927 34.0146 114.039 32.1287C114.316 27.493 113.387 26.1466 113.387 26.1466C113.387 26.1466 111.647 26.6217 109.641 25.2868C107.66 26.9362 104.614 25.5887 104.614 25.5887C104.614 25.5887 102.771 28.2371 99.7124 26.6615Z" fill="#C99382"/>
<path d="M94.2554 34.1466C94.4614 33.8159 94.8527 33.6522 95.4343 33.7322C96.5214 33.8812 97.4066 35.4668 96.7829 35.8715C96.4748 36.0714 96.2488 36.3372 96.1959 36.5805C96.1362 36.8548 96.2908 37.118 96.748 37.3671C96.8431 37.419 96.8782 37.5381 96.8264 37.6333C96.7745 37.7285 96.6553 37.7636 96.5602 37.7117C95.962 37.3857 95.7117 36.9598 95.8124 36.497C95.8909 36.1361 96.1824 35.7934 96.5693 35.5422C96.573 35.5398 96.5873 35.4849 96.5756 35.3806C96.5595 35.2378 96.4984 35.0602 96.4019 34.8873C96.1712 34.4741 95.8033 34.1789 95.3809 34.1211C94.9466 34.0613 94.709 34.1607 94.5886 34.3541C94.539 34.4336 94.5169 34.5148 94.5112 34.5696L94.5096 34.5947C94.5083 34.703 94.4194 34.7898 94.311 34.7885C94.2027 34.7872 94.1159 34.6982 94.1172 34.5899C94.1187 34.4717 94.1535 34.3103 94.2554 34.1466Z" fill="#9B6160"/>
<path d="M95.5933 35.154C95.7894 35.1219 95.9936 35.1184 96.1818 35.1313L96.2635 35.1385C96.3711 35.1511 96.4481 35.2486 96.4355 35.3563C96.4228 35.4639 96.3253 35.5409 96.2177 35.5283L96.1549 35.5229C95.9943 35.5118 95.8183 35.5148 95.6567 35.5413C95.3599 35.5899 95.2114 35.6936 95.206 35.8746L95.207 35.9146C95.2155 36.0226 95.1348 36.1171 95.0267 36.1255C94.9187 36.134 94.8242 36.0533 94.8158 35.9452C94.7796 35.4844 95.0995 35.2349 95.5933 35.154Z" fill="#9B6160"/>
<path fill-rule="evenodd" clip-rule="evenodd" d="M106.976 32.6026C106.953 34.4932 105.402 36.0076 103.511 35.9851C101.621 35.9621 100.107 34.4116 100.129 32.5205C100.152 30.6298 101.703 29.1155 103.594 29.138C105.484 29.161 106.998 30.712 106.976 32.6026Z" fill="white"/>
<path d="M103.597 28.8966C101.573 28.8725 99.9125 30.4936 99.8884 32.5175C99.8644 34.5417 101.485 36.2015 103.509 36.2262C105.533 36.2503 107.193 34.6292 107.218 32.6053C107.242 30.5817 105.621 28.9213 103.597 28.8966ZM103.591 29.379C105.348 29.4004 106.756 30.8423 106.735 32.5996C106.714 34.3571 105.272 35.7647 103.515 35.7438C101.757 35.7224 100.35 34.281 100.371 32.5232C100.391 30.7966 101.783 29.4076 103.499 29.3793L103.591 29.379Z" fill="#7D4556"/>
<path fill-rule="evenodd" clip-rule="evenodd" d="M115.283 32.3813C115.26 34.2719 113.709 35.7863 111.818 35.7638C109.928 35.7408 108.414 34.1898 108.436 32.2992C108.459 30.4085 110.01 28.8942 111.901 28.9167C113.791 28.9392 115.305 30.4907 115.283 32.3813Z" fill="white"/>
<path d="M111.904 28.6758C109.88 28.6517 108.22 30.2728 108.196 32.2967C108.171 34.3205 109.792 35.9808 111.816 36.0054C113.84 36.0295 115.501 34.4085 115.525 32.3846C115.548 30.3939 113.98 28.7545 112.003 28.6783L111.904 28.6758ZM111.899 29.1583C113.655 29.1792 115.063 30.6214 115.042 32.3788C115.021 34.1363 113.58 35.5439 111.822 35.523C110.064 35.5016 108.657 34.0599 108.678 32.3024C108.699 30.5758 110.091 29.1868 111.806 29.1585L111.899 29.1583Z" fill="#7D4556"/>
<path d="M107.775 31.9823C107.865 31.922 107.986 31.9461 108.047 32.0362L108.11 32.1326C108.159 32.2092 108.214 32.2963 108.274 32.3924C108.443 32.6667 108.612 32.9582 108.771 33.2547C108.905 33.507 109.026 33.7518 109.129 33.9855C109.518 34.8687 109.637 35.521 109.355 35.8989C109.094 36.2487 108.731 36.4593 108.297 36.5518C107.916 36.633 107.515 36.6187 107.133 36.5466C107.013 36.5241 106.923 36.5012 106.871 36.4852C106.767 36.4533 106.709 36.3436 106.741 36.24C106.773 36.1364 106.883 36.0782 106.986 36.11L107.037 36.1242C107.079 36.1349 107.136 36.1478 107.205 36.1609C107.541 36.2242 107.892 36.2367 108.215 36.168C108.561 36.0942 108.841 35.9322 109.04 35.6643C109.202 35.4481 109.101 34.8956 108.77 34.1438C108.671 33.9197 108.555 33.6836 108.424 33.4395C108.27 33.1508 108.105 32.8663 107.94 32.5985L107.856 32.4648L107.744 32.2893L107.721 32.2545C107.66 32.1645 107.684 32.0426 107.775 31.9823Z" fill="#9B6160"/>
<path fill-rule="evenodd" clip-rule="evenodd" d="M104.561 37.5368C104.561 37.5368 107.724 37.9366 109.991 37.6022C109.991 37.6022 109.331 39.8571 107.071 39.5583C105.065 39.293 104.561 37.5368 104.561 37.5368Z" fill="white"/>
<path d="M104.586 37.3322C104.439 37.3136 104.321 37.4513 104.362 37.5936C104.384 37.6686 104.43 37.792 104.505 37.9478C104.63 38.2045 104.795 38.4609 105.006 38.7005C105.504 39.2651 106.177 39.6479 107.044 39.7625C108.162 39.9105 109.016 39.4953 109.621 38.7207C109.801 38.49 109.945 38.2438 110.057 37.9975C110.125 37.8485 110.168 37.731 110.188 37.6601C110.231 37.5158 110.109 37.3762 109.96 37.3982C109.496 37.4666 108.971 37.5071 108.396 37.5223C107.497 37.5462 106.531 37.5084 105.579 37.4306L105.272 37.4041C105.173 37.395 105.079 37.3858 104.988 37.3766L104.609 37.335C104.601 37.334 104.593 37.333 104.586 37.3322ZM104.934 37.8802L104.882 37.7801L105.234 37.8147C105.334 37.8238 105.438 37.8328 105.545 37.8416C106.511 37.9205 107.491 37.9589 108.407 37.9345L108.626 37.9274C108.987 37.9135 109.329 37.8893 109.648 37.8539L109.67 37.8509L109.682 37.8265C109.582 38.045 109.454 38.2637 109.296 38.4669C108.775 39.1333 108.06 39.4811 107.098 39.3538C106.334 39.2527 105.749 38.9205 105.315 38.4278C105.161 38.2529 105.035 38.0673 104.934 37.8802Z" fill="#7D4556"/>
<path d="M109.136 28.0678C109.186 27.9653 109.309 27.9225 109.411 27.9722C110.425 28.4637 111.69 28.6003 112.986 28.2607C113.096 28.2319 113.209 28.2978 113.238 28.4079C113.267 28.5181 113.201 28.6308 113.091 28.6596C111.698 29.0245 110.333 28.877 109.232 28.3433C109.129 28.2936 109.086 28.1703 109.136 28.0678Z" fill="#7D4556"/>
<path d="M106.875 31.2784C107.24 31.2297 107.612 31.2088 107.964 31.2318C108.196 31.2471 108.409 31.2812 108.6 31.3374L108.694 31.3673L108.536 31.8232C108.367 31.7646 108.163 31.7284 107.932 31.7133C107.617 31.6926 107.274 31.7118 106.939 31.7566L106.774 31.7808C106.743 31.7859 106.714 31.7908 106.69 31.7953L106.628 31.8073L106.529 31.3351L106.626 31.3169L106.786 31.2909C106.815 31.2867 106.845 31.2825 106.875 31.2784Z" fill="#7D4556"/>
<path d="M111.868 31.5195C112.445 31.5265 112.828 31.8295 113.028 32.3075C113.129 32.5484 113.169 32.7864 113.176 32.9737L113.177 33.0414C113.175 33.1768 113.066 33.2835 112.933 33.2819C112.81 33.2804 112.711 33.1885 112.696 33.0705L112.694 33.0145C112.693 32.9783 112.689 32.9264 112.68 32.8636C112.663 32.736 112.631 32.6094 112.583 32.4938C112.452 32.1817 112.231 32.0064 111.862 32.0019C111.48 31.9973 111.232 32.1634 111.071 32.4579C111.012 32.5648 110.97 32.6813 110.941 32.7982C110.931 32.8397 110.924 32.875 110.92 32.902L110.914 32.9443C110.902 33.077 110.785 33.175 110.652 33.1632C110.52 33.1514 110.422 33.0342 110.434 32.9015C110.449 32.7259 110.509 32.4779 110.648 32.2257C110.89 31.784 111.295 31.5126 111.868 31.5195Z" fill="#7D4556"/>
<path d="M103.632 31.4202C104.209 31.4271 104.592 31.7302 104.792 32.2081C104.893 32.4491 104.933 32.687 104.94 32.8743L104.941 32.9421C104.939 33.0774 104.83 33.1841 104.697 33.1826C104.575 33.1811 104.475 33.0891 104.46 32.9712L104.458 32.9151C104.457 32.879 104.453 32.827 104.445 32.7642C104.427 32.6367 104.395 32.5101 104.347 32.3945C104.216 32.0823 103.995 31.907 103.626 31.9026C103.244 31.898 102.997 32.0641 102.835 32.3586C102.776 32.4654 102.734 32.582 102.705 32.6988C102.695 32.7404 102.688 32.7756 102.684 32.8027L102.678 32.845C102.666 32.9777 102.549 33.0757 102.417 33.0639C102.284 33.0521 102.186 32.9349 102.198 32.8022C102.213 32.6266 102.274 32.3786 102.412 32.1263C102.655 31.6847 103.059 31.4133 103.632 31.4202Z" fill="#7D4556"/>
<path d="M96.7485 32.2383L100.132 32.2791L100.126 32.7616L96.7427 32.7207L96.7485 32.2383Z" fill="#7D4556"/>
<path d="M105.438 27.8173C105.54 27.767 105.663 27.8091 105.714 27.9112C105.764 28.0134 105.722 28.137 105.62 28.1873C105.199 28.3943 104.701 28.5499 104.139 28.6608C103.307 28.8253 102.442 28.8782 101.69 28.8661L101.504 28.8617C101.441 28.8598 101.397 28.8578 101.373 28.8565C101.26 28.8501 101.173 28.7528 101.179 28.6391C101.185 28.5254 101.283 28.4384 101.396 28.4448L101.517 28.4496C102.282 28.4732 103.193 28.4274 104.06 28.2563C104.588 28.1519 105.053 28.0067 105.438 27.8173Z" fill="#7D4556"/>
<path d="M107.06 41.693C107.157 41.6902 107.24 41.7591 107.258 41.8518L107.261 41.8916L107.262 41.9125C107.263 42.0186 107.262 42.1536 107.255 42.307C107.245 42.5338 107.224 42.7575 107.191 42.9681C107.105 43.5143 106.949 43.9047 106.672 44.0846C106.581 44.1436 106.46 44.1178 106.401 44.027C106.348 43.9462 106.363 43.8412 106.431 43.7774L106.458 43.7555C106.611 43.6563 106.734 43.3491 106.804 42.907C106.834 42.7122 106.853 42.5025 106.863 42.2894L106.869 42.1246C106.87 42.0729 106.87 42.0249 106.87 41.981L106.869 41.8947C106.866 41.7864 106.951 41.6961 107.06 41.693Z" fill="#9B6160"/>
<path d="M107.792 42.313C107.9 42.3059 107.994 42.3879 108.001 42.496L108.007 42.62C108.017 42.8854 108.015 43.1718 107.994 43.4429C107.977 43.6484 107.95 43.8303 107.91 43.9835C107.882 44.0884 107.775 44.151 107.67 44.1235C107.566 44.0959 107.503 43.9886 107.53 43.8838C107.564 43.756 107.588 43.5959 107.603 43.4117C107.623 43.1584 107.624 42.8864 107.615 42.6351L107.609 42.5215C107.602 42.4134 107.684 42.32 107.792 42.313Z" fill="#9B6160"/>
<path d="M106.216 42.5696C106.322 42.5936 106.388 42.6987 106.364 42.8044L106.349 42.8655C106.34 42.9022 106.328 42.9476 106.313 42.9998C106.271 43.1446 106.223 43.2896 106.169 43.4261C106.041 43.7444 105.898 43.9709 105.715 44.078C105.621 44.1326 105.501 44.101 105.446 44.0074C105.398 43.9242 105.417 43.82 105.488 43.7595L105.517 43.739C105.601 43.6896 105.707 43.5214 105.804 43.2799C105.854 43.1574 105.898 43.0249 105.935 42.8922L105.968 42.7707C105.974 42.749 105.978 42.731 105.981 42.7176C106.003 42.6224 106.09 42.5593 106.184 42.5651L106.216 42.5696Z" fill="#9B6160"/>
<path d="M108.375 42.1212C108.471 42.1 108.565 42.1519 108.6 42.2396L108.609 42.2701L108.867 43.4271C108.89 43.5329 108.824 43.6377 108.718 43.6613C108.623 43.6824 108.528 43.6305 108.493 43.5428L108.484 43.5123L108.226 42.3553C108.203 42.2496 108.27 42.1447 108.375 42.1212Z" fill="#9B6160"/>
<path d="M101.384 42.6103C101.437 42.5155 101.556 42.4812 101.651 42.5338C101.801 42.6165 101.952 42.695 102.105 42.7693C104.129 43.7518 106.273 43.9518 108.17 43.7055C108.281 43.691 108.383 43.6758 108.474 43.6605L108.562 43.6451C108.629 43.633 108.674 43.6237 108.696 43.6187C108.801 43.5946 108.906 43.6607 108.931 43.7664C108.955 43.8721 108.889 43.9772 108.783 44.0014L108.709 44.0168L108.632 44.0312C108.513 44.0529 108.376 44.0745 108.221 44.0947C106.254 44.35 104.037 44.1432 101.934 43.1224C101.774 43.045 101.617 42.9632 101.461 42.877C101.366 42.8245 101.332 42.7051 101.384 42.6103Z" fill="#9B6160"/>
<path d="M105.213 36.1153C105.251 36.2167 105.2 36.3299 105.099 36.3682L105.007 36.4051C104.956 36.4262 104.894 36.4535 104.822 36.4866C104.611 36.5833 104.401 36.6937 104.206 36.8155C103.605 37.1907 103.297 37.5777 103.387 37.9233C103.415 38.0282 103.352 38.1353 103.247 38.1626C103.142 38.1899 103.035 38.1269 103.007 38.0221C102.859 37.4507 103.264 36.9409 103.998 36.4826C104.209 36.3512 104.433 36.2332 104.658 36.13L104.807 36.0637L104.96 36.001C105.062 35.9628 105.175 36.0139 105.213 36.1153Z" fill="#9B6160"/>
<path fill-rule="evenodd" clip-rule="evenodd" d="M95.7635 48.7614L96.425 46.8541L109.289 47.2047L109.806 49.0116C109.806 49.0116 118.756 52.2203 120.298 56.079C121.889 60.0602 117.847 78.4949 117.756 83.3483C119.944 89.1447 116.763 90.9124 116.763 90.9124L90.6741 90.5995C90.6741 90.5995 87.6872 88.6209 90.244 84.6372C89.1963 77.5116 82.5329 57.3789 85.5653 54.8969C90.1785 51.1209 95.7635 48.7614 95.7635 48.7614Z" fill="#92929D"/>
<path d="M85.5007 55.8914C85.5695 55.8077 85.6932 55.7956 85.7769 55.8644L85.8215 55.9031C85.857 55.9352 85.9038 55.9797 85.9607 56.0373C86.1 56.1783 86.2545 56.3528 86.4201 56.5625C86.89 57.1574 87.3584 57.9171 87.7946 58.8571C89.3459 62.2003 90.1053 66.8927 89.647 73.1501C89.6391 73.2582 89.5451 73.3394 89.437 73.3315C89.3289 73.3235 89.2477 73.2295 89.2556 73.1214C89.7092 66.9281 88.9606 62.3022 87.4386 59.0223C87.0154 58.1103 86.563 57.3767 86.1121 56.8058C85.9555 56.6075 85.8107 56.4439 85.6815 56.3131L85.5858 56.2195C85.56 56.1953 85.5405 56.1781 85.5277 56.1676C85.444 56.0988 85.4319 55.9752 85.5007 55.8914Z" fill="#0062FF"/>
<path d="M120.32 57.2053C120.428 57.1963 120.523 57.2766 120.532 57.3846C120.683 59.2016 120.568 61.8424 120.241 65.1L120.215 65.3584C120.066 66.8018 119.881 68.3257 119.667 69.8966C119.486 71.2235 119.294 72.5197 119.1 73.7444L118.933 74.7851L118.737 75.9461C118.718 76.0528 118.617 76.1241 118.51 76.1053C118.403 76.0864 118.332 75.9847 118.351 75.8779L118.43 75.4145C118.485 75.0934 118.544 74.7331 118.608 74.3383L118.64 74.1381C118.858 72.784 119.075 71.3331 119.278 69.8436C119.468 68.4508 119.635 67.0953 119.774 65.8008L119.824 65.3183C120.169 61.9643 120.294 59.2517 120.141 57.4171C120.132 57.3091 120.212 57.2143 120.32 57.2053Z" fill="#0062FF"/>
<path d="M96.5531 49.1545C96.5822 49.0501 96.6904 48.989 96.7948 49.0181C97.9357 49.3359 99.2577 49.5458 100.725 49.6592C102.925 49.8293 105.282 49.776 107.552 49.584L107.931 49.5504C108.178 49.5276 108.41 49.5042 108.626 49.4807L108.964 49.4422L109.235 49.4083C109.343 49.3937 109.442 49.4688 109.456 49.5762C109.471 49.6836 109.396 49.7825 109.288 49.7972L108.923 49.8422L108.829 49.853C108.461 49.8946 108.044 49.9362 107.585 49.9751C105.296 50.1688 102.919 50.2224 100.695 50.0505C99.2038 49.9352 97.8574 49.7215 96.6895 49.3961C96.5851 49.3671 96.5241 49.2589 96.5531 49.1545Z" fill="#0062FF"/>
<path fill-rule="evenodd" clip-rule="evenodd" d="M109.214 90.1686L116.786 66.4837C116.91 66.0934 117.27 65.8265 117.681 65.8213L138.912 65.5334C139.571 65.5246 140.041 66.1724 139.827 66.7956L131.922 89.8515C131.796 90.2225 131.454 90.4773 131.063 90.4946L110.164 91.4114C109.501 91.4401 109.012 90.8002 109.214 90.1686Z" fill="#0062FF"/>
<path fill-rule="evenodd" clip-rule="evenodd" d="M110.333 89.8795L117.773 66.6075C117.924 66.135 118.36 65.8116 118.857 65.8053L140.35 65.5138C140.811 65.5081 141.139 65.9607 140.99 66.3971L132.976 89.7711C132.836 90.1819 132.458 90.4645 132.024 90.4833L111.483 91.3844C110.681 91.4195 110.089 90.6445 110.333 89.8795Z" fill="#242F57"/>
<path fill-rule="evenodd" clip-rule="evenodd" d="M120.683 68.0475C120.924 68.3149 120.837 68.7843 120.49 69.0967C120.143 69.4086 119.667 69.4447 119.427 69.1778C119.186 68.9104 119.273 68.4405 119.619 68.1286C119.967 67.8168 120.443 67.7801 120.683 68.0475Z" fill="#92929D"/>
<path fill-rule="evenodd" clip-rule="evenodd" d="M120.398 68.3273C120.523 68.466 120.478 68.7099 120.298 68.8721C120.118 69.0343 119.871 69.0526 119.746 68.9139C119.621 68.7753 119.666 68.5314 119.846 68.3697C120.026 68.2075 120.273 68.1887 120.398 68.3273Z" fill="#F1F1F5"/>
<path fill-rule="evenodd" clip-rule="evenodd" d="M111.368 90.1092C111.368 90.1092 105.001 90.2741 103.645 87.6058C102.417 85.1893 105.288 83.2045 105.288 83.2045C105.288 83.2045 107.709 81.9089 110.696 81.2228C112.653 80.7733 116.245 79.3641 116.744 80.3039C117.395 81.5295 113.487 82.3704 113.308 83.3641C112.947 85.3777 119.236 84.7016 120.314 85.1386C122.422 85.9941 119.008 89.9695 111.368 90.1092Z" fill="#C99382"/>
<path d="M120.189 86.0276C120.293 85.9985 120.402 86.0597 120.431 86.1641C120.46 86.2685 120.398 86.3767 120.294 86.4057C120.094 86.4613 119.89 86.5106 119.682 86.5538C118.173 86.8674 116.568 86.8524 115.054 86.6395C114.864 86.6128 114.689 86.5845 114.53 86.5559L114.312 86.5144C114.251 86.5022 114.206 86.4924 114.178 86.4857C114.072 86.4612 114.006 86.3557 114.031 86.2502C114.056 86.1446 114.161 86.0789 114.267 86.1035L114.391 86.1299L114.488 86.1489C114.669 86.1836 114.878 86.2184 115.109 86.2509C116.582 86.458 118.144 86.4726 119.602 86.1696C119.802 86.1281 119.998 86.0808 120.189 86.0276Z" fill="#9B6160"/>
<path d="M119.462 87.4391C119.565 87.4055 119.675 87.4618 119.709 87.5648C119.743 87.6678 119.686 87.7786 119.583 87.8122L119.501 87.8373C119.454 87.8507 119.394 87.867 119.322 87.8856C119.112 87.9391 118.867 87.9924 118.587 88.0421C117.136 88.3002 115.403 88.3628 113.451 88.1097C113.343 88.0957 113.268 87.9973 113.281 87.8898C113.295 87.7823 113.394 87.7065 113.501 87.7204C115.412 87.9682 117.105 87.9071 118.518 87.6557C118.743 87.6157 118.945 87.5735 119.121 87.5309L119.317 87.4811C119.385 87.4626 119.434 87.4482 119.462 87.4391Z" fill="#9B6160"/>
<path d="M116.839 88.9105C116.946 88.897 117.044 88.9732 117.058 89.0808C117.071 89.1883 116.995 89.2864 116.887 89.2999C115.198 89.5118 113.826 89.5251 112.786 89.4202C112.684 89.4099 112.593 89.399 112.512 89.388L112.326 89.3592C112.32 89.3581 112.315 89.3572 112.31 89.3563C112.204 89.3352 112.135 89.232 112.156 89.1257C112.177 89.0193 112.28 88.9502 112.387 88.9713L112.437 88.9801L112.493 88.9888C112.585 89.0027 112.696 89.0166 112.825 89.0297C113.836 89.1317 115.179 89.1187 116.839 88.9105Z" fill="#9B6160"/>
<path fill-rule="evenodd" clip-rule="evenodd" d="M78.5865 75.6969C78.5865 75.6969 71.103 74.9747 70.2951 81.2086C69.462 87.6376 76.6085 88.6633 76.6085 88.6633C76.6085 88.6633 81.6556 89.2603 87.8722 90.0238C91.6681 90.4901 95.869 90.9207 98.9642 90.7962C102.315 90.6617 102.877 88.8768 103.281 85.7596C103.761 82.0584 103.583 80.4797 100.368 79.588C97.3012 78.7382 93.0574 78.1375 89.7895 77.5236C83.5588 76.3531 78.5865 75.6969 78.5865 75.6969Z" fill="#92929D"/>
<path fill-rule="evenodd" clip-rule="evenodd" d="M105.26 89.5964L106.194 82.3882L101.391 81.238L100.322 89.4844L105.26 89.5964Z" fill="#92929D"/>
<path d="M78.612 75.5021L79.4881 75.6231L80.3801 75.7517C80.8485 75.8204 81.3498 75.8955 81.881 75.9771C84.0212 76.3056 86.2741 76.6802 88.5693 77.0982L90.6629 77.4837C91.8056 77.6867 94.345 78.1241 94.6648 78.1806L95.3754 78.3077C97.522 78.6966 99.0828 79.0282 100.419 79.3987C102.006 79.8385 102.904 80.4582 103.34 81.433L103.373 81.5105L106.24 82.197C106.327 82.2178 106.387 82.2937 106.39 82.3802L106.389 82.413L105.455 89.6213C105.443 89.7097 105.374 89.7778 105.289 89.7902L105.256 89.7922L102.213 89.7229L102.211 89.7258C101.553 90.4976 100.573 90.904 99.1189 90.985L98.9719 90.992C96.3365 91.098 92.926 90.8359 88.1312 90.2535L83.4397 89.681L76.5853 88.8579C76.4777 88.8452 76.4007 88.7476 76.4135 88.64C76.4262 88.5323 76.5238 88.4554 76.6314 88.4682L79.9323 88.8624L84.2136 89.3796L88.4572 89.8976C93.0857 90.4539 96.3991 90.7027 98.9562 90.5999C100.436 90.5408 101.369 90.1532 101.969 89.4023C102 89.3641 102.043 89.339 102.091 89.3312L102.127 89.3287L105.088 89.396L105.977 82.5372L103.183 81.8686C103.13 81.8559 103.086 81.8221 103.059 81.7759L103.045 81.7468C102.691 80.8045 101.885 80.2121 100.315 79.7768L100.027 79.6988C98.67 79.3369 97.0588 79.0055 94.8369 78.6097L90.2499 77.8083L89.7526 77.7163C87.2386 77.2439 84.7597 76.8225 82.407 76.4556L81.8215 76.365C81.0261 76.2429 80.2978 76.1352 79.6471 76.0422L78.5607 75.8912C78.4532 75.877 78.3776 75.7784 78.3918 75.6709C78.4046 75.5742 78.4857 75.5033 78.5801 75.5005L78.612 75.5021Z" fill="#0062FF"/>
</g>
<circle cx="74.5497" cy="48.9579" r="2.89879" fill="#0062FF"/>
<path fill-rule="evenodd" clip-rule="evenodd" d="M25.653 21.5952C18.102 21.6079 12.1252 27.4053 11.7441 34.7872H39.2896C41.2845 34.7888 43.2699 34.5054 45.183 33.9465C45.2878 33.2551 45.3402 32.5573 45.3402 31.8579V21.5952H25.653Z" fill="#1ABCFE"/>
<path fill-rule="evenodd" clip-rule="evenodd" d="M32.0264 7.92979C26.6323 7.94011 21.4628 10.0779 17.6563 13.8725C13.8498 17.6678 11.7168 22.8095 11.7271 28.1663V34.7862C12.1201 27.4043 18.2493 21.6069 25.6923 21.5934H45.097V31.8569C45.097 32.5555 45.0454 33.2541 44.9422 33.9455C53.5545 31.3655 59.444 23.4827 59.4345 14.5496V7.92979H32.0264Z" fill="#1ABCFE"/>
<path fill-rule="evenodd" clip-rule="evenodd" d="M39.121 34.7883H11.7328C11.7201 35.0296 11.7153 35.2725 11.7153 35.517V45.779H31.1199C38.0359 45.7679 43.9047 40.7397 44.9296 33.9476C43.045 34.5073 41.0882 34.7899 39.121 34.7883Z" fill="#3DD598"/>
<path fill-rule="evenodd" clip-rule="evenodd" d="M62.5586 28.4563L58.3555 41.6601H60.8966L65.0998 28.4563H62.5586Z" fill="#0062FF"/>
<path fill-rule="evenodd" clip-rule="evenodd" d="M56.5665 29.9574H53.8689H52.1684C52.0357 29.9574 51.9282 30.065 51.9282 30.1976V31.8981V38.2183V39.9188C51.9282 40.0515 52.0357 40.159 52.1684 40.159H53.8689H56.5665C56.6992 40.159 56.8067 40.0515 56.8067 39.9188V38.4585C56.8067 38.3258 56.6992 38.2183 56.5665 38.2183H53.8689V31.8981H56.5665C56.6992 31.8981 56.8067 31.7906 56.8067 31.658V30.1976C56.8067 30.065 56.6992 29.9574 56.5665 29.9574Z" fill="#CCD7EE"/>
<path fill-rule="evenodd" clip-rule="evenodd" d="M71.2897 29.9574H69.5891H66.8915C66.7589 29.9574 66.6514 30.065 66.6514 30.1976V31.658C66.6514 31.7906 66.7589 31.8981 66.8915 31.8981H69.5891V38.2183H66.8915C66.7589 38.2183 66.6514 38.3258 66.6514 38.4585V39.9188C66.6514 40.0515 66.7589 40.159 66.8915 40.159H69.5891H71.2897C71.4223 40.159 71.5298 40.0515 71.5298 39.9188V38.4585V31.658V30.1976C71.5298 30.065 71.4223 29.9574 71.2897 29.9574Z" fill="#CCD7EE"/>
<path d="M64.7952 46.0748H63.006C61.9432 46.0748 61.0815 46.9364 61.0815 47.9992L61.0815 49.7884C61.0815 50.8512 61.9432 51.7128 63.006 51.7128H64.7951C65.858 51.7128 66.7196 50.8512 66.7196 49.7884V47.9992C66.7196 46.9364 65.858 46.0748 64.7952 46.0748Z" fill="#0062FF"/>
<path d="M52.3467 61.771H15.0754C14.0125 61.771 13.1509 62.6326 13.1509 63.6954L13.1509 100.967C13.1509 102.03 14.0125 102.891 15.0753 102.891H52.3467C53.4096 102.891 54.2712 102.03 54.2712 100.967V63.6954C54.2712 62.6326 53.4096 61.771 52.3467 61.771Z" fill="#0062FF"/>
<path d="M31.2822 51.5621H16.4128C15.3499 51.5621 14.4883 52.4237 14.4883 53.4866L14.4883 68.356C14.4883 69.4189 15.3499 70.2805 16.4127 70.2805H31.2822C32.3451 70.2805 33.2067 69.4189 33.2067 68.356V53.4866C33.2067 52.4237 32.3451 51.5621 31.2822 51.5621Z" fill="#1ABCFE"/>
<g clip-path="url(#clip1)">
<path fill-rule="evenodd" clip-rule="evenodd" d="M74.5122 71.6472L63.8516 103.629C63.5728 104.465 62.6687 104.917 61.8324 104.639C61.5972 104.56 61.3836 104.428 61.2084 104.253L39.8871 82.9318C39.2637 82.3084 39.2637 81.2976 39.8871 80.6742C40.0624 80.499 40.276 80.367 40.5111 80.2886L72.493 69.628C73.3294 69.3492 74.2334 69.8012 74.5122 70.6376C74.6214 70.9652 74.6214 71.3195 74.5122 71.6472Z" fill="#FC5A5A"/>
</g>
<defs>
<clipPath id="clip0">
<rect x="65.043" width="99.3502" height="109.454" rx="49.6751" fill="white"/>
</clipPath>
<clipPath id="clip1">
<rect width="51.0823" height="51.0823" fill="white" transform="translate(63.0356 44.9841) rotate(45)"/>
</clipPath>
</defs>
</svg>
