<svg width="162" height="135" viewBox="0 0 162 135" fill="none" xmlns="http://www.w3.org/2000/svg">
<g clip-path="url(#clip0)">
<path d="M101.419 100.68L95.0498 105.403H126.847L120.443 100.68H101.419Z" fill="#F1F1F5"/>
<path d="M120.442 105.399L126.847 105.403L120.442 100.68V105.399Z" fill="#B5B5BE"/>
<path d="M100.49 92.2841L105.919 123.359C106.043 124.071 106.722 124.547 107.433 124.423L109.85 124C110.562 123.876 111.039 123.198 110.914 122.487L105.485 91.4114L100.49 92.2841Z" fill="#FF974A"/>
<path d="M101.223 87.0119L100.491 92.2868L105.486 91.4141L103.148 86.676L101.223 87.0119Z" fill="#FFC999"/>
<path d="M101.796 84.699C101.752 84.7063 101.717 84.7414 101.709 84.7852L101.284 87.0046L103.11 86.6854L101.909 84.7487C101.889 84.7166 101.854 84.6969 101.817 84.6969C101.809 84.6969 101.803 84.6976 101.796 84.699Z" fill="#242F57"/>
<path d="M101.998 92.0385L107.649 124.385L109.688 124.029L104.038 91.6814L101.998 92.0385Z" fill="#FF974A"/>
<path d="M108.948 121.937L108.862 124.412C108.835 125.177 109.434 125.819 110.199 125.845C110.965 125.872 111.607 125.273 111.634 124.509L111.719 122.033L108.949 121.937H108.948Z" fill="#242F57"/>
<path d="M111.485 84.8961L111.332 85.7717C111.299 85.9631 111.428 86.1464 111.619 86.1792C111.812 86.2128 111.994 86.0843 112.028 85.8922L112.18 85.0166C112.214 84.8245 112.085 84.642 111.893 84.6084C111.873 84.6055 111.852 84.6033 111.832 84.6033C111.664 84.6033 111.515 84.7238 111.485 84.8961Z" fill="#44444F"/>
<path d="M103.759 119.66C103.634 120.372 104.112 121.05 104.824 121.174L106.257 121.423C106.969 121.547 107.647 121.071 107.771 120.359L113.011 90.2708L108.999 89.5719L103.759 119.66Z" fill="#0062FF"/>
<path d="M111.13 85.7648L108.999 89.5725L113.013 90.2721L112.231 85.9532C112.214 85.8627 112.142 85.7911 112.051 85.7765L111.359 85.656C111.346 85.6538 111.334 85.6531 111.321 85.6531C111.243 85.6531 111.169 85.6947 111.13 85.7648Z" fill="#F1F1F5"/>
<path d="M94.4028 88.9747L93.0226 89.9343C92.8649 90.0439 92.8064 90.2498 92.8831 90.4258L93.72 92.3421C93.8084 92.5466 94.0465 92.6393 94.2509 92.5502L95.7619 91.8908C95.9664 91.801 96.0599 91.5636 95.9708 91.3591L95.0039 89.1434C94.9557 89.0332 94.86 88.9499 94.7432 88.917C94.7081 88.9076 94.6709 88.9024 94.6351 88.9024C94.5526 88.9024 94.4722 88.9265 94.4028 88.9747Z" fill="#FC5A5A"/>
<path d="M94.1689 97.7782L104.633 121.751L110.293 119.28L99.8294 95.3077L94.1689 97.7782Z" fill="#FC5A5A"/>
<path d="M94.1689 97.7782L95.0855 99.8763L100.746 97.4065L99.8294 95.3077L94.1689 97.7782Z" fill="#242F57"/>
<path d="M93.4658 91.9995L93.606 96.4864L94.1691 97.7783L99.8295 95.3077L99.2701 94.0261L95.8962 90.9384L93.4658 91.9995Z" fill="#F1F1F5"/>
<path d="M93.6045 96.5092L94.1683 97.8003L99.828 95.329L99.2642 94.0386L93.6045 96.5092Z" fill="#F1F1F5"/>
<path d="M101.11 102.17L98.1066 102.378C98.0321 102.383 97.9642 102.424 97.9254 102.489C97.886 102.552 97.8809 102.632 97.9108 102.701L97.9306 102.746C97.97 102.835 98.0613 102.891 98.1591 102.884L99.1706 102.809C99.2684 102.802 99.3605 102.858 99.3999 102.948L99.657 103.537C99.9746 104.265 100.498 104.596 101.205 104.531C101.913 104.467 102.11 104.078 101.803 103.373L101.337 102.309C101.3 102.224 101.216 102.17 101.124 102.17C101.12 102.17 101.115 102.17 101.11 102.17ZM100.475 103.932C100.343 103.84 100.226 103.686 100.132 103.47L99.9527 103.06C99.9228 102.992 99.9279 102.913 99.9666 102.849C100.005 102.784 100.073 102.743 100.148 102.738L100.831 102.687C100.929 102.681 101.02 102.735 101.06 102.825L101.299 103.375C101.391 103.585 101.412 103.747 101.367 103.853C101.322 103.959 101.201 104.025 100.991 104.043C100.957 104.046 100.922 104.048 100.889 104.048C100.725 104.048 100.584 104.01 100.475 103.932Z" fill="white"/>
<path d="M102.278 104.858L99.3087 105.142C99.2356 105.15 99.1692 105.191 99.1319 105.255C99.094 105.318 99.0896 105.396 99.1181 105.464L99.9053 107.267C99.9462 107.359 100.043 107.415 100.143 107.403C100.216 107.395 100.281 107.352 100.317 107.289C100.354 107.226 100.358 107.149 100.328 107.082L99.8169 105.909C99.7885 105.841 99.7928 105.764 99.8301 105.7C99.8673 105.637 99.9331 105.595 100.006 105.588L100.568 105.537C100.668 105.528 100.761 105.583 100.801 105.674L101.347 106.923C101.388 107.015 101.485 107.072 101.586 107.061C101.658 107.052 101.722 107.009 101.76 106.945C101.795 106.883 101.8 106.805 101.77 106.738L101.344 105.761C101.315 105.693 101.32 105.616 101.357 105.553C101.394 105.49 101.46 105.448 101.533 105.44L102.006 105.393C102.106 105.383 102.2 105.437 102.24 105.529L102.819 106.854C102.86 106.948 102.956 107.002 103.057 106.991C103.13 106.982 103.195 106.94 103.231 106.875C103.268 106.81 103.271 106.733 103.24 106.666L102.51 104.995C102.473 104.91 102.39 104.857 102.3 104.857C102.293 104.857 102.285 104.857 102.278 104.858Z" fill="white"/>
<path d="M95.1338 111.169V126.385C95.1338 127.042 95.6662 127.574 96.3227 127.574H125.643C126.3 127.574 126.832 127.042 126.832 126.385V111.169H95.1338Z" fill="#0062FF"/>
<path d="M95.1338 107.699V116.564L126.832 114.036V107.699H95.1338Z" fill="#0062FF"/>
<g clip-path="url(#clip1)">
<path d="M113.284 107.348C115.204 108.456 117.693 107.743 118.84 105.756L120.919 102.157L117.44 100.149C115.52 99.0401 113.031 99.7531 111.884 101.74C110.737 103.727 111.364 106.239 113.284 107.348Z" fill="#3DD598"/>
<path d="M120.218 87.3057C121.369 85.312 123.861 84.5937 125.781 85.7022L129.259 87.7104L125.089 94.9337L121.611 92.9255C119.691 91.817 119.067 89.2993 120.218 87.3057Z" fill="#FC5A5A"/>
<path d="M129.26 87.7106L132.738 89.7188C134.658 90.8274 135.282 93.3451 134.131 95.3387C132.98 97.3323 130.488 98.0507 128.568 96.9421L125.089 94.9339L129.26 87.7106Z" fill="#FC5A5A"/>
<path d="M129.975 102.538C128.824 104.531 126.332 105.25 124.411 104.141C122.491 103.033 121.867 100.515 123.018 98.5212C124.169 96.5276 126.662 95.8092 128.582 96.9178C130.502 98.0263 131.126 100.544 129.975 102.538Z" fill="#1ABCFE"/>
<path d="M116.06 94.5046C117.211 92.5109 119.704 91.7926 121.624 92.9011L125.102 94.9094L120.932 102.133L117.453 100.124C115.533 99.0159 114.909 96.4982 116.06 94.5046Z" fill="#A259FF"/>
</g>
<path d="M95.0517 105.403L91.9589 112.207C91.8413 112.453 91.8574 112.742 92.002 112.973C92.1473 113.203 92.4007 113.343 92.6724 113.344H129.176C129.454 113.344 129.713 113.197 129.856 112.959C129.999 112.72 130.007 112.423 129.877 112.179L126.847 105.403H95.0517Z" fill="#F1F1F5"/>
</g>
<path fill-rule="evenodd" clip-rule="evenodd" d="M137.166 29.7955H82.5225V26.1059C82.5225 25.3055 83.1879 24.6566 84.0087 24.6566H135.68C136.501 24.6566 137.166 25.3055 137.166 26.1059V29.7955Z" fill="#242F57"/>
<path fill-rule="evenodd" clip-rule="evenodd" d="M86.3549 27.069C86.3549 27.5713 85.9398 27.9786 85.4279 27.9786C84.916 27.9786 84.501 27.5713 84.501 27.069C84.501 26.5667 84.916 26.1595 85.4279 26.1595C85.9398 26.1595 86.3549 26.5667 86.3549 27.069Z" fill="#FC5A5A"/>
<path fill-rule="evenodd" clip-rule="evenodd" d="M89.8148 27.069C89.8148 27.5713 89.3998 27.9786 88.8878 27.9786C88.3759 27.9786 87.9609 27.5713 87.9609 27.069C87.9609 26.5667 88.3759 26.1595 88.8878 26.1595C89.3998 26.1595 89.8148 26.5667 89.8148 27.069Z" fill="#FF974A"/>
<path fill-rule="evenodd" clip-rule="evenodd" d="M93.2767 27.069C93.2767 27.5713 92.8617 27.9786 92.3497 27.9786C91.8378 27.9786 91.4229 27.5713 91.4229 27.069C91.4229 26.5667 91.8378 26.1595 92.3497 26.1595C92.8617 26.1595 93.2767 26.5667 93.2767 27.069Z" fill="#3DD598"/>
<path fill-rule="evenodd" clip-rule="evenodd" d="M84.125 66.5505C83.2098 66.5505 82.4678 65.8833 82.4678 65.0604V29.5794H137.185V65.0604C137.185 65.8833 136.443 66.5505 135.528 66.5505H84.125Z" fill="#F1F1F5"/>
<path d="M133.318 32.2908H86.8276C86.4617 32.2908 86.165 32.5874 86.165 32.9533V62.684C86.165 63.0499 86.4617 63.3465 86.8276 63.3465H133.318C133.684 63.3465 133.981 63.0499 133.981 62.684V32.9533C133.981 32.5874 133.684 32.2908 133.318 32.2908Z" fill="white"/>
<path d="M127.326 38.9454H103.665C103.393 38.9454 103.172 39.1661 103.172 39.4384V41.9031C103.172 42.1753 103.393 42.396 103.665 42.396H127.326C127.599 42.396 127.819 42.1753 127.819 41.9031V39.4384C127.819 39.1661 127.599 38.9454 127.326 38.9454Z" fill="#FF974A"/>
<path d="M127.326 51.0228H118.453C118.181 51.0228 117.96 51.2435 117.96 51.5158V53.9805C117.96 54.2528 118.181 54.4735 118.453 54.4735H127.326C127.598 54.4735 127.819 54.2528 127.819 53.9805V51.5158C127.819 51.2435 127.598 51.0228 127.326 51.0228Z" fill="#FC5A5A"/>
<path d="M127.326 45.6005H118.453C118.181 45.6005 117.96 45.8212 117.96 46.0935V48.5582C117.96 48.8305 118.181 49.0512 118.453 49.0512H127.326C127.598 49.0512 127.819 48.8305 127.819 48.5582V46.0935C127.819 45.8212 127.598 45.6005 127.326 45.6005Z" fill="#0062FF"/>
<path fill-rule="evenodd" clip-rule="evenodd" d="M97.073 39.1917H99.6577L105.39 54.2266H102.951L101.554 50.352H95.1553L93.7588 54.2266H91.3408L97.073 39.1917ZM95.7774 48.5577H100.707L98.2932 41.9029H98.2114L95.7774 48.5577ZM110.979 45.107C112.14 45.107 112.995 45.4164 113.545 46.035C114.019 46.5723 114.263 47.3538 114.263 48.3795V53.7522H112.766V52.5637C112.461 52.987 112.079 53.3289 111.621 53.5731C111.101 53.8336 110.49 53.9801 109.788 53.9801C108.963 53.9801 108.322 53.7522 107.864 53.3126C107.36 52.873 107.115 52.3032 107.115 51.6031C107.115 50.6588 107.466 49.9262 108.169 49.4215C108.81 48.933 109.727 48.6888 110.888 48.6563L112.659 48.6074V48.2655C112.659 47.0933 112.064 46.5072 110.872 46.5072C110.368 46.5072 109.956 46.6049 109.65 46.8002C109.284 47.0282 109.055 47.3701 108.963 47.8422L107.36 47.6957C107.528 46.784 107.955 46.1002 108.627 45.6769C109.208 45.2861 110.002 45.107 110.979 45.107ZM113.031 50.0365L111.338 50.0838C109.832 50.1153 109.087 50.6513 109.087 51.6601C109.087 51.9753 109.211 52.2275 109.475 52.4325C109.724 52.6374 110.065 52.7477 110.484 52.7477C111.183 52.7477 111.773 52.527 112.27 52.1014C112.767 51.6758 113.031 51.1399 113.031 50.5094V50.0365Z" fill="#242F57"/>
<path d="M127.913 57.6774C127.981 57.6774 128.037 57.7326 128.037 57.8007C128.037 57.8656 127.986 57.9188 127.922 57.9235L127.913 57.9239H106.869C106.801 57.9239 106.746 57.8687 106.746 57.8007C106.746 57.7357 106.796 57.6825 106.86 57.6778L106.869 57.6774H127.913Z" fill="#242F57"/>
<path d="M93.4902 58.5459V57.6586H93.7781V57.5264H93.4902V57.4141C93.4902 57.3648 93.5001 57.3293 93.5198 57.3076C93.5395 57.2839 93.5731 57.2741 93.6164 57.2741H93.7919V57.138H93.5967C93.51 57.138 93.4429 57.1617 93.3976 57.211C93.3542 57.2583 93.3325 57.3234 93.3325 57.4101V57.5264H93.0762V57.6586H93.3325V58.5459H93.4902ZM94.3795 58.5735C94.5314 58.5735 94.6536 58.5202 94.7463 58.4138C94.8311 58.3152 94.8744 58.189 94.8744 58.0371C94.8744 57.8833 94.8311 57.7571 94.7443 57.6566C94.6536 57.5501 94.5314 57.4988 94.3795 57.4988C94.2257 57.4988 94.1054 57.5501 94.0147 57.6566C93.928 57.7571 93.8846 57.8833 93.8846 58.0371C93.8846 58.189 93.928 58.3152 94.0147 58.4138C94.1054 58.5202 94.2257 58.5735 94.3795 58.5735ZM94.3795 58.4414C94.2711 58.4414 94.1863 58.3999 94.1271 58.3171C94.0719 58.2422 94.0463 58.1495 94.0463 58.0371C94.0463 57.9228 94.0719 57.8301 94.1271 57.7552C94.1863 57.6724 94.2711 57.6309 94.3795 57.6309C94.486 57.6309 94.5708 57.6724 94.6339 57.7552C94.6871 57.8301 94.7147 57.9228 94.7147 58.0371C94.7147 58.1476 94.6871 58.2422 94.6339 58.3171C94.5708 58.3999 94.486 58.4414 94.3795 58.4414ZM95.2373 58.5459V57.9307C95.2432 57.838 95.2727 57.765 95.328 57.7098C95.3792 57.6586 95.4404 57.6329 95.5113 57.6329C95.6888 57.6329 95.7795 57.7315 95.7795 57.9307V58.5459H95.9372V57.9188C95.9372 57.6388 95.8091 57.4988 95.5567 57.4988C95.4896 57.4988 95.4285 57.5146 95.3733 57.5462C95.3181 57.5757 95.2727 57.6191 95.2373 57.6763V57.5264H95.0795V58.5459H95.2373ZM96.6806 58.5459V58.4138H96.5505C96.515 58.4138 96.4893 58.4039 96.4755 58.3881C96.4598 58.3723 96.4539 58.3447 96.4539 58.3073V57.6586H96.7062V57.5264H96.4539V57.1972L96.2981 57.2622V57.5264H96.093V57.6586H96.2981V58.3073C96.2981 58.3842 96.3139 58.4414 96.3474 58.4808C96.3829 58.5242 96.444 58.5459 96.5268 58.5459H96.6806ZM97.9623 58.5735C98.1161 58.5735 98.2304 58.5084 98.3014 58.3783V58.5459H98.4493V57.1104H98.2916V57.7138C98.2127 57.5698 98.1003 57.4988 97.9544 57.4988C97.8085 57.4988 97.6961 57.5521 97.6133 57.6625C97.5364 57.7611 97.4989 57.8833 97.4989 58.0332C97.4989 58.187 97.5364 58.3132 97.6133 58.4118C97.6961 58.5183 97.8124 58.5735 97.9623 58.5735ZM97.982 58.4433C97.8716 58.4433 97.7888 58.4019 97.7335 58.323C97.6842 58.2521 97.6606 58.1554 97.6606 58.0332C97.6606 57.9109 97.6842 57.8163 97.7355 57.7473C97.7907 57.6684 97.8755 57.629 97.9879 57.629C98.0786 57.629 98.1535 57.6645 98.2107 57.7394C98.2659 57.8124 98.2955 57.909 98.2955 58.0273V58.047C98.2955 58.1614 98.2699 58.254 98.2206 58.325C98.1634 58.4039 98.0845 58.4433 97.982 58.4433ZM99.1197 58.5735C99.2518 58.5735 99.3603 58.534 99.4451 58.4591C99.5141 58.396 99.5594 58.3171 99.5831 58.2185H99.4253C99.3997 58.2895 99.3662 58.3428 99.3228 58.3783C99.2715 58.4197 99.2025 58.4414 99.1197 58.4414C99.0231 58.4414 98.9462 58.4098 98.891 58.3467C98.8358 58.2836 98.8062 58.1949 98.7983 58.0805H99.6028C99.5989 57.9031 99.5594 57.7631 99.4845 57.6645C99.4017 57.5541 99.2775 57.4988 99.1138 57.4988C98.9659 57.4988 98.8496 57.5521 98.7628 57.6586C98.6761 57.7591 98.6347 57.8853 98.6347 58.0352C98.6347 58.2008 98.678 58.3309 98.7687 58.4295C98.8555 58.5242 98.9738 58.5735 99.1197 58.5735ZM99.4391 57.9583H98.8023C98.8121 57.8577 98.8437 57.7788 98.8989 57.7197C98.9541 57.6605 99.027 57.6309 99.1177 57.6309C99.311 57.6309 99.4194 57.7394 99.4391 57.9583ZM100.167 58.5735C100.455 58.5735 100.599 58.467 100.599 58.258C100.599 58.1692 100.557 58.1002 100.476 58.049C100.423 58.0154 100.336 57.9839 100.214 57.9543C100.112 57.9267 100.041 57.905 100.003 57.8873C99.9439 57.8577 99.9163 57.8202 99.9163 57.7769C99.9163 57.7315 99.938 57.696 99.9814 57.6704C100.021 57.6428 100.076 57.6309 100.147 57.6309C100.228 57.6309 100.291 57.6467 100.334 57.6783C100.374 57.7059 100.399 57.7532 100.413 57.8163H100.567C100.539 57.6033 100.401 57.4988 100.149 57.4988C100.035 57.4988 99.94 57.5245 99.869 57.5757C99.7921 57.627 99.7546 57.694 99.7546 57.7808C99.7546 57.8676 99.7921 57.9326 99.871 57.98C99.9183 58.0115 100.003 58.0411 100.123 58.0707C100.234 58.0983 100.307 58.12 100.34 58.1357C100.403 58.1673 100.437 58.2107 100.437 58.2678C100.437 58.3822 100.344 58.4414 100.163 58.4414C100.076 58.4414 100.011 58.4256 99.9676 58.394C99.9242 58.3585 99.8946 58.3014 99.8828 58.2205H99.729C99.7527 58.4552 99.8986 58.5735 100.167 58.5735ZM100.914 57.3766C100.948 57.3766 100.975 57.3648 100.999 57.3431C101.022 57.3194 101.034 57.2918 101.034 57.2583C101.034 57.2228 101.022 57.1952 100.999 57.1755C100.975 57.1518 100.948 57.1419 100.914 57.1419C100.881 57.1419 100.853 57.1518 100.829 57.1755C100.806 57.1952 100.796 57.2228 100.796 57.2583C100.796 57.2918 100.806 57.3194 100.829 57.3431C100.853 57.3648 100.881 57.3766 100.914 57.3766ZM100.993 58.5459V57.5264H100.835V58.5459H100.993ZM101.744 58.9639C102.054 58.9639 102.21 58.8002 102.21 58.4749V57.5264H102.052V57.7019C101.977 57.5659 101.862 57.4988 101.709 57.4988C101.567 57.4988 101.454 57.5481 101.372 57.6487C101.289 57.7433 101.249 57.8636 101.249 58.0135C101.249 58.1614 101.289 58.2816 101.372 58.3763C101.454 58.4729 101.567 58.5222 101.709 58.5222C101.862 58.5222 101.977 58.4532 102.052 58.3171V58.4966C102.052 58.7213 101.949 58.8357 101.744 58.8357C101.651 58.8357 101.582 58.818 101.537 58.7844C101.492 58.7529 101.462 58.7016 101.45 58.6326H101.293C101.31 58.743 101.356 58.8259 101.429 58.8811C101.5 58.9363 101.606 58.9639 101.744 58.9639ZM101.73 58.3901C101.62 58.3901 101.539 58.3507 101.484 58.2757C101.435 58.2087 101.411 58.12 101.411 58.0135C101.411 57.8991 101.439 57.8064 101.494 57.7394C101.551 57.6645 101.63 57.629 101.732 57.629C101.833 57.629 101.912 57.6645 101.971 57.7394C102.026 57.8064 102.054 57.8991 102.054 58.0135C102.054 58.1239 102.026 58.2146 101.971 58.2836C101.912 58.3546 101.833 58.3901 101.73 58.3901ZM102.612 58.5459V57.9307C102.618 57.838 102.647 57.765 102.702 57.7098C102.754 57.6586 102.815 57.6329 102.886 57.6329C103.063 57.6329 103.154 57.7315 103.154 57.9307V58.5459H103.312V57.9188C103.312 57.6388 103.184 57.4988 102.931 57.4988C102.864 57.4988 102.803 57.5146 102.748 57.5462C102.693 57.5757 102.647 57.6191 102.612 57.6763V57.5264H102.454V58.5459H102.612Z" fill="#242F57"/>
<g clip-path="url(#clip2)">
<path fill-rule="evenodd" clip-rule="evenodd" d="M35.6528 241.775C33.1941 241.471 31.4146 239.835 31.6207 237.368L36.0362 184.022C36.3541 180.219 39.7726 177.444 43.5607 177.913C47.3493 178.382 49.9875 181.906 49.3683 185.672L40.2178 238.5C39.816 240.944 38.1114 242.079 35.6528 241.775Z" fill="#FFC999"/>
<path fill-rule="evenodd" clip-rule="evenodd" d="M65.7696 241.021C68.2466 241.078 70.3273 239.172 70.4841 236.7L73.8347 183.831C74.0765 180.023 71.1004 176.778 67.2846 176.688C63.4676 176.598 60.3426 179.7 60.4048 183.516L61.264 236.483C61.304 238.959 63.2925 240.962 65.7696 241.021Z" fill="#FFC999"/>
<path fill-rule="evenodd" clip-rule="evenodd" d="M68.4469 127.307C72.9435 127.413 76.4715 131.198 76.2586 135.69L73.9717 183.98C73.7955 187.699 70.6821 190.598 66.9585 190.51C63.235 190.423 60.2616 187.38 60.2611 183.657L60.2489 135.314C60.2478 130.817 63.9502 127.202 68.4469 127.307Z" fill="#FFC999"/>
<path fill-rule="evenodd" clip-rule="evenodd" d="M49.6314 128.892C45.1675 128.339 41.1238 131.569 40.6776 136.044L35.8791 184.149C35.5096 187.854 38.1655 191.177 41.8619 191.634C45.5582 192.091 48.9445 189.516 49.4902 185.833L56.5706 138.01C57.2292 133.562 54.0953 129.445 49.6314 128.892Z" fill="#FFC999"/>
<path fill-rule="evenodd" clip-rule="evenodd" d="M80.816 52.5206C80.816 52.5206 86.6254 50.7066 89.203 56.7402C95.3013 57.9136 94.7356 64.4499 94.7356 64.4499C94.7356 64.4499 98.4203 68.9239 93.075 72.3724C93.4245 77.5048 87.5268 77.5048 87.5268 77.5048C87.5268 77.5048 86.7727 81.6338 82.1449 80.7232C78.0161 85.1434 69.0128 85.8289 65.1403 81.8516C59.6311 87.5207 47.8329 83.5633 48.5164 79.0832C41.1393 79.8093 36.357 72.6285 39.5854 65.3633C35.4639 60.6842 38.7206 57.0124 38.7206 57.0124C38.7206 57.0124 35.7723 45.222 43.7947 42.288C47.0192 35.1695 57.0473 38.8718 57.0473 38.8718C57.0473 38.8718 62.9401 36.6323 65.9717 41.5713C72.9504 41.5291 73.2299 45.3231 74.2564 48.3816C80.407 47.7521 80.816 52.5206 80.816 52.5206Z" fill="#242F57"/>
<path fill-rule="evenodd" clip-rule="evenodd" d="M60.9832 49.7046C56.3421 51.3064 54.3124 47.9257 54.3124 47.9257C54.3124 47.9257 51.5275 43.1533 51.5231 46.3579C51.5203 48.0607 48.6004 46.2684 47.7034 48.2268C47.0998 49.5446 49.3312 50.7613 47.2587 54.3498C46.0578 56.4282 52.1906 56.9526 49.0944 60.925C49.0944 60.925 52.3445 64.6501 48.1163 66.7108L48.422 71.6387C48.5998 74.5066 51.2135 76.5955 54.0518 76.1372C56.7572 75.7005 58.5673 73.1154 58.0527 70.4242L56.9256 64.5362C63.8259 63.4329 62.6455 53.8981 60.9832 49.7046Z" fill="#FFC999"/>
<path fill-rule="evenodd" clip-rule="evenodd" d="M100.82 72.0228L104.321 59.6535C104.321 59.6535 110.055 49.6171 112.126 50.2343C114.049 51.076 109.702 53.9489 108.84 56.7845C110.67 56.6534 109.839 59.3757 109.839 59.3757C109.839 59.3757 111.296 59.323 110.904 61.5408C112.258 62.3414 111.173 64.887 111.173 64.887C111.173 64.887 108.454 71.5922 105.442 76.0646C105.442 76.0646 100.444 79.9225 100.82 72.0228Z" fill="#FFC999"/>
<path fill-rule="evenodd" clip-rule="evenodd" d="M101.598 67.8435C101.598 67.8435 102.12 63.6012 102.511 61.4405C102.901 59.2794 101.988 55.3764 103.565 56.4104C104.625 57.1059 104.44 59.4277 104.402 61.14C104.364 62.8517 107.13 66.9096 105.069 69.7186C103.676 71.617 101.48 71.8659 101.598 67.8435Z" fill="#FFC999"/>
<path fill-rule="evenodd" clip-rule="evenodd" d="M104.812 71.1808C103.377 70.2269 101.444 70.5708 100.426 71.9614L80.7689 98.8023C79.0438 101.328 79.7168 104.777 82.2655 106.47C84.8365 108.177 88.3094 107.432 89.9528 104.82L105.864 75.3982C106.657 73.932 106.201 72.1036 104.812 71.1808Z" fill="#FFC999"/>
<path d="M52.9872 56.1594C53.0876 56.0207 53.2815 55.9897 53.4202 56.0901L53.4594 56.1166C53.4854 56.1334 53.5209 56.1554 53.5655 56.1814C53.6934 56.2559 53.8424 56.3309 54.0101 56.4011C54.7882 56.7268 55.6596 56.8344 56.5769 56.5952C56.7426 56.5519 56.912 56.6512 56.9552 56.8169C56.9985 56.9825 56.8992 57.1519 56.7335 57.1951C55.6721 57.4719 54.6654 57.3476 53.7706 56.973C53.4371 56.8334 53.1941 56.6919 53.0565 56.5923C52.9178 56.4919 52.8867 56.2981 52.9872 56.1594Z" fill="#FC5A5A"/>
<path d="M52.7774 51.2524C52.9401 51.2264 53.0931 51.3372 53.1191 51.5C53.2999 52.6319 52.596 53.6952 51.5309 53.8661C50.4663 54.0358 49.4653 53.2447 49.2846 52.1129C49.2586 51.9502 49.3695 51.7972 49.5323 51.7713C49.695 51.7453 49.848 51.8561 49.874 52.0189C50.0045 52.8357 50.7094 53.3928 51.4366 53.2769C52.1645 53.1601 52.6602 52.4113 52.5297 51.594C52.5037 51.4313 52.6146 51.2784 52.7774 51.2524Z" fill="#242F57"/>
<path d="M60.2449 50.2657C60.3993 50.2409 60.5445 50.346 60.5693 50.5004C60.7485 51.6188 60.1306 52.6674 59.1567 52.8231C58.183 52.9787 57.2688 52.1755 57.0896 51.0572C57.0648 50.9028 57.17 50.7576 57.3244 50.7329C57.4788 50.7082 57.624 50.8133 57.6488 50.9676C57.7819 51.7983 58.4283 52.3662 59.0673 52.264C59.7063 52.1619 60.1432 51.4205 60.0101 50.5899C59.9854 50.4356 60.0905 50.2904 60.2449 50.2657Z" fill="#242F57"/>
<path d="M49.667 48.2478C50.6468 47.8683 51.6808 47.8496 52.6422 48.0434L52.7968 48.0767C52.9403 48.1096 53.0499 48.141 53.1202 48.1649C53.2763 48.2178 53.36 48.3872 53.307 48.5432C53.2541 48.6993 53.0846 48.7829 52.9285 48.7299L52.8628 48.7094C52.7847 48.6867 52.6699 48.6577 52.5242 48.6283C51.6649 48.4551 50.7408 48.4718 49.8827 48.8042C49.4828 48.9591 49.1129 49.1791 48.7778 49.4712C48.6535 49.5795 48.465 49.5666 48.3567 49.4424C48.2484 49.3182 48.2613 49.1297 48.3855 49.0214C48.7739 48.6829 49.2037 48.4272 49.667 48.2478Z" fill="#242F57"/>
<path fill-rule="evenodd" clip-rule="evenodd" d="M88.7213 106.002C91.2566 104.236 91.8785 100.749 90.1107 98.2143L72.8877 73.5196C71.1198 70.9856 67.6324 70.3634 65.0971 72.1301C62.5622 73.8968 61.9404 77.3836 63.7077 79.9181L80.9312 104.613C82.6985 107.147 86.1859 107.769 88.7213 106.002Z" fill="#FFC999"/>
<path d="M63.4736 79.8657C63.5448 79.8161 63.6397 79.8261 63.6992 79.8852L63.7197 79.9096L70.9183 90.231L79.8842 83.8375C79.9548 83.7871 80.0499 83.7961 80.1099 83.8545L80.1307 83.8787C80.1811 83.9493 80.1721 84.0443 80.1136 84.1044L80.0894 84.1251L70.9783 90.6226C70.9072 90.6733 70.8113 90.6638 70.7514 90.6044L70.7307 90.5798L63.4297 80.1117C63.3739 80.0316 63.3936 79.9215 63.4736 79.8657Z" fill="#696974"/>
<path fill-rule="evenodd" clip-rule="evenodd" d="M71.0086 90.3867L63.7071 79.918C61.947 77.3946 62.5722 73.89 65.097 72.1305C67.6213 70.371 71.127 70.996 72.8871 73.52L80.1192 83.8887L71.0086 90.3867Z" fill="#0062FF"/>
<path fill-rule="evenodd" clip-rule="evenodd" d="M68.5531 81.2002C69.7485 83.8042 71.9632 88.2866 72.2383 91.2478C72.6852 96.049 69.5585 99.6214 69.5585 99.6214C69.5585 99.6214 69.5268 98.2097 69.2234 110.648C54.9003 113.16 45.7681 110.49 45.7681 110.49L46.0471 107.192L43.7212 99.398C43.7212 99.398 42.3079 96.4952 39.4041 90.0199C37.3856 85.5181 37.5256 79.9374 37.7991 76.9534C37.9163 75.675 37.3089 73.006 38.5777 72.8066C42.8887 72.1288 45.8804 71.7638 45.8804 71.7638L46.405 70.1521C46.475 69.6643 46.893 69.302 47.3859 69.302H58.47C58.9224 69.302 59.3169 69.6082 59.4292 70.0465L60.2062 71.7638L66.0477 71.9721C67.0709 72.1727 67.9557 75.3772 68.0624 76.4139L68.5531 81.2002Z" fill="#0062FF"/>
<path d="M45.7411 72.204C45.8313 72.1325 45.9584 72.1389 46.0409 72.214L46.0667 72.2416L56.0741 84.8556L59.958 73.0891C59.9941 72.9797 60.1039 72.9153 60.2141 72.9328L60.2507 72.9417C60.3601 72.9777 60.4245 73.0875 60.4071 73.1976L60.3982 73.2343L56.38 85.4091C56.3261 85.5725 56.1228 85.6189 56.0027 85.5069L55.9784 85.4805L45.7035 72.5295C45.624 72.4292 45.6408 72.2835 45.7411 72.204Z" fill="#CCD7EE"/>
<path fill-rule="evenodd" clip-rule="evenodd" d="M59.0284 86.3159C60.0799 88.0882 59.6058 90.311 57.9702 91.2811C56.3346 92.2505 54.1561 91.5994 53.1051 89.8271C52.0536 88.0543 52.5271 85.8314 54.1633 84.862C55.7989 83.8925 57.9769 84.5436 59.0284 86.3159Z" fill="#CCD7EE"/>
<path fill-rule="evenodd" clip-rule="evenodd" d="M59.4059 86.3074C60.4574 88.0797 59.9833 90.3025 58.3477 91.272C56.7121 92.242 54.5335 91.5909 53.482 89.818C52.4311 88.0458 52.9046 85.8229 54.5408 84.8534C56.1758 83.884 58.3544 84.5351 59.4059 86.3074Z" fill="#F1F1F5"/>
<path fill-rule="evenodd" clip-rule="evenodd" d="M58.7386 86.6162C59.555 87.9923 59.1871 89.7179 57.9166 90.4707C56.6467 91.2236 54.9555 90.7185 54.1396 89.3424C53.3232 87.9662 53.6906 86.2406 54.9611 85.4878C56.231 84.7344 57.9221 85.24 58.7386 86.6162Z" fill="#FF974A"/>
<path d="M37.8041 76.7764C37.9017 76.7795 37.9786 76.8607 37.9758 76.9583L37.9604 77.6608L37.958 77.7949C37.9341 79.1946 37.9316 80.6734 37.9643 82.0574L37.9748 82.4558C38.0188 83.9577 38.105 85.1649 38.2402 85.9767C38.3939 86.8974 38.9837 88.4614 39.8978 90.477C40.0576 90.8292 40.2258 91.1919 40.4015 91.5636C40.8856 92.5875 41.4043 93.6335 41.9231 94.6452L42.1852 95.1533L42.6067 95.9576L42.6262 95.9978L46.3826 107.194L46.3909 107.267L46.0712 110.516L46.3492 110.571C46.4285 110.586 46.5127 110.602 46.6018 110.618L46.7392 110.642C47.4112 110.761 48.19 110.88 49.0662 110.991C55.0484 111.748 61.8196 111.752 68.795 110.508L69.0792 110.456L69.1031 109.552C69.1209 108.96 69.1477 108.147 69.1822 107.144L69.3196 103.268L69.4392 100.006L69.4611 99.9274L69.5468 99.7683L69.6836 99.5059C69.7223 99.4305 69.7625 99.3513 69.804 99.2685L69.8672 99.1416C70.1727 98.5242 70.4783 97.8547 70.7635 97.1569C71.1689 96.1649 71.4985 95.1993 71.7254 94.2924C71.9448 93.4156 72.0617 92.6178 72.0617 91.9182C72.0617 90.167 71.8294 88.823 71.3081 87.4367C71.0471 86.7425 70.712 86.0259 70.2291 85.1112L69.9888 84.6637C69.6643 84.0686 69.0374 82.9385 68.6746 82.2851L68.3983 81.7875L68.3766 81.709L68.2649 78.7506C68.2612 78.6531 68.3373 78.5711 68.4348 78.5674C68.5215 78.5641 68.596 78.6238 68.614 78.7056L68.6181 78.7372L68.728 81.6533L70.176 84.2695L70.4424 84.7592L70.638 85.1299C71.0763 85.9707 71.3898 86.6499 71.6389 87.3124C72.1755 88.7394 72.4151 90.1255 72.4151 91.9182C72.4151 92.6499 72.2942 93.4753 72.0683 94.3781C71.8369 95.303 71.5021 96.284 71.0907 97.2906C70.8434 97.8958 70.581 98.4797 70.3164 99.0275L70.184 99.2983C70.119 99.4295 70.0568 99.5528 69.998 99.6674L69.7906 100.061L69.5016 108.155C69.4591 109.428 69.4343 110.264 69.4315 110.555L69.4313 110.604C69.4313 110.689 69.3705 110.762 69.2868 110.778C62.1212 112.107 55.1598 112.118 49.0218 111.341C48.2279 111.241 47.5131 111.134 46.8841 111.026L46.6776 110.99C46.5351 110.965 46.4035 110.941 46.2831 110.918L45.8418 110.83C45.7654 110.813 45.7105 110.748 45.7038 110.673L45.704 110.64L46.0352 107.27L42.3028 96.1373L42.1117 95.776C41.9598 95.4871 41.7907 95.1616 41.6086 94.8064C41.0882 93.7915 40.5678 92.7423 40.0819 91.7145L39.8229 91.1615C39.7808 91.0704 39.7391 90.98 39.6979 90.8903L39.5759 90.6229C38.6491 88.5794 38.052 86.996 37.8916 86.0348C37.7411 85.1316 37.6512 83.7687 37.6109 82.0658C37.5828 80.8748 37.5806 79.6148 37.5957 78.395L37.6094 77.5253L37.6225 76.9483C37.6252 76.8508 37.7066 76.774 37.8041 76.7764Z" fill="#696974"/>
<path fill-rule="evenodd" clip-rule="evenodd" d="M27.2572 110.168L27.0977 110.106C24.2611 109.005 22.8544 105.814 23.9554 102.978L34.4598 75.9304C35.5613 73.0947 38.7541 71.6885 41.5907 72.7897L41.7502 72.8514C44.5868 73.9525 45.9935 77.1437 44.8919 79.9799L34.3881 107.026C33.2866 109.863 30.0938 111.269 27.2572 110.168Z" fill="#FFC999"/>
<path fill-rule="evenodd" clip-rule="evenodd" d="M45.9929 113.127C40.9605 113.521 26.1206 144.919 21.6084 156.286C22.2092 158.576 28.7749 163.007 28.7749 163.007C28.7749 163.007 28.3825 164.829 28.1402 165.924C32.4346 169.455 40.7398 171.373 40.7398 171.373L40.7582 172.939C54.0369 179.052 71.8184 173.194 71.8184 173.194C71.8184 173.194 72.1502 172.854 71.9124 171.626C77.9412 171.556 90.851 163.909 90.851 163.909L89.0158 160.127L94.3255 154.694C94.3255 154.694 79.987 128.325 75.5737 120.949C71.6989 114.474 68.0648 112.61 68.0648 112.61C68.0648 112.61 54.9217 112.428 45.9929 113.127Z" fill="#696974"/>
<path fill-rule="evenodd" clip-rule="evenodd" d="M69.0262 113.126L68.6472 110.25C68.6472 110.25 57.2897 110.318 46.1507 109.76C45.8694 111.037 45.546 113.334 45.546 113.334C46.4824 112.566 56.6006 114.811 69.0262 113.126Z" fill="#696974"/>
<path d="M68.6109 118.734C68.7107 118.685 68.8293 118.718 68.8916 118.805L68.9101 118.837L90.8243 163.59C90.8707 163.685 90.8444 163.799 90.7612 163.864L90.6236 163.969L90.3994 164.133C90.3446 164.173 90.2864 164.215 90.225 164.258C89.7874 164.569 89.2724 164.914 88.6833 165.287C87.0019 166.349 85.0628 167.411 82.8917 168.402C79.5166 169.942 75.895 171.166 72.0696 171.956C71.9486 171.981 71.8303 171.903 71.8053 171.782C71.7803 171.661 71.8581 171.543 71.9791 171.518C75.7701 170.735 79.3601 169.522 82.7058 167.995C84.8579 167.012 86.7794 165.96 88.4443 164.909C88.9618 164.582 89.421 164.276 89.8195 163.997L90.054 163.831L90.3411 163.621L68.5083 119.033C68.4594 118.934 68.4917 118.815 68.5796 118.753L68.6109 118.734Z" fill="#242F57"/>
<path d="M42.0946 128.028C42.1383 127.913 42.2674 127.855 42.383 127.898C42.487 127.938 42.5446 128.046 42.5232 128.152L42.5131 128.186L28.1916 166.06L28.4266 166.205L28.7115 166.377C28.9594 166.524 29.2331 166.682 29.5314 166.848C30.7254 167.514 32.0634 168.18 33.5132 168.802C35.8762 169.815 38.301 170.608 40.7265 171.099C40.8476 171.123 40.9259 171.241 40.9014 171.362C40.8769 171.483 40.7589 171.561 40.6378 171.537C38.1799 171.04 35.7264 170.237 33.3369 169.213C31.8721 168.585 30.5204 167.912 29.3134 167.239C28.9511 167.037 28.6241 166.847 28.335 166.673L28.0348 166.49L27.7953 166.338C27.7174 166.287 27.6804 166.194 27.6991 166.105L27.7088 166.072L42.0946 128.028Z" fill="#242F57"/>
<path d="M51.6937 113.972L51.7299 113.977C51.8389 113.999 51.9134 114.097 51.9096 114.204L51.9035 114.25L51.0466 118.574C50.7515 120.071 50.4369 121.674 50.1062 123.367L49.9242 124.299C48.5444 131.375 47.1646 138.579 45.8642 145.546L45.5655 147.149C45.4066 148.004 45.2498 148.851 45.0952 149.689L44.2674 154.208C43.0473 160.918 42.0123 166.854 41.2012 171.834L41.0104 173.011L41.3161 173.113C41.64 173.218 41.9659 173.319 42.2937 173.417L42.7869 173.56C50.7509 175.814 59.2622 175.686 67.3003 174.116C68.5757 173.866 69.7262 173.599 70.7324 173.332L71.0232 173.254C71.1633 173.216 71.2953 173.179 71.419 173.144L71.782 173.037L61.8099 123.072C61.7881 122.963 61.8496 122.856 61.9505 122.818L61.9855 122.809C62.0945 122.787 62.2008 122.848 62.2386 122.949L62.2486 122.984L72.2606 173.147C72.2828 173.259 72.2181 173.369 72.11 173.404L71.7821 173.504L71.5424 173.574C71.3751 173.621 71.1932 173.672 70.997 173.725L70.8471 173.765C69.8316 174.034 68.6716 174.303 67.3861 174.554C59.2849 176.137 50.7065 176.266 42.665 173.99C41.9982 173.801 41.339 173.596 40.6878 173.375C40.5846 173.34 40.5217 173.236 40.5389 173.128L40.8166 171.413C41.6194 166.502 42.635 160.685 43.8271 154.128L44.3488 151.273C44.6017 149.895 44.8608 148.493 45.1256 147.068C46.4137 140.138 47.7871 132.943 49.1666 125.849L50.3619 119.736L51.4667 114.153C51.4884 114.044 51.5861 113.969 51.6937 113.972Z" fill="#242F57"/>
<path d="M57.0604 114.834C57.1714 114.828 57.2681 114.904 57.2914 115.009L57.2963 115.045L59.6494 156.765C59.6564 156.888 59.562 156.994 59.4387 157.001C59.3276 157.007 59.231 156.931 59.2077 156.826L59.2027 156.79L56.8496 115.07C56.8427 114.947 56.937 114.841 57.0604 114.834Z" fill="#242F57"/>
<path d="M63.0402 113.767C63.1463 113.734 63.2585 113.784 63.3066 113.881L63.3201 113.914L72.155 142.349C72.1917 142.467 72.1257 142.592 72.0078 142.629C71.9016 142.662 71.7894 142.611 71.7413 142.515L71.7278 142.481L62.8929 114.047C62.8562 113.929 62.9222 113.804 63.0402 113.767Z" fill="#242F57"/>
<path d="M46.7406 113.111C51.7536 113.345 56.6199 113.451 60.9523 113.45L62.4303 113.446C63.957 113.437 65.3055 113.414 66.335 113.382L66.8248 113.365C66.9742 113.359 67.1092 113.353 67.228 113.348L67.4674 113.335C67.5472 113.33 67.613 113.325 67.6632 113.32L67.7232 113.314L67.749 113.304C67.7818 113.294 67.8173 113.291 67.8527 113.297L67.8879 113.306L67.9165 113.31C67.9704 113.319 67.9765 113.354 68.0225 113.616L67.9308 113.712C67.9029 113.739 67.8948 113.739 67.8745 113.741C67.8573 113.746 67.8388 113.75 67.8166 113.753L67.7801 113.758C67.7491 113.762 67.7097 113.765 67.6621 113.769L67.4948 113.781C67.2798 113.794 66.9773 113.808 66.6062 113.82L65.8361 113.843C64.8246 113.869 63.5757 113.888 62.1901 113.895L61.9441 113.896C57.3622 113.914 52.1262 113.81 46.7197 113.558C46.5963 113.552 46.5009 113.447 46.5067 113.324C46.5125 113.2 46.6172 113.105 46.7406 113.111Z" fill="#242F57"/>
<path fill-rule="evenodd" clip-rule="evenodd" d="M40.6973 90.7796L45.3179 78.8825C46.4317 76.0147 44.9956 72.7573 42.1267 71.644C39.2579 70.5306 35.9995 71.9656 34.8852 74.8335L30.3091 86.6178L40.6973 90.7796Z" fill="#0062FF"/>
<path d="M58.4281 72.9725C58.5257 72.9725 58.6048 73.0516 58.6048 73.1492C58.6048 73.2359 58.5423 73.3081 58.4598 73.323L58.4281 73.3259H48.9479C48.8503 73.3259 48.7712 73.2468 48.7712 73.1492C48.7712 73.0625 48.8337 72.9903 48.9162 72.9754L48.9479 72.9725H58.4281Z" fill="#696974"/>
<path d="M45.3041 78.8775C45.3394 78.7865 45.4418 78.7414 45.5328 78.7768C45.6136 78.8081 45.6583 78.8925 45.6424 78.9748L45.6336 79.0054L41.013 90.9019C40.9813 90.9834 40.896 91.028 40.8133 91.0112L40.7825 91.002L30.3942 86.8401C30.3036 86.8038 30.2596 86.701 30.2959 86.6104C30.3282 86.5299 30.4131 86.4862 30.4952 86.503L30.5257 86.5122L40.7482 90.6073L45.3041 78.8775Z" fill="#696974"/>
<path fill-rule="evenodd" clip-rule="evenodd" d="M56.3636 111.014L65.5286 86.0292C65.6798 85.6176 66.0777 85.3481 66.5162 85.3609L89.2384 86.0092C89.9442 86.0292 90.4166 86.7426 90.1604 87.4004L80.6675 111.697C80.5152 112.088 80.1384 112.345 79.7188 112.346L57.3234 112.385C56.6132 112.386 56.1191 111.68 56.3636 111.014Z" fill="#696974"/>
<path fill-rule="evenodd" clip-rule="evenodd" d="M57.5743 110.756L66.5798 86.2067C66.7626 85.7078 67.2439 85.3823 67.7752 85.3973L90.7786 86.054C91.2722 86.0679 91.6028 86.5662 91.4228 87.0262L81.7992 111.659C81.6303 112.092 81.2135 112.377 80.7489 112.378L58.7364 112.416C57.8766 112.418 57.278 111.563 57.5743 110.756Z" fill="#242F57"/>
<path fill-rule="evenodd" clip-rule="evenodd" d="M69.6274 87.8776C69.8724 88.1743 69.7591 88.6726 69.3734 88.9904C68.9882 89.3088 68.4775 89.326 68.2324 89.0293C67.9873 88.7326 68.1007 88.2343 68.4858 87.9165C68.8715 87.5981 69.3823 87.5809 69.6274 87.8776Z" fill="#696974"/>
<path fill-rule="evenodd" clip-rule="evenodd" d="M69.3094 88.1629C69.4367 88.3168 69.3777 88.5757 69.1777 88.7407C68.9776 88.9058 68.7119 88.9152 68.5852 88.7613C68.458 88.6069 68.5169 88.348 68.7169 88.1829C68.9165 88.0179 69.1821 88.009 69.3094 88.1629Z" fill="#FFC999"/>
<path fill-rule="evenodd" clip-rule="evenodd" d="M65.0259 110.64C64.7819 112.345 63.2386 113.557 61.5229 113.391L28.4019 110.182C25.368 109.786 23.2423 106.988 23.6757 103.961C24.1126 100.906 26.9814 98.812 30.0247 99.3248L62.5783 107.047C64.2011 107.432 65.2621 108.99 65.0259 110.64Z" fill="#FFC999"/>
<path fill-rule="evenodd" clip-rule="evenodd" d="M65.0313 114.663C65.0313 114.663 57.4314 113.893 56.4538 110.51C55.5684 107.446 58.519 106.195 58.519 106.195C58.519 106.195 61.255 104.487 64.7918 103.898C67.1221 103.51 71.6288 103.221 71.9978 104.417C72.4796 105.977 67.36 106.007 67.3505 107.195C67.3411 108.413 68.3993 108.485 70.7512 109.441C72.2218 110.038 73.1382 109.667 74.2881 110.411C76.5356 111.865 73.8918 116.189 65.0313 114.663Z" fill="#FFC999"/>
<path d="M55.9911 50.7988C56.0996 50.7892 56.1967 50.8605 56.2227 50.9627L56.2383 51.0598C56.2438 51.0886 56.2518 51.1254 56.2631 51.1699C56.3022 51.325 56.3645 51.5054 56.4551 51.7083C56.7183 52.2977 57.1582 52.9446 57.8175 53.6272C57.9046 53.7173 57.8985 53.8618 57.8042 53.9443L57.519 54.1917C57.1029 54.5491 56.7401 54.8456 56.4297 55.0859L56.2103 55.2528L55.9837 55.4166C55.978 55.4204 55.9732 55.4237 55.969 55.4265C55.8684 55.4939 55.7323 55.4671 55.6648 55.3665C55.5974 55.266 55.6243 55.1298 55.7248 55.0624L55.8301 54.9882L55.9487 54.901C55.9913 54.8692 56.037 54.8347 56.0858 54.7974L56.1613 54.7393C56.432 54.5297 56.7443 54.2758 57.0988 53.9741L57.344 53.7635L57.2522 53.6635C56.7332 53.0857 56.3599 52.5293 56.1101 52.0069L56.0547 51.887C55.8803 51.4965 55.8068 51.2051 55.7919 51.0363C55.7813 50.9158 55.8705 50.8094 55.9911 50.7988Z" fill="#DD936F"/>
<path d="M52.3197 64.0692C52.3601 63.9551 52.4853 63.8953 52.5995 63.9356C54.0544 64.4498 55.5016 64.5937 56.8986 64.3899C57.0184 64.3724 57.1297 64.4553 57.1472 64.5751C57.1647 64.6948 57.0817 64.8061 56.9619 64.8236C55.4942 65.0378 53.9751 64.8867 52.4534 64.3489C52.3392 64.3086 52.2794 64.1833 52.3197 64.0692Z" fill="#DD936F"/>
<path d="M108.99 56.6256C109.078 56.7091 109.082 56.8478 108.998 56.9355L108.896 57.045L108.767 57.1888C108.721 57.2398 108.674 57.2937 108.625 57.3504C108.343 57.6743 108.062 58.0207 107.799 58.3747C107.539 58.7254 107.312 59.0647 107.128 59.3849C106.501 60.4764 106.449 61.1737 107.046 61.4223C107.157 61.4689 107.21 61.5973 107.164 61.709C107.117 61.8207 106.989 61.8735 106.877 61.8269C105.933 61.4333 106.005 60.4592 106.748 59.1666C106.942 58.8303 107.177 58.4772 107.447 58.1137C107.717 57.7498 108.005 57.3949 108.294 57.0629L108.508 56.8209L108.68 56.6334C108.764 56.5457 108.903 56.5422 108.99 56.6256Z" fill="#DD936F"/>
<path d="M109.839 59.3245C109.913 59.4206 109.895 59.5582 109.799 59.6318L109.692 59.7159L109.555 59.8266C109.507 59.8658 109.457 59.9074 109.405 59.9511C109.109 60.2009 108.813 60.4686 108.537 60.7431C108.243 61.0354 107.99 61.318 107.79 61.5834C107.258 62.2908 107.175 62.757 107.556 62.99C107.714 63.0872 107.892 63.1087 108.098 63.0608C108.399 62.9909 108.738 62.7768 109.086 62.4628C109.243 62.3204 109.391 62.1672 109.526 62.014L109.628 61.8939C109.656 61.8601 109.678 61.8328 109.693 61.8135C109.766 61.7172 109.904 61.6986 110 61.7719C110.096 61.8453 110.115 61.9828 110.041 62.0791L109.968 62.1711C109.937 62.2088 109.899 62.2532 109.856 62.303C109.711 62.4681 109.551 62.6332 109.38 62.7879C108.982 63.1474 108.585 63.3975 108.198 63.4878C107.885 63.5605 107.589 63.5247 107.326 63.3637C106.642 62.944 106.773 62.2071 107.44 61.32C107.653 61.0361 107.92 60.7384 108.227 60.4324C108.513 60.1485 108.818 59.8729 109.123 59.6159L109.277 59.4877L109.532 59.2839C109.628 59.2103 109.766 59.2284 109.839 59.3245Z" fill="#DD936F"/>
<path d="M110.382 61.4859C110.501 61.467 110.614 61.5487 110.633 61.6682C110.652 61.7878 110.57 61.9 110.45 61.9189C110.157 61.9652 109.782 62.2301 109.334 62.7577C108.392 63.8657 108.196 64.5786 108.477 64.7424C108.767 64.912 109.455 64.5986 109.897 63.9663C110.053 63.7432 110.395 63.9481 110.272 64.191C109.721 65.2771 109.076 66.0344 108.273 66.6233L108.073 66.7652C107.737 66.9983 107.614 67.0648 106.687 67.5539L106.47 67.6709C105.211 68.3673 104.703 68.9791 104.412 70.428C104.388 70.5467 104.273 70.6236 104.154 70.5998C104.035 70.576 103.958 70.4605 103.982 70.3418C104.311 68.706 104.926 68.0055 106.369 67.2263L107.216 66.7759C107.539 66.6 107.652 66.5248 107.901 66.3512C108.381 66.0151 108.802 65.6204 109.179 65.1262L109.194 65.1058L109.14 65.128C108.835 65.2435 108.54 65.2589 108.308 65.1485L108.255 65.1208C107.63 64.7553 107.901 63.7658 109 62.4739C109.509 61.8739 109.965 61.5517 110.382 61.4859Z" fill="#DD936F"/>
<path d="M104.431 58.7813C104.54 58.7723 104.636 58.844 104.662 58.9464L104.668 58.9816L104.934 62.1912L105.016 62.3367L105.077 62.4501C105.203 62.6884 105.328 62.9537 105.446 63.2397C105.786 64.0701 105.99 64.9031 105.985 65.6888C105.982 66.302 105.85 66.8614 105.571 67.3508C105.511 67.456 105.377 67.4926 105.271 67.4325C105.166 67.3725 105.13 67.2387 105.19 67.1335C105.429 66.714 105.544 66.2282 105.547 65.6864C105.551 64.967 105.36 64.1874 105.04 63.406C104.951 63.1883 104.856 62.983 104.761 62.7936L104.689 62.6547C104.618 62.5198 104.563 62.4244 104.533 62.3753C104.521 62.3558 104.512 62.3345 104.506 62.3123L104.501 62.2784L104.231 59.0178C104.221 58.8971 104.311 58.7913 104.431 58.7813Z" fill="#DD936F"/>
<path d="M67.6021 110.304C67.6744 110.207 67.8118 110.187 67.9089 110.259L67.9653 110.299C68.0335 110.346 68.137 110.412 68.2747 110.491C68.5843 110.671 68.9499 110.851 69.369 111.019C70.817 111.6 72.5133 111.897 74.4293 111.756C74.55 111.748 74.6551 111.838 74.664 111.959C74.6728 112.08 74.5821 112.185 74.4614 112.194C72.4757 112.339 70.7132 112.031 69.2057 111.426C68.7665 111.249 68.3821 111.06 68.0548 110.871C67.9683 110.821 67.8903 110.773 67.821 110.729L67.7545 110.685C67.7025 110.651 67.6665 110.625 67.6469 110.611C67.5498 110.538 67.5297 110.401 67.6021 110.304Z" fill="#DD936F"/>
<path d="M66.4782 112.213C66.5295 112.103 66.66 112.056 66.7697 112.107C66.8789 112.158 66.9895 112.207 67.1012 112.254C68.7843 112.964 70.5436 113.181 72.0251 113.119L72.1948 113.111C72.2927 113.105 72.3599 113.1 72.3934 113.096C72.5138 113.084 72.6216 113.171 72.6341 113.292C72.6467 113.412 72.5592 113.52 72.4388 113.532L72.3142 113.543C72.2862 113.545 72.2546 113.547 72.2197 113.549C70.6429 113.638 68.7502 113.426 66.9307 112.658C66.8138 112.609 66.6982 112.557 66.5838 112.504C66.4741 112.453 66.4269 112.322 66.4782 112.213Z" fill="#DD936F"/>
<path d="M64.5931 113.3C64.6555 113.196 64.7903 113.163 64.894 113.225L64.9437 113.253C65.0048 113.286 65.1002 113.333 65.2307 113.39C65.5261 113.52 65.8874 113.65 66.3165 113.771C67.2623 114.04 68.3935 114.228 69.7174 114.3C69.8383 114.307 69.931 114.41 69.9244 114.531C69.9178 114.652 69.8145 114.745 69.6936 114.738C68.3372 114.664 67.1739 114.47 66.1967 114.193C65.7483 114.066 65.3682 113.929 65.0547 113.792C64.8633 113.708 64.7349 113.641 64.6678 113.601C64.5641 113.538 64.5306 113.404 64.5931 113.3Z" fill="#DD936F"/>
</g>
<path d="M118.904 71.3697H118.446C117.331 71.3697 116.427 72.2738 116.427 73.3891L116.427 73.8466C116.427 74.9619 117.331 75.866 118.446 75.866H118.904C120.019 75.866 120.923 74.9619 120.923 73.8466V73.3891C120.923 72.2738 120.019 71.3697 118.904 71.3697Z" fill="#0062FF"/>
<path d="M118.131 82.0746C118.131 82.7935 118.714 83.3762 119.432 83.3762C120.151 83.3762 120.734 82.7935 120.734 82.0746C120.734 81.3558 120.151 80.7731 119.432 80.7731C118.714 80.7731 118.131 81.3558 118.131 82.0746Z" fill="#0062FF"/>
<g clip-path="url(#clip3)">
<path d="M108.436 80.4732V80.3943C108.436 79.6537 109.036 79.0533 109.777 79.0533C110.517 79.0533 111.118 79.6537 111.118 80.3943V80.4732C111.118 81.2138 110.517 81.8142 109.777 81.8142C109.036 81.8142 108.436 81.2138 108.436 80.4732Z" fill="#0062FF"/>
</g>
<defs>
<clipPath id="clip0">
<rect width="57.4272" height="57.4272" fill="white" transform="translate(85.0391 77.3413)"/>
</clipPath>
<clipPath id="clip1">
<rect width="28.5649" height="28.5649" fill="white" transform="translate(117.784 79.0234) rotate(30)"/>
</clipPath>
<clipPath id="clip2">
<rect width="143" height="127.476" fill="white" transform="translate(16 0.0986328)"/>
</clipPath>
<clipPath id="clip3">
<rect width="4.29126" height="4.41748" fill="white" transform="translate(107.631 78.2248)"/>
</clipPath>
</defs>
</svg>
