<svg width="171" height="118" viewBox="0 0 171 118" fill="none" xmlns="http://www.w3.org/2000/svg">
<path d="M29.1943 39.6606H22.0159C21.7701 39.6606 21.5708 39.8599 21.5708 40.1057V41.2066C21.5708 41.4524 21.7701 41.6517 22.0159 41.6517H29.1943C29.4401 41.6517 29.6394 41.4524 29.6394 41.2066V40.1057C29.6394 39.8599 29.4401 39.6606 29.1943 39.6606Z" fill="#0062FF"/>
<path d="M29.201 43.4505H22.0091C21.7671 43.4505 21.5708 43.6468 21.5708 43.8889V44.9429C21.5708 45.185 21.7671 45.3813 22.0091 45.3813H29.201C29.4431 45.3813 29.6394 45.185 29.6394 44.9429V43.8889C29.6394 43.6468 29.4431 43.4505 29.201 43.4505Z" fill="#92929D"/>
<path d="M29.201 47.2399H22.0091C21.7671 47.2399 21.5708 47.4362 21.5708 47.6783V48.7323C21.5708 48.9744 21.7671 49.1707 22.0091 49.1707H29.201C29.4431 49.1707 29.6394 48.9744 29.6394 48.7323V47.6783C29.6394 47.4362 29.4431 47.2399 29.201 47.2399Z" fill="#FC5A5A"/>
<path d="M29.201 51.0298H22.0091C21.7671 51.0298 21.5708 51.2261 21.5708 51.4682V52.5222C21.5708 52.7643 21.7671 52.9606 22.0091 52.9606H29.201C29.4431 52.9606 29.6394 52.7643 29.6394 52.5222V51.4682C29.6394 51.2261 29.4431 51.0298 29.201 51.0298Z" fill="#92929D"/>
<path d="M78.2014 14.2991H15.0798C13.9956 14.2991 13.1167 15.178 13.1167 16.2622V61.5915C13.1167 62.6757 13.9956 63.5546 15.0798 63.5546H78.2014C79.2856 63.5546 80.1645 62.6757 80.1645 61.5915V16.2622C80.1645 15.178 79.2856 14.2991 78.2014 14.2991Z" fill="#F1F1F5"/>
<path d="M73.8799 23.0448H35.7267C35.3146 23.0448 34.9805 23.3789 34.9805 23.791V58.446C34.9805 58.8582 35.3146 59.1923 35.7267 59.1923H73.8799C74.292 59.1923 74.6261 58.8582 74.6261 58.446V23.791C74.6261 23.3789 74.292 23.0448 73.8799 23.0448Z" fill="#0062FF"/>
<path d="M67.9212 34.1222H39.936V35.8712H67.9212V34.1222Z" fill="white"/>
<path d="M53.9286 40.2438H39.936V41.9929H53.9286V40.2438Z" fill="#FF974A"/>
<path d="M65.8803 28.0005H51.8877V29.7496H65.8803V28.0005Z" fill="#FF974A"/>
<path d="M65.5891 52.1957H39.936V53.9448H65.5891V52.1957Z" fill="white"/>
<path d="M48.3899 28.0005H39.936V29.7496H48.3899V28.0005Z" fill="white"/>
<path d="M60.9249 40.2438H56.8438V41.9929H60.9249V40.2438Z" fill="#F1F1F5"/>
<path d="M60.6334 46.0741H39.936V47.8232H60.6334V46.0741Z" fill="#F1F1F5"/>
<path d="M14.9126 11.9669H78.3349C79.3268 11.9669 80.1308 12.7542 80.1308 13.7255V18.9661H13.1167V13.7255C13.1167 12.7542 13.9208 11.9669 14.9126 11.9669Z" fill="#242F57"/>
<path d="M17.0226 16.8095C17.7305 16.8095 18.3044 16.2475 18.3044 15.5543C18.3044 14.8611 17.7305 14.2991 17.0226 14.2991C16.3146 14.2991 15.7407 14.8611 15.7407 15.5543C15.7407 16.2475 16.3146 16.8095 17.0226 16.8095Z" fill="#FC5A5A"/>
<path d="M21.9786 16.8095C22.6866 16.8095 23.2605 16.2475 23.2605 15.5543C23.2605 14.8611 22.6866 14.2991 21.9786 14.2991C21.2707 14.2991 20.6968 14.8611 20.6968 15.5543C20.6968 16.2475 21.2707 16.8095 21.9786 16.8095Z" fill="#FF974A"/>
<path d="M26.6417 16.8095C27.3496 16.8095 27.9235 16.2475 27.9235 15.5543C27.9235 14.8611 27.3496 14.2991 26.6417 14.2991C25.9338 14.2991 25.3599 14.8611 25.3599 15.5543C25.3599 16.2475 25.9338 16.8095 26.6417 16.8095Z" fill="#3DD598"/>
<path d="M32.1558 22.4616H19.1474C18.7146 22.4616 18.3638 22.8124 18.3638 23.2452V58.4086C18.3638 58.8413 18.7146 59.1921 19.1474 59.1921H32.1558C32.5886 59.1921 32.9394 58.8413 32.9394 58.4086V23.2452C32.9394 22.8124 32.5886 22.4616 32.1558 22.4616Z" fill="white"/>
<path d="M29.1943 39.6606H22.0159C21.7701 39.6606 21.5708 39.8599 21.5708 40.1057V41.2066C21.5708 41.4524 21.7701 41.6517 22.0159 41.6517H29.1943C29.4401 41.6517 29.6394 41.4524 29.6394 41.2066V40.1057C29.6394 39.8599 29.4401 39.6606 29.1943 39.6606Z" fill="#0062FF"/>
<path d="M29.201 43.4505H22.0091C21.7671 43.4505 21.5708 43.6468 21.5708 43.8889V44.9429C21.5708 45.185 21.7671 45.3813 22.0091 45.3813H29.201C29.4431 45.3813 29.6394 45.185 29.6394 44.9429V43.8889C29.6394 43.6468 29.4431 43.4505 29.201 43.4505Z" fill="#92929D"/>
<path d="M29.201 47.2399H22.0091C21.7671 47.2399 21.5708 47.4362 21.5708 47.6783V48.7323C21.5708 48.9744 21.7671 49.1707 22.0091 49.1707H29.201C29.4431 49.1707 29.6394 48.9744 29.6394 48.7323V47.6783C29.6394 47.4362 29.4431 47.2399 29.201 47.2399Z" fill="#FC5A5A"/>
<path d="M29.201 51.0298H22.0091C21.7671 51.0298 21.5708 51.2261 21.5708 51.4682V52.5222C21.5708 52.7643 21.7671 52.9606 22.0091 52.9606H29.201C29.4431 52.9606 29.6394 52.7643 29.6394 52.5222V51.4682C29.6394 51.2261 29.4431 51.0298 29.201 51.0298Z" fill="#92929D"/>
<path d="M25.5041 34.429C27.4946 34.429 29.1083 32.797 29.1083 30.7838C29.1083 28.7707 27.4946 27.1387 25.5041 27.1387C23.5136 27.1387 21.8999 28.7707 21.8999 30.7838C21.8999 32.797 23.5136 34.429 25.5041 34.429Z" fill="#FF974A"/>
<path d="M25.5042 34.4295C26.543 34.4301 27.5289 33.9659 28.1972 33.1617C27.6706 32.1506 26.6336 31.5176 25.5036 31.5176C24.3737 31.5176 23.3367 32.1506 22.8101 33.1617C23.4788 33.9661 24.465 34.4303 25.5042 34.4295Z" fill="#242F57"/>
<path d="M25.524 31.6622C26.2726 31.6622 26.8795 31.0484 26.8795 30.2913C26.8795 29.5342 26.2726 28.9204 25.524 28.9204C24.7753 28.9204 24.1685 29.5342 24.1685 30.2913C24.1685 31.0484 24.7753 31.6622 25.524 31.6622Z" fill="#242F57"/>
<path d="M95.0337 27.2722C95.0337 22.3449 91.0383 18.3087 86.1096 18.3087C81.1808 18.3087 77.1851 22.3449 77.1851 27.2722C77.1851 29.2223 78.2206 31.7412 79.8833 33.5984C81.5321 35.4386 82.0017 38.5367 82.0017 41.0071V41.9757H90.2174V41.0152C90.2174 38.5448 90.687 35.4526 92.3274 33.6065C93.9956 31.7302 95.0337 28.9875 95.0337 27.2722Z" fill="#FFC542"/>
<path d="M93.5644 27.2478C93.5644 23.1323 90.2275 19.7601 86.109 19.7601C81.9905 19.7601 78.6543 23.1319 78.6543 27.2478C78.6543 28.8783 79.5189 30.9816 80.9083 32.533C82.2855 34.0705 83.3082 36.6585 83.3082 38.7221V39.5306H88.9101V38.7291C88.9101 36.6651 89.9327 34.0819 91.3034 32.5396C92.6972 30.9724 93.5644 28.6813 93.5644 27.2482V27.2478Z" fill="#FF974A"/>
<path d="M88.3744 46.4954H83.8444C83.686 46.4954 83.5416 46.3925 83.4556 46.2235L82.8394 44.6291H89.3801L88.7639 46.2235C88.6776 46.3925 88.5335 46.4954 88.3751 46.4954H88.3744Z" fill="#242F57"/>
<path d="M89.4747 38.2906H82.7443C82.2442 38.2906 81.8389 38.696 81.8389 39.1961V44.4099C81.8389 44.91 82.2442 45.3154 82.7443 45.3154H89.4747C89.9747 45.3154 90.3801 44.91 90.3801 44.4099V39.1961C90.3801 38.696 89.9747 38.2906 89.4747 38.2906Z" fill="#0062FF"/>
<path d="M86.6624 40.1732C86.7457 40.1732 86.8133 40.2407 86.8133 40.324C86.8133 40.4051 86.7493 40.4713 86.669 40.4747L86.6624 40.4748H81.8505C81.7672 40.4748 81.6997 40.4073 81.6997 40.324C81.6997 40.2429 81.7637 40.1767 81.844 40.1733L81.8505 40.1732H86.6624Z" fill="white"/>
<path d="M86.6624 43.2961C86.7457 43.2961 86.8133 43.3636 86.8133 43.4469C86.8133 43.528 86.7493 43.5942 86.669 43.5976L86.6624 43.5978H81.8505C81.7672 43.5978 81.6997 43.5302 81.6997 43.4469C81.6997 43.3658 81.7637 43.2997 81.844 43.2962L81.8505 43.2961H86.6624Z" fill="white"/>
<path d="M90.3524 41.7341C90.4357 41.7341 90.5032 41.8017 90.5032 41.885C90.5032 41.9661 90.4392 42.0322 90.3589 42.0357L90.3524 42.0358H85.5405C85.4572 42.0358 85.3896 41.9683 85.3896 41.885C85.3896 41.8039 85.4537 41.7377 85.5339 41.7343L85.5405 41.7341H90.3524Z" fill="white"/>
<path d="M86.718 23.6697L83.354 28.7939C83.173 29.0718 83.3676 29.4134 83.6937 29.4134H85.2007L83.3479 32.9132C83.2098 33.1962 83.566 33.4587 83.7844 33.235L88.8234 28.1727C89.0804 27.9092 88.8979 27.4592 88.5341 27.4592H86.2554L87.2087 23.8932C87.2832 23.5888 86.8875 23.4102 86.718 23.6697Z" fill="white"/>
<path fill-rule="evenodd" clip-rule="evenodd" d="M61.435 89.2797L55.3765 108.312H59.0393L65.0979 89.2797H61.435Z" fill="#0062FF"/>
<path fill-rule="evenodd" clip-rule="evenodd" d="M52.7956 91.4438H48.9072H46.4561C46.2648 91.4438 46.1099 91.5988 46.1099 91.79V94.2412V103.351V105.802C46.1099 105.994 46.2648 106.149 46.4561 106.149H48.9072H52.7956C52.9868 106.149 53.1418 105.994 53.1418 105.802V103.697C53.1418 103.506 52.9868 103.351 52.7956 103.351H48.9072V94.2412H52.7956C52.9868 94.2412 53.1418 94.0862 53.1418 93.895V91.79C53.1418 91.5988 52.9868 91.4438 52.7956 91.4438Z" fill="#CCD7EE"/>
<path fill-rule="evenodd" clip-rule="evenodd" d="M74.0178 91.4438H71.5666H67.6782C67.487 91.4438 67.332 91.5988 67.332 91.79V93.895C67.332 94.0862 67.487 94.2412 67.6782 94.2412H71.5666V103.351H67.6782C67.487 103.351 67.332 103.506 67.332 103.697V105.802C67.332 105.994 67.487 106.149 67.6782 106.149H71.5666H74.0178C74.209 106.149 74.364 105.994 74.364 105.802V103.697V93.895V91.79C74.364 91.5988 74.209 91.4438 74.0178 91.4438Z" fill="#CCD7EE"/>
<g clip-path="url(#clip0)">
<path fill-rule="evenodd" clip-rule="evenodd" d="M68.1405 82.9615C69.9965 85.5385 73.5357 86.2138 76.205 84.5003L100.389 68.9814C103.946 66.6989 104.859 61.8871 102.386 58.454C99.9426 55.0617 95.1768 54.3873 91.8925 56.969L69.2979 74.7349C66.7724 76.7205 66.2616 80.3526 68.1405 82.9615Z" fill="#FFC999"/>
<path fill-rule="evenodd" clip-rule="evenodd" d="M86.0543 79.2942L101.416 69.5218C104.66 66.993 104.661 60.5066 102.083 57.2987C99.5039 54.0914 94.8039 53.6282 91.6522 56.2713L77.2525 68.3464C77.2525 68.3464 81.5617 77.075 86.0543 79.2942Z" fill="#0062FF"/>
<path fill-rule="evenodd" clip-rule="evenodd" d="M57.9453 48.4159C56.3923 49.2213 55.684 51.0631 56.2952 52.7064L67.0408 81.5868C68.2753 84.9033 72.0929 86.4281 75.2623 84.8705C78.3598 83.3481 79.5304 79.517 77.8149 76.5152L62.5309 49.7711C61.6106 48.1606 59.5893 47.5631 57.9453 48.4159Z" fill="#FFC999"/>
<path fill-rule="evenodd" clip-rule="evenodd" d="M110.583 55.0115L106.693 50.7537L107.92 36.7413L118.797 37.7575L118.743 51.6238L110.583 55.0115Z" fill="#FFC999"/>
<path fill-rule="evenodd" clip-rule="evenodd" d="M105.14 35.3578C105.14 35.3578 103.525 33.5764 102.788 34.7195C102.051 35.8631 103.153 40.0647 104.956 40.2276C107.365 40.4454 105.14 35.3578 105.14 35.3578Z" fill="#FFC999"/>
<path fill-rule="evenodd" clip-rule="evenodd" d="M115.329 46.3461C115.329 46.3461 111.695 49.1494 107.087 46.1185C103.771 43.9367 103.584 36.4032 104.405 30.9035C104.87 27.7912 106.357 26.1554 109.422 25.3252C112.487 24.4949 120.721 24.7192 120.49 33.9123C120.233 44.1521 115.329 46.3461 115.329 46.3461Z" fill="#FFC999"/>
<path d="M109.66 32.5152L109.63 32.519C109.55 32.5368 109.496 32.6094 109.499 32.6888L109.502 32.7189L109.925 34.6407L108.734 39.8109C108.712 39.904 108.772 39.9941 108.862 40.0128L108.89 40.0162L111.085 40.1033C111.177 40.1069 111.255 40.0349 111.259 39.9424C111.262 39.8591 111.204 39.7876 111.125 39.7715L111.098 39.7682L109.105 39.6889L110.259 34.6789C110.263 34.6627 110.264 34.6461 110.263 34.6297L110.259 34.6051L109.829 32.6467C109.811 32.5663 109.739 32.5122 109.66 32.5152Z" fill="#DD936F"/>
<path d="M111.77 32.0765C111.735 32.321 111.905 32.547 112.149 32.5814L113.614 32.7958L113.802 32.8227C115.231 33.0241 116.099 33.0963 116.619 33.0096C116.861 32.9691 117.025 32.7388 116.985 32.4953C116.947 32.2661 116.741 32.1068 116.515 32.1227L116.388 32.139C116.013 32.1785 115.328 32.1253 114.308 31.9897L113.642 31.8967L112.273 31.6961C112.029 31.6618 111.804 31.8321 111.77 32.0765Z" fill="#242F57"/>
<path d="M112.858 41.4455C112.829 41.3193 112.704 41.24 112.579 41.2684L112.495 41.2849L112.462 41.2908C112.362 41.3085 112.244 41.3263 112.108 41.343C111.195 41.4551 110.085 41.4582 108.832 41.2791C108.704 41.2609 108.586 41.3499 108.568 41.4779C108.55 41.6059 108.639 41.7245 108.766 41.7427C110.062 41.9279 111.213 41.9248 112.165 41.8078L112.329 41.786C112.381 41.7786 112.43 41.7711 112.476 41.7634L112.641 41.7338C112.657 41.7305 112.671 41.7276 112.681 41.7253C112.807 41.6969 112.886 41.5717 112.858 41.4455Z" fill="#FC5A5A"/>
<path fill-rule="evenodd" clip-rule="evenodd" d="M119.328 37.8204L121.22 34.333C121.22 34.333 122.504 29.2618 121.392 27.0303C119.664 23.5677 115.476 23.534 113.019 22.5506C110.561 21.5667 110.61 20.7289 109.598 20.8385C108.586 20.9476 104.603 23.5602 104.08 26.4009C103.62 28.8984 104.067 35.3098 104.067 35.3098C104.067 35.3098 104.939 29.6701 105.527 28.1912C107.52 27.4256 114.675 27.5988 117.634 28.6113C117.634 28.6113 117.835 30.5463 117.944 31.9081C119.509 33.1027 119.328 37.8204 119.328 37.8204Z" fill="#242F57"/>
<path d="M107.03 45.797C106.97 45.7268 106.865 45.7188 106.795 45.7791C106.725 45.8394 106.717 45.9453 106.777 46.0155C106.823 46.0689 106.91 46.1574 107.04 46.2691C107.255 46.4526 107.514 46.6355 107.818 46.8058C109.456 47.7221 111.646 47.9159 114.407 46.9458C114.494 46.9152 114.54 46.8196 114.51 46.7322C114.479 46.6448 114.384 46.5988 114.297 46.6294C111.626 47.5677 109.536 47.3826 107.981 46.513C107.696 46.3538 107.455 46.1836 107.258 46.0141L107.178 45.9437C107.106 45.8781 107.057 45.8276 107.03 45.797Z" fill="#DD936F"/>
<path d="M109.731 34.3087C109.547 34.2956 109.387 34.4348 109.374 34.6195C109.362 34.7919 109.482 34.9431 109.648 34.9731L109.684 34.9777L111.297 35.0924C111.481 35.1055 111.641 34.9664 111.654 34.7817C111.667 34.6093 111.547 34.4581 111.381 34.428L111.345 34.4235L109.731 34.3087Z" fill="#242F57"/>
<path d="M111.131 35.4332C110.793 35.2756 110.447 35.1913 110.106 35.2251C109.818 35.2536 109.555 35.3672 109.334 35.5739C109.199 35.7003 109.192 35.9124 109.318 36.0478C109.444 36.1832 109.655 36.1906 109.79 36.0642C109.901 35.961 110.026 35.9069 110.172 35.8925C110.374 35.8724 110.61 35.9298 110.849 36.0412C110.976 36.1006 111.073 36.1593 111.122 36.1942C111.272 36.3017 111.481 36.2666 111.588 36.1158C111.695 35.965 111.66 35.7556 111.51 35.6481C111.43 35.5911 111.3 35.5118 111.131 35.4332Z" fill="#242F57"/>
<path d="M108.634 31.522C107.864 31.2103 107.083 31.0393 106.336 31.0869C105.809 31.1204 105.322 31.2637 104.888 31.5318C104.678 31.6614 104.613 31.9367 104.742 32.1469C104.872 32.3571 105.146 32.4224 105.356 32.2929C105.659 32.1056 106.005 32.0037 106.392 31.979C106.987 31.9412 107.644 32.0851 108.301 32.3511C108.467 32.4183 108.623 32.4893 108.766 32.5609L108.871 32.6147C108.972 32.6675 109.041 32.7073 109.074 32.7277C109.284 32.857 109.558 32.7914 109.687 32.5811C109.816 32.3708 109.751 32.0955 109.541 31.9662L109.446 31.9098C109.256 31.8006 108.978 31.661 108.634 31.522Z" fill="#242F57"/>
<path d="M109.722 42.9722C109.629 42.9668 109.55 43.0374 109.545 43.1298C109.54 43.213 109.597 43.2856 109.675 43.3032L109.702 43.3069L111.017 43.3838C111.11 43.3891 111.189 43.3186 111.194 43.2261C111.199 43.1429 111.142 43.0704 111.064 43.0528L111.037 43.049L109.722 42.9722Z" fill="#DD936F"/>
<path d="M117.32 34.7584C117.136 34.7487 116.979 34.8907 116.969 35.0756C116.96 35.2482 117.083 35.3972 117.249 35.4242L117.285 35.4281L119.933 35.5676C120.117 35.5774 120.275 35.4353 120.284 35.2504C120.293 35.0778 120.17 34.9288 120.004 34.9018L119.968 34.898L117.32 34.7584Z" fill="#242F57"/>
<path fill-rule="evenodd" clip-rule="evenodd" d="M117.135 34.5577L112.081 34.2636C111.729 34.243 111.426 34.5122 111.408 34.8658C111.375 35.5266 111.35 36.5873 111.469 37.5037C111.609 38.5841 112.529 39.2945 113.61 39.4078C114.96 39.5497 116.174 39.6214 116.83 38.9526C117.827 37.9336 117.701 36.1531 117.735 35.2161C117.748 34.8723 117.478 34.5773 117.135 34.5577Z" fill="white"/>
<path d="M112.087 34.1518L117.141 34.4459C117.545 34.4691 117.861 34.8157 117.846 35.22L117.841 35.4408L117.835 35.841C117.824 36.4357 117.803 36.7678 117.738 37.1768C117.614 37.9542 117.356 38.5746 116.909 39.0307C116.314 39.6376 115.445 39.7128 113.599 39.5187C112.419 39.395 111.5 38.6105 111.358 37.5179C111.258 36.7394 111.248 35.8166 111.296 34.8598C111.318 34.4447 111.673 34.1276 112.087 34.1518ZM112.075 34.3748C111.798 34.3587 111.56 34.5575 111.523 34.826L111.519 34.8712C111.472 35.8156 111.481 36.7266 111.579 37.4891C111.707 38.4724 112.539 39.183 113.622 39.2965L113.863 39.3209C115.473 39.4755 116.248 39.3866 116.75 38.8741C117.16 38.4559 117.4 37.8771 117.518 37.1415L117.54 36.9956C117.586 36.6599 117.603 36.3472 117.612 35.8347L117.622 35.2452C117.623 35.2341 117.623 35.223 117.624 35.2118C117.634 34.9293 117.411 34.6852 117.129 34.6689L112.075 34.3748Z" fill="#242F57"/>
<path d="M113.604 35.6051C113.481 35.598 113.376 35.6922 113.369 35.8155C113.328 36.5159 113.799 37.1243 114.437 37.1619C115.075 37.199 115.613 36.6491 115.653 35.9485C115.66 35.8252 115.566 35.7195 115.443 35.7124C115.32 35.7052 115.215 35.7994 115.208 35.9227C115.181 36.3892 114.841 36.7374 114.463 36.7155C114.085 36.6932 113.787 36.3078 113.814 35.8413C113.821 35.718 113.727 35.6122 113.604 35.6051Z" fill="#242F57"/>
<path fill-rule="evenodd" clip-rule="evenodd" d="M109.256 34.0423L103.535 33.7093C103.274 34.5354 103.291 37.7901 104.233 38.5422C105.508 39.3097 108.182 39.1655 108.636 38.4855C109.324 37.4538 109.674 35.4298 109.714 34.5522C109.726 34.2848 109.523 34.0577 109.256 34.0423Z" fill="white"/>
<path d="M103.541 33.5981L109.262 33.931C109.589 33.95 109.839 34.2289 109.825 34.5576C109.768 35.8009 109.324 37.6541 108.728 38.5479C108.212 39.3216 105.441 39.4002 104.175 38.6382C103.322 37.9581 103.049 34.8766 103.428 33.6759C103.443 33.6272 103.49 33.5951 103.541 33.5981ZM103.617 33.8263L103.602 33.8808C103.307 35.092 103.579 37.8784 104.302 38.4551C105.466 39.1545 108.105 39.0796 108.543 38.4237C109.112 37.5702 109.548 35.7537 109.602 34.5475C109.611 34.3408 109.455 34.166 109.249 34.1541L103.617 33.8263Z" fill="#242F57"/>
<path d="M106.463 35.1893C106.34 35.1821 106.234 35.2762 106.227 35.3994C106.186 36.1001 106.657 36.709 107.295 36.7461C107.933 36.7832 108.471 36.2332 108.511 35.5327C108.518 35.4094 108.425 35.3037 108.302 35.2965C108.179 35.2894 108.073 35.3836 108.066 35.5069C108.039 35.9732 107.699 36.3216 107.321 36.2996C106.943 36.2777 106.645 35.8921 106.672 35.4256C106.679 35.3023 106.586 35.1965 106.463 35.1893Z" fill="#242F57"/>
<path d="M111.418 34.0891C111.234 34.0833 111.08 34.2285 111.074 34.4136C111.068 34.5864 111.194 34.7327 111.361 34.7563L111.397 34.7594L117.671 34.9594C117.856 34.9652 118.01 34.82 118.016 34.6349C118.021 34.4621 117.896 34.3158 117.729 34.2922L117.692 34.2891L111.418 34.0891Z" fill="#242F57"/>
<path d="M103.504 33.4986C103.32 33.4853 103.16 33.6242 103.147 33.8089C103.134 33.9813 103.254 34.1326 103.42 34.1629L103.456 34.1675L109.59 34.6114C109.774 34.6247 109.934 34.4858 109.947 34.3011C109.96 34.1287 109.84 33.9774 109.674 33.9471L109.638 33.9426L103.504 33.4986Z" fill="#242F57"/>
<path fill-rule="evenodd" clip-rule="evenodd" d="M120.217 34.9831C120.876 34.3266 121.883 34.1603 122.579 34.9442C123.7 36.2072 122.556 40.8059 119.467 40.9427C118.298 40.7586 119.188 36.0073 120.217 34.9831Z" fill="#FFC999"/>
<path fill-rule="evenodd" clip-rule="evenodd" d="M123.391 92.5514C123.391 92.5514 126.161 78.6425 127.387 73.5043C128.613 68.3657 130.475 56.0635 128.358 55.1423C126.241 54.2212 121.173 52.2651 121.173 52.2651C121.173 52.2651 116.146 52.9128 111.604 53.8826C108.009 54.6506 109.03 51.2653 104.671 51.9874C102.826 52.2937 97.0325 53.2092 94.1404 54.7916C92.9806 55.4261 93.1678 59.2793 93.003 63.0247C92.4772 74.9794 95.3856 93.296 95.3856 93.296C95.3856 93.296 93.6609 95.0736 95.7517 97.3791C96.7878 98.4585 101.273 98.0928 107.016 98.1068C113.552 98.1227 121.241 98.946 122.667 97.6994C125.347 95.3579 123.391 92.5514 123.391 92.5514Z" fill="#0062FF"/>
<path fill-rule="evenodd" clip-rule="evenodd" d="M106.521 50.1906L110.903 54.4099L105.644 58.102L103.366 52.4759L106.521 50.1906Z" fill="#0062FF"/>
<path fill-rule="evenodd" clip-rule="evenodd" d="M118.501 208.978L109.29 121.523L108.923 121.342L99.254 209.179C99.254 209.179 92.0448 210.855 88.2352 208.561C88.0867 191.53 92.0849 136.207 93.777 110.943C94.0492 106.875 95.2959 101.346 95.5448 99.8095C107.119 97.8477 122.8 100.677 122.8 100.677L123.477 102.716C123.609 103.113 123.689 103.525 123.714 103.943L130.981 208.114C130.981 208.114 123.858 210.701 118.501 208.978Z" fill="#92929D"/>
<path d="M103.022 117.956C102.939 117.915 102.839 117.95 102.798 118.033C102.762 118.107 102.785 118.194 102.849 118.241L102.875 118.257L109.851 121.676C109.934 121.717 110.034 121.682 110.074 121.599C110.11 121.525 110.087 121.438 110.023 121.391L109.998 121.375L103.022 117.956Z" fill="#0062FF"/>
<path fill-rule="evenodd" clip-rule="evenodd" d="M122.737 97.6631C122.737 97.6631 107.999 95.4785 95.7473 97.6308C95.6464 98.72 95.5414 100.061 95.5414 100.061C95.5414 100.061 106.025 100.785 122.975 101.204C122.927 98.248 122.737 97.6631 122.737 97.6631Z" fill="#92929D"/>
<path d="M117.962 100.786C112.594 100.348 107.083 100.179 101.936 100.437C99.7737 100.545 97.7332 100.728 95.8352 100.991C95.7437 101.004 95.6798 101.089 95.6925 101.18C95.7052 101.272 95.7896 101.336 95.881 101.324C97.7688 101.061 99.7996 100.879 101.953 100.771C107.083 100.515 112.58 100.683 117.935 101.12L118.785 101.192C119.617 101.264 120.395 101.34 121.111 101.416L121.913 101.504L122.485 101.571C122.539 101.578 122.581 101.583 122.609 101.587C122.7 101.599 122.784 101.534 122.796 101.442C122.808 101.35 122.743 101.266 122.652 101.254L122.322 101.214C122.091 101.186 121.827 101.156 121.533 101.124L120.904 101.057C120.011 100.964 119.025 100.872 117.962 100.786Z" fill="#0062FF"/>
<path d="M118.022 97.0939C112.653 96.6558 107.142 96.4873 101.996 96.7449C99.8332 96.8532 97.7927 97.036 95.8947 97.2997C95.8033 97.3124 95.7394 97.3971 95.7521 97.4888C95.7647 97.5805 95.8491 97.6446 95.9406 97.6319C97.8284 97.3696 99.8592 97.1876 102.013 97.0798C107.143 96.823 112.64 96.9911 117.995 97.4281L118.565 97.4758C119.41 97.548 120.2 97.6232 120.93 97.6989L121.839 97.7971L122.668 97.8952C122.76 97.9071 122.844 97.8422 122.856 97.7504C122.867 97.6585 122.803 97.5745 122.711 97.5627L122.381 97.5223C122.189 97.4994 121.974 97.4746 121.737 97.4483L120.964 97.3654C120.07 97.2726 119.085 97.1806 118.022 97.0939Z" fill="#0062FF"/>
<path d="M107.971 97.3236C107.878 97.3215 107.802 97.3947 107.799 97.4872L107.781 98.362C107.774 98.7374 107.767 99.1511 107.76 99.5991C107.705 103.311 107.701 107.25 107.784 110.94L107.805 111.78C107.895 115.187 108.059 118.044 108.309 120.186C108.32 120.278 108.403 120.344 108.495 120.333C108.587 120.322 108.652 120.239 108.641 120.147L108.602 119.795C108.356 117.528 108.199 114.513 108.118 110.933C108.042 107.531 108.039 103.916 108.082 100.464L108.097 99.4145L108.134 97.4955C108.136 97.403 108.063 97.3261 107.971 97.3236Z" fill="#0062FF"/>
<path fill-rule="evenodd" clip-rule="evenodd" d="M105.104 98.5368C105.098 98.9536 105.355 99.2959 105.678 99.3015C106.001 99.3067 106.269 98.9728 106.275 98.5555C106.282 98.1387 106.025 97.7964 105.702 97.7908C105.378 97.7856 105.111 98.1195 105.104 98.5368Z" fill="white"/>
<path fill-rule="evenodd" clip-rule="evenodd" d="M110.879 54.0662L114.935 59.4189L120.996 52.2764L118.776 49.4938L110.879 54.0662Z" fill="#0062FF"/>
<path d="M110.697 54.3559C110.581 54.3132 110.453 54.3726 110.411 54.4885L110.368 54.6134L110.327 54.747C110.312 54.7954 110.297 54.8477 110.281 54.9039L110.256 54.9913C110.154 55.3529 110.043 55.7975 109.924 56.3317L109.858 56.6319C109.461 58.4873 109.063 60.9404 108.691 64.0685L108.592 64.922C108.192 68.4587 107.849 72.6131 107.578 77.4348L107.556 77.8381C107.152 85.1874 107.246 91.4924 107.597 96.2052C107.607 96.3284 107.714 96.4207 107.836 96.4115C107.959 96.4023 108.051 96.295 108.042 96.1718L108.007 95.689C107.692 91.1316 107.615 85.1573 107.981 78.2345L108.001 77.8627C108.275 72.8775 108.625 68.5986 109.035 64.9727L109.102 64.3904C109.482 61.1467 109.888 58.6198 110.294 56.7259L110.359 56.4298C110.465 55.9512 110.565 55.5466 110.658 55.2112L110.685 55.1127C110.718 54.9964 110.747 54.8962 110.774 54.8113L110.819 54.6713C110.823 54.6586 110.827 54.6492 110.829 54.643C110.872 54.5271 110.812 54.3985 110.697 54.3559Z" fill="#242F57"/>
<path d="M92.9701 62.1497C92.8614 62.0584 92.7083 62.0748 92.6196 62.1828C92.5819 62.2286 92.5617 62.2803 92.5456 62.3474C92.5273 62.424 92.5138 62.5312 92.5042 62.6719L92.4997 62.745C92.4833 63.0406 92.4806 63.4704 92.4917 64.0208L92.4978 64.2833C92.5344 65.679 92.647 67.6785 92.8283 70.0796L92.896 70.9549C93.3486 76.6755 94.104 83.7769 95.1183 91.4922L95.2267 92.3088L95.1853 92.4156L95.1494 92.5123C95.0754 92.7154 95.0015 92.9401 94.9325 93.1803C94.765 93.7635 94.6531 94.3428 94.6232 94.8881C94.5731 95.799 94.7553 96.5404 95.2386 97.0409C95.3243 97.1296 95.4654 97.1319 95.5539 97.046C95.6423 96.9601 95.6446 96.8185 95.5589 96.7298C95.1778 96.3352 95.0245 95.7111 95.0684 94.9127C95.0963 94.4051 95.202 93.8575 95.361 93.3041C95.4138 93.1203 95.4696 92.9461 95.5259 92.7845L95.6019 92.5751C95.6277 92.5066 95.6479 92.456 95.6607 92.4256C95.6761 92.3888 95.6815 92.3486 95.6763 92.309L95.5034 90.9982C94.4997 83.3139 93.7558 76.2582 93.3153 70.5979L93.2557 69.8156C93.0964 67.6765 92.9932 65.8705 92.9516 64.5476L92.9379 64.0291C92.9274 63.52 92.9288 63.1169 92.9417 62.8332L92.9449 62.7698C92.95 62.6784 92.9564 62.6027 92.9636 62.5445L92.9715 62.4907L92.9749 62.4885L92.9979 62.4647C93.077 62.3701 93.0645 62.229 92.9701 62.1497Z" fill="#242F57"/>
<path d="M104.333 61.1819L104.64 61.2084C104.739 61.2174 104.835 61.2265 104.927 61.2356L105.379 61.284L105.517 61.3006C105.64 61.3164 105.729 61.4247 105.721 61.5481L105.181 69.8903C105.176 69.9695 105.131 70.0407 105.062 70.0795L100.556 72.6078C100.479 72.6512 100.384 72.647 100.311 72.5969L96.8302 70.2137C96.7666 70.1702 96.7285 70.098 96.7284 70.0208L96.7316 68.5026L96.7369 67.5343C96.7478 65.8568 96.7684 63.9897 96.8008 61.9661C96.8022 61.8759 96.8552 61.7945 96.9369 61.757C97.8158 61.353 99.0852 61.1406 100.649 61.0809C101.831 61.0357 103.095 61.0802 104.333 61.1819ZM100.501 61.5558C99.1795 61.6167 98.0919 61.7935 97.3183 62.1026L97.2654 62.1243L97.2361 64.1807C97.2227 65.2495 97.2128 66.2648 97.206 67.2209L97.1965 69.03L97.1954 69.8965L100.454 72.128L104.723 69.7329L105.241 61.7393L105.144 61.7289C104.892 61.7016 104.606 61.6742 104.295 61.6487C103.074 61.5484 101.828 61.5045 100.667 61.5488L100.501 61.5558Z" fill="#242F57"/>
<path fill-rule="evenodd" clip-rule="evenodd" d="M110.564 58.0894C110.557 58.5066 110.833 58.849 111.179 58.8546C111.526 58.8602 111.812 58.5268 111.819 58.1095C111.825 57.6927 111.55 57.3499 111.203 57.3443C110.856 57.3387 110.57 57.6721 110.564 58.0894Z" fill="white"/>
<path fill-rule="evenodd" clip-rule="evenodd" d="M109.562 65.7527C109.556 66.1695 109.831 66.5123 110.178 66.5179C110.524 66.5235 110.81 66.1901 110.817 65.7728C110.824 65.356 110.548 65.0132 110.202 65.0076C109.855 65.002 109.569 65.3354 109.562 65.7527Z" fill="white"/>
<path fill-rule="evenodd" clip-rule="evenodd" d="M108.928 74.0507C108.921 74.468 109.197 74.8103 109.543 74.8159C109.89 74.8215 110.176 74.4881 110.183 74.0709C110.19 73.6541 109.914 73.3113 109.568 73.3057C109.221 73.3 108.934 73.6339 108.928 74.0507Z" fill="white"/>
<path fill-rule="evenodd" clip-rule="evenodd" d="M108.676 81.8513C108.67 82.2681 108.945 82.6109 109.292 82.6165C109.638 82.6222 109.925 82.2887 109.932 81.8715C109.938 81.4547 109.663 81.1119 109.316 81.1063C108.97 81.1007 108.683 81.4341 108.676 81.8513Z" fill="white"/>
<path fill-rule="evenodd" clip-rule="evenodd" d="M108.637 92.1733C108.631 92.5906 108.906 92.9329 109.253 92.9385C109.599 92.9441 109.885 92.6107 109.892 92.1935C109.899 91.7767 109.624 91.4339 109.277 91.4283C108.93 91.4226 108.644 91.7561 108.637 92.1733Z" fill="white"/>
<path d="M121.061 52.3243C120.976 52.2517 120.852 52.2546 120.77 52.3266L120.747 52.3502L115.06 59.0763L111 54.3393C110.927 54.2542 110.804 54.2376 110.712 54.2958L110.685 54.3155C110.601 54.3887 110.584 54.512 110.642 54.6042L110.662 54.6308L114.892 59.5667C114.974 59.6623 115.116 59.6698 115.208 59.5896L115.231 59.5656L121.087 52.6394C121.167 52.5452 121.155 52.4041 121.061 52.3243Z" fill="#242F57"/>
<path d="M104.084 52.6269C104.047 52.5092 103.922 52.4442 103.804 52.4816C103.697 52.516 103.633 52.6245 103.652 52.733L103.66 52.7625L105.431 58.3456C105.475 58.4835 105.634 58.5417 105.755 58.4718L105.78 58.4549L110.8 54.5755C110.898 54.5001 110.916 54.3597 110.841 54.2619C110.773 54.173 110.651 54.1498 110.556 54.203L110.528 54.2212L105.76 57.9058L104.084 52.6269Z" fill="#242F57"/>
<path d="M104.303 100.555C104.212 100.541 104.127 100.604 104.113 100.696L104.07 101.016L104.06 101.098C104.02 101.419 103.98 101.782 103.943 102.181C103.773 104.001 103.715 105.878 103.836 107.634C104.118 111.729 105.306 114.328 107.717 114.657C107.808 114.67 107.893 114.605 107.905 114.514C107.918 114.422 107.854 114.337 107.762 114.325C105.567 114.025 104.441 111.562 104.169 107.611C104.05 105.876 104.107 104.016 104.275 102.212L104.308 101.882C104.329 101.668 104.352 101.467 104.374 101.278L104.411 100.983L104.444 100.745C104.457 100.654 104.394 100.569 104.303 100.555Z" fill="#0062FF"/>
<path d="M121.608 35.6182C121.573 35.5324 121.476 35.4909 121.39 35.5256L121.332 35.5516C121.297 35.5681 121.254 35.5897 121.205 35.6166C121.071 35.6908 120.937 35.7807 120.811 35.8873C120.348 36.2793 120.116 36.7872 120.259 37.4021C120.313 37.635 120.42 37.7594 120.619 37.878L120.704 37.9262C120.875 38.0197 120.917 38.066 120.933 38.2111C120.963 38.4897 120.837 38.6979 120.594 38.8575C120.513 38.9106 120.426 38.9537 120.338 38.9872L120.26 39.0146C120.246 39.0189 120.235 39.022 120.227 39.0239C120.138 39.0459 120.083 39.1366 120.105 39.2265C120.126 39.3165 120.217 39.3716 120.307 39.3496C120.428 39.3198 120.602 39.2534 120.777 39.1379C121.116 38.9151 121.31 38.5944 121.265 38.1749C121.237 37.9153 121.136 37.7899 120.914 37.66L120.831 37.6139C120.674 37.5271 120.618 37.4683 120.585 37.3261C120.474 36.8498 120.652 36.4614 121.027 36.1435C121.135 36.0522 121.251 35.9744 121.367 35.9103C121.436 35.8722 121.488 35.8476 121.516 35.8365C121.601 35.8017 121.642 35.704 121.608 35.6182Z" fill="#DD936F"/>
<path fill-rule="evenodd" clip-rule="evenodd" d="M62.8799 50.5678C62.8799 50.5678 58.0772 36.2088 52.6395 32.7237C51.0206 32.7837 52.5386 34.9224 53.6653 36.6724C54.2414 37.5673 54.6215 38.6978 54.6215 38.6978C54.6215 38.6978 52.4013 38.4651 52.8272 40.3551C51.0482 40.2689 51.6921 42.2658 51.6921 42.2658C51.6921 42.2658 50.3245 42.2686 50.7643 44.1235C51.0664 45.3987 52.7795 46.9038 53.1722 48.2455C54.6864 53.4192 57.1737 53.7054 58.1724 53.8641C60.7003 54.265 62.2523 53.2998 62.8799 50.5678Z" fill="#FFC999"/>
<path d="M59.759 44.0834L57.8124 39.8555L57.7638 39.6725C57.3331 38.1211 56.6505 37.4862 56.066 38.0462C55.5632 38.5279 55.4744 39.7572 55.9247 40.8747C56.8211 43.0989 56.9115 44.1282 56.5892 45.342L56.4827 45.7302C56.4228 45.9601 56.3882 46.1446 56.3738 46.3404C56.3118 47.1804 56.3527 47.9625 56.5858 48.717C56.9263 49.8193 57.6305 50.596 58.775 50.9095C58.8641 50.9339 58.956 50.8812 58.9803 50.7919C59.0046 50.7026 58.9521 50.6104 58.8631 50.586C57.052 50.09 56.5519 48.4712 56.7072 46.3651C56.7181 46.2171 56.7425 46.0743 56.784 45.9031L56.8298 45.7265C56.8445 45.6727 56.8628 45.6071 56.8901 45.5097L56.9328 45.3489C57.2494 44.0963 57.1386 42.9919 56.2346 40.749C55.8305 39.7462 55.909 38.6603 56.2969 38.2887C56.6098 37.9889 57.072 38.4209 57.4479 39.7764L57.4986 39.967L59.4554 44.2238C59.4941 44.3079 59.5934 44.3446 59.6772 44.3059C59.7517 44.2714 59.7889 44.1889 59.7692 44.1119L59.759 44.0834Z" fill="#DD936F"/>
<path d="M52.7533 40.2048C52.6704 40.2455 52.6361 40.3459 52.6767 40.4291L52.7401 40.5556C52.7908 40.6552 52.8487 40.7662 52.9128 40.8856C53.096 41.227 53.2924 41.5684 53.4946 41.8877C53.711 42.2296 53.9215 42.5259 54.1224 42.7639C54.532 43.2493 54.8899 43.487 55.2178 43.3863C55.9544 43.16 56.1805 42.6161 55.9961 41.9092C55.9262 41.6416 55.8009 41.3604 55.636 41.075C55.546 40.9192 55.4498 40.7718 55.3535 40.6371L55.2765 40.5321C55.2545 40.5029 55.2364 40.4797 55.2229 40.4631C55.1646 40.3913 55.0594 40.3804 54.9877 40.4388C54.9161 40.4973 54.9053 40.6029 54.9636 40.6747L55.0323 40.7643C55.0472 40.7845 55.0638 40.8073 55.0818 40.8324C55.1721 40.9588 55.2625 41.0973 55.3467 41.2431C55.4978 41.5045 55.6114 41.7595 55.6726 41.9941C55.8154 42.541 55.6671 42.8976 55.1199 43.0657C54.9708 43.1115 54.7043 42.9345 54.3775 42.5473C54.1878 42.3224 53.9857 42.038 53.7768 41.708C53.5794 41.3962 53.3869 41.0615 53.2072 40.7267L53.1176 40.5575L52.9769 40.2816C52.9363 40.1985 52.8362 40.1641 52.7533 40.2048Z" fill="#DD936F"/>
<path d="M51.9334 42.3084C51.9038 42.2207 51.8089 42.1737 51.7215 42.2034C51.634 42.2331 51.5872 42.3283 51.6168 42.416L51.6545 42.5209L51.7041 42.6498C51.722 42.6949 51.7412 42.7419 51.7617 42.7907C51.8787 43.0696 52.0142 43.3487 52.1668 43.6101C52.6409 44.4219 53.1761 44.9014 53.7867 44.853C54.3873 44.8054 54.6677 44.4114 54.6838 43.831C54.6897 43.6196 54.6607 43.397 54.6089 43.1761C54.5806 43.0555 54.5521 42.9617 54.5323 42.9061C54.5013 42.8189 54.4056 42.7735 54.3187 42.8047C54.2317 42.8358 54.1864 42.9317 54.2175 43.0189L54.236 43.0755C54.25 43.121 54.2667 43.1813 54.2834 43.2529C54.3291 43.4478 54.3546 43.643 54.3496 43.8216C54.3379 44.2471 54.1674 44.4865 53.7603 44.5187C53.3197 44.5537 52.87 44.1508 52.4553 43.4406C52.3108 43.1931 52.1816 42.9269 52.0698 42.6606L52.0149 42.5261L51.9462 42.3449C51.9405 42.3289 51.9362 42.3167 51.9334 42.3084Z" fill="#DD936F"/>
<path d="M50.6772 43.6848C50.5875 43.7068 50.5326 43.7976 50.5546 43.8875L50.5802 43.9834L50.6272 44.1423C50.636 44.1704 50.6452 44.1993 50.6549 44.2289C50.738 44.4827 50.838 44.7366 50.9556 44.9747C51.3915 45.8577 51.9574 46.3175 52.6599 46.0474C53.1575 45.856 53.3525 45.4979 53.2774 45.0558C53.2406 44.8394 53.1421 44.6158 53.0015 44.3917C52.94 44.2936 52.8743 44.2017 52.8084 44.1184L52.7466 44.0428C52.7352 44.0294 52.7256 44.0185 52.718 44.0101C52.6558 43.9417 52.5501 43.9367 52.4819 43.9991C52.4136 44.0614 52.4087 44.1675 52.4709 44.2359L52.5089 44.2802C52.5199 44.2935 52.5325 44.3091 52.5464 44.3267C52.6051 44.401 52.6639 44.4831 52.7186 44.5702C52.8378 44.7603 52.9196 44.946 52.9478 45.1122C52.9966 45.3991 52.8866 45.6011 52.5402 45.7343C52.0534 45.9215 51.6237 45.5723 51.2552 44.8259C51.1453 44.6035 51.051 44.364 50.9725 44.1243C50.9542 44.0683 50.9376 44.0151 50.9229 43.9651L50.8793 43.8078C50.8598 43.7278 50.7861 43.6754 50.707 43.6803L50.6772 43.6848Z" fill="#DD936F"/>
<path d="M77.1368 68.155C77.0315 68.219 76.9979 68.3565 77.0617 68.4621L77.3142 68.8723L77.5519 69.2519C77.7459 69.5596 77.9577 69.8907 78.1851 70.2404C79.0514 71.5731 79.9667 72.9058 80.8899 74.1503C81.5586 75.0518 82.2074 75.8736 82.8278 76.5978C84.0103 77.9778 85.0571 78.9661 85.9413 79.4869C86.0031 79.5233 86.0778 79.5274 86.1423 79.4996L86.1736 79.483L93.4706 74.8459C93.5746 74.7798 93.6055 74.6417 93.5396 74.5374C93.4797 74.4425 93.3604 74.4083 93.261 74.4525L93.2319 74.4682L86.0521 79.0309L85.9924 78.9932C85.2238 78.4961 84.31 77.6266 83.2848 76.4441L83.166 76.3063C82.5529 75.5908 81.9105 74.777 81.2477 73.8834C80.3305 72.647 79.4203 71.3216 78.5586 69.9962L78.3377 69.6546C78.158 69.3754 77.9897 69.1103 77.8339 68.8619L77.6012 68.4884L77.4431 68.2304C77.3793 68.1247 77.2422 68.091 77.1368 68.155Z" fill="#242F57"/>
<path d="M74.042 68.9536C73.9991 68.8716 73.898 68.8401 73.8163 68.8831C73.7437 68.9214 73.7107 69.0058 73.7345 69.0816L73.7461 69.1095L77.6668 76.5934C77.7097 76.6754 77.8108 76.7069 77.8925 76.6638C77.9651 76.6256 77.9981 76.5412 77.9743 76.4654L77.9627 76.4374L74.042 68.9536Z" fill="#DD936F"/>
<path fill-rule="evenodd" clip-rule="evenodd" d="M138.443 94.1445C141.368 92.9218 142.833 89.6212 141.782 86.6227L132.252 59.4595C130.85 55.465 126.389 53.4728 122.491 55.1016C118.639 56.7111 116.894 61.21 118.649 65.007L130.723 91.1324C132.072 94.0527 135.48 95.3822 138.443 94.1445Z" fill="#FFC999"/>
<path fill-rule="evenodd" clip-rule="evenodd" d="M138.048 75.8153L132.077 58.581C130.365 54.8355 124.07 53.3496 120.366 55.1334C116.663 56.9171 115.138 61.4006 116.982 65.0824L125.408 81.9036C125.408 81.9036 134.866 79.6937 138.048 75.8153Z" fill="#0062FF"/>
<path d="M120.901 69.2076C120.852 69.094 120.722 69.0411 120.608 69.0895C120.505 69.1334 120.452 69.2459 120.48 69.3514L120.49 69.3828L125.749 81.7768C125.794 81.8831 125.913 81.9374 126.023 81.9021L126.487 81.7481L126.916 81.6015C127.264 81.4813 127.638 81.3489 128.034 81.2053C129.541 80.6582 131.049 80.0613 132.457 79.4342L132.863 79.2511C135.002 78.2755 136.679 77.3215 137.737 76.4148C137.912 76.2648 138.07 76.1165 138.209 75.9697C138.294 75.8803 138.291 75.7388 138.202 75.6535C138.113 75.5683 137.972 75.5716 137.887 75.661C137.758 75.7963 137.611 75.9343 137.448 76.0747C136.364 77.0033 134.573 78.0024 132.276 79.0255C130.879 79.6478 129.38 80.241 127.882 80.7847L127.496 80.9237C127.181 81.0364 126.881 81.1411 126.6 81.2373L126.08 81.4129L120.901 69.2076Z" fill="#242F57"/>
<path fill-rule="evenodd" clip-rule="evenodd" d="M101.736 90.8929C101.907 92.6378 103.352 93.979 105.1 94.0169L135.828 94.6819C139.357 94.7583 142.181 91.7644 141.91 88.2348C141.645 84.7854 138.528 82.2781 135.113 82.767L104.687 87.1208C102.854 87.383 101.554 89.0459 101.736 90.8929Z" fill="#FFC999"/>
<path fill-rule="evenodd" clip-rule="evenodd" d="M104.251 98.8178L97.4951 77.6221C97.3835 77.2723 97.0622 77.0334 96.6962 77.0287L77.7519 76.7716C77.1636 76.7637 76.7453 77.343 76.9362 77.9012L83.9885 98.534C84.102 98.866 84.4064 99.0941 84.7557 99.1095L103.403 99.93C103.995 99.9557 104.431 99.3835 104.251 98.8178Z" fill="#696974"/>
<path fill-rule="evenodd" clip-rule="evenodd" d="M103.252 98.5594L96.6137 77.7327C96.4788 77.3099 96.0894 77.0205 95.6463 77.0144L76.4681 76.754C76.0568 76.7489 75.764 77.1539 75.8976 77.544L83.0479 98.4624C83.1735 98.8301 83.5102 99.0829 83.8972 99.0998L102.226 99.9062C102.942 99.9376 103.47 99.244 103.252 98.5594Z" fill="#242F57"/>
<path fill-rule="evenodd" clip-rule="evenodd" d="M94.0174 79.0217C93.8031 79.261 93.8801 79.681 94.1897 79.9606C94.4992 80.2397 94.9241 80.272 95.1389 80.0332C95.3532 79.7939 95.2762 79.3734 94.9666 79.0943C94.6571 78.8147 94.2317 78.7824 94.0174 79.0217Z" fill="#92929D"/>
<path fill-rule="evenodd" clip-rule="evenodd" d="M94.2719 79.2714C94.1603 79.3955 94.2005 79.6137 94.3611 79.7589C94.5222 79.9036 94.7426 79.9205 94.8542 79.7964C94.9653 79.6723 94.9251 79.454 94.7645 79.3089C94.6039 79.1642 94.383 79.1473 94.2719 79.2714Z" fill="#F1F1F5"/>
<path fill-rule="evenodd" clip-rule="evenodd" d="M95.818 94.8323C94.7296 94.7265 94.1572 94.2699 94.2604 93.3605C92.9512 92.9474 93.0973 91.8352 93.0973 91.8352C93.0973 91.8352 90.5773 91.7963 90.1534 90.7164C89.9886 90.2969 90.3084 89.8482 90.7566 89.8178C96.1556 89.4506 100.005 86.5814 100.005 86.5814C100.005 86.5814 97.8827 83.4555 98.1073 82.0126C98.1736 81.586 98.7297 81.4483 98.9898 81.7925C101.216 84.7386 105.679 87.0487 105.679 87.0487C105.679 87.0487 111.037 92.0834 105.225 94.3664C105.225 94.3664 100.794 96.137 97.71 95.9127C96.2495 95.8069 95.818 94.8323 95.818 94.8323Z" fill="#FFC999"/>
<path d="M97.0676 90.8754C97.0225 90.7946 96.9207 90.7657 96.8401 90.8109C96.4535 91.0277 96.0017 91.2043 95.4978 91.3439C94.8972 91.5102 94.2523 91.6165 93.6034 91.6744L93.4061 91.6905C93.1518 91.7094 92.9339 91.7181 92.7641 91.7202L92.6386 91.7206C92.5463 91.7193 92.4704 91.7934 92.4692 91.8859C92.468 91.9693 92.5277 92.0392 92.607 92.0533L92.6341 92.0558L92.7029 92.056C92.9289 92.0554 93.249 92.0426 93.633 92.0084C94.3006 91.9489 94.9648 91.8393 95.5868 91.6671C96.115 91.5208 96.5913 91.3346 97.0033 91.1036C97.0838 91.0584 97.1126 90.9562 97.0676 90.8754Z" fill="#DD936F"/>
<path d="M97.5761 92.5393C97.5359 92.4559 97.4359 92.421 97.3528 92.4613C97.3031 92.4854 97.2528 92.509 97.2022 92.5319C96.5611 92.8219 95.8727 93.008 95.1813 93.1101C94.7543 93.1731 94.4122 93.1935 94.1994 93.192C94.1045 93.1907 94.0286 93.2648 94.0274 93.3573C94.0262 93.4407 94.0859 93.5106 94.1651 93.5247L94.1922 93.5273H94.2522L94.3758 93.5245C94.5962 93.5167 94.8876 93.4924 95.23 93.4418C95.9501 93.3355 96.6678 93.1415 97.3396 92.8375C97.393 92.8134 97.4459 92.7886 97.4983 92.7632C97.5814 92.7229 97.6163 92.6227 97.5761 92.5393Z" fill="#DD936F"/>
<path d="M98.537 94.399C98.4968 94.3156 98.3968 94.2808 98.3137 94.3211C98.1359 94.4073 97.7161 94.4878 97.1452 94.5539C96.8533 94.5876 96.54 94.6157 96.2267 94.6385L95.8095 94.6651C95.7173 94.6698 95.6464 94.7486 95.6511 94.8411C95.6557 94.9336 95.7343 95.0047 95.8265 95L96.1689 94.9787L96.2508 94.9729C96.5685 94.9498 96.8863 94.9213 97.1835 94.8869L97.3919 94.8614C97.8949 94.7961 98.2612 94.719 98.4593 94.6229C98.5424 94.5826 98.5772 94.4823 98.537 94.399Z" fill="#DD936F"/>
<path d="M135.091 82.6005L105.424 86.6653C105.332 86.6778 105.268 86.7624 105.281 86.8541C105.292 86.9367 105.361 86.9969 105.442 86.999L105.469 86.9975L135.137 82.9327C135.228 82.9202 135.292 82.8357 135.28 82.7439C135.268 82.6613 135.199 82.6011 135.119 82.599L135.091 82.6005Z" fill="#DD936F"/>
</g>
<path d="M137.658 31.4957H135.73C134.585 31.4957 133.657 32.4239 133.657 33.5689L133.657 35.4963C133.657 36.6412 134.585 37.5694 135.73 37.5694H137.658C138.803 37.5694 139.731 36.6412 139.731 35.4963V33.5689C139.731 32.4239 138.803 31.4957 137.658 31.4957Z" fill="#0062FF"/>
<path d="M128.11 46.5179C128.11 47.5018 128.908 48.2995 129.891 48.2995C130.875 48.2995 131.673 47.5018 131.673 46.5179C131.673 45.5339 130.875 44.7362 129.891 44.7362C128.908 44.7362 128.11 45.5339 128.11 46.5179Z" fill="#0062FF"/>
<path d="M134.977 101.108H132.321C131.176 101.108 130.248 102.037 130.248 103.181L130.248 106.081C130.248 107.226 131.176 108.154 132.321 108.154H134.977C136.122 108.154 137.05 107.226 137.05 106.081V103.181C137.05 102.037 136.122 101.108 134.977 101.108Z" fill="#0062FF"/>
<defs>
<clipPath id="clip0">
<rect x="46" width="125" height="118" rx="59" fill="white"/>
</clipPath>
</defs>
</svg>
