<svg width="162" height="127" viewBox="0 0 162 127" fill="none" xmlns="http://www.w3.org/2000/svg">
<path d="M134.197 15.7992H114.819C114.213 15.7992 113.722 16.289 113.722 16.8932V46.7506C113.722 47.3548 114.213 47.8446 114.819 47.8446H138.919C139.525 47.8446 140.017 47.3548 140.017 46.7506V21.6449L134.197 15.7992Z" fill="#0062FF"/>
<path d="M134.196 15.7536L134.205 20.5531C134.205 21.1573 134.697 21.6471 135.303 21.6471H140.016" fill="#F1F1F5"/>
<path d="M125.417 18.7247H106.084C105.478 18.7247 104.986 19.2145 104.986 19.8187V49.676C104.986 50.2802 105.478 50.77 106.084 50.77H130.23C130.836 50.77 131.327 50.2802 131.327 49.676V25.1169H127.109C126.503 25.1169 125.417 24.6273 125.417 24.0229V18.7247Z" fill="#F1F1F5"/>
<path d="M112.968 21.6384H108.62C108.204 21.6384 107.867 21.9754 107.867 22.391V26.7205C107.867 27.1362 108.204 27.4731 108.62 27.4731H112.968C113.384 27.4731 113.721 27.1362 113.721 26.7205V22.391C113.721 21.9754 113.384 21.6384 112.968 21.6384Z" fill="#0062FF"/>
<path d="M128.081 30.3908H108.14C107.99 30.3908 107.867 30.5132 107.867 30.6641V31.5762C107.867 31.7272 107.99 31.8495 108.14 31.8495H128.081C128.232 31.8495 128.354 31.7272 128.354 31.5762V30.6641C128.354 30.5132 128.232 30.3908 128.081 30.3908Z" fill="#0062FF"/>
<path d="M128.081 34.762H108.14C107.99 34.762 107.867 34.8844 107.867 35.0353V35.9474C107.867 36.0983 107.99 36.2207 108.14 36.2207H128.081C128.232 36.2207 128.354 36.0983 128.354 35.9474V35.0353C128.354 34.8844 128.232 34.762 128.081 34.762Z" fill="#FC5A5A"/>
<path d="M128.081 39.1379H108.14C107.99 39.1379 107.867 39.2603 107.867 39.4112V40.3233C107.867 40.4743 107.99 40.5966 108.14 40.5966H128.081C128.232 40.5966 128.354 40.4743 128.354 40.3233V39.4112C128.354 39.2603 128.232 39.1379 128.081 39.1379Z" fill="#FF974A"/>
<path d="M125.418 18.7247V24.0229C125.418 24.6271 125.909 25.1169 126.516 25.1169H131.328" fill="white"/>
<path fill-rule="evenodd" clip-rule="evenodd" d="M56.0303 17.9537H24.1895V15.4014C24.1895 14.8478 24.64 14.3989 25.1958 14.3989H55.024C55.5798 14.3989 56.0303 14.8478 56.0303 15.4014V17.9537Z" fill="#44444F"/>
<path fill-rule="evenodd" clip-rule="evenodd" d="M54.9097 42.4784H25.3101C24.6912 42.4784 24.1895 42.0302 24.1895 41.4773V17.6393H56.0303V41.4773C56.0303 42.0302 55.5286 42.4784 54.9097 42.4784Z" fill="#F1F1F5"/>
<path fill-rule="evenodd" clip-rule="evenodd" d="M26.4984 16.0531C26.4984 16.4006 26.2174 16.6823 25.8708 16.6823C25.5241 16.6823 25.2432 16.4006 25.2432 16.0531C25.2432 15.7057 25.5241 15.424 25.8708 15.424C26.2174 15.424 26.4984 15.7057 26.4984 16.0531Z" fill="#FC5A5A"/>
<path fill-rule="evenodd" clip-rule="evenodd" d="M28.8431 16.0531C28.8431 16.4006 28.5621 16.6823 28.2155 16.6823C27.8689 16.6823 27.5879 16.4006 27.5879 16.0531C27.5879 15.7057 27.8689 15.424 28.2155 15.424C28.5621 15.424 28.8431 15.7057 28.8431 16.0531Z" fill="#FF974A"/>
<path fill-rule="evenodd" clip-rule="evenodd" d="M31.1859 16.0531C31.1859 16.4006 30.9049 16.6823 30.5583 16.6823C30.2116 16.6823 29.9307 16.4006 29.9307 16.0531C29.9307 15.7057 30.2116 15.424 30.5583 15.424C30.9049 15.424 31.1859 15.7057 31.1859 16.0531Z" fill="#3DD598"/>
<path d="M53.203 19.8621H27.0161C26.6874 19.8621 26.4209 20.1285 26.4209 20.4572V22.8378C26.4209 23.1665 26.6874 23.433 27.0161 23.433H53.203C53.5316 23.433 53.7981 23.1665 53.7981 22.8378V20.4572C53.7981 20.1285 53.5316 19.8621 53.203 19.8621Z" fill="white"/>
<path d="M47.4004 19.8621H53.352C53.6807 19.8621 53.9471 20.1285 53.9471 20.4572V22.8378C53.9471 23.1665 53.6807 23.433 53.352 23.433H47.4004V19.8621Z" fill="#0062FF"/>
<path d="M32.3725 25.2185H27.0161C26.6874 25.2185 26.4209 25.4849 26.4209 25.8136V36.5264C26.4209 36.8551 26.6874 37.1216 27.0161 37.1216H32.3725C32.7012 37.1216 32.9676 36.8551 32.9676 36.5264V25.8136C32.9676 25.4849 32.7012 25.2185 32.3725 25.2185Z" fill="#0062FF"/>
<path d="M53.2035 25.2185H35.0512C34.7225 25.2185 34.4561 25.4849 34.4561 25.8136V36.5264C34.4561 36.8551 34.7225 37.1216 35.0512 37.1216H53.2035C53.5322 37.1216 53.7987 36.8551 53.7987 36.5264V25.8136C53.7987 25.4849 53.5322 25.2185 53.2035 25.2185Z" fill="white"/>
<path d="M50.7481 27.5995H36.6151C36.4092 27.5995 36.2422 27.7665 36.2422 27.9725C36.2422 28.1784 36.4092 28.3454 36.6151 28.3454H50.7481C50.9541 28.3454 51.1211 28.1784 51.1211 27.9725C51.1211 27.7665 50.9541 27.5995 50.7481 27.5995Z" fill="#F1F1F5"/>
<path d="M50.7481 32.0631H36.6151C36.4092 32.0631 36.2422 32.2301 36.2422 32.436C36.2422 32.642 36.4092 32.809 36.6151 32.809H50.7481C50.9541 32.809 51.1211 32.642 51.1211 32.436C51.1211 32.2301 50.9541 32.0631 50.7481 32.0631Z" fill="#F1F1F5"/>
<path d="M46.2845 29.8313H36.6151C36.4092 29.8313 36.2422 29.9983 36.2422 30.2042C36.2422 30.4102 36.4092 30.5772 36.6151 30.5772H46.2845C46.4905 30.5772 46.6574 30.4102 46.6574 30.2042C46.6574 29.9983 46.4905 29.8313 46.2845 29.8313Z" fill="#F1F1F5"/>
<path d="M46.2845 34.2949H36.6151C36.4092 34.2949 36.2422 34.4618 36.2422 34.6678C36.2422 34.8738 36.4092 35.0408 36.6151 35.0408H46.2845C46.4905 35.0408 46.6574 34.8738 46.6574 34.6678C46.6574 34.4618 46.4905 34.2949 46.2845 34.2949Z" fill="#F1F1F5"/>
<path d="M28.9503 38.461H26.7185C26.5541 38.461 26.4209 38.5942 26.4209 38.7586V40.0282C26.4209 40.1926 26.5541 40.3258 26.7185 40.3258H28.9503C29.1147 40.3258 29.2479 40.1926 29.2479 40.0282V38.7586C29.2479 38.5942 29.1147 38.461 28.9503 38.461Z" fill="#F1F1F5"/>
<path d="M53.1293 38.461H52.1622C51.9157 38.461 51.7158 38.6608 51.7158 38.9074V39.8794C51.7158 40.126 51.9157 40.3258 52.1622 40.3258H53.1293C53.3758 40.3258 53.5757 40.126 53.5757 39.8794V38.9074C53.5757 38.6608 53.3758 38.461 53.1293 38.461Z" fill="#0062FF"/>
<path d="M50.6 38.461H49.6329C49.3864 38.461 49.1865 38.6608 49.1865 38.9074V39.8794C49.1865 40.126 49.3864 40.3258 49.6329 40.3258H50.6C50.8465 40.3258 51.0464 40.126 51.0464 39.8794V38.9074C51.0464 38.6608 50.8465 38.461 50.6 38.461Z" fill="#F1F1F5"/>
<path d="M47.9213 38.461H46.9542C46.7077 38.461 46.5078 38.6608 46.5078 38.9074V39.8794C46.5078 40.126 46.7077 40.3258 46.9542 40.3258H47.9213C48.1678 40.3258 48.3677 40.126 48.3677 39.8794V38.9074C48.3677 38.6608 48.1678 38.461 47.9213 38.461Z" fill="#F1F1F5"/>
<path d="M31.5034 27.5995H27.8395C27.714 27.5995 27.6123 27.7012 27.6123 27.8267V28.3885C27.6123 28.514 27.714 28.6157 27.8395 28.6157H31.5034C31.6288 28.6157 31.7305 28.514 31.7305 28.3885V27.8267C31.7305 27.7012 31.6288 27.5995 31.5034 27.5995Z" fill="#F1F1F5"/>
<path d="M31.5068 29.5339H27.836C27.7125 29.5339 27.6123 29.634 27.6123 29.7576V30.2956C27.6123 30.4191 27.7125 30.5193 27.836 30.5193H31.5068C31.6304 30.5193 31.7305 30.4191 31.7305 30.2956V29.7576C31.7305 29.634 31.6304 29.5339 31.5068 29.5339Z" fill="#F1F1F5"/>
<path d="M31.5068 31.4682H27.836C27.7125 31.4682 27.6123 31.5684 27.6123 31.6919V32.2299C27.6123 32.3535 27.7125 32.4537 27.836 32.4537H31.5068C31.6304 32.4537 31.7305 32.3535 31.7305 32.2299V31.6919C31.7305 31.5684 31.6304 31.4682 31.5068 31.4682Z" fill="#F1F1F5"/>
<path d="M31.5068 33.402H27.836C27.7125 33.402 27.6123 33.5022 27.6123 33.6258V34.1638C27.6123 34.2873 27.7125 34.3875 27.836 34.3875H31.5068C31.6304 34.3875 31.7305 34.2873 31.7305 34.1638V33.6258C31.7305 33.5022 31.6304 33.402 31.5068 33.402Z" fill="#F1F1F5"/>
<g clip-path="url(#clip0)">
<path fill-rule="evenodd" clip-rule="evenodd" d="M61.1787 180.935C61.1787 180.935 51.7745 114.215 57.0782 111.07C62.3814 107.926 78.7691 112.415 80.5741 121.957C82.3791 131.498 80.8087 181.116 80.8087 181.116C80.8087 181.116 82.8461 186.826 80.5178 188.772C77.2232 190.508 73.2765 184.812 63.4982 187.064C58.7136 185.233 61.1787 180.935 61.1787 180.935Z" fill="#44444F"/>
<path fill-rule="evenodd" clip-rule="evenodd" d="M78.4751 124.863L93.8711 181.507C93.8711 181.507 92.2689 189.65 97.8257 190.864C99.5536 191.242 102.682 189.084 106.356 188.529C110.029 187.974 114.247 189.021 115.105 187.502C116.821 184.464 114.691 179.943 114.691 179.943C114.691 179.943 107.38 131.581 104.86 113.572C103.836 106.25 79.4741 114.236 78.4751 124.863Z" fill="#44444F"/>
<path d="M74.6154 102.034C74.4985 102.034 74.4021 102.122 74.3872 102.234L74.3852 102.266L74.4092 109.813C74.4096 109.94 74.5133 110.043 74.6409 110.043C74.7578 110.042 74.8541 109.955 74.8691 109.843L74.8711 109.811L74.8471 102.264C74.8467 102.137 74.7429 102.034 74.6154 102.034Z" fill="#44444F"/>
<path fill-rule="evenodd" clip-rule="evenodd" d="M57.2755 101.462C57.2755 101.462 54.9689 115.998 55.5698 121.742C56.1702 127.485 71.8111 133.663 80.6495 133.94C85.3938 134.089 102.619 128.791 104.278 121.844C106.374 113.063 104.966 110.349 103.742 106.56C102.86 103.828 101.659 100.316 101.659 100.316C101.659 100.316 61.1746 101.584 57.2755 101.462Z" fill="#44444F"/>
<path d="M74.7544 111.546C74.6275 111.533 74.5144 111.626 74.5019 111.753L74.4824 111.981L74.4681 112.176C74.4585 112.312 74.4491 112.462 74.4402 112.625C74.2016 116.964 74.5458 122.012 75.9389 126.823C76.2887 128.031 76.6986 129.187 77.1722 130.286C77.2227 130.403 77.3585 130.457 77.4757 130.407C77.5928 130.356 77.6468 130.22 77.5963 130.103C77.1306 129.023 76.7271 127.884 76.3826 126.694C75.0356 122.043 74.6803 117.155 74.8871 112.925L74.9014 112.65C74.9124 112.45 74.9241 112.269 74.9358 112.11L74.9615 111.798C74.9741 111.671 74.8813 111.558 74.7544 111.546Z" fill="#44444F"/>
<path d="M103.088 105.645C103.044 105.525 102.911 105.464 102.791 105.508C93.7277 108.858 85.4517 110.594 77.9833 110.994C72.3191 111.297 67.5026 110.82 63.5535 109.839C62.5333 109.585 61.6462 109.315 60.8933 109.044L60.734 108.986C60.499 108.899 60.2928 108.818 60.1154 108.744L60.0291 108.707C59.9129 108.657 59.8364 108.622 59.7997 108.604C59.685 108.548 59.5468 108.596 59.4909 108.711C59.4349 108.825 59.4825 108.963 59.5971 109.019L59.6441 109.042C59.682 109.059 59.7328 109.082 59.7967 109.11L59.847 109.132C60.05 109.219 60.2924 109.315 60.574 109.419C61.3759 109.715 62.3324 110.011 63.4422 110.287C67.4351 111.279 72.2974 111.761 78.008 111.455C85.5232 111.053 93.8448 109.307 102.952 105.941C103.071 105.897 103.132 105.764 103.088 105.645Z" fill="#44444F"/>
<path d="M57.4726 101.237C57.3451 101.233 57.239 101.334 57.2354 101.461C57.2323 101.578 57.3166 101.677 57.4288 101.695L57.4601 101.698L101.793 102.901C101.92 102.905 102.027 102.804 102.03 102.677C102.033 102.56 101.949 102.461 101.837 102.443L101.806 102.44L57.4726 101.237Z" fill="#44444F"/>
<path fill-rule="evenodd" clip-rule="evenodd" d="M89.9242 33.5499L90.6835 45.415C91.0267 50.7746 86.7973 55.3226 81.4271 55.3693C76.0791 55.4155 71.7809 50.9778 71.9971 45.6344L72.4825 33.6386L89.9242 33.5499Z" fill="#9E7D6C"/>
<path fill-rule="evenodd" clip-rule="evenodd" d="M67.0092 34.7545C67.4799 36.6293 68.932 37.8805 70.2539 37.5489C71.5757 37.2172 72.2658 35.4284 71.7951 33.5537C71.3249 31.6789 69.8719 30.4277 68.5505 30.7593C67.2286 31.091 66.5386 32.8793 67.0092 34.7545Z" fill="#9E7D6C"/>
<path fill-rule="evenodd" clip-rule="evenodd" d="M94.6067 34.9215C94.0053 36.7589 92.4678 37.9043 91.1727 37.4803C89.878 37.0568 89.3155 35.2236 89.9168 33.3867C90.5177 31.5494 92.0558 30.4039 93.3504 30.8275C94.6455 31.2515 95.2081 33.0842 94.6067 34.9215Z" fill="#9E7D6C"/>
<path fill-rule="evenodd" clip-rule="evenodd" d="M92.1153 33.3167C92.1153 41.871 89.8614 44.3855 81.4077 44.6016C74.1701 44.7864 69.9209 42.6516 69.9209 33.3167C69.9209 25.8325 74.8893 20.9773 81.0183 20.9773C87.1469 20.9773 92.1153 26.6126 92.1153 33.3167Z" fill="#B0927B"/>
<path fill-rule="evenodd" clip-rule="evenodd" d="M90.9009 30.3407C91.8888 31.1489 91.0745 34.5021 91.8546 34.849C92.3747 34.7622 92.3747 31.6408 92.7216 27.7399C92.9507 25.1612 92.177 23.0232 91.3346 22.1045C90.3808 21.0639 89.4848 21.2127 87.2599 19.3301C83.8786 16.4692 76.9426 17.0761 74.6887 20.5439C70.9609 20.1106 67.1463 23.1447 68.8801 30.1675C69.6778 33.3973 69.7231 34.9548 70.0939 34.849C70.7008 34.6753 69.7471 31.3808 71.0477 30.3407C72.6754 29.0386 71.7632 26.2845 72.7816 25.0522C72.7816 25.0522 80.4976 20.457 88.9938 25.0522C89.8607 26.3524 88.9938 28.78 90.9009 30.3407Z" fill="#4A3D39"/>
<path d="M75.3911 28.3575C76.3332 27.9223 77.4646 27.7477 78.7586 27.9789C79.0097 28.0238 79.1769 28.2637 79.132 28.5148C79.0872 28.7659 78.8472 28.9331 78.5961 28.8883C77.4969 28.6919 76.5556 28.8371 75.7785 29.1961C75.5947 29.281 75.4364 29.3712 75.3044 29.4602L75.2392 29.5054C75.2207 29.5187 75.2053 29.5302 75.1932 29.5396L75.1664 29.5613C74.9744 29.7293 74.6826 29.7098 74.5146 29.5178C74.3467 29.3258 74.3662 29.034 74.5582 28.8661C74.7144 28.7293 74.9937 28.5411 75.3911 28.3575Z" fill="#4A3D39"/>
<path d="M83.4531 27.9783C84.5256 27.7917 85.5382 27.9271 86.443 28.2663C86.8178 28.4069 87.0927 28.55 87.2509 28.6525C87.4651 28.791 87.5264 29.077 87.3878 29.2912C87.2492 29.5053 86.9632 29.5666 86.7491 29.428L86.718 29.409C86.6907 29.393 86.6504 29.3705 86.5978 29.3431C86.4603 29.2715 86.2998 29.1992 86.1187 29.1313C85.3581 28.8461 84.5078 28.7324 83.6114 28.8884C83.3601 28.9321 83.1209 28.7638 83.0772 28.5125C83.0335 28.2612 83.2018 28.022 83.4531 27.9783Z" fill="#4A3D39"/>
<path d="M79.2974 29.0567C79.3754 29.0204 79.4667 29.0471 79.5136 29.1161L79.5276 29.1406L80.2647 30.7225C80.2861 30.7683 80.2863 30.8211 80.2655 30.8672L80.226 30.9575C80.2098 30.9956 80.1907 31.0412 80.1692 31.0939L80.147 31.149C80.0572 31.3726 79.9674 31.6169 79.8837 31.8735C79.7431 32.3042 79.6342 32.7247 79.5693 33.1174C79.3303 34.5633 79.6982 35.3184 80.914 35.1968C81.0092 35.1873 81.0941 35.2567 81.1036 35.3519C81.1131 35.4471 81.0437 35.5319 80.9485 35.5415C79.4412 35.6922 78.9569 34.6983 79.2275 33.0609C79.2956 32.6491 79.4087 32.2122 79.5544 31.766C79.6406 31.5017 79.733 31.2503 79.8255 31.02L79.8871 30.8698L79.9175 30.7978L79.2136 29.2869C79.1772 29.2089 79.204 29.1176 79.2729 29.0707L79.2974 29.0567Z" fill="#7C5B4D"/>
<path fill-rule="evenodd" clip-rule="evenodd" d="M77.5569 31.404C77.5569 32.028 77.1657 32.5342 76.6835 32.5342C76.2008 32.5342 75.8105 32.028 75.8105 31.404C75.8105 30.7796 76.2008 30.2738 76.6835 30.2738C77.1657 30.2738 77.5569 30.7796 77.5569 31.404Z" fill="#4A3D39"/>
<path fill-rule="evenodd" clip-rule="evenodd" d="M86.0525 31.404C86.0525 32.028 85.6613 32.5342 85.1791 32.5342C84.6964 32.5342 84.3057 32.028 84.3057 31.404C84.3057 30.7796 84.6964 30.2738 85.1791 30.2738C85.6613 30.2738 86.0525 30.7796 86.0525 31.404Z" fill="#4A3D39"/>
<path fill-rule="evenodd" clip-rule="evenodd" d="M84.9198 37.4498C84.9198 37.4498 84.8233 35.3173 80.7583 35.369C78.6166 35.3963 77.0306 36.1491 76.8569 37.623C76.6357 39.5019 80.9315 37.2766 80.9315 37.2766C80.9315 37.2766 85.5263 39.3573 84.9198 37.4498Z" fill="#4A3D39"/>
<path d="M80.0042 38.6658L80.1068 38.6799C80.1633 38.687 80.2339 38.6951 80.3159 38.7031C80.6438 38.7353 80.978 38.7495 81.288 38.7355C81.4971 38.726 81.6854 38.7039 81.8475 38.6679C81.9408 38.6472 82.0333 38.7061 82.0541 38.7994C82.0748 38.8928 82.0159 38.9853 81.9225 39.0061C81.739 39.0468 81.5313 39.0712 81.3036 39.0815C80.975 39.0964 80.625 39.0816 80.2821 39.0479L80.1171 39.03L79.9516 39.0082C79.8571 38.9937 79.7922 38.9052 79.8067 38.8107C79.8198 38.7256 79.8927 38.6645 79.9761 38.6638L80.0042 38.6658Z" fill="#7C5B4D"/>
<path d="M75.0644 43.5104C75.1167 43.4303 75.2241 43.4078 75.3041 43.4602L75.3742 43.503C75.4241 43.532 75.492 43.5695 75.5775 43.6134C75.8082 43.7318 76.0795 43.8505 76.3889 43.9615C77.6635 44.4188 79.1514 44.6061 80.8122 44.3712L80.9908 44.3444L81.044 44.3443C82.9335 44.6325 84.4854 44.4651 85.7056 44.0125C85.982 43.91 86.2176 43.8006 86.4126 43.6917L86.5012 43.6407C86.5667 43.6017 86.6118 43.5716 86.6364 43.5532C86.713 43.496 86.8215 43.5117 86.8788 43.5883C86.936 43.665 86.9203 43.7735 86.8437 43.8307L86.7939 43.8658C86.744 43.8992 86.6732 43.9429 86.5815 43.9941C86.3712 44.1116 86.1194 44.2285 85.8261 44.3373C84.5925 44.7949 83.0437 44.9724 81.1793 44.714L81.0187 44.6906L80.8601 44.7143C79.2024 44.9487 77.7076 44.7763 76.4147 44.3374L76.2719 44.2876C75.948 44.1714 75.6631 44.0466 75.4194 43.9216C75.3549 43.8885 75.2968 43.8571 75.245 43.8278L75.1279 43.7587C75.1227 43.7554 75.1183 43.7526 75.1146 43.7501C75.0345 43.6978 75.012 43.5905 75.0644 43.5104Z" fill="#7C5B4D"/>
<path d="M81.0121 42.3919C81.0982 42.389 81.1716 42.4494 81.1878 42.5312L81.191 42.5592L81.2566 44.5097C81.2598 44.6053 81.1849 44.6854 81.0893 44.6886C81.0033 44.6915 80.9298 44.6311 80.9136 44.5493L80.9104 44.5213L80.8448 42.5708C80.8416 42.4752 80.9165 42.3951 81.0121 42.3919Z" fill="#7C5B4D"/>
<path d="M67.8277 32.6826C68.0607 32.2379 68.3008 31.9898 68.602 32.0805C68.9466 32.1843 69.1635 32.7717 69.3122 33.9605C69.3167 33.9962 69.3099 34.0324 69.2928 34.0641C69.0004 34.6071 69.0312 34.9571 69.2392 35.1835C69.2972 35.2466 69.3538 35.284 69.3843 35.2975C69.4717 35.3364 69.5111 35.4387 69.4723 35.5262C69.4334 35.6136 69.3311 35.653 69.2437 35.6141C69.173 35.5827 69.0779 35.52 68.9841 35.4179C68.6841 35.0913 68.6314 34.6061 68.9495 33.9735L68.9614 33.9502L68.9553 33.901C68.8302 32.9616 68.6593 32.489 68.5172 32.4182L68.502 32.4122C68.4392 32.3932 68.2891 32.5483 68.1346 32.8433C68.0773 32.9526 68.024 33.0707 67.9763 33.1889L67.9342 33.2972C67.927 33.3165 67.9213 33.3325 67.9171 33.3445C67.886 33.435 67.7875 33.4831 67.697 33.4521C67.6066 33.421 67.5584 33.3224 67.5895 33.232L67.6221 33.143C67.6316 33.1181 67.6426 33.09 67.655 33.0593C67.7067 32.9312 67.7646 32.8031 67.8277 32.6826Z" fill="#7C5B4D"/>
<path d="M93.0866 32.0807C93.3881 31.9893 93.6285 32.2376 93.8616 32.6826C93.9248 32.8031 93.9827 32.9312 94.0344 33.0593L94.0805 33.178C94.0885 33.1996 94.095 33.2178 94.0999 33.232C94.1309 33.3225 94.0828 33.421 93.9923 33.4521C93.9019 33.4832 93.8033 33.435 93.7723 33.3446L93.7433 33.2657C93.7347 33.243 93.7246 33.2173 93.7131 33.189C93.6654 33.0708 93.6121 32.9527 93.5548 32.8433C93.4001 32.5482 93.25 32.3932 93.1871 32.4122C93.052 32.4532 92.8877 32.8654 92.7612 33.707L92.727 33.9499L92.7395 33.9735C93.0456 34.5818 93.0087 35.0539 92.7387 35.3796L92.7052 35.418C92.6115 35.5201 92.5163 35.5828 92.4457 35.6141C92.3583 35.653 92.256 35.6136 92.2171 35.5262C92.1783 35.4388 92.2176 35.3364 92.3051 35.2976C92.3356 35.284 92.3922 35.2467 92.4501 35.1837C92.6581 34.9572 92.6888 34.6073 92.3961 34.0642C92.379 34.0325 92.3723 33.9963 92.3767 33.9605L92.4054 33.7448C92.5531 32.7009 92.7639 32.1786 93.0866 32.0807Z" fill="#7C5B4D"/>
<path fill-rule="evenodd" clip-rule="evenodd" d="M33.3063 58.3073L29.7171 46.1536C29.7171 46.1536 23.7017 36.2626 21.4727 36.8455C19.3989 37.6501 24.0222 40.5095 24.9095 43.2965C22.9479 43.1496 23.8033 45.8248 23.8033 45.8248C23.8033 45.8248 22.2408 45.7573 22.6315 47.9346C21.1697 48.7045 22.2985 51.2097 22.2985 51.2097C22.2985 51.2097 25.1247 57.8071 28.295 62.2194C28.295 62.2194 33.6033 66.0502 33.3063 58.3073Z" fill="#B0927B"/>
<path fill-rule="evenodd" clip-rule="evenodd" d="M32.5277 54.205C32.5277 54.205 32.0242 50.044 31.6344 47.9226C31.2446 45.8017 32.2759 41.9875 30.5716 42.9847C29.4253 43.6549 29.5924 45.931 29.61 47.6085C29.628 49.2865 26.6074 53.2332 28.7805 56.0063C30.2478 57.8801 32.6002 58.1471 32.5277 54.205Z" fill="#B0927B"/>
<path d="M24.7857 43.1748C24.7186 43.2431 24.7196 43.3527 24.7878 43.4198L24.8952 43.528L25.0319 43.6696C25.0797 43.7198 25.1297 43.7729 25.1816 43.8287C25.4781 44.1477 25.7746 44.4886 26.051 44.8372C26.3249 45.1826 26.5639 45.517 26.7581 45.8328L26.8485 45.9839C27.4386 46.9992 27.4546 47.6524 26.7983 47.8948C26.7086 47.9279 26.6627 48.0275 26.6959 48.1172C26.729 48.207 26.8286 48.2528 26.9183 48.2197C27.898 47.8579 27.8297 46.9142 27.0531 45.6513C26.8511 45.3227 26.6043 44.9775 26.3225 44.622C26.04 44.2657 25.7376 43.918 25.4353 43.5929L25.2825 43.4305C25.2581 43.4049 25.2342 43.38 25.2109 43.3559L25.0306 43.1727C24.9624 43.1057 24.8527 43.1066 24.7857 43.1748Z" fill="#7C5B4D"/>
<path d="M23.8469 45.8058C23.7912 45.8835 23.8091 45.9917 23.8869 46.0474L24.0006 46.1311L24.1455 46.2408C24.1962 46.2797 24.2492 46.3209 24.3042 46.3641C24.6184 46.6115 24.9326 46.8765 25.2254 47.1482C25.5342 47.435 25.8008 47.7124 26.0121 47.9734C26.5975 48.6963 26.6882 49.1765 26.2409 49.421C26.0613 49.519 25.8603 49.5429 25.6356 49.499C25.2931 49.432 24.9129 49.2117 24.5257 48.8853C24.3559 48.7422 24.1964 48.5884 24.0522 48.4347L23.9845 48.3613C23.9333 48.3049 23.8955 48.2607 23.8726 48.2327C23.8122 48.1585 23.7031 48.1474 23.629 48.2078C23.5548 48.2682 23.5436 48.3773 23.604 48.4514L23.6567 48.5136C23.6982 48.5615 23.746 48.6146 23.7996 48.6717C23.9525 48.8347 24.1215 48.9976 24.3024 49.1501C24.7306 49.5111 25.1575 49.7585 25.5692 49.839C25.8694 49.8977 26.1523 49.864 26.407 49.725C27.1186 49.336 26.9838 48.623 26.2814 47.7554C26.0585 47.4803 25.7811 47.1914 25.461 46.8944C25.1608 46.6156 24.8396 46.3447 24.5184 46.0919L24.3562 45.9658L24.0886 45.7658C24.0108 45.7101 23.9026 45.728 23.8469 45.8058Z" fill="#7C5B4D"/>
<path d="M23.1783 47.9268C23.0837 47.9123 22.9954 47.9773 22.9809 48.0718C22.9665 48.1664 23.0315 48.2548 23.126 48.2692C23.4598 48.3201 23.8687 48.5906 24.3519 49.1221C25.3633 50.2348 25.5678 50.952 25.2279 51.129C24.8746 51.3129 24.1047 50.9832 23.6235 50.3384C23.4952 50.1665 23.2305 50.3352 23.3322 50.5241C23.9484 51.6686 24.6829 52.4399 25.6214 53.0398C25.8553 53.1892 26.0993 53.3272 26.3841 53.4744L26.5938 53.5809L27.1138 53.8374C28.6338 54.5895 29.2252 55.1914 29.536 56.7029C29.5553 56.7966 29.6469 56.857 29.7406 56.8377C29.8343 56.8184 29.8946 56.7268 29.8753 56.6331C29.5466 55.0345 28.9026 54.3516 27.3709 53.5786L26.466 53.1274C26.1566 52.9694 26.0559 52.9064 25.808 52.7479C25.257 52.3957 24.7814 51.9826 24.3597 51.4601L24.2489 51.3184L24.28 51.3346C24.664 51.5252 25.052 51.5812 25.3384 51.4595L25.3879 51.4362C26.0256 51.1041 25.7532 50.1487 24.6082 48.889C24.0765 48.3042 23.6041 47.9917 23.1783 47.9268Z" fill="#7C5B4D"/>
<path d="M29.6056 45.3395C29.5199 45.3306 29.4424 45.3856 29.4204 45.4661L29.4153 45.4938L29.086 48.6419L29.0579 48.6846L28.993 48.7873C28.9704 48.824 28.9467 48.863 28.9222 48.9043C28.7824 49.1398 28.6428 49.4019 28.5124 49.6844C28.1367 50.4983 27.9112 51.3144 27.9125 52.0837C27.9135 52.6663 28.0469 53.1989 28.331 53.6665C28.3807 53.7483 28.4872 53.7743 28.569 53.7246C28.6507 53.6749 28.6767 53.5684 28.627 53.4866C28.3777 53.0763 28.2598 52.6055 28.2589 52.0831C28.2577 51.3719 28.4705 50.6017 28.8269 49.8296C28.952 49.5585 29.0861 49.3068 29.22 49.0811L29.3018 48.9465C29.3424 48.8813 29.3745 48.8324 29.396 48.8015C29.407 48.7856 29.4153 48.7679 29.4204 48.7494L29.4259 48.7209L29.7598 45.5298C29.7697 45.4347 29.7007 45.3495 29.6056 45.3395Z" fill="#7C5B4D"/>
<g clip-path="url(#clip1)">
<path fill-rule="evenodd" clip-rule="evenodd" d="M82.3839 97.3517L88.3069 107.213C88.9905 108.351 90.445 108.755 91.6172 108.132L117.525 94.3657C122.26 91.5778 123.838 85.4797 121.051 80.745C118.284 76.0469 112.259 74.4566 107.54 77.1563C107.467 77.1978 107.395 77.2436 107.326 77.2916L83.1053 94.0133C82.0218 94.7615 81.7059 96.2229 82.3839 97.3517Z" fill="#F1F1F5"/>
</g>
<path fill-rule="evenodd" clip-rule="evenodd" d="M116.096 94.402C121.271 92.4705 123.881 86.6938 121.911 81.5342L114.073 61.0017C112.124 55.8957 106.421 53.3184 101.3 55.2296C96.1259 57.1612 93.5154 62.9378 95.4853 68.0979L103.324 88.63C105.273 93.736 110.976 96.3133 116.096 94.402Z" fill="#F1F1F5"/>
<path fill-rule="evenodd" clip-rule="evenodd" d="M56.4376 83.8606C56.4376 83.8606 46.0339 101.287 63.5135 106.991C69.6305 108.987 75.7157 108.776 81.4065 108.439C93.0087 107.751 101.049 104.933 102.603 103.238C106.779 98.6844 104.882 91.7434 105.829 80.8428C106.693 70.9037 115.604 61.1268 110.146 55.6411C106.036 53.1604 97.9517 49.2474 92.4245 47.6941C88.2048 46.508 85.3107 54.1289 81.1663 54.049C77.7267 53.982 75.7693 47.8405 72.617 48.471C64.8141 50.0316 61.3792 50.0492 57.2717 53.9331C57.2717 53.9331 55.9937 58.7532 58.2578 69.816C58.2578 69.816 56.1032 79.4608 56.4376 83.8606Z" fill="#F1F1F5"/>
<path fill-rule="evenodd" clip-rule="evenodd" d="M72.8831 50.2426C72.8831 50.2426 73.266 64.0762 77.948 75.1302C87.4806 58.7748 92.3576 48.3291 92.6162 48.3014L80.8809 53.2683L72.8831 50.2426Z" fill="white"/>
<path fill-rule="evenodd" clip-rule="evenodd" d="M75.9223 55.3158L80.0455 52.4522L84.5811 55.6234L82.3109 59.4274L77.0784 59.293L75.9223 55.3158Z" fill="#44444F"/>
<path fill-rule="evenodd" clip-rule="evenodd" d="M74.6689 65.1144L77.1713 59.2439L82.3706 59.4065L84.002 64.3657L78.2022 75.9518L74.6689 65.1144Z" fill="#44444F"/>
<path fill-rule="evenodd" clip-rule="evenodd" d="M73.4007 56.7203L80.4688 52.6046L73.7776 47.451L72.616 48.5419L73.4007 56.7203Z" fill="white"/>
<path fill-rule="evenodd" clip-rule="evenodd" d="M80.4686 52.6048L86.3935 57.3006L92.7471 48.3052L91.4959 46.7048L80.4686 52.6048Z" fill="white"/>
<path fill-rule="evenodd" clip-rule="evenodd" d="M73.1356 57.0501L80.2129 52.4665L73.7102 46.8418L71.8982 48.8662L73.1356 57.0501Z" fill="white"/>
<path d="M73.8608 46.6671L80.3635 52.2918C80.4799 52.3925 80.4671 52.5767 80.338 52.6603L73.2607 57.2439C73.1199 57.3351 72.9319 57.2505 72.9068 57.0846L71.6694 48.9007C71.6591 48.8326 71.6798 48.7635 71.7257 48.7122L73.5376 46.6878C73.6217 46.5939 73.7655 46.5847 73.8608 46.6671ZM73.7305 47.1649L72.1426 48.9391L73.3099 56.6616L79.8291 52.4398L73.7305 47.1649Z" fill="#F1F1F5"/>
<path fill-rule="evenodd" clip-rule="evenodd" d="M80.2124 52.4665L87.5714 57.4442L93.3975 47.9845L91.0839 45.998L80.2124 52.4665Z" fill="white"/>
<path d="M79.7825 52.454L91.1092 45.7146L93.6982 47.9377L87.6424 57.7704L79.7825 52.454ZM91.0603 46.2811L80.6438 52.4788L87.502 57.1178L93.0984 48.0312L91.0603 46.2811Z" fill="#F1F1F5"/>
<path d="M78.1048 76.8514C77.9887 76.8381 77.8828 76.9134 77.8548 77.0237L77.8492 77.0546L76.8156 86.0979L76.7697 86.1654L76.7211 86.2398C76.6203 86.3964 76.5085 86.5853 76.3885 86.807C76.0478 87.4364 75.708 88.2043 75.3914 89.115C73.8293 93.6085 73.3902 99.6791 74.7515 107.465C74.7735 107.591 74.8931 107.675 75.0188 107.653C75.1444 107.631 75.2284 107.511 75.2065 107.386C73.8584 99.6757 74.2918 93.6847 75.8277 89.2666C76.136 88.3796 76.4658 87.6346 76.7947 87.0268C76.89 86.8507 76.9794 86.6971 77.0613 86.5659L77.1529 86.4233C77.1855 86.3741 77.2092 86.3406 77.2228 86.3224C77.2412 86.2978 77.2545 86.2699 77.262 86.2402L77.2675 86.2101L78.3081 77.1071C78.3225 76.9803 78.2316 76.8659 78.1048 76.8514Z" fill="#92929D"/>
<path d="M56.2951 59.1835C56.1688 59.1659 56.0522 59.2541 56.0346 59.3804L56.005 59.6112L55.9871 59.7612C55.9517 60.0642 55.9164 60.4055 55.8834 60.7779C55.7522 62.2579 55.6957 63.7692 55.7565 65.1822C55.8199 66.6575 56.0083 67.9165 56.3465 68.8969L56.379 68.9878L56.2069 84.0627L56.1067 84.2599L56.0035 84.4702C55.9324 84.6173 55.8567 84.7783 55.7773 84.9525C55.4373 85.6977 55.0975 86.5308 54.7803 87.4319C53.7743 90.2902 53.2177 93.1675 53.3463 95.8603C53.5725 100.598 55.8999 104.2 60.8138 106.16L60.9315 106.213C60.9709 106.231 61.0176 106.251 61.0717 106.274L61.2593 106.353C61.3903 106.408 61.5329 106.465 61.6869 106.525L61.8045 106.57C62.6011 106.875 63.5156 107.18 64.5346 107.464C65.9469 107.858 67.4469 108.181 69.0183 108.408C79.2225 109.878 93.3864 108.312 102.313 103.965C102.428 103.909 102.476 103.771 102.42 103.657C102.364 103.542 102.226 103.494 102.111 103.55C93.2747 107.852 79.2028 109.409 69.0842 107.951C67.5332 107.727 66.0525 107.408 64.6588 107.019C63.6541 106.739 62.7532 106.439 61.9697 106.139L61.7436 106.051C61.5985 105.994 61.4648 105.939 61.3429 105.888L61.0826 105.775C61.0485 105.76 61.0205 105.747 60.9977 105.737C56.2473 103.841 54.0256 100.403 53.8076 95.8383C53.6823 93.2136 54.2281 90.392 55.216 87.5853C55.5283 86.6978 55.863 85.8774 56.1975 85.1442L56.3115 84.8978C56.3485 84.819 56.3844 84.7435 56.4192 84.6715L56.5201 84.4659C56.5781 84.3496 56.6192 84.2701 56.6406 84.2301C56.6523 84.2082 56.6604 84.1847 56.6646 84.1605L56.668 84.1237L56.8412 68.9516C56.8415 68.9235 56.8367 68.8955 56.8269 68.8691C56.4785 67.9235 56.2823 66.6611 56.2179 65.1623C56.1581 63.7723 56.2139 62.2801 56.3434 60.8187L56.3719 60.511C56.3912 60.3112 56.411 60.1221 56.4309 59.9452L56.4635 59.6674L56.4921 59.444C56.5097 59.3177 56.4215 59.201 56.2951 59.1835Z" fill="#92929D"/>
<path d="M93.6727 47.8088C93.5733 47.7288 93.428 47.7445 93.348 47.8438C91.7882 49.7811 89.7854 53.0579 87.4399 57.4044C86.7894 58.6098 86.1183 59.8873 85.4299 61.2278C83.8261 64.3511 82.1963 67.6821 80.6151 71.0269L80.0082 72.3164C79.6988 72.9767 79.4043 73.6097 79.1267 74.2108L78.3871 75.8227L78.3043 76.0048L78.1629 75.5986C77.2566 72.9574 76.3227 69.5294 75.38 65.4938L75.3109 65.1971C74.5353 61.8542 73.796 58.2868 73.114 54.7053L72.8641 53.3785C72.7329 52.6746 72.6096 51.9997 72.4945 51.359L72.2802 50.1508L72.0642 48.8948C72.0433 48.769 71.9244 48.684 71.7985 48.7049C71.6832 48.7241 71.6022 48.8256 71.6055 48.9394L71.6201 49.0389L71.8505 50.3749L72.0399 51.4406C72.1716 52.1739 72.3141 52.9519 72.4667 53.767L72.5245 54.0743C73.2447 57.9015 74.0321 61.7287 74.861 65.3014L74.9996 65.8949C76.0389 70.3129 77.0676 73.9916 78.0633 76.6985C78.1305 76.8813 78.3747 76.9004 78.4739 76.7446L78.511 76.6682L79.0873 75.4014L79.4282 74.6597C79.8175 73.8153 80.2415 72.9044 80.6949 71.9404C82.3792 68.3601 84.1251 64.7799 85.8408 61.4388C86.4514 60.2496 87.0484 59.1103 87.6293 58.0272L87.8463 57.6238C90.1793 53.3005 92.1704 50.043 93.7077 48.1335C93.7877 48.0341 93.772 47.8888 93.6727 47.8088Z" fill="#92929D"/>
<path d="M85.647 86.7348C80.4664 86.138 76.0152 86.0786 72.4915 86.3356L72.0449 86.3707C71.8565 86.3865 71.6817 86.4028 71.5206 86.4191L71.1836 86.4556L71.0246 86.4754C70.8982 86.4927 70.8098 86.6091 70.8271 86.7355C70.8444 86.8618 70.9609 86.9503 71.0872 86.933L71.3033 86.9068L71.4511 86.8906C71.7544 86.8585 72.113 86.8263 72.5251 86.7963L72.9764 86.7654C76.3987 86.5473 80.6626 86.6255 85.5942 87.1936C85.7209 87.2082 85.8354 87.1173 85.85 86.9906C85.8646 86.8639 85.7737 86.7494 85.647 86.7348Z" fill="#92929D"/>
<path d="M81.5931 82.4219L81.3193 82.4383C80.6905 82.4716 79.7025 82.4995 78.4448 82.5222L78.1378 82.5276C77.5187 82.538 76.8679 82.5469 76.2081 82.5542L74.1752 82.5719C74.0476 82.5726 73.9448 82.6766 73.9455 82.8041C73.9461 82.9211 74.0336 83.0172 74.1464 83.0319L74.2058 83.0336L75.4177 83.0241L76.6084 83.0114C77.0021 83.0067 77.3909 83.0014 77.77 82.9955L79.0678 82.972C80.2288 82.9476 81.1087 82.9181 81.6247 82.8827C81.7519 82.874 81.848 82.7638 81.8393 82.6365C81.8306 82.5093 81.7204 82.4132 81.5931 82.4219Z" fill="#92929D"/>
<path fill-rule="evenodd" clip-rule="evenodd" d="M30.8431 54.2771L24.6323 58.6681C22.8125 59.9544 22.3525 62.4587 23.5972 64.308L37.3093 84.6887C40.5978 89.0903 46.8317 89.9928 51.2334 86.7043C55.5542 83.4767 56.5034 77.4105 53.4268 73.025C53.3114 72.861 53.1802 72.7072 53.0421 72.5617L36.187 54.8027C34.7838 53.3242 32.5077 53.1002 30.8431 54.2771Z" fill="#F1F1F5"/>
<path d="M36.62 54.851C36.5322 54.7585 36.386 54.7547 36.2935 54.8425C36.2094 54.9223 36.1986 55.0503 36.2633 55.1425L36.285 55.1689L53.1401 72.928C53.2821 73.0775 53.4019 73.221 53.5028 73.3649C53.5761 73.4693 53.7201 73.4946 53.8245 73.4213C53.9289 73.3481 53.9542 73.2041 53.881 73.0996C53.789 72.9685 53.6847 72.8395 53.5665 72.7086L53.4751 72.61L36.62 54.851Z" fill="#92929D"/>
<path d="M103.133 69.845C103.016 69.8404 102.916 69.9233 102.896 70.0353L102.893 70.0665L102.399 82.1606C102.398 82.1908 102.403 82.221 102.413 82.2494L102.515 82.5402L102.625 82.8677C102.664 82.9837 102.704 83.1063 102.745 83.2353L102.787 83.3665C103.068 84.2558 103.349 85.2421 103.611 86.2981C104.266 88.9355 104.695 91.5537 104.79 93.9954C104.947 98.0519 104.168 101.24 102.247 103.239C102.158 103.331 102.161 103.477 102.253 103.565C102.345 103.654 102.491 103.651 102.58 103.559C104.605 101.452 105.413 98.1473 105.251 93.9774C105.155 91.5004 104.722 88.8524 104.059 86.1868C103.819 85.2178 103.562 84.307 103.304 83.4746L103.227 83.2273C103.17 83.0475 103.116 82.879 103.064 82.7225L102.888 82.2058L102.863 82.1339L103.354 70.0853C103.359 69.9685 103.276 69.8684 103.164 69.8485L103.133 69.845Z" fill="#92929D"/>
<path fill-rule="evenodd" clip-rule="evenodd" d="M38.303 85.6102C42.1915 89.5486 48.5469 89.556 52.4447 85.6269L69.6227 68.3089C73.4631 64.437 73.4705 58.1953 69.6388 54.3142C65.7503 50.3758 59.3949 50.3684 55.4972 54.298L38.3192 71.6155C34.4787 75.4874 34.4713 81.7296 38.303 85.6102Z" fill="#F1F1F5"/>
</g>
<path fill-rule="evenodd" clip-rule="evenodd" d="M134.42 89.7211H127.248V65.1493C127.248 63.1935 128.845 61.608 130.815 61.608H130.853C132.823 61.608 134.42 63.1935 134.42 65.1493V89.7211Z" fill="#3DD598"/>
<path fill-rule="evenodd" clip-rule="evenodd" d="M137.986 95.7356H130.793V82.9047C130.793 81.0006 132.355 79.457 134.281 79.457H134.497C136.424 79.457 137.986 81.0006 137.986 82.9047V95.7356Z" fill="#5B8C00"/>
<path fill-rule="evenodd" clip-rule="evenodd" d="M128.3 89.7082H121.06V75.7578C121.06 73.8429 122.626 72.2905 124.557 72.2905H124.803C126.734 72.2905 128.3 73.8429 128.3 75.7578V89.7082Z" fill="#3DD598"/>
<path fill-rule="evenodd" clip-rule="evenodd" d="M138.413 110.088H119.578C118.833 110.088 118.229 109.49 118.229 108.754V90.2243C118.229 89.4875 118.833 88.8903 119.578 88.8903H138.413C139.158 88.8903 139.762 89.4875 139.762 90.2243V108.754C139.762 109.49 139.158 110.088 138.413 110.088Z" fill="#44444F"/>
<path fill-rule="evenodd" clip-rule="evenodd" d="M41.0643 90.4556L36.9707 103.315H39.4456L43.5392 90.4556H41.0643Z" fill="#0062FF"/>
<path fill-rule="evenodd" clip-rule="evenodd" d="M35.2273 91.9172H32.6001H30.9439C30.8147 91.9172 30.71 92.022 30.71 92.1512V93.8074V99.9627V101.619C30.71 101.748 30.8147 101.853 30.9439 101.853H32.6001H35.2273C35.3565 101.853 35.4612 101.748 35.4612 101.619V100.197C35.4612 100.067 35.3565 99.9627 35.2273 99.9627H32.6001V93.8074H35.2273C35.3565 93.8074 35.4612 93.7026 35.4612 93.5734V92.1512C35.4612 92.022 35.3565 91.9172 35.2273 91.9172Z" fill="#F1F1F5"/>
<path fill-rule="evenodd" clip-rule="evenodd" d="M49.5662 91.9172H47.91H45.2827C45.1536 91.9172 45.0488 92.022 45.0488 92.1512V93.5734C45.0488 93.7026 45.1536 93.8074 45.2827 93.8074H47.91V99.9627H45.2827C45.1536 99.9627 45.0488 100.067 45.0488 100.197V101.619C45.0488 101.748 45.1536 101.853 45.2827 101.853H47.91H49.5662C49.6954 101.853 49.8001 101.748 49.8001 101.619V100.197V93.5734V92.1512C49.8001 92.022 49.6954 91.9172 49.5662 91.9172Z" fill="#F1F1F5"/>
<defs>
<clipPath id="clip0">
<rect x="15" width="137.667" height="126.37" rx="57.1026" fill="white"/>
</clipPath>
<clipPath id="clip1">
<rect width="40.3369" height="30.7916" fill="white" transform="matrix(-1 0 0 1 122.492 75.9469)"/>
</clipPath>
</defs>
</svg>
