<svg width="162" height="131" viewBox="0 0 162 131" fill="none" xmlns="http://www.w3.org/2000/svg">
<path d="M139.351 12.0313H85.584C84.6625 12.0313 83.9155 12.7783 83.9155 13.6998V52.2603C83.9155 53.1817 84.6625 53.9287 85.584 53.9287H139.351C140.272 53.9287 141.019 53.1817 141.019 52.2603V13.6998C141.019 12.7783 140.272 12.0313 139.351 12.0313Z" fill="#F1F1F5"/>
<path fill-rule="evenodd" clip-rule="evenodd" d="M101.151 49.4003V20.3963C101.151 20.0811 101.406 19.8255 101.722 19.8255H136.881C137.196 19.8255 137.451 20.0811 137.451 20.3963V49.5074C137.451 49.7635 137.238 49.9712 136.975 49.9712H101.722C101.406 49.9712 101.151 49.7156 101.151 49.4003Z" fill="white"/>
<path fill-rule="evenodd" clip-rule="evenodd" d="M108.394 25.6134H106.316C106.155 25.6134 106.025 25.4864 106.025 25.3298C106.025 25.1732 106.155 25.0462 106.316 25.0462H108.394C108.554 25.0462 108.685 25.1732 108.685 25.3298C108.685 25.4864 108.554 25.6134 108.394 25.6134Z" fill="white"/>
<path fill-rule="evenodd" clip-rule="evenodd" d="M108.427 26.9742H106.349C106.188 26.9742 106.058 26.8473 106.058 26.6906C106.058 26.534 106.188 26.4071 106.349 26.4071H108.427C108.588 26.4071 108.718 26.534 108.718 26.6906C108.718 26.8473 108.588 26.9742 108.427 26.9742Z" fill="white"/>
<path d="M133.925 45.1892C134.043 45.1892 134.139 45.285 134.139 45.4032C134.139 45.5175 134.05 45.6109 133.937 45.617L133.925 45.6173H104.573C104.455 45.6173 104.359 45.5215 104.359 45.4032C104.359 45.2889 104.448 45.1956 104.561 45.1895L104.573 45.1892H133.925Z" fill="#F1F1F5"/>
<path d="M129.234 47.1481C129.352 47.1481 129.448 47.2439 129.448 47.3621C129.448 47.4764 129.359 47.5698 129.246 47.5759L129.234 47.5762H104.573C104.455 47.5762 104.359 47.4804 104.359 47.3621C104.359 47.2479 104.448 47.1545 104.561 47.1484L104.573 47.1481H129.234Z" fill="#F1F1F5"/>
<path d="M85.4451 10.1434H139.461C140.306 10.1434 140.991 10.8131 140.991 11.6393V16.097H83.9155V11.6393C83.9155 10.8131 84.6003 10.1434 85.4451 10.1434Z" fill="#242F57"/>
<path d="M87.1313 14.1667C87.7342 14.1667 88.223 13.6886 88.223 13.099C88.223 12.5093 87.7342 12.0313 87.1313 12.0313C86.5283 12.0313 86.0396 12.5093 86.0396 13.099C86.0396 13.6886 86.5283 14.1667 87.1313 14.1667Z" fill="#FC5A5A"/>
<path d="M91.3783 14.1667C91.9813 14.1667 92.4701 13.6886 92.4701 13.099C92.4701 12.5093 91.9813 12.0313 91.3783 12.0313C90.7754 12.0313 90.2866 12.5093 90.2866 13.099C90.2866 13.6886 90.7754 14.1667 91.3783 14.1667Z" fill="#FF974A"/>
<path d="M95.3896 14.1667C95.9925 14.1667 96.4813 13.6886 96.4813 13.099C96.4813 12.5093 95.9925 12.0313 95.3896 12.0313C94.7866 12.0313 94.2979 12.5093 94.2979 13.099C94.2979 13.6886 94.7866 14.1667 95.3896 14.1667Z" fill="#3DD598"/>
<path d="M103.259 34.3003L102.557 33.7836L103.259 33.2681L103.962 33.7836L103.259 34.3003Z" fill="white"/>
<path fill-rule="evenodd" clip-rule="evenodd" d="M124.622 41.9858C124.622 42.3571 124.317 42.6611 123.944 42.6611H119.746C119.373 42.6611 119.068 42.3571 119.068 41.9858V25.3194C119.068 24.9479 119.373 24.6441 119.746 24.6441H123.944C124.317 24.6441 124.622 24.9479 124.622 25.3194V41.9858Z" fill="#FC5A5A"/>
<path fill-rule="evenodd" clip-rule="evenodd" d="M105.846 23.4396C105.636 23.4396 105.465 23.2654 105.465 23.0504C105.465 22.8356 105.636 22.6613 105.846 22.6613H112.824C113.034 22.6613 113.204 22.8356 113.204 23.0504C113.204 23.2654 113.034 23.4396 112.824 23.4396H105.846Z" fill="#CCD7EE"/>
<path fill-rule="evenodd" clip-rule="evenodd" d="M105.933 25.2218C105.723 25.2218 105.553 25.0476 105.553 24.8327C105.553 24.6178 105.723 24.4436 105.933 24.4436H108.649C108.859 24.4436 109.03 24.6178 109.03 24.8327C109.03 25.0476 108.859 25.2218 108.649 25.2218H105.933Z" fill="#CCD7EE"/>
<path fill-rule="evenodd" clip-rule="evenodd" d="M111.24 41.9709C111.24 42.3422 110.935 42.6462 110.563 42.6462H106.364C105.991 42.6462 105.687 42.3422 105.687 41.9709V35.3954C105.687 35.0241 105.991 34.7204 106.364 34.7204H110.563C110.935 34.7204 111.24 35.0241 111.24 35.3954V41.9709Z" fill="#92929D"/>
<path fill-rule="evenodd" clip-rule="evenodd" d="M117.931 41.9769C117.931 42.3482 117.626 42.6522 117.254 42.6522H113.055C112.682 42.6522 112.377 42.3482 112.377 41.9769V29.9441C112.377 29.5728 112.682 29.2691 113.055 29.2691H117.254C117.626 29.2691 117.931 29.5728 117.931 29.9441V41.9769Z" fill="#0062FF"/>
<path fill-rule="evenodd" clip-rule="evenodd" d="M131.312 41.9769C131.312 42.3482 131.007 42.6522 130.634 42.6522H126.436C126.063 42.6522 125.758 42.3482 125.758 41.9769V29.9441C125.758 29.5728 126.063 29.2691 126.436 29.2691H130.634C131.007 29.2691 131.312 29.5728 131.312 29.9441V41.9769Z" fill="#FF974A"/>
<path d="M98.3821 19.8181H88.3242C87.9739 19.8181 87.6899 20.1021 87.6899 20.4524V49.3875C87.6899 49.7378 87.9739 50.0218 88.3242 50.0218H98.3821C98.7324 50.0218 99.0163 49.7378 99.0163 49.3875V20.4524C99.0163 20.1021 98.7324 19.8181 98.3821 19.8181Z" fill="#0062FF"/>
<path d="M96.2212 31.8522H90.4106C90.2116 31.8522 90.0503 32.0135 90.0503 32.2125V33.1035C90.0503 33.3025 90.2116 33.4638 90.4106 33.4638H96.2212C96.4201 33.4638 96.5814 33.3025 96.5814 33.1035V32.2125C96.5814 32.0135 96.4201 31.8522 96.2212 31.8522Z" fill="white"/>
<path d="M96.2266 34.9198H90.4051C90.2092 34.9198 90.0503 35.0786 90.0503 35.2746V36.1278C90.0503 36.3238 90.2092 36.4826 90.4051 36.4826H96.2266C96.4226 36.4826 96.5814 36.3238 96.5814 36.1278V35.2746C96.5814 35.0786 96.4226 34.9198 96.2266 34.9198Z" fill="#92929D"/>
<path d="M96.2266 37.9874H90.4051C90.2092 37.9874 90.0503 38.1462 90.0503 38.3422V39.1954C90.0503 39.3913 90.2092 39.5502 90.4051 39.5502H96.2266C96.4226 39.5502 96.5814 39.3913 96.5814 39.1954V38.3422C96.5814 38.1462 96.4226 37.9874 96.2266 37.9874Z" fill="#FC5A5A"/>
<path d="M96.2266 41.0549H90.4051C90.2092 41.0549 90.0503 41.2138 90.0503 41.4098V42.263C90.0503 42.4589 90.2092 42.6178 90.4051 42.6178H96.2266C96.4226 42.6178 96.5814 42.4589 96.5814 42.263V41.4098C96.5814 41.2138 96.4226 41.0549 96.2266 41.0549Z" fill="#FF974A"/>
<path d="M93.4404 28.5512C95.0516 28.5512 96.3578 27.2301 96.3578 25.6006C96.3578 23.971 95.0516 22.65 93.4404 22.65C91.8291 22.65 90.5229 23.971 90.5229 25.6006C90.5229 27.2301 91.8291 28.5512 93.4404 28.5512Z" fill="white"/>
<path d="M93.4117 28.546C94.2526 28.5465 95.0506 28.1708 95.5916 27.5198C95.1653 26.7013 94.3259 26.189 93.4113 26.189C92.4966 26.189 91.6572 26.7013 91.231 27.5198C91.7722 28.1709 92.5706 28.5466 93.4117 28.546Z" fill="#242F57"/>
<path d="M93.272 26.2847C93.878 26.2847 94.3693 25.7879 94.3693 25.1751C94.3693 24.5622 93.878 24.0654 93.272 24.0654C92.6661 24.0654 92.1748 24.5622 92.1748 25.1751C92.1748 25.7879 92.6661 26.2847 93.272 26.2847Z" fill="#242F57"/>
<g clip-path="url(#clip0)">
<path fill-rule="evenodd" clip-rule="evenodd" d="M78.5503 154.636C82.1328 153.631 84.2966 149.993 83.4691 146.366L75.327 110.681C74.2116 105.793 69.2338 102.833 64.4064 104.186C59.579 105.54 56.866 110.657 58.4542 115.412L70.0495 150.128C71.228 153.657 74.9683 155.64 78.5503 154.636Z" fill="#696974"/>
<path fill-rule="evenodd" clip-rule="evenodd" d="M108.997 141.633C111.835 139.228 112.286 135.019 110.023 132.066L87.756 103.018C84.7059 99.0386 78.9471 98.4203 75.1224 101.662C71.2977 104.903 70.9625 110.685 74.3874 114.347L99.3903 141.077C101.932 143.794 106.158 144.039 108.997 141.633Z" fill="#696974"/>
<path fill-rule="evenodd" clip-rule="evenodd" d="M58.6498 89.1362C58.6498 89.1362 44.5726 60.737 45.9189 58.0442C47.2655 55.3509 57.204 49.2962 72.2265 50.3304C87.3143 51.369 92.5899 57.4979 92.5899 57.4979C92.5899 57.4979 88.7109 75.4974 85.4574 87.1776C87.1711 90.2379 84.0561 92.4102 84.0561 92.4102C84.0561 92.4102 64.5014 91.5063 59.8499 91.7509C57.6776 90.8198 58.6498 89.1362 58.6498 89.1362Z" fill="#0062FF"/>
<path fill-rule="evenodd" clip-rule="evenodd" d="M91.2055 109.507L76.3207 116.639L58.7016 115.709C58.7016 115.709 54.6132 104.545 59.4417 94.7758C60.0625 93.0694 60.3147 91.7893 60.3147 91.7893C60.3147 91.7893 75.6761 89.4617 84.055 92.4097L84.3656 95.2028C84.3656 95.2028 86.3128 99.3315 87.4843 102.065C89.3449 106.406 91.2055 109.507 91.2055 109.507Z" fill="#696974"/>
<path fill-rule="evenodd" clip-rule="evenodd" d="M61.7119 48.1879L62.4866 34.675H75.2875L75.2754 49.2738L71.6038 56.2566L61.7119 48.1879Z" fill="#FFC2BD"/>
<path d="M71.7775 42.5027C71.8536 42.5024 71.9155 42.5637 71.9158 42.6398C71.9161 42.7082 71.8665 42.7652 71.8011 42.7762L71.7788 42.7781L70.4718 42.7839C70.3958 42.7843 70.3338 42.7229 70.3335 42.6469C70.3332 42.5785 70.3829 42.5215 70.4482 42.5105L70.4706 42.5086L71.7775 42.5027Z" fill="#D18888"/>
<path fill-rule="evenodd" clip-rule="evenodd" d="M66.288 27.2523C66.288 27.2523 73.3162 25.0124 75.4309 28.2406C77.4872 31.3799 78.2427 43.0854 74.6192 45.0657C71.6656 46.6796 65.4414 46.3323 63.6678 40.7552C63.6678 40.7552 62.1963 36.483 62.4548 32.5844C62.7129 28.6859 66.288 27.2523 66.288 27.2523Z" fill="#FFC2BD"/>
<path fill-rule="evenodd" clip-rule="evenodd" d="M63.4849 37.3465C63.4849 37.3465 61.3497 33.731 59.9851 35.824C58.6205 37.917 61.2983 41.5031 63.4592 41.2325C65.6201 40.9619 63.4849 37.3465 63.4849 37.3465Z" fill="#FFC2BD"/>
<path fill-rule="evenodd" clip-rule="evenodd" d="M77.0288 34.9145C77.0288 34.9145 77.7186 30.3713 76.4855 27.6402C75.2519 24.9092 73.7085 22.1946 72.78 23.72C72.5877 23.0313 71.5836 21.6861 70.8618 21.2588C70.1397 20.8311 68.1315 23.9682 68.1315 23.9682C68.1315 23.9682 68.2122 22.5654 67.4053 23.463C66.5987 24.3607 61.5485 27.272 60.7706 28.7119C59.993 30.1517 60.7192 35.2541 60.7192 35.2541C60.7192 35.2541 62.3768 35.0103 63.437 38.1393C63.0684 35.5951 64.0611 34.2019 64.5802 33.6644C64.7774 33.4607 64.8817 33.186 64.8879 32.903C64.9004 32.3593 64.9132 31.4466 64.8883 30.5574C64.8773 30.1653 65.1464 29.8265 65.5285 29.7391C69.4201 28.8492 73.7706 29.2306 75.3228 29.4134C75.6737 29.4549 75.9546 29.72 76.0199 30.0673L76.5622 32.9522C76.5622 32.9522 76.7953 33.4507 77.0288 34.9145Z" fill="#242F57"/>
<path d="M67.8634 34.0088L67.8968 34.011L70.4326 34.3157C70.6026 34.3361 70.7239 34.4905 70.7034 34.6605C70.6843 34.8199 70.5474 34.9364 70.3903 34.9335L70.3586 34.9314L67.8906 34.6345L66.6634 35.0319C66.5107 35.0814 66.3475 35.006 66.2842 34.8621L66.273 34.8324C66.2235 34.6797 66.2989 34.5165 66.4428 34.4533L66.4725 34.442L67.7644 34.0238C67.7964 34.0135 67.8298 34.0084 67.8634 34.0088Z" fill="#242F57"/>
<path d="M75.3881 33.712C75.4303 33.6984 75.4747 33.694 75.5185 33.6989L75.5512 33.7044L76.534 33.924C76.7011 33.9613 76.8063 34.127 76.769 34.2941C76.734 34.4508 76.5861 34.5531 76.4301 34.5345L76.3988 34.5291L75.4984 34.3278L73.1351 35.0928C72.9823 35.1422 72.8192 35.0668 72.7559 34.9229L72.7446 34.8932C72.6952 34.7405 72.7706 34.5773 72.9145 34.5141L72.9442 34.5028L75.3881 33.712Z" fill="#242F57"/>
<path fill-rule="evenodd" clip-rule="evenodd" d="M63.6808 38.8314C63.6808 38.8314 65.7664 40.2874 66.8994 41.8584C68.2555 39.9798 69.7446 39.1233 69.7446 39.1233C69.7446 39.1233 71.5692 40.3333 72.4771 39.877C72.7492 39.5128 72.6985 39.16 72.6985 39.16C72.6985 39.16 74.2984 39.6574 75.4894 41.2254C75.8921 40.0385 77.1217 38.4639 77.1217 38.4639C77.1217 38.4639 77.8049 46.0355 72.233 46.4493C66.5968 46.75 64.5519 43.7318 63.7729 41.1513C63.5816 40.3396 63.2431 38.2723 63.6808 38.8314Z" fill="#FFC2BD"/>
<path d="M68.9323 40.9624C68.9644 40.8662 69.0684 40.8143 69.1646 40.8464L69.2562 40.875C69.2869 40.8841 69.3233 40.8947 69.365 40.9064C69.5286 40.9524 69.7132 40.9985 69.9145 41.0415C70.6904 41.2073 71.4804 41.2814 72.2131 41.213C72.6057 41.1764 72.9685 41.099 73.2956 40.9773C73.3906 40.9419 73.4963 40.9903 73.5317 41.0853C73.567 41.1803 73.5187 41.286 73.4237 41.3214C73.0644 41.455 72.6704 41.5391 72.2472 41.5786C71.4724 41.6509 70.6471 41.5735 69.8378 41.4005C69.6286 41.3558 69.4365 41.3079 69.2657 41.2599L69.1183 41.2168C69.089 41.2078 69.0656 41.2004 69.0484 41.1946C68.9522 41.1625 68.9002 41.0585 68.9323 40.9624Z" fill="#D18888"/>
<path d="M72.3971 34.8716C72.4748 34.8745 72.537 34.9342 72.5453 35.0093L72.5461 35.0322L72.5151 35.8648L72.6074 36.2157C72.6813 36.5048 72.7551 36.8116 72.8241 37.1232C72.8815 37.3825 72.933 37.6339 72.9771 37.8735L73.0109 38.0628C73.1928 39.1127 73.2034 39.7711 72.9458 39.9943C72.6925 40.2141 72.2153 40.1628 71.5477 39.9356C71.3776 39.8777 71.1992 39.8092 71.0154 39.7321C70.8096 39.6458 70.6077 39.5535 70.418 39.4611L70.2385 39.3717C70.2065 39.3554 70.1839 39.3437 70.1718 39.3372C70.0962 39.2972 70.0674 39.2034 70.1074 39.1278C70.1475 39.0522 70.2412 39.0234 70.3168 39.0634L70.3794 39.0958C70.4306 39.1219 70.4891 39.1511 70.5537 39.1826C70.7384 39.2725 70.9351 39.3625 71.1352 39.4463C71.3127 39.5208 71.4846 39.5868 71.6475 39.6423C72.206 39.8323 72.6097 39.8757 72.7428 39.7602C72.8839 39.638 72.8566 38.9312 72.6723 37.9296C72.6289 37.6938 72.5782 37.446 72.5216 37.1902C72.467 36.9437 72.4093 36.7001 72.351 36.4661L72.2884 36.2192L72.21 35.9239L72.2045 35.8768L72.2365 35.0207C72.2396 34.9352 72.3115 34.8684 72.3971 34.8716Z" fill="#D18888"/>
<path d="M69.0935 36.5745C69.1947 36.5692 69.2811 36.6469 69.2865 36.7481C69.3152 37.2881 69.0133 37.7625 68.5756 37.7855C68.1374 37.8091 67.7867 37.3698 67.7576 36.8298C67.7521 36.7285 67.8298 36.6421 67.931 36.6366C68.0322 36.6311 68.1187 36.7088 68.1242 36.81C68.1435 37.169 68.3518 37.4299 68.5561 37.4189C68.7597 37.4082 68.939 37.1265 68.9199 36.7676C68.9145 36.6663 68.9922 36.5799 69.0935 36.5745Z" fill="#242F57"/>
<path d="M75.1936 36.2491C75.2948 36.2437 75.3812 36.3214 75.3866 36.4227C75.4153 36.9625 75.1136 37.4366 74.6757 37.4601C74.2374 37.4836 73.8868 37.0443 73.8577 36.504C73.8522 36.4027 73.9299 36.3162 74.0311 36.3108C74.1323 36.3053 74.2188 36.383 74.2243 36.4842C74.2436 36.8435 74.4519 37.1045 74.656 37.0935C74.8599 37.0825 75.0391 36.801 75.02 36.4421C75.0146 36.3409 75.0923 36.2545 75.1936 36.2491Z" fill="#242F57"/>
<path d="M69.2461 40.2616C69.3138 40.1862 69.4299 40.18 69.5053 40.2478C69.5738 40.3094 69.5852 40.4109 69.5358 40.4855L69.5191 40.507L68.5657 41.568C68.4979 41.6434 68.3819 41.6496 68.3065 41.5818C68.2379 41.5202 68.2266 41.4187 68.276 41.3441L68.2926 41.3226L69.2461 40.2616Z" fill="#D18888"/>
<path d="M63.7912 41.235C63.8717 41.2062 63.9604 41.2481 63.9893 41.3286L64.0141 41.3933C64.0289 41.4301 64.0487 41.4774 64.0736 41.5342C64.1471 41.7017 64.2385 41.8888 64.3487 42.0906C64.6642 42.668 65.0666 43.2457 65.5635 43.7845C67.4022 45.7785 69.9845 46.7169 73.4499 46.0175C73.5338 46.0005 73.6155 46.0548 73.6324 46.1387C73.6493 46.2226 73.5951 46.3043 73.5112 46.3212C69.9354 47.0429 67.2452 46.0653 65.3357 43.9946C64.8205 43.4359 64.4038 42.8377 64.0768 42.2391C63.9813 42.0643 63.8992 41.8997 63.8299 41.7481L63.7899 41.6587C63.7696 41.6124 63.7516 41.5699 63.7359 41.5314L63.6976 41.4332C63.6687 41.3526 63.7106 41.2639 63.7912 41.235Z" fill="#D18888"/>
<path d="M60.4711 36.943C60.5284 36.5813 60.8057 36.4044 61.2718 36.5559C61.9838 36.7868 62.1116 37.282 61.9531 38.1978L61.9279 38.3349C61.8208 38.8873 62.0254 39.1844 62.537 39.2586C62.6217 39.2709 62.6804 39.3495 62.6681 39.4342C62.6559 39.5188 62.5773 39.5775 62.4926 39.5653C61.8229 39.4682 61.5014 39.0256 61.6131 38.3356L61.6488 38.1397C61.7821 37.3696 61.6872 37.0164 61.1761 36.8506C60.8936 36.7588 60.805 36.8153 60.7771 36.9915C60.7666 37.0576 60.7683 37.1321 60.7777 37.203L60.7834 37.2391C60.7839 37.2418 60.7843 37.2439 60.7847 37.2456C60.8029 37.3292 60.7499 37.4117 60.6663 37.4299C60.5827 37.4481 60.5001 37.3951 60.4819 37.3115L60.4766 37.2836C60.4747 37.2723 60.4726 37.259 60.4706 37.244C60.4575 37.1458 60.4552 37.0429 60.4711 36.943Z" fill="#D18888"/>
<path fill-rule="evenodd" clip-rule="evenodd" d="M69.7488 42.2901C69.74 42.37 69.6679 42.4277 69.588 42.4189C69.5078 42.4101 69.4501 42.3376 69.4589 42.2578C69.4681 42.1779 69.5402 42.1202 69.62 42.1294C69.7002 42.1378 69.7576 42.2103 69.7488 42.2901Z" fill="#D18888"/>
<path fill-rule="evenodd" clip-rule="evenodd" d="M67.5969 42.953C67.5881 43.0328 67.516 43.0905 67.4358 43.0817C67.356 43.0729 67.2982 43.0004 67.307 42.9206C67.3162 42.8408 67.3883 42.783 67.4682 42.7922C67.5484 42.8007 67.6058 42.8731 67.5969 42.953Z" fill="#D18888"/>
<path fill-rule="evenodd" clip-rule="evenodd" d="M74.6482 43.0529C74.6802 43.1268 74.6463 43.2125 74.5724 43.2445C74.4984 43.2765 74.4127 43.2427 74.3807 43.1688C74.3487 43.0952 74.3826 43.0091 74.4565 42.9771C74.5301 42.9451 74.6162 42.9789 74.6482 43.0529Z" fill="#D18888"/>
<path fill-rule="evenodd" clip-rule="evenodd" d="M75.9748 42.2856C76.0068 42.3595 75.973 42.4452 75.899 42.4772C75.8251 42.5092 75.7394 42.4754 75.7074 42.4014C75.6754 42.3279 75.7092 42.2418 75.7832 42.2098C75.8567 42.1778 75.9428 42.2116 75.9748 42.2856Z" fill="#D18888"/>
<path fill-rule="evenodd" clip-rule="evenodd" d="M73.487 43.5391C73.519 43.613 73.4852 43.6987 73.4112 43.7307C73.3377 43.7627 73.2516 43.7289 73.2196 43.6549C73.1876 43.5814 73.2214 43.4953 73.2954 43.4633C73.3693 43.4313 73.455 43.4651 73.487 43.5391Z" fill="#D18888"/>
<path fill-rule="evenodd" clip-rule="evenodd" d="M71.7741 43.296C71.8061 43.3699 71.7723 43.4556 71.6984 43.4876C71.6248 43.5196 71.5387 43.4858 71.5067 43.4119C71.4747 43.3383 71.5085 43.2522 71.5825 43.2202C71.6564 43.1882 71.7421 43.222 71.7741 43.296Z" fill="#D18888"/>
<path fill-rule="evenodd" clip-rule="evenodd" d="M65.8728 42.4456C65.9048 42.5195 65.8709 42.6052 65.797 42.6372C65.7234 42.6692 65.6373 42.6358 65.6053 42.5614C65.5733 42.4879 65.6072 42.4018 65.6811 42.3698C65.7551 42.3382 65.8408 42.3716 65.8728 42.4456Z" fill="#D18888"/>
<path fill-rule="evenodd" clip-rule="evenodd" d="M68.7615 44.3865C68.7527 44.4667 68.6805 44.5245 68.6007 44.5153C68.5205 44.5064 68.4628 44.4343 68.4716 44.3545C68.4808 44.2743 68.5529 44.2166 68.6327 44.2257C68.7129 44.2346 68.7703 44.3067 68.7615 44.3865Z" fill="#D18888"/>
<path fill-rule="evenodd" clip-rule="evenodd" d="M69.8757 44.1014C69.8669 44.1816 69.7948 44.239 69.715 44.2301C69.6348 44.2213 69.577 44.1492 69.5859 44.069C69.595 43.9892 69.6672 43.9314 69.747 43.9406C69.8272 43.9491 69.8846 44.0216 69.8757 44.1014Z" fill="#D18888"/>
<path fill-rule="evenodd" clip-rule="evenodd" d="M74.4504 44.2502C74.4416 44.3304 74.3695 44.3881 74.2897 44.379C74.2095 44.3701 74.1517 44.298 74.1606 44.2182C74.1698 44.138 74.2419 44.0802 74.3217 44.0894C74.4019 44.0983 74.4593 44.1704 74.4504 44.2502Z" fill="#D18888"/>
<path fill-rule="evenodd" clip-rule="evenodd" d="M73.637 42.5724C73.6281 42.6526 73.556 42.71 73.4762 42.7012C73.396 42.6924 73.3383 42.6203 73.3471 42.5401C73.3563 42.4602 73.4284 42.4025 73.5082 42.4117C73.5884 42.4201 73.6458 42.4926 73.637 42.5724Z" fill="#D18888"/>
<path fill-rule="evenodd" clip-rule="evenodd" d="M74.0823 41.0923C74.0734 41.1725 74.0013 41.2299 73.9215 41.221C73.8413 41.2122 73.7836 41.1401 73.7924 41.0599C73.8016 40.9801 73.8737 40.9223 73.9535 40.9315C74.0337 40.94 74.0911 41.0125 74.0823 41.0923Z" fill="#D18888"/>
<path fill-rule="evenodd" clip-rule="evenodd" d="M67.5027 43.866C67.4939 43.9458 67.4218 44.0036 67.3416 43.9947C67.2617 43.9859 67.204 43.9134 67.2128 43.8336C67.222 43.7534 67.2941 43.696 67.3739 43.7049C67.4541 43.7137 67.5115 43.7858 67.5027 43.866Z" fill="#D18888"/>
<path fill-rule="evenodd" clip-rule="evenodd" d="M76.6077 51.2909L76.0262 48.9247L73.4134 49.1571L71.8487 55.1688L68.3841 48.5503L60.6527 47.7609L59.5649 51.4847C59.5649 51.4847 64.6008 58.3272 72.7676 57.0709C76.8016 56.4501 76.6077 51.2909 76.6077 51.2909Z" fill="#0062FF"/>
<path fill-rule="evenodd" clip-rule="evenodd" d="M83.4854 55.3533C83.4854 55.3533 90.4204 64.0359 89.4211 74.1055C95.8161 77.8322 99.1973 78.3098 101.572 79.4787C103.945 80.6473 110.931 78.1097 109.735 72.1619C108.661 66.8275 94.9397 60.3918 92.9418 58.5583C89.9593 55.8221 84.8434 54.9429 83.4854 55.3533Z" fill="#FFC2BD"/>
<path fill-rule="evenodd" clip-rule="evenodd" d="M100.972 63.4846C97.2617 60.0175 93.764 58.4249 92.724 57.4707C89.7414 54.7342 84.6061 54.7118 83.248 55.1222C83.248 55.1222 88.2245 63.2093 87.2255 73.2789C89.9746 74.8256 92.8958 75.8565 94.7858 76.5437C94.7858 76.5437 94.3287 75.2705 95.817 70.7016C97.62 65.1661 100.972 63.4846 100.972 63.4846Z" fill="#0062FF"/>
<path d="M88.6966 60.6834C88.7727 60.6677 88.8472 60.7166 88.863 60.7928L88.8843 60.9032C88.901 60.9932 88.9195 61.0995 88.9395 61.2218L88.9774 61.463C89.0216 61.7544 89.0652 62.0807 89.1065 62.4401C89.7202 67.7825 89.3165 74.1503 87.1375 80.8166C87.1133 80.8905 87.0338 80.9308 86.9599 80.9067C86.886 80.8825 86.8456 80.803 86.8698 80.7291C89.035 74.1052 89.4362 67.7771 88.8267 62.4722C88.78 62.0654 88.7303 61.7019 88.6804 61.3842L88.6616 61.2672C88.6459 61.171 88.6311 61.0849 88.6174 61.0093L88.5872 60.8498C88.5715 60.7737 88.6204 60.6992 88.6966 60.6834Z" fill="#242F57"/>
<path fill-rule="evenodd" clip-rule="evenodd" d="M84.4038 95.2413C72.5918 93.7284 59.3833 94.5952 59.3833 94.5952L59.8488 91.2786C59.8488 91.2786 74.861 89.3585 84.1321 91.841C84.3454 93.4314 84.4038 95.2413 84.4038 95.2413Z" fill="#242F57"/>
<path d="M72.9704 94.6979C73.0782 94.6603 73.196 94.7173 73.2335 94.8251L73.3211 95.0883C73.3446 95.1606 73.37 95.2398 73.3972 95.326L73.4692 95.5566C73.5671 95.8736 73.6724 96.2286 73.7837 96.6205L73.8257 96.7691C74.2684 98.3433 74.7109 100.158 75.1239 102.19C76.028 106.639 76.6599 111.467 76.9026 116.58L76.9226 117.027L83.2133 111.523C83.2921 111.454 83.4084 111.456 83.4851 111.523L83.505 111.542C83.5739 111.621 83.5723 111.737 83.5054 111.814L83.4855 111.834L76.8699 117.623C76.7391 117.737 76.5339 117.649 76.5273 117.475C76.3191 112.06 75.6702 106.954 74.7188 102.273C74.3266 100.343 73.9077 98.6103 73.4878 97.0959L73.4278 96.881C73.3019 96.4334 73.1834 96.0321 73.0743 95.6788L73.003 95.4505C72.9583 95.3088 72.9186 95.1864 72.8844 95.0835L72.8431 94.961C72.8056 94.8532 72.8626 94.7354 72.9704 94.6979Z" fill="#242F57"/>
<path d="M77.4885 94.8479C77.5991 94.8195 77.7117 94.8862 77.7401 94.9968L77.8485 95.427L78.0209 96.1258C78.0575 96.2756 78.0952 96.4311 78.134 96.592C78.4292 97.8177 78.7244 99.1033 79 100.387C79.1391 101.035 79.2697 101.667 79.3904 102.278L79.4499 102.582C80.3162 107.041 80.5539 109.752 79.8604 110.291C79.5444 110.537 79.184 110.778 78.7874 111.013C78.2641 111.323 77.7046 111.609 77.1452 111.863C76.9887 111.934 76.841 111.998 76.7045 112.056L76.4635 112.155C76.4355 112.166 76.4131 112.175 76.3966 112.181C76.2901 112.222 76.1705 112.169 76.1295 112.063C76.0886 111.956 76.1418 111.837 76.2483 111.796L76.4461 111.716C76.6054 111.65 76.783 111.573 76.9744 111.486C77.521 111.238 78.0675 110.959 78.5765 110.658C78.9591 110.431 79.3053 110.199 79.6065 109.965C80.0872 109.591 79.8532 106.858 79.0701 102.795L79.0441 102.661C78.9077 101.959 78.7575 101.227 78.5959 100.474C78.3554 99.3538 78.0999 98.2319 77.8425 97.1499L77.6562 96.3751L77.4298 95.4566L77.3397 95.0995C77.3113 94.9889 77.3779 94.8763 77.4885 94.8479Z" fill="#242F57"/>
<path fill-rule="evenodd" clip-rule="evenodd" d="M70.0132 94.1747V90.8617C70.0132 90.4292 70.3432 90.0746 70.761 90.0621C72.1466 90.0206 75.2257 89.9839 78.0188 90.3378C78.4083 90.3874 78.7024 90.727 78.7024 91.133V94.2481C78.7024 94.6934 78.3532 95.0532 77.9226 95.0477C76.3392 95.0282 72.7325 94.9853 70.7794 94.9746C70.3542 94.9721 70.0132 94.6148 70.0132 94.1747Z" fill="#F1F1F5"/>
<path fill-rule="evenodd" clip-rule="evenodd" d="M70.9097 93.6031L70.9104 91.4099C70.9104 91.1239 71.1799 90.8893 71.5209 90.8808C72.6513 90.854 75.1632 90.8305 77.442 91.0659C77.7599 91.0989 77.9996 91.324 77.9996 91.5927L77.9989 93.6545C77.9985 93.9493 77.7136 94.1872 77.3623 94.1835C76.0707 94.1699 73.1279 94.1406 71.5345 94.1325C71.1876 94.131 70.9097 93.8942 70.9097 93.6031Z" fill="#242F57"/>
<path fill-rule="evenodd" clip-rule="evenodd" d="M77.9753 90.6424L70.6401 93.9161L70.943 94.5828L78.3392 91.2485L77.9753 90.6424Z" fill="#F1F1F5"/>
<path fill-rule="evenodd" clip-rule="evenodd" d="M78.2898 93.8114L70.9374 90.576L70.647 91.2485L78.085 94.4881L78.2898 93.8114Z" fill="#F1F1F5"/>
<path d="M63.9517 94.1089C64.0641 94.1285 64.1395 94.2355 64.1199 94.348L64.1043 94.4318L64.0706 94.5991L64.0572 94.6624C64.0043 94.9095 63.9385 95.1845 63.8591 95.4806C63.6323 96.3267 63.3416 97.1731 62.9803 97.9647C61.9328 100.259 60.5101 101.652 58.6447 101.652C58.5305 101.652 58.438 101.559 58.438 101.445C58.438 101.331 58.5305 101.238 58.6447 101.238C60.3068 101.238 61.6168 99.9563 62.6042 97.793C62.9551 97.0244 63.2386 96.1991 63.4599 95.3735C63.5373 95.0845 63.6015 94.8162 63.653 94.5758L63.6886 94.4035L63.7126 94.2772C63.7307 94.1734 63.8233 94.1012 63.9258 94.1061L63.9517 94.1089Z" fill="#242F57"/>
<path d="M60.1823 51.5534C60.2063 51.4876 60.2741 51.4505 60.3407 51.4631L60.3628 51.4692L65.4831 53.3313C65.5562 53.3578 65.5939 53.4386 65.5673 53.5117C65.5434 53.5775 65.4756 53.6146 65.409 53.602L65.3869 53.5959L60.2665 51.7338C60.1935 51.7073 60.1558 51.6265 60.1823 51.5534Z" fill="#242F57"/>
<path d="M71.8086 55.0337C71.8833 55.012 71.9614 55.055 71.9831 55.1297L72.0299 55.2978L72.1008 55.5647C72.1175 55.6289 72.1347 55.6963 72.1524 55.7668C72.279 56.2698 72.4055 56.8262 72.5236 57.4203C72.8024 58.8225 72.9907 60.2117 73.0469 61.5113C73.0843 62.3764 73.0613 63.1777 72.9707 63.9023C72.9611 63.9795 72.8907 64.0342 72.8136 64.0246C72.7364 64.0149 72.6817 63.9446 72.6913 63.8674C72.7798 63.1596 72.8023 62.3738 72.7656 61.5235C72.7101 60.2398 72.5236 58.8644 72.2475 57.4752C72.1433 56.9514 72.0326 56.4572 71.9212 56.0037L71.8794 55.8355C71.853 55.7309 71.8278 55.6332 71.804 55.5427L71.7126 55.2081C71.691 55.1335 71.7339 55.0554 71.8086 55.0337Z" fill="#242F57"/>
<path fill-rule="evenodd" clip-rule="evenodd" d="M92.5247 66.2404C87.8527 70.86 77.3554 82.1642 69.9655 87.3216C69.9655 87.3216 62.1314 92.5054 57.5753 85.6012C53.1331 78.8696 61.3905 73.9633 61.3905 73.9633C70.5122 68.2743 81.4037 61.9138 86.3812 58.566C86.3812 58.566 89.1369 56.9018 91.9171 59.7969C95.2165 63.2325 92.5247 66.2404 92.5247 66.2404Z" fill="#FFC2BD"/>
<path fill-rule="evenodd" clip-rule="evenodd" d="M60.7701 58.8575C59.3115 56.6195 54.946 50.8343 49.0015 54.9645C44.9836 57.7561 44.104 62.9337 45.4693 66.4063C47.5535 71.7069 52.4143 78.9981 56.8459 84.8908C56.8459 84.8908 61.6472 91.7554 68.2415 87.1116C73.8218 83.1815 70.3066 77.1922 70.3066 77.1922C70.3066 77.1922 62.4372 61.4153 60.7701 58.8575Z" fill="#FFC2BD"/>
<path fill-rule="evenodd" clip-rule="evenodd" d="M66.4253 69.3373C65.176 66.857 61.7291 60.0137 61.2037 59.2079C59.7455 56.9699 55.7357 50.9692 49.3899 54.4518C44.3151 57.2368 44.191 62.9129 45.4099 66.4396C46.2502 68.8711 50.3551 75.5425 51.8662 78.039L66.4253 69.3373Z" fill="#0062FF"/>
<path d="M60.3256 58.0157C60.3908 57.9733 60.478 57.9917 60.5204 58.0568L60.5763 58.1461C61.2796 59.3024 65.1977 66.6061 66.4507 69.0937C66.4802 69.1523 66.4651 69.2223 66.4168 69.2638L66.3972 69.2779L51.838 77.9795C51.7713 78.0194 51.6849 77.9977 51.645 77.9309C51.6095 77.8716 51.6228 77.7967 51.673 77.7528L51.6936 77.7378L66.1401 69.1033L65.8484 68.5327C64.356 65.6352 61.0481 59.4789 60.3601 58.3327L60.2845 58.2105C60.2421 58.1454 60.2605 58.0582 60.3256 58.0157Z" fill="#242F57"/>
<path fill-rule="evenodd" clip-rule="evenodd" d="M96.6583 65.2441C96.6583 65.2441 89.025 67.0713 86.7081 64.2015C84.6099 61.6026 86.2448 58.8914 86.2448 58.8914C86.2448 58.8914 88.058 56.4852 91.4822 54.8948C93.7261 53.8522 99.7896 51.0448 100.632 52.05C101.729 53.3606 97.2336 55.3743 97.2725 56.6174C97.3518 59.137 104.759 56.7136 106.171 56.9654C108.931 57.4574 105.832 63.1222 96.6583 65.2441Z" fill="#FFC2BD"/>
<path d="M106.275 58.1187C106.365 58.0719 106.476 58.1068 106.523 58.1967C106.57 58.2866 106.535 58.3975 106.445 58.4443C105.979 58.6871 105.485 58.9021 104.968 59.0909C103.741 59.5378 102.43 59.822 101.112 59.9761C100.636 60.0317 100.187 60.0668 99.7754 60.0851L99.5473 60.0938C99.4293 60.0973 99.3262 60.099 99.2392 60.0993L99.1209 60.0988C99.0195 60.0968 98.939 60.013 98.941 59.9117C98.9428 59.8188 99.0133 59.7433 99.1031 59.7329L99.1372 59.7318L99.239 59.7322C99.373 59.7317 99.548 59.7278 99.759 59.7184C100.162 59.7004 100.602 59.666 101.069 59.6115C102.361 59.4605 103.645 59.1821 104.842 58.7459C105.345 58.5625 105.824 58.3539 106.275 58.1187Z" fill="#D18888"/>
<path d="M105.761 60.0054C105.849 59.9547 105.961 59.9846 106.012 60.0724C106.063 60.1601 106.033 60.2724 105.945 60.3232L105.893 60.3522C105.864 60.3682 105.826 60.3884 105.779 60.4123C105.646 60.4812 105.487 60.5578 105.305 60.6401C104.786 60.8744 104.176 61.1083 103.479 61.3265C102.042 61.7764 100.428 62.0998 98.6529 62.2424C98.5518 62.2505 98.4633 62.1752 98.4552 62.0741C98.4471 61.9731 98.5224 61.8846 98.6235 61.8765C100.371 61.7361 101.958 61.418 103.369 60.9761C104.051 60.7625 104.648 60.5338 105.154 60.3054L105.322 60.2278C105.403 60.1901 105.477 60.1539 105.545 60.1197L105.611 60.086C105.687 60.0469 105.737 60.0194 105.761 60.0054Z" fill="#D18888"/>
<path d="M102.966 62.4548C103.062 62.4215 103.166 62.4723 103.199 62.5681C103.233 62.6638 103.182 62.7684 103.086 62.8016C101.565 63.3292 100.213 63.6738 99.0473 63.8711C98.6379 63.9404 98.2806 63.9863 97.9774 64.0132L97.8561 64.0232C97.8179 64.0261 97.782 64.0285 97.7485 64.0305L97.6016 64.0368C97.5003 64.0382 97.417 63.9572 97.4155 63.8558C97.4142 63.7544 97.4953 63.6711 97.5966 63.6698L97.6813 63.6665L97.7764 63.6608C97.8104 63.6585 97.8467 63.6558 97.8853 63.6526L97.9449 63.6475C98.2386 63.6214 98.5862 63.5768 98.986 63.5091C100.132 63.3152 101.464 62.9757 102.966 62.4548Z" fill="#D18888"/>
<path fill-rule="evenodd" clip-rule="evenodd" d="M127.332 60.7834C123.449 64.6229 114.724 74.0184 108.582 78.3053C108.582 78.3053 102.07 82.6139 98.2839 76.8754C94.5917 71.2803 101.455 67.2023 101.455 67.2023C109.036 62.4737 118.089 57.1878 122.226 54.4046C122.226 54.4046 124.516 53.0216 126.827 55.4281C129.569 58.2833 127.332 60.7834 127.332 60.7834Z" fill="#FFC2BD"/>
<path fill-rule="evenodd" clip-rule="evenodd" d="M122.308 60.523C122.308 60.523 120.303 58.0294 121.891 53.7616C123.12 50.4615 122.441 49.8686 122.716 47.9672C122.992 46.0659 124.531 47.9096 124.742 51.4869C124.708 54.0942 129.874 48.8703 130.851 45.5607C131.8 42.3476 137.72 51.5981 128.422 59.5728C123.838 63.5037 122.308 60.523 122.308 60.523Z" fill="#FFC2BD"/>
<path d="M132.265 48.9885C132.464 48.638 132.702 48.5212 132.909 48.5622L132.937 48.5689C132.94 48.5701 132.944 48.5713 132.947 48.5725C133.027 48.6015 133.067 48.6891 133.038 48.7682C133.012 48.8394 132.939 48.8795 132.866 48.8657L132.85 48.8615C132.832 48.8579 132.803 48.8608 132.764 48.88C132.691 48.916 132.611 48.9968 132.531 49.1389C132.416 49.341 132.316 49.641 132.237 50.0519L132.221 50.1416C131.856 52.1928 130.373 53.7492 127.642 55.137C126.974 55.476 126.496 55.8826 126.181 56.3414C125.727 57.0034 125.645 57.7035 125.776 58.3306C125.796 58.4239 125.815 58.4891 125.827 58.5211C125.856 58.6002 125.815 58.6878 125.736 58.7168C125.657 58.7457 125.569 58.705 125.54 58.6259L125.525 58.579C125.51 58.5332 125.494 58.4707 125.478 58.3933C125.33 57.6913 125.422 56.908 125.929 56.1688C126.274 55.6664 126.792 55.2264 127.504 54.865C130.115 53.5381 131.529 52.0766 131.903 50.1818L131.92 50.0882C132.007 49.5994 132.124 49.2386 132.265 48.9885Z" fill="#D18888"/>
<path d="M131.909 47.3219C132.237 46.927 132.616 46.808 132.88 47.0801C132.939 47.1406 132.937 47.2372 132.877 47.2958C132.816 47.3545 132.72 47.353 132.661 47.2925C132.556 47.1845 132.372 47.2424 132.144 47.5169C131.861 47.8576 131.609 48.4359 131.455 49.1548C131.317 49.7987 130.975 50.4719 130.49 51.1468C130.268 51.457 130.029 51.7473 129.791 52.0099C129.728 52.0788 129.669 52.1422 129.614 52.1996L129.515 52.3002C129.495 52.3196 129.48 52.3343 129.47 52.3439C129.409 52.4021 129.313 52.3999 129.255 52.3389C129.196 52.278 129.199 52.1814 129.26 52.1233L129.342 52.041C129.409 51.9728 129.484 51.8937 129.565 51.8047C129.796 51.5504 130.027 51.269 130.243 50.9689C130.705 50.3251 131.029 49.6872 131.157 49.091C131.32 48.3273 131.591 47.7043 131.909 47.3219Z" fill="#D18888"/>
<path d="M131.903 46.0946L131.909 46.0982L131.895 46.0946C131.834 46.0839 131.742 46.116 131.611 46.2468C131.372 46.4853 131.119 46.9649 130.866 47.739L130.836 47.8333C130.614 48.5329 130.302 49.1762 129.923 49.7611C129.644 50.1917 129.346 50.5662 129.046 50.883C128.962 50.9721 128.883 51.0515 128.809 51.1211L128.707 51.2156C128.678 51.2415 128.656 51.2604 128.641 51.2723C128.576 51.3256 128.48 51.3159 128.426 51.2506C128.373 51.1853 128.383 51.0892 128.448 51.036L128.487 51.0031C128.503 50.9883 128.524 50.9696 128.549 50.9471C128.632 50.8708 128.724 50.7795 128.825 50.6736C129.112 50.3697 129.399 50.0096 129.667 49.5953C130.032 49.0324 130.332 48.4137 130.545 47.7411C131.04 46.1793 131.553 45.6673 132 45.807C132.025 45.8147 132.044 45.8236 132.059 45.8321C132.131 45.875 132.155 45.9686 132.112 46.0411C132.069 46.1136 131.976 46.1375 131.903 46.0946Z" fill="#D18888"/>
<path d="M71.8579 44.6132C71.9184 44.5527 72.0165 44.5527 72.077 44.6132C72.1261 44.6623 72.195 44.7466 72.2634 44.8606C72.5415 45.3241 72.5415 45.8363 72.077 46.3008C72.0165 46.3613 71.9184 46.3613 71.8579 46.3008C71.7974 46.2403 71.7974 46.1422 71.8579 46.0817C72.2092 45.7304 72.2092 45.3724 71.9977 45.02C71.9438 44.9301 71.8904 44.8648 71.8579 44.8323C71.7974 44.7718 71.7974 44.6737 71.8579 44.6132Z" fill="#D18888"/>
</g>
<path fill-rule="evenodd" clip-rule="evenodd" d="M123.308 67.9294V85.2041H120.669V68.2841C120.669 68.2841 123.511 67.9294 123.308 67.9294Z" fill="#242F57"/>
<path fill-rule="evenodd" clip-rule="evenodd" d="M113.053 64.5792C113.053 67.6437 115.538 70.1268 118.602 70.1268C121.665 70.1268 124.149 67.6437 124.149 64.5792C124.149 61.5147 121.665 59.0316 118.602 59.0316C115.538 59.0316 113.053 61.5147 113.053 64.5792Z" fill="#696974"/>
<path fill-rule="evenodd" clip-rule="evenodd" d="M127.766 72.6119L120.238 69.5451C118.415 68.8024 117.66 66.6259 118.632 64.9139C119.619 63.1727 121.928 62.724 123.496 63.9691L129.791 68.9628C130.578 69.5427 130.913 70.5966 130.513 71.4885C130.348 71.8559 130.074 72.2122 129.632 72.4871C129.075 72.8332 128.374 72.8569 127.766 72.6119Z" fill="#696974"/>
<path d="M122.515 64.2194C122.515 64.2194 119.669 65.1683 120.048 68.5828" stroke="#242F57" stroke-width="0.326059" stroke-linecap="round" stroke-linejoin="round"/>
<path fill-rule="evenodd" clip-rule="evenodd" d="M139.576 114.742H84.2982C82.1177 114.742 80.3496 112.974 80.3496 110.793V87.1034C80.3496 84.9222 82.1177 83.1549 84.2982 83.1549H139.576C141.756 83.1549 143.524 84.9222 143.524 87.1034V110.793C143.524 112.974 141.756 114.742 139.576 114.742Z" fill="#242F57"/>
<path fill-rule="evenodd" clip-rule="evenodd" d="M55.8917 19.9965H27.6753V17.4682C27.6753 16.9197 28.12 16.4751 28.6684 16.4751H54.8986C55.4471 16.4751 55.8917 16.9197 55.8917 17.4682V19.9965Z" fill="#242F57"/>
<path fill-rule="evenodd" clip-rule="evenodd" d="M54.8986 44.3397H28.6684C28.12 44.3397 27.6753 43.895 27.6753 43.3466V19.7H55.8917V43.3466C55.8917 43.895 55.4471 44.3397 54.8986 44.3397Z" fill="#F1F1F5"/>
<path fill-rule="evenodd" clip-rule="evenodd" d="M29.9692 18.1138C29.9692 18.458 29.6901 18.7371 29.3459 18.7371C29.0017 18.7371 28.7227 18.458 28.7227 18.1138C28.7227 17.7696 29.0017 17.4906 29.3459 17.4906C29.6901 17.4906 29.9692 17.7696 29.9692 18.1138Z" fill="#FC5A5A"/>
<path fill-rule="evenodd" clip-rule="evenodd" d="M32.2968 18.1138C32.2968 18.458 32.0177 18.7371 31.6735 18.7371C31.3293 18.7371 31.0503 18.458 31.0503 18.1138C31.0503 17.7696 31.3293 17.4906 31.6735 17.4906C32.0177 17.4906 32.2968 17.7696 32.2968 18.1138Z" fill="#FF974A"/>
<path fill-rule="evenodd" clip-rule="evenodd" d="M34.6239 18.1138C34.6239 18.458 34.3449 18.7371 34.0007 18.7371C33.6565 18.7371 33.3774 18.458 33.3774 18.1138C33.3774 17.7696 33.6565 17.4906 34.0007 17.4906C34.3449 17.4906 34.6239 17.7696 34.6239 18.1138Z" fill="#3DD598"/>
<path fill-rule="evenodd" clip-rule="evenodd" d="M30.7264 40.9883C30.5552 40.9883 30.4165 40.8496 30.4165 40.6786V22.7279C30.4165 22.5569 30.5552 22.4183 30.7264 22.4183H53.1517C53.3229 22.4183 53.4616 22.5569 53.4616 22.7279V40.6786C53.4616 40.8496 53.3229 40.9883 53.1517 40.9883H30.7264Z" fill="white"/>
<path fill-rule="evenodd" clip-rule="evenodd" d="M38.4094 24.7684H32.7326C32.5002 24.7684 32.3101 24.5783 32.3101 24.3459C32.3101 24.1135 32.5002 23.9234 32.7326 23.9234H38.4094C38.6418 23.9234 38.8319 24.1135 38.8319 24.3459C38.8319 24.5783 38.6418 24.7684 38.4094 24.7684Z" fill="#F1F1F5"/>
<path fill-rule="evenodd" clip-rule="evenodd" d="M35.1281 26.7614H33.0153C32.782 26.7614 32.5928 26.5722 32.5928 26.3389C32.5928 26.1055 32.782 25.9164 33.0153 25.9164H35.1281C35.3614 25.9164 35.5506 26.1055 35.5506 26.3389C35.5506 26.5722 35.3614 26.7614 35.1281 26.7614Z" fill="#F1F1F5"/>
<path d="M41.7817 26.4128C38.8623 26.4128 36.4956 28.7794 36.4956 31.6989C36.4956 34.6183 38.8623 36.985 41.7817 36.985C44.7012 36.985 47.0678 34.6183 47.0678 31.6989C47.0678 28.7794 44.7012 26.4128 41.7817 26.4128ZM41.7817 28.068C43.787 28.068 45.4127 29.6936 45.4127 31.6989C45.4127 33.7042 43.787 35.3298 41.7817 35.3298C39.7764 35.3298 38.1508 33.7042 38.1508 31.6989C38.1508 29.6936 39.7764 28.068 41.7817 28.068Z" fill="#FF974A"/>
<path d="M45.4941 29.0933C45.9097 28.9031 46.4008 29.0858 46.591 29.5014C46.9042 30.1856 47.0685 30.9317 47.0685 31.6994C47.0685 32.3281 46.9584 32.9429 46.7456 33.522C46.588 33.9511 46.1125 34.1711 45.6834 34.0135C45.2587 33.8575 45.0388 33.3898 45.1873 32.9642L45.192 32.9513C45.3378 32.5543 45.4134 32.1326 45.4134 31.6994C45.4134 31.1815 45.3053 30.6802 45.099 30.219L45.086 30.1903C44.8958 29.7747 45.0785 29.2835 45.4941 29.0933Z" fill="#FC5A5A"/>
<path d="M50.4349 35.9546C49.4455 35.9546 48.6455 36.7661 48.6455 37.7647C48.6455 38.7633 49.4455 39.5747 50.4349 39.5747C51.4242 39.5747 52.2243 38.7633 52.2243 37.7647C52.2243 36.7661 51.4242 35.9546 50.4349 35.9546ZM50.4349 36.6368C51.0453 36.6368 51.5421 37.1407 51.5421 37.7647C51.5421 38.3887 51.0453 38.8925 50.4349 38.8925C49.8245 38.8925 49.3277 38.3887 49.3277 37.7647C49.3277 37.1407 49.8245 36.6368 50.4349 36.6368Z" fill="#F1F1F5"/>
<path d="M51.6242 36.8098C51.7974 36.7356 51.9979 36.8157 52.0721 36.9889C52.1718 37.2212 52.2239 37.4741 52.2239 37.734C52.2239 37.9468 52.189 38.155 52.1214 38.3515C52.0602 38.5296 51.8661 38.6244 51.6879 38.5631C51.5129 38.5029 51.4183 38.3144 51.4733 38.1389L51.4763 38.1296C51.5193 38.0044 51.5417 37.8712 51.5417 37.734C51.5417 37.5667 51.5084 37.4052 51.4452 37.2577C51.3709 37.0846 51.4511 36.884 51.6242 36.8098Z" fill="#0062FF"/>
<path fill-rule="evenodd" clip-rule="evenodd" d="M49.4295 56.0427C57.4521 52.248 62.2336 62.2002 58.1989 67.7414C53.2752 74.5035 50.753 82.2841 49.3485 84.6284C48.1637 86.6059 44.9181 91.4271 41.0099 89.205C37.4131 87.1599 39.3735 79.1334 39.3735 79.1334C39.3735 79.1334 39.5323 60.724 49.4295 56.0427Z" fill="#5B8C00"/>
<path fill-rule="evenodd" clip-rule="evenodd" d="M25.2986 87.6596C22.5712 83.9799 21.5753 78.6992 24.6196 77.3451C27.5384 76.0469 32.3732 79.2434 34.6127 85.3954C36.8521 91.5474 38.1441 95.9705 35.9535 96.7395C32.3595 98.0013 28.901 92.5197 25.2986 87.6596Z" fill="#5B8C00"/>
<path fill-rule="evenodd" clip-rule="evenodd" d="M53.9724 87.9391C50.8876 91.5542 46.436 98.8265 43.6471 96.2794C41.9569 94.7359 44.2165 87.4259 50.4017 83.4486C55.6629 80.0655 57.0574 84.324 53.9724 87.9391Z" fill="#3DD598"/>
<path fill-rule="evenodd" clip-rule="evenodd" d="M24.4531 62.8521C25.6262 62.0628 27.102 61.8825 28.4485 62.3138C30.3278 62.9158 33.1796 64.708 36.0022 69.8522C39.6872 76.5684 41.6055 83.9313 41.2263 88.5952C40.9784 91.6453 37.2208 92.9602 35.1187 90.7363C34.1533 89.7149 33.1318 88.1406 32.1324 85.7521C28.1103 76.1407 24.35 70.1176 23.9015 69.5129C22.705 67.8991 21.8495 64.6038 24.4531 62.8521Z" fill="#3DD598"/>
<path fill-rule="evenodd" clip-rule="evenodd" d="M27.1513 66.6858C27.1911 67.1604 26.8386 67.5773 26.3641 67.6171C25.8895 67.657 25.4726 67.3045 25.4328 66.8299C25.393 66.3554 25.7454 65.9385 26.22 65.8986C26.6945 65.8588 27.1114 66.2113 27.1513 66.6858Z" fill="white"/>
<path fill-rule="evenodd" clip-rule="evenodd" d="M34.4754 70.3673C34.5152 70.8418 34.1628 71.2588 33.6882 71.2986C33.2136 71.3385 32.7967 70.986 32.7568 70.5114C32.717 70.0369 33.0695 69.62 33.5441 69.5801C34.0186 69.5404 34.4356 69.8928 34.4754 70.3673Z" fill="white"/>
<path fill-rule="evenodd" clip-rule="evenodd" d="M33.2478 80.1696C33.2935 80.713 32.8898 81.1905 32.3464 81.2361C31.8029 81.2817 31.3254 80.8781 31.2798 80.3346C31.2342 79.7912 31.6378 79.3137 32.1813 79.2681C32.7247 79.2225 33.2022 79.6261 33.2478 80.1696Z" fill="white"/>
<path fill-rule="evenodd" clip-rule="evenodd" d="M55.7438 65.5205C55.7438 66.2918 55.1186 66.9171 54.3473 66.9171C53.576 66.9171 52.9508 66.2918 52.9508 65.5205C52.9508 64.7493 53.576 64.124 54.3473 64.124C55.1186 64.124 55.7438 64.7493 55.7438 65.5205Z" fill="white"/>
<path fill-rule="evenodd" clip-rule="evenodd" d="M44.5016 69.785C44.5016 70.5563 43.8763 71.1815 43.1051 71.1815C42.3338 71.1815 41.7086 70.5563 41.7086 69.785C41.7086 69.0138 42.3338 68.3885 43.1051 68.3885C43.8763 68.3885 44.5016 69.0138 44.5016 69.785Z" fill="white"/>
<path fill-rule="evenodd" clip-rule="evenodd" d="M48.1426 79.2646C48.1426 79.5869 47.8813 79.8483 47.5589 79.8483C47.2366 79.8483 46.9752 79.5869 46.9752 79.2646C46.9752 78.9422 47.2366 78.6808 47.5589 78.6808C47.8813 78.6808 48.1426 78.9422 48.1426 79.2646Z" fill="white"/>
<path fill-rule="evenodd" clip-rule="evenodd" d="M52.3477 86.7293C52.3477 87.2055 51.9616 87.5916 51.4855 87.5916C51.0092 87.5916 50.6232 87.2055 50.6232 86.7293C50.6232 86.2531 51.0092 85.867 51.4855 85.867C51.9616 85.867 52.3477 86.2531 52.3477 86.7293Z" fill="white"/>
<path d="M32.2067 88.6417C32.2871 88.5651 32.4144 88.5681 32.491 88.6485L32.5278 88.6882L32.5556 88.719C32.6063 88.7756 32.6649 88.8431 32.7307 88.9215C32.9175 89.1444 33.1254 89.4107 33.3488 89.7201C33.9857 90.6019 34.6219 91.654 35.2154 92.8746C36.909 96.3581 37.9247 100.496 37.9247 105.272C37.9247 105.383 37.8347 105.473 37.7236 105.473C37.6126 105.473 37.5226 105.383 37.5226 105.272C37.5226 100.559 36.5215 96.4808 34.8537 93.0505C34.2707 91.8513 33.6465 90.8191 33.0228 89.9555C32.8179 89.6718 32.6271 89.4261 32.4546 89.2184L32.4225 89.1799C32.3736 89.1216 32.329 89.0698 32.2892 89.0245L32.2388 88.9681C32.2201 88.9474 32.2071 88.9334 32.2 88.926C32.1234 88.8456 32.1264 88.7184 32.2067 88.6417Z" fill="#242F57"/>
<path d="M47.3971 90.049C47.4636 89.9601 47.5896 89.9418 47.6785 90.0082C47.7675 90.0746 47.7858 90.2006 47.7194 90.2896C46.9871 91.2704 46.3112 92.325 45.6897 93.4428C44.3759 95.806 43.3602 98.3395 42.6062 100.873C42.3423 101.76 42.1301 102.583 41.9649 103.322L41.9314 103.473C41.892 103.654 41.8579 103.818 41.8289 103.966L41.8102 104.063L41.7768 104.245C41.7584 104.355 41.6547 104.428 41.5452 104.41C41.4357 104.392 41.3618 104.288 41.3803 104.178L41.3917 104.114C41.4012 104.061 41.4127 104 41.4264 103.929L41.4596 103.762C41.492 103.602 41.5295 103.426 41.5725 103.234L41.609 103.073C41.7706 102.368 41.9732 101.591 42.2208 100.759C42.9825 98.1986 44.009 95.6384 45.3383 93.2474C45.9682 92.1144 46.6537 91.0447 47.3971 90.049Z" fill="#242F57"/>
<path d="M50.9107 64.9637C50.9877 65.0375 50.9933 65.1577 50.9256 65.2381L50.9168 65.248C50.9128 65.2521 50.9043 65.2611 50.8914 65.275L50.842 65.329L50.8133 65.3609C50.7267 65.4573 50.6261 65.5735 50.5126 65.7094C50.187 66.0988 49.8237 66.5675 49.4322 67.1157C48.3117 68.6844 47.1905 70.5738 46.1436 72.7858C44.4006 76.4687 43.0431 80.6691 42.2203 85.3913C41.2213 91.1253 41.0558 97.3893 41.8736 104.188C41.8869 104.298 41.8082 104.398 41.698 104.411C41.5877 104.425 41.4876 104.346 41.4743 104.236C40.6519 97.3983 40.8184 91.0949 41.8242 85.3222C42.6532 80.5637 44.0219 76.3287 45.7802 72.6138C46.8375 70.3796 47.9709 68.4697 49.105 66.882L49.1928 66.7596C49.5425 66.2754 49.8694 65.8542 50.167 65.4959L50.204 65.4515C50.3109 65.3236 50.4069 65.2124 50.4912 65.1178L50.5139 65.0924C50.5402 65.063 50.5638 65.0371 50.5845 65.0146L50.6264 64.9698C50.7033 64.8896 50.8306 64.8869 50.9107 64.9637Z" fill="#242F57"/>
<path d="M33.5069 76.8871C33.6019 76.8296 33.7255 76.8599 33.7831 76.9549L33.8033 76.9888C33.8193 77.016 33.8382 77.0484 33.8599 77.0861L33.8914 77.1412C33.9454 77.236 34.006 77.345 34.0727 77.4678L34.128 77.5702C34.3325 77.9509 34.5566 78.3914 34.7959 78.8904L34.8286 78.9588C35.6091 80.594 36.3892 82.5062 37.1171 84.6791C39.1553 90.7632 40.3952 97.6686 40.4416 105.271C40.4423 105.382 40.3528 105.472 40.2418 105.473C40.1307 105.474 40.0402 105.384 40.0395 105.273C39.9934 97.7156 38.761 90.852 36.7358 84.8068C36.0264 82.6891 35.2674 80.8219 34.5079 79.2207L34.4657 79.132C34.2061 78.588 33.9644 78.1134 33.7465 77.7099L33.6808 77.5892C33.6179 77.4743 33.5612 77.3733 33.5113 77.2865L33.4876 77.2455L33.4392 77.1633C33.3816 77.0683 33.4119 76.9447 33.5069 76.8871Z" fill="#242F57"/>
<path fill-rule="evenodd" clip-rule="evenodd" d="M48.9815 115.245H31.6017C30.6622 115.245 29.8936 114.477 29.8936 113.537V100.858C29.8936 99.9185 30.6622 99.1499 31.6017 99.1499H48.9815C49.9209 99.1499 50.6897 99.9185 50.6897 100.858V113.537C50.6897 114.477 49.9209 115.245 48.9815 115.245Z" fill="#242F57"/>
<path d="M35.2255 11.9972H27.3603C26.1873 11.9972 25.2363 12.9481 25.2363 14.1212L25.2363 21.9864C25.2363 23.1594 26.1873 24.1103 27.3603 24.1103H35.2255C36.3985 24.1103 37.3495 23.1594 37.3495 21.9864V14.1212C37.3495 12.9481 36.3985 11.9972 35.2255 11.9972Z" fill="#0062FF"/>
<path d="M40.7008 48.071H39.141C37.968 48.071 37.0171 49.0219 37.0171 50.195L37.0171 51.7547C37.0171 52.9278 37.968 53.8787 39.141 53.8787H40.7008C41.8738 53.8787 42.8248 52.9278 42.8248 51.7547V50.195C42.8248 49.0219 41.8738 48.071 40.7008 48.071Z" fill="#0062FF"/>
<defs>
<clipPath id="clip0">
<rect x="17.7529" y="1.72607" width="112.835" height="107.923" rx="53.9615" fill="white"/>
</clipPath>
</defs>
</svg>
