<svg width="162" height="138" viewBox="0 0 162 138" fill="none" xmlns="http://www.w3.org/2000/svg">
<path fill-rule="evenodd" clip-rule="evenodd" d="M44.4741 83.5967L59 69.3031L43.5181 54L28 69.269L42.4936 83.5944C43.0405 84.1344 43.9273 84.1352 44.4741 83.5967Z" fill="#FC5A5A"/>
<path fill-rule="evenodd" clip-rule="evenodd" d="M75.2794 21.0001C49.3677 21.3617 28.4114 42.7301 28.0001 69.2088C27.994 69.6126 28.3187 69.9468 28.7146 69.9468L75.2396 70C75.6301 70 75.9479 69.6768 75.9479 69.2769L76 21.7318C76 21.3273 75.6753 20.9947 75.2794 21.0001Z" fill="#FFC542"/>
<path fill-rule="evenodd" clip-rule="evenodd" d="M117.764 32.8376C112.303 26.9048 105.128 23.5917 97.8803 23.0015C97.6014 22.9792 97.3609 23.2044 97.3571 23.4867L97 52.0168C96.9985 52.1418 97.0445 52.2629 97.1288 52.354L116.911 73.8427C117.095 74.0425 117.41 74.0541 117.605 73.8651C128.716 63.1126 128.826 44.8537 117.764 32.8376Z" fill="#FC5A5A"/>
<path fill-rule="evenodd" clip-rule="evenodd" d="M88 136L121.966 92.1816C122.24 91.8282 122.796 92.0249 122.798 92.4763L123 135.513C123.001 135.778 122.792 135.994 122.533 135.994L88 136Z" fill="#696974"/>
<g clip-path="url(#clip0)">
<path fill-rule="evenodd" clip-rule="evenodd" d="M85.1035 126.542C85.1035 126.542 91.3031 108.895 98.7448 117.969C106.518 140.702 113.189 187.204 117.793 210.156C114.057 211.951 108.154 211.279 108.154 211.279C108.154 211.279 87.5711 140.833 85.1035 126.542Z" fill="#696974"/>
<path fill-rule="evenodd" clip-rule="evenodd" d="M85.7178 128.24C85.7178 128.24 84.0856 128.555 82.4915 127.905C78.2752 126.189 70.5076 122.044 69.492 120.204C69.0061 116.032 70.5855 105.797 72.0463 105.787C74.8508 105.768 84.3416 107.565 88.2922 106.786C91.3656 106.18 95.2429 105.438 95.2429 105.438C95.2429 105.438 96.3125 107.231 97.0821 108.914C98.9485 112.994 98.8651 118.324 98.8651 118.324C98.8651 118.324 87.7953 128.689 85.7178 128.24Z" fill="#696974"/>
<path fill-rule="evenodd" clip-rule="evenodd" d="M70.6613 98.4925C70.6613 98.4925 63.6595 77.3486 66.0433 65.7601C70.2742 63.3638 73.9274 60.5531 82.5212 60.0858C92.1997 59.56 101.43 65.2482 101.43 65.2482L100.139 82.662L95.4658 96.7343C95.4658 96.7343 99.8555 102.634 91.1037 103.925C85.0077 104.825 75.6434 105.672 71.7552 103.46C70.0614 102.496 69.8523 100.69 70.6613 98.4925Z" fill="#92929D"/>
<path fill-rule="evenodd" clip-rule="evenodd" d="M65.9273 65.9977C65.9273 65.9977 58.0998 77.3746 53.951 91.7295C52.7059 96.0372 57.1911 99.0548 61.1748 97.1771C65.1586 95.2998 74.274 73.9224 74.8107 71.6245C75.8576 67.1431 70.2085 62.575 65.9273 65.9977Z" fill="#92929D"/>
<path fill-rule="evenodd" clip-rule="evenodd" d="M77.7827 59.6628L78.0873 53.2957L87.7109 50.2625L88.7298 59.2443C88.7298 59.2443 84.0367 70.2304 77.7827 59.6628Z" fill="#997C79"/>
<path fill-rule="evenodd" clip-rule="evenodd" d="M91.1402 45.7654C90.0346 53.0634 84.9775 56.3355 80.1449 56.5613C74.3836 56.8305 73.1125 51.8524 73.4594 44.6465C73.8117 37.3292 76.9496 34.8445 82.3662 34.6935C88.0127 34.5362 92.26 38.3732 91.1402 45.7654Z" fill="#997C79"/>
<path fill-rule="evenodd" clip-rule="evenodd" d="M87.1559 46.826C87.326 46.2565 87.4906 45.3017 88.4022 44.9231C89.657 44.4015 90.7605 45.8275 90.5803 47.3565C90.3617 49.2093 88.7303 50.3295 87.8082 50.3354C87.8983 52.1508 88.0373 53.1149 88.0373 53.1149C88.0373 53.1149 90.0722 51.1051 91.2046 47.9731C92.9713 43.0862 91.8787 36.2429 86.4089 34.6714C77.862 32.477 74.6797 38.8933 74.6797 38.8933L85.2731 38.7499L85.0008 42.3047C85.0008 42.3047 86.889 42.4107 86.5036 46.6178L87.1559 46.826Z" fill="#604346"/>
<path d="M79.4084 42.9598L82.7017 43.033L82.759 43.0423L83.8156 43.3704C83.9261 43.4047 83.988 43.5225 83.9538 43.6335C83.9224 43.7352 83.8213 43.7959 83.7195 43.7789L83.6918 43.7723L82.6626 43.4529L79.3991 43.3803C79.2931 43.378 79.2072 43.2969 79.1956 43.194L79.1943 43.1654C79.1967 43.059 79.2774 42.9727 79.3799 42.9611L79.4084 42.9598Z" fill="#604346"/>
<path fill-rule="evenodd" clip-rule="evenodd" d="M84.3224 52.4505C83.1091 50.7259 83.2172 49.1855 78.2045 49.2776C75.7658 49.3222 74.9074 50.1282 74.0352 52.0879C74.7038 55.1038 77.1584 57.0051 80.4149 56.7523C87.2562 56.2214 87.5658 49.35 87.5658 49.35C87.5658 49.35 86.6014 49.5977 86.2901 50.113C85.4301 51.5377 84.8691 51.8944 84.3224 52.4505Z" fill="#7C5B4D"/>
<path fill-rule="evenodd" clip-rule="evenodd" d="M76.5039 50.7034C76.5039 50.7034 78.2744 50.8102 80.9854 50.5558C80.9854 50.5558 80.5878 51.6835 78.6338 51.6961C77.1005 51.7062 76.5039 50.7034 76.5039 50.7034Z" fill="white"/>
<path d="M80.9704 50.3988C79.356 50.5504 77.9733 50.5885 76.907 50.5608L76.5815 50.5496C76.5526 50.5483 76.5298 50.5471 76.513 50.5461C76.387 50.5385 76.304 50.6756 76.3687 50.7844C76.4526 50.9254 76.6241 51.1273 76.8956 51.3271C77.3487 51.6607 77.9261 51.8586 78.6345 51.8539C79.5202 51.8482 80.1774 51.6233 80.6355 51.2484C80.921 51.0147 81.0739 50.7766 81.1331 50.6085C81.1714 50.4999 81.0847 50.3881 80.9704 50.3988ZM80.6942 50.7402L80.6859 50.7516C80.6188 50.8374 80.5364 50.9224 80.4369 51.0038C80.0358 51.3321 79.4483 51.5332 78.6325 51.5385C77.9934 51.5427 77.4814 51.3671 77.0813 51.0727L77.0018 51.0113C76.9506 50.9699 76.9032 50.9276 76.8594 50.8849L76.8492 50.8745L77.0349 50.8793C77.9554 50.898 79.0935 50.8691 80.4004 50.765L80.6942 50.7402Z" fill="#604346"/>
<path d="M76.7892 42.9904C76.8646 42.9697 76.9421 43.0077 76.9735 43.0768L76.9822 43.1009L77.3044 44.2833C77.3087 44.2989 77.3105 44.3151 77.3099 44.3312L77.3071 44.3552L76.4671 48.6754C76.429 48.8721 76.5675 49.0563 76.761 49.0781L76.7957 49.0802L79.4451 49.1113C79.5318 49.1124 79.6014 49.1838 79.6003 49.2709C79.5994 49.3493 79.5417 49.4137 79.4669 49.425L79.4414 49.4268L76.7921 49.3957C76.3994 49.3914 76.1027 49.043 76.1518 48.658L76.1587 48.615L76.9917 44.331L76.6792 43.1842C76.6586 43.1085 76.6964 43.0307 76.7652 42.9991L76.7892 42.9904Z" fill="#604346"/>
<path fill-rule="evenodd" clip-rule="evenodd" d="M77.6825 59.046L75.7964 61.4886L78.6125 66.6847L82.8895 62.3341L77.6825 59.046Z" fill="#92929D"/>
<path fill-rule="evenodd" clip-rule="evenodd" d="M82.8892 62.3338L88.7272 58.8329L90.7205 61.1594L86.8494 66.2907L82.8892 62.3338Z" fill="#92929D"/>
<path fill-rule="evenodd" clip-rule="evenodd" d="M79.6279 65.7454L82.8911 62.3682L86.1974 65.7618L84.3155 69.489L81.0314 69.4672L79.6279 65.7454Z" fill="#242F57"/>
<path fill-rule="evenodd" clip-rule="evenodd" d="M81.0897 69.4076L84.3336 69.3866L87.451 92.3902C87.4774 92.5874 87.4271 92.7872 87.3102 92.9479L82.799 99.1363C82.4748 99.5813 81.8028 99.5489 81.5221 99.0744L77.7218 92.6438C77.6313 92.4907 77.5966 92.3111 77.6238 92.1348L81.0897 69.4076Z" fill="#242F57"/>
<path fill-rule="evenodd" clip-rule="evenodd" d="M71.5181 103.225L71.5365 106.067C71.5365 106.067 74.8466 107.229 82.7512 107.415C90.3564 107.593 95.3602 105.437 95.3602 105.437L95.1533 102.446C95.1533 102.446 85.5733 105.975 71.5181 103.225Z" fill="#171725"/>
<path fill-rule="evenodd" clip-rule="evenodd" d="M69.482 118.815C69.482 118.815 79.6168 117.988 83.572 123.518C84.3085 130.456 83.7346 142.289 83.1472 157.987C82.5934 172.806 79.1266 209.811 79.1266 209.811C79.1266 209.811 74.4172 211.263 69.6061 209.081C70.4846 202.364 69.3513 169.736 68.821 159.093C68.291 148.449 69.482 118.815 69.482 118.815Z" fill="#696974"/>
<path d="M66.6051 69.9989C66.7207 70.0025 66.8116 70.0995 66.8081 70.2156C66.7468 72.2336 66.8149 74.428 67 76.7717C67.2984 80.5491 67.8874 84.5842 68.6817 88.6937C69.0707 90.7058 69.4856 92.6153 69.9022 94.3699L70.0775 95.0987C70.153 95.4083 70.2255 95.7003 70.2945 95.9737L70.4416 96.5482L70.5775 97.0618C70.6081 97.1738 70.5425 97.2895 70.431 97.3203C70.3194 97.351 70.2041 97.2852 70.1735 97.1732L70.0095 96.5512L69.9297 96.2398C69.8209 95.8124 69.7032 95.337 69.5783 94.8174C69.1324 92.9622 68.6866 90.9266 68.2704 88.7738C67.4733 84.6499 66.8821 80.5997 66.5824 76.805C66.3961 74.4468 66.3275 72.2372 66.3893 70.2028C66.3928 70.0867 66.4894 69.9954 66.6051 69.9989Z" fill="#0062FF"/>
<path d="M78.1084 52.8671L79.3761 52.8877C79.4629 52.8891 79.5321 52.9608 79.5306 53.0479C79.5294 53.1263 79.4714 53.1905 79.3965 53.2015L79.371 53.2031L78.1033 53.1825C78.0165 53.1811 77.9473 53.1093 77.9488 53.0222C77.95 52.9438 78.008 52.8797 78.0829 52.8687L78.1084 52.8671Z" fill="#604346"/>
<path d="M90.554 61.0326C90.6238 60.94 90.7552 60.9218 90.8474 60.992C90.9313 61.0557 90.9539 61.1705 90.9048 61.2604L90.8879 61.2866L87.0169 66.4179C86.9468 66.5107 86.8169 66.5274 86.7264 66.4608L86.7027 66.4406L82.8904 62.6626L78.7405 66.732C78.6486 66.8222 78.5006 66.8077 78.4265 66.7077L78.4107 66.6831L75.613 61.5901C75.5571 61.4884 75.594 61.3605 75.6953 61.3044C75.7881 61.253 75.9029 61.2797 75.9644 61.3629L75.9798 61.387L78.6446 66.2379L82.7449 62.2176C82.8192 62.1448 82.9338 62.1385 83.0151 62.1984L83.0384 62.2184L86.8269 65.9726L90.554 61.0326Z" fill="#0062FF"/>
<path d="M83.8612 69.2847C83.919 69.2843 83.9662 69.3311 83.9666 69.3892C83.9669 69.44 83.9313 69.4826 83.8836 69.4927L83.8625 69.495L81.0908 69.5131C81.0329 69.5135 80.9857 69.4667 80.9854 69.4086C80.985 69.3578 81.0207 69.3152 81.0683 69.3051L81.0894 69.3028L83.8612 69.2847Z" fill="#0062FF"/>
<path fill-rule="evenodd" clip-rule="evenodd" d="M78.7529 106.919L78.6779 104.856C78.657 104.274 79.1095 103.798 79.6637 103.822C80.9926 103.878 83.3395 103.938 85.0375 103.758C85.5926 103.699 86.0727 104.159 86.0765 104.744L86.0903 106.854C86.0933 107.347 85.7535 107.766 85.2893 107.846C84.1862 108.035 82.0576 108.268 79.5678 107.871C79.1145 107.799 78.7705 107.4 78.7529 106.919Z" fill="#F1F1F5"/>
<path fill-rule="evenodd" clip-rule="evenodd" d="M79.6019 106.631L79.545 105.171C79.529 104.76 79.8784 104.422 80.3062 104.439C81.3309 104.478 83.142 104.52 84.4517 104.392C84.8802 104.35 85.2502 104.675 85.2531 105.089L85.2627 106.582C85.2652 106.931 85.0026 107.227 84.6444 107.284C83.7935 107.417 82.1508 107.584 80.2304 107.304C79.8805 107.253 79.6153 106.971 79.6019 106.631Z" fill="#171725"/>
<path d="M73.8832 42.8566L76.6788 42.9336C76.7945 42.9368 76.8856 43.0335 76.8825 43.1496C76.8796 43.256 76.7984 43.3418 76.6958 43.3529L76.6673 43.354L73.8717 43.2771C73.7561 43.2739 73.6649 43.1772 73.668 43.0611C73.671 42.9546 73.7521 42.8688 73.8547 42.8577L73.8832 42.8566Z" fill="#604346"/>
<path d="M84.1475 55.5115C84.2229 55.4684 84.3188 55.4948 84.3618 55.5705C84.4047 55.6462 84.3784 55.7425 84.303 55.7857C82.3126 56.9241 80.2984 57.1409 78.5473 56.8302C78.3991 56.8039 78.2676 56.7756 78.1542 56.7473L78.0526 56.7205C78.0351 56.7156 78.0211 56.7114 78.0106 56.7081C77.9278 56.6821 77.8817 56.5936 77.9076 56.5105C77.9335 56.4273 78.0216 56.381 78.1044 56.4071L78.1646 56.4242C78.1831 56.4292 78.205 56.4349 78.2301 56.4412C78.3366 56.4678 78.461 56.4945 78.602 56.5195C80.2864 56.8184 82.228 56.6094 84.1475 55.5115Z" fill="#604346"/>
<path d="M88.4544 45.8143C88.6918 45.6908 88.9394 45.6667 89.1608 45.6985L89.2143 45.7077C89.2214 45.7092 89.2274 45.7106 89.2325 45.7119C89.3166 45.7331 89.3677 45.8188 89.3466 45.9033C89.3276 45.9793 89.2565 46.0285 89.1812 46.0221L89.1163 46.0108C88.9541 45.9875 88.77 46.0054 88.599 46.0944C88.305 46.2474 88.1014 46.5856 88.0374 47.1762L88.0345 47.205L88.0801 47.2162C88.48 47.3192 88.7212 47.5422 88.7766 47.8468L88.7835 47.8931C88.8204 48.2078 88.6517 48.5556 88.3701 48.7943C88.3039 48.8505 88.2047 48.8422 88.1487 48.7756C88.0928 48.7091 88.1011 48.6095 88.1674 48.5533C88.3741 48.378 88.4948 48.1292 88.4714 47.93C88.4458 47.7123 88.251 47.5504 87.8437 47.4902C87.763 47.4782 87.7048 47.4063 87.7098 47.3246C87.7578 46.5261 88.027 46.0368 88.4544 45.8143Z" fill="#604346"/>
<path fill-rule="evenodd" clip-rule="evenodd" d="M111.452 132.381L92.5856 134.475C91.7808 134.565 91.0661 133.96 91.0175 133.149L89.7858 112.622C89.7372 111.806 90.3811 111.118 91.1943 111.115L109.467 111.059C110.415 111.056 111.211 111.776 111.306 112.724L113.084 130.355C113.185 131.365 112.457 132.27 111.452 132.381Z" fill="#FF974A"/>
<path fill-rule="evenodd" clip-rule="evenodd" d="M90.654 111.114L90.7956 111.113C91.2803 111.109 91.682 111.489 91.7084 111.975L92.8656 133.635C92.8928 134.139 92.5065 134.57 92.0046 134.595C91.5069 134.62 91.0821 134.238 91.0524 133.739L89.7536 112.08C89.7222 111.558 90.1336 111.117 90.654 111.114Z" fill="#FF974A"/>
<path d="M111.604 118.095C111.662 118.095 111.709 118.142 111.709 118.2C111.709 118.251 111.673 118.293 111.625 118.303L111.604 118.305L92.1417 118.355L90.4374 118.366C90.3796 118.366 90.3324 118.319 90.332 118.261C90.3317 118.21 90.3673 118.168 90.415 118.158L90.4361 118.155L92.1408 118.145L111.604 118.095Z" fill="#FF974A"/>
<path fill-rule="evenodd" clip-rule="evenodd" d="M109.224 133.579C108.679 134.53 108.128 134.375 107.421 134.538C106.714 134.7 105.856 135.732 105.856 135.732C104.015 136.81 104.468 133.847 104.112 133.612C103.935 133.495 103.837 134.388 103.099 134.961C102.36 135.534 101.565 135.232 101.76 134.733C102.225 133.545 103.124 130.646 103.297 129.116C103.52 127.141 104.648 125.318 104.648 125.318C106.014 122.531 110.42 124.017 110.42 124.017C110.42 124.017 111.734 132.614 110.714 132.937C110.714 132.937 109.452 133.179 109.224 133.579Z" fill="#997C79"/>
<path fill-rule="evenodd" clip-rule="evenodd" d="M96.2282 77.3138C96.2282 77.3138 93.8188 67.7848 100.408 65.2547C105.626 63.2517 113.003 85.7059 113.104 101.339C113.17 111.522 111.255 125.512 111.255 125.512C111.255 125.512 106.671 126.567 103.587 125.044C103.975 118.133 103.385 103.177 102.431 98.2458C101.477 93.3143 96.2282 77.3138 96.2282 77.3138Z" fill="#92929D"/>
<path d="M96.4169 78.9392C96.5168 78.9033 96.6258 78.9483 96.6733 79.0402L96.6846 79.0665L99.2075 86.1562C99.2464 86.2656 99.1897 86.386 99.0807 86.425C98.9809 86.4609 98.8718 86.416 98.8244 86.324L98.813 86.2977L96.2901 79.208C96.2512 79.0986 96.3079 78.9782 96.4169 78.9392Z" fill="#0062FF"/>
<path d="M100.586 65.2884C100.697 65.255 100.814 65.3182 100.847 65.4294C100.88 65.5407 100.818 65.6579 100.707 65.6913C98.8525 66.2493 97.5046 67.8379 96.5899 70.1498C96.1794 71.1873 95.8848 72.3011 95.6875 73.4152C95.6282 73.7496 95.5816 74.0634 95.5461 74.3507L95.5292 74.4921C95.5195 74.577 95.5113 74.6548 95.5045 74.7247L95.4898 74.8956C95.4819 75.0115 95.382 75.099 95.2665 75.0911C95.1511 75.0832 95.0639 74.9829 95.0718 74.867L95.081 74.7544L95.095 74.6093C95.0977 74.5834 95.1005 74.5567 95.1035 74.5291L95.113 74.4439C95.1512 74.1111 95.2043 73.7405 95.275 73.3416C95.4769 72.2014 95.7786 71.061 96.2006 69.9945C97.1579 67.5748 98.5875 65.89 100.586 65.2884Z" fill="#0062FF"/>
<path d="M103.412 124.929C103.475 124.832 103.605 124.805 103.702 124.868C104.387 125.316 105.529 125.563 106.994 125.636C108.018 125.687 109.119 125.65 110.192 125.557L110.441 125.535C110.521 125.527 110.599 125.519 110.674 125.511L110.988 125.477C111.061 125.468 111.115 125.461 111.147 125.457C111.262 125.441 111.367 125.522 111.383 125.637C111.398 125.752 111.318 125.858 111.203 125.873L111.037 125.894L110.938 125.906C110.727 125.93 110.488 125.954 110.228 125.976C109.137 126.07 108.019 126.108 106.973 126.056C105.44 125.979 104.236 125.719 103.474 125.22C103.377 125.157 103.349 125.027 103.412 124.929Z" fill="#0062FF"/>
<path d="M104.662 121.869L104.91 121.905L105.069 121.927C105.39 121.971 105.741 122.014 106.109 122.055C106.719 122.123 107.314 122.176 107.873 122.208L108.145 122.222C109.037 122.263 109.76 122.242 110.255 122.149C110.369 122.127 110.479 122.202 110.5 122.316C110.521 122.43 110.447 122.54 110.333 122.562C109.747 122.673 108.898 122.688 107.849 122.628C107.282 122.595 106.679 122.542 106.063 122.473L105.697 122.431C105.518 122.41 105.344 122.388 105.178 122.366L104.851 122.321L104.599 122.284C104.484 122.267 104.406 122.159 104.423 122.045C104.439 121.939 104.531 121.864 104.634 121.866L104.662 121.869Z" fill="#0062FF"/>
<path fill-rule="evenodd" clip-rule="evenodd" d="M110.012 123.936C110.015 124.298 109.724 124.593 109.364 124.595C109.004 124.598 108.71 124.306 108.708 123.944C108.706 123.583 108.995 123.288 109.356 123.285C109.716 123.283 110.01 123.574 110.012 123.936Z" fill="white"/>
<path d="M78.1395 127.413L85.7345 128.03C85.8498 128.04 85.9358 128.141 85.9264 128.257C85.9179 128.363 85.8323 128.444 85.7292 128.45L85.7007 128.449L78.1057 127.832C77.9904 127.823 77.9044 127.722 77.9138 127.606C77.9223 127.5 78.0079 127.418 78.111 127.413L78.1395 127.413Z" fill="#171725"/>
<path d="M81.9518 44.9771C82.0675 44.9764 82.1618 45.07 82.1626 45.1862C82.1662 45.79 81.6992 46.2862 81.1148 46.2899C80.5301 46.2936 80.0569 45.8037 80.0527 45.1998C80.0519 45.0837 80.1451 44.9889 80.2608 44.9881C80.3765 44.9873 80.4709 45.0808 80.4717 45.1969C80.4743 45.5726 80.7629 45.8715 81.1122 45.8693C81.461 45.8671 81.7459 45.5643 81.7436 45.1887C81.7429 45.0726 81.8361 44.9778 81.9518 44.9771Z" fill="#604346"/>
<path d="M76.1123 45.0153C76.228 45.0145 76.3225 45.108 76.3233 45.2242C76.3274 45.8279 75.8601 46.3244 75.2755 46.3281C74.6911 46.3318 74.218 45.8417 74.2139 45.238C74.2131 45.1218 74.3062 45.027 74.4219 45.0262C74.5376 45.0254 74.632 45.1189 74.6328 45.2351C74.6354 45.6107 74.924 45.9097 75.2729 45.9075C75.6218 45.9053 75.9069 45.6024 75.9043 45.2271C75.9035 45.1109 75.9967 45.0161 76.1123 45.0153Z" fill="#604346"/>
<path fill-rule="evenodd" clip-rule="evenodd" d="M73.2456 78.9382C73.2456 78.9382 78.8775 72.0811 80.2776 71.944C82.0066 71.7749 83.8818 71.7883 84.6154 71.8687C84.8429 71.8935 85.0272 72.0626 85.0741 72.2872L85.7645 75.5795C85.8433 75.956 85.7599 76.3488 85.5341 76.6597L83.5429 79.0829C83.4436 79.2045 83.3217 79.3054 83.1838 79.3803L76.2239 83.1778C76.2239 83.1778 73.3734 80.5854 73.2456 78.9382Z" fill="#997C79"/>
<path d="M85.1467 72.9396C85.2331 72.9316 85.3095 72.9955 85.3175 73.0823C85.3246 73.1604 85.2738 73.2304 85.2005 73.2494L85.1753 73.2538L81.4815 73.5936C81.3951 73.6016 81.3186 73.5377 81.3107 73.4509C81.3036 73.3729 81.3544 73.3029 81.4276 73.2839L81.4528 73.2795L85.1467 72.9396Z" fill="#604346"/>
<path d="M85.1879 74.0554C85.2683 74.0225 85.3599 74.0613 85.3927 74.142C85.4222 74.2146 85.3939 74.2964 85.3293 74.336L85.3065 74.3476L82.5612 75.4711C82.4808 75.504 82.3891 75.4652 82.3564 75.3845C82.3269 75.3119 82.3552 75.2301 82.4198 75.1905L82.4426 75.1789L85.1879 74.0554Z" fill="#604346"/>
<path d="M85.3036 75.0319C85.3675 74.9729 85.4669 74.977 85.5256 75.0411C85.5779 75.0981 85.5805 75.1832 85.5356 75.2429L85.5165 75.264L83.7967 76.8544C83.7329 76.9134 83.6335 76.9093 83.5748 76.8452C83.5225 76.7883 83.5199 76.7031 83.5648 76.6434L83.5839 76.6223L85.3036 75.0319Z" fill="#604346"/>
<path fill-rule="evenodd" clip-rule="evenodd" d="M55.4227 89.4181L73.4801 78.3399L76.8179 83.7661C76.8179 83.7661 64.1741 96.9449 59.5716 98.2098C54.969 99.4742 51.3045 94.2285 55.4227 89.4181Z" fill="#92929D"/>
<path d="M73.5203 78.203L73.5386 78.2277L76.9945 83.653C77.0474 83.7361 77.0358 83.8449 76.9664 83.9147L76.417 84.4624L75.8541 85.0176C75.5259 85.3399 75.1759 85.6814 74.8066 86.0389L74.6204 86.219C72.832 87.9467 70.9845 89.6744 69.1774 91.2872C68.649 91.7588 68.1309 92.2143 67.6245 92.652L67.3222 92.9125C63.9919 95.7713 61.3558 97.6985 59.6516 98.404C59.5446 98.4483 59.4222 98.3971 59.3781 98.2897C59.334 98.1823 59.3849 98.0594 59.4919 98.0151C61.1146 97.3433 63.6694 95.4839 66.891 92.729L67.0499 92.5928C67.6497 92.0779 68.2669 91.5369 68.899 90.9728C70.5214 89.5249 72.1769 87.9836 73.7929 86.433L74.3299 85.9159C74.7048 85.5538 75.0609 85.2073 75.3955 84.8794L76.3631 83.9243L76.5507 83.7368L73.2963 78.6281L70.8541 80.133C69.3816 81.041 67.9092 81.9502 66.4921 82.8268L61.425 85.9698C59.8739 86.9359 58.6588 87.6979 57.8485 88.2137C57.7508 88.2759 57.6214 88.2469 57.5595 88.1488C57.4975 88.0507 57.5265 87.9207 57.6242 87.8585L58.9284 87.0348C59.404 86.7361 59.9431 86.3988 60.5408 86.0259L64.8754 83.3332L68.19 81.2834L73.2527 78.1617C73.3412 78.1072 73.4543 78.1265 73.5203 78.203Z" fill="#0062FF"/>
<path fill-rule="evenodd" clip-rule="evenodd" d="M75.2504 83.3655C75.2529 83.7272 74.9626 84.0225 74.6023 84.0246C74.2424 84.0271 73.9483 83.7356 73.9458 83.3739C73.9437 83.0121 74.2336 82.7173 74.5939 82.7147C74.9542 82.7126 75.2479 83.0037 75.2504 83.3655Z" fill="white"/>
<path d="M71.1527 81.2527C71.2441 81.1987 71.3596 81.2224 71.4234 81.3038L71.4394 81.3275L74.0637 85.811C74.1223 85.9111 74.089 86.04 73.9892 86.0989C73.8978 86.1528 73.7823 86.1292 73.7185 86.0477L73.7025 86.0241L71.0782 81.5406C71.0196 81.4404 71.053 81.3115 71.1527 81.2527Z" fill="#0062FF"/>
</g>
<path fill-rule="evenodd" clip-rule="evenodd" d="M40.0699 90.7064C42.6795 90.7064 44.7949 88.45 44.7949 85.6664V85.6536C44.7949 82.8701 42.6795 80.6136 40.0699 80.6136H33.102C32.8417 80.6136 32.5863 80.636 32.3374 80.6792L30.9875 79.2883C30.9508 79.2505 30.9017 79.2294 30.8507 79.2294C30.742 79.2294 30.6538 79.3234 30.6538 79.4394L30.6537 81.342C29.2888 82.2257 28.377 83.8261 28.377 85.6536V85.6664C28.377 88.45 30.4924 90.7064 33.102 90.7064H40.0699Z" fill="#242F57"/>
<path d="M38.9243 102.782H48.8735C52.6015 102.782 55.6235 99.558 55.6235 95.5815C55.6235 91.6051 52.6015 88.3815 48.8735 88.3815H38.9243C35.1964 88.3815 32.1743 91.6051 32.1743 95.5815C32.1743 99.558 35.1964 102.782 38.9243 102.782Z" fill="#0062FF"/>
<path fill-rule="evenodd" clip-rule="evenodd" d="M52.3711 90.4757V86.7064C52.3711 86.5407 52.2452 86.4064 52.0898 86.4064C52.017 86.4064 51.947 86.4366 51.8946 86.4905L49.2978 89.1631L52.3711 90.4757Z" fill="#0062FF"/>
<path d="M48.416 94.6815C47.8141 94.6815 47.3262 95.2019 47.3262 95.844C47.3262 96.486 47.8141 97.0065 48.416 97.0065C49.0179 97.0065 49.5059 96.486 49.5059 95.844C49.5059 95.2019 49.0179 94.6815 48.416 94.6815Z" fill="white"/>
<path d="M43.9517 94.6815C43.3498 94.6815 42.8618 95.2019 42.8618 95.844C42.8618 96.486 43.3498 97.0065 43.9517 97.0065C44.5536 97.0065 45.0415 96.486 45.0415 95.844C45.0415 95.2019 44.5536 94.6815 43.9517 94.6815Z" fill="white"/>
<path d="M39.3809 94.6815C38.779 94.6815 38.291 95.2019 38.291 95.844C38.291 96.486 38.779 97.0065 39.3809 97.0065C39.9828 97.0065 40.4707 96.486 40.4707 95.844C40.4707 95.2019 39.9828 94.6815 39.3809 94.6815Z" fill="white"/>
<path fill-rule="evenodd" clip-rule="evenodd" d="M123 136H46.4601C40.131 136 35 130.741 35 124.253V114.995C35 113.894 35.8728 113 36.9482 113H123V136Z" fill="#44444F"/>
<defs>
<clipPath id="clip0">
<rect width="143" height="145" fill="white" transform="translate(19 -15)"/>
</clipPath>
</defs>
</svg>
